<svg width="240" height="73" fill="none" xmlns="http://www.w3.org/2000/svg"><path fill-rule="evenodd" clip-rule="evenodd" d="M63.778 31.507v-13.17l-.029-.027c-4.756-4.106-24.112-12.268-33.26-3.984-11.153 10.098 7.748 24.607 22.591 29.97C42.996 40.004 28.601 31.02 35.746 24.77c5.918-4.222 22.982 1.709 28.01 6.716l.022.022zM26.791 30.702c-1.88.101-2.484.636-2.968 1.458-1.364 2.316-.43 5.104-.925 8.231-.174 1.105-.814 4.326-5.61 6.716-.669.332-2.016.712-3.462.37-1.19-.295-5.22-6.918-2.769-8.097 1.374-.405 6.365-.593 7.888-4.303.801-1.952 1.591-4.443 2.498-5.972.827-1.394 2.102-1.746 3.83-1.317.34.886.998 1.93 1.518 2.914z" fill="#fff"/><path fill-rule="evenodd" clip-rule="evenodd" d="M48.606 45.432c.629.298 1.38.598 2.142.887l2.207.819c.168.063.33.124.483.184-.49 2.036 1.078 3.775 3.414 5.576l.531.401.838.608 1.175.827 1.53 1.067.62.44.62.45.617.46.61.47c.91.714 1.79 1.468 2.59 2.275l.435.52.736.863.416.501c1.57 1.923 3.576 4.76 4.277 8.286l.117.634.038.262c.09.743-.007 1.46-1.02 1.67-.234.1-1.016.03-2.047-.195l-.536-.124a20.136 20.136 0 01-.28-.072l-.583-.163c-2.773-.815-6.234-2.425-6.608-4.598l-.004-.106.002-.74-.01-.418-.016-.313-.025-.34-.038-.367-.052-.39-.069-.412-.04-.214-.098-.443c-.485-2.038-1.635-4.647-4.35-7.23l-.21-.215-.437-.436-.687-.663-1.922-1.814-.48-.462-.471-.465-.46-.468c-2.11-2.184-3.697-4.428-2.955-6.552zm8.13 2.221c1.539.545 3.167 1.013 4.64 1.427.098 2.029 1.9 3.496 4.41 4.933l.616.345.64.345.661.347 2.437 1.256 1.08.57.725.395.724.408c1.325.761 2.635 1.6 3.843 2.56l.35.303 1.32 1.092.509.43.534.466c1.724 1.537 3.729 3.646 5.14 6.59l.278.63.106.262c.28.742.374 1.477-.548 1.784-.117.073-.405.127-.816.155l-.38.018c-.204.005-.427.005-.666-.001l-.497-.02c-.086-.005-.174-.01-.262-.017l-.546-.046-.57-.065a18.964 18.964 0 01-.292-.04l-.591-.095c-2.284-.406-4.693-1.29-5.41-2.95l-.065-.373-.064-.305-.09-.363-.12-.416-.1-.305-.116-.326-.135-.346-.154-.365-.175-.383-.198-.399-.221-.415-.247-.43c-1.038-1.744-2.716-3.81-5.432-5.884l-.604-.456-.533-.39-.549-.387-.845-.575-1.723-1.145-.571-.385-.562-.389-.551-.393-.535-.399c-2.28-1.744-4.015-3.686-3.845-6.253zM40.84 41.69l.43.282.948.607a63.71 63.71 0 002.889 1.73c-.898 1.899.093 3.711 1.812 5.67l.41.455.43.46.452.468.706.714 1.536 1.541c1.058 1.077 2.128 2.22 3.074 3.459l.553.747.666.865.254.344.263.374c1.24 1.814 2.632 4.608 2.218 8.715l-.064.515c-.125.84-.413 1.737-1.675 1.827-.081.012-.245-.014-.474-.074l-.305-.087-.36-.118-.41-.147-.451-.174a22.47 22.47 0 01-.24-.097l-.5-.212-.526-.236-.543-.257c-.367-.179-.741-.37-1.113-.574l-.556-.313c-2.115-1.23-4.018-2.8-3.966-4.302l.045-.146.42-1.098.102-.29.102-.31.097-.334.091-.354.042-.185.075-.384c.333-1.908.172-4.51-1.98-7.553a32.567 32.567 0 00-1.048-1.531l-1.296-1.783-.52-.734a41.375 41.375 0 01-.17-.246l-.328-.491c-1.554-2.376-2.562-4.754-1.09-6.743zm-6.675-4.278l1.608 1.398.711.606c.47.392.92.75 1.291 1.006-1.245.88-1.361 1.433-1.23 2.067l.052.215.162.586c.01.043.021.085.03.13.237 1.049.839 2.134 1.575 3.285l.509.779.533.8.543.824c.813 1.255 1.608 2.598 2.153 4.062l.098.216.455.94.148.321.148.342.145.365.14.385c.628 1.85.926 4.392-.785 7.472-.52.902-1.783 1.977-2.45 1.942-.133-.007-.354-.082-.64-.212l-.305-.15c-.055-.027-.11-.056-.168-.087l-.36-.2a16.456 16.456 0 01-.192-.112l-.403-.246-.424-.273-.441-.299-.453-.32a25.46 25.46 0 01-.229-.168l-.459-.349-.23-.18-.453-.373-.224-.19-.438-.39-.42-.398c-1.364-1.337-2.345-2.773-2.064-3.886.082-.127.21-.27.369-.434l.642-.646.345-.363.237-.266.236-.286c1.136-1.428 2.127-3.57.874-6.796a20.742 20.742 0 00-.615-1.952l-.558-1.515c-.56-1.523-1.077-3.056-1.1-4.452-.019-1.24.392-2.534 1.637-3.198zm-5.247-4.832c.218.268.469.609.734.977l.823 1.147c.277.382.551.748.804 1.057-1.304.553-1.628.952-1.767 1.523l-.043.21-.07.474c-.213 1.459.219 2.834.762 4.3l.42 1.12c.377 1.016.745 2.091.944 3.278l.036.233.034.279.03.322.024.36.014.395c.043 2.119-.405 5.445-3.077 7.436l-.294.218c-.646.471-1.37.916-2.663.992-.23.011-.634-.188-1.126-.534l-.305-.225-.322-.257-.335-.286c-.056-.05-.114-.1-.171-.153l-.347-.324a18.462 18.462 0 01-.175-.17l-.35-.357-.348-.373c-.172-.19-.342-.386-.507-.585l-.322-.402c-1.258-1.626-2.108-3.411-1.39-4.487.103-.087.238-.173.398-.26l.258-.133.29-.138.834-.381.55-.267.376-.2c1.572-.868 3.186-2.25 3.158-4.957l-.002-.608.013-1.292.013-.67.038-1.35.111-3.11c.06-1.633 1.197-2.61 2.95-2.802zm-5.706-9.509c-.013.274-.017.573-.018.884l.01 1.46v.49c-1.536-.277-2.2-.001-2.737.419l-.185.154-.274.244c-.801.718-1.199 1.48-1.536 2.323l-.22.575-.224.601c-.312.821-.697 1.72-1.396 2.722l-.525.708-.243.306-.194.227-.221.243a9.27 9.27 0 01-.122.126l-.267.26c-1.132 1.057-3.054 2.301-6.371 2.88-.732.127-2.155.116-3.37-.403-.235-.112-.456-.658-.632-1.395l-.1-.463a15.933 15.933 0 01-.239-1.807l-.03-.522c-.055-1.37.103-2.535.61-2.488l.984.025.672.001.502-.01.536-.024.566-.04c2.214-.187 4.929-.8 6.571-2.64l.467-.533 1.034-1.206.548-.627c.92-1.036 1.867-2.006 2.627-2.418l.113-.057.123-.052.139-.045.076-.02.17-.034.2-.026.234-.016.131-.004h.295l.342.01.396.023.704.058.551.057.303.034zm-.544-4.155l-.137.445-.277.948c-.097.326-.2.662-.313 1.004-1.946-.549-2.672-.44-3.419-.01l-.226.139c-.405.261-.795.606-1.215 1.02l-.37.37-1.027 1.06-.47.472a28.692 28.692 0 01-2.027 1.828l-.578.459-.29.212-.23.155a8.272 8.272 0 01-.26.163l-.29.167-.324.17c-1.307.647-3.369 1.268-6.524 1.115l-.635-.04-.49-.045c-.697-.076-1.542-.222-2.289-.548-.92-.47.264-5.652 1.53-5.38l.203.012.443.036 1.59.162.602.052c2.16.168 4.846.144 7.214-1.18l.324-.185.69-.406 1.48-.888.755-.44c.998-.57 1.956-1.057 2.676-1.237l.287-.069.173-.033.198-.028.227-.018c.605-.031 1.514.058 2.999.518zm.602-3.65c-.17.192-.328.393-.485.602l-.48.645c-.17.22-.35.445-.556.672-1.38-.431-2.166-.465-2.915-.354l-.345.06-.174.036c-.476.102-.963.317-1.51.605l-.422.23-1.445.817-.556.303-.6.312c-.624.316-1.322.639-2.114.954l-.63.24-.27.095-.318.102-.364.107c-.129.036-.265.071-.41.107l-.455.103c-1.516.316-3.724.522-6.626.08-.631-.097-1.678-.41-2.42-.92-.373-.315-.11-1.142.43-1.992l.214-.32.236-.315c.86-1.092 2.039-2.016 2.725-1.668l.191.043.416.104 1.215.32.553.136c1.9.446 4.384.794 7.132-.065l.713-.227 2.376-.784.599-.19c.477-.145.896-.261 1.228-.326l.254-.042.302-.033.28-.022.335-.018.38-.01c.134 0 .274 0 .419.004l.448.02c.845.055 1.801.214 2.65.588zM57.904 6.13c.246.029.647.158 1.112.35l.413.177c.212.095.431.2.65.31l.438.227c1.084.585 2.057 1.265 2.04 1.646-1.064.406-1.248.896-.04 2.534.09.122.19.249.295.378l.332.393 1.125 1.26c.086.098.161.187.223.263l.205.275.197.282.128.202c.37.617.578 1.317-.35 1.614-.558-.197-1.088-.501-1.624-.824l-.813-.488c-.138-.08-.278-.158-.42-.233.655-.319.515-1.139.292-1.39l-.527-.598-.288-.304-.225-.216-.276-.246-.347-.294-.537-.437-.41-.354-.349-.32-.388-.37c-.6-.59-1.259-1.31-1.67-1.968-.238-.38-.295-1.636.814-1.869zm-52.03 4.336l.65.219.746.258.548.184.29.093.605.183c1.77.513 3.984.93 6.488.59l.66-.086.69-.081.703-.077 1.037-.101.962-.082.57-.04.49-.027.393-.014.882-.005.444.004c1.081.025 2.438.188 3.336 1.023l-.489.4-1.122.894a36.95 36.95 0 00-.27.22l-.287-.105-.502-.174c-.612-.2-1.013-.283-1.378-.321l-.27-.02-.567-.019c-.65-.015-1.31.057-2.06.203l-.515.107-.548.128-.586.148-.961.256-2.292.625-.537.142-.234.05a6.928 6.928 0 01-.134.025l-.305.048-.17.022-.375.04-.422.033-.23.013-.493.018a22.12 22.12 0 01-.83.004l-.612-.016c-1.274-.048-2.835-.198-4.69-.52-.57-.1-1.656-.568-2.404-1.108-1.043-.841 2.283-3.532 3.79-3.134zM55.702 6.14a2.251 2.251 0 01-.249.182l-.19.117c-.105.07-.165.132-.17.262-.01.288.214.679.66 1.213l.293.338.345.374c.062.065.126.133.193.201.165.173.355.352.554.532l.409.361.807.695.353.314c.161.15.3.286.4.404l.132.169.404.426c.463.498 1.05 1.26.758 2.139-.627-.25-1.417-.655-2.2-1.083l-.773-.43a93.146 93.146 0 01-.373-.213c.312-.55.128-.857-.08-1.07l-.214-.2-.497-.495-.23-.222-.243-.219a10.349 10.349 0 00-.13-.112l-.29-.237a13.625 13.625 0 00-.165-.127l-.376-.28-.455-.323-.369-.252-.455-.297-.39-.262c-.764-.525-1.752-1.28-2.379-2.143l-.187-.279-.068-.117c-.186-.349-.462-1.096.195-1.857.111-.099.567.015 1.162.242l.414.166.442.193.456.213.456.227.442.232.416.233c.728.423 1.251.813 1.192.985zm-45.438.216l.378.188 1.187.634.43.221c1.323.661 2.981 1.291 5.55 1.385l1.075.026.328.012.997.051 1.287.086 1.577.11.514.022.618.01.407.019.454.034c1.1.104 2.463.392 3.267 1.21a8.035 8.035 0 01-.452.239l-.563.272-.599.285c-.295.142-.576.283-.798.409-.931-.494-1.486-.7-1.97-.816l-.285-.06-.428-.07-.15-.024c-.303-.047-.6-.07-.905-.074l-.372.002-.191.007-.396.023-.42.034-1.74.165-.921.074-.687.045-.751.037-1.615.054-.372.008h-.65l-.488-.012-.528-.024a23.306 23.306 0 01-.278-.017l-.581-.048a19.99 19.99 0 01-4.386-.904c-.531-.176-1.665-.915-2.28-1.495-.36-.5 1.03-1.335 2.431-1.82l.4-.128c.793-.235 1.536-.334 1.906-.17zm38.39-2.764l.003.515.014.291c.056.775.295 1.16 1.286 1.971l.382.305.216.168c.2.155.424.314.658.473l.477.317.938.607.413.276c.19.132.354.253.477.36l.174.161.418.331c.553.44 1.32 1.144 1.222 2.085a25.44 25.44 0 01-3.256-1.116c.169-.532-.086-.896-.354-1.138l-.158-.13-.201-.148a7.045 7.045 0 00-.24-.171l-.213-.14-.2-.12-.74-.413-.266-.162-.31-.2a15.486 15.486 0 01-.176-.12l-.396-.28a26.975 26.975 0 01-.468-.346 1.57 1.57 0 00-.175-.11l-.267-.14-1.197-.593-.235-.122-.482-.264c-.728-.412-1.464-.904-1.957-1.455-.175-.196-.837-1.426-.596-2.243.07-.15.659-.081 1.417.095l.473.118.247.067.502.147.501.159.483.166c.86.307 1.543.623 1.586.799zM41.715 1.99l.289.858.045.124.098.24c.31.698.82 1.258 2.44 2.233.172.104.354.21.542.315l.575.318 1.42.762.497.275c.231.131.433.252.593.36l.62.447c.595.441 1.444 1.169 1.637 2.124a21.627 21.627 0 01-2.422-.525l-1.179-.325c.12-.572-.542-1.251-.886-1.453l-1.101-.656-.358-.2-.27-.141-.48-.236-.39-.18-.714-.314-.82-.35-.504-.232-.415-.203-.46-.236-.495-.267c-.844-.47-1.77-1.057-2.5-1.698l-.211-.194a3.101 3.101 0 01-.128-.128l-.165-.188c-.297-.36-.665-.934-.656-1.55.003-.099.322-.112.804-.067l.391.044.438.063.472.079.492.093.496.104.489.112.236.058.448.12.21.06.377.122c.231.08.42.158.545.232zM15.584 3.704l.164.096.325.204 1.002.667.18.115.375.231c1.035.616 2.369 1.21 4.517 1.53l5.88.767.35.053c1.027.173 2.73.619 3.42 1.847-.212.058-.52.11-.873.163l-1.149.161-.586.09c-.095.016-.188.032-.28.05l-.74-.519-.257-.165a2.09 2.09 0 00-.066-.037L27.73 8.9l-.106-.04-.175-.046-.243-.06-.664-.183-.572-.144-.4-.09-.424-.083-.453-.078-.49-.072a21.842 21.842 0 00-.26-.033l-.557-.061-.611-.053a34.714 34.714 0 00-.328-.024l-.704-.041-.775-.033-1.254-.033-.62-.028-.473-.03-.514-.045-.549-.06c-1.41-.17-3.084-.512-4.582-1.208l-.28-.136-.375-.198-.43-.245c-.517-.308-1.064-.685-1.353-1.032-.24-.423.648-.831 1.756-1.083l.425-.087.434-.071.218-.029.43-.043c.775-.06 1.467-.019 1.782.173zm19.262-2.457l.408.713.144.233.16.233c.478.66 1.21 1.324 2.844 2.085l1.231.562 2.981 1.413.424.19.37.16c.691.314 2.022 1.074 1.824 2.256l-.64-.112-.532-.103-1.33-.28-.483-.093a27.215 27.215 0 00-.272-.048c-.059-.582-.663-1.123-1.061-1.391l-.4-.262-.256-.156L40 6.503a7.804 7.804 0 00-.131-.07l-.275-.133-.297-.13-.328-.133-.369-.136-.417-.143-.736-.238-.577-.177-.76-.23-.43-.14-.376-.132-.432-.162-.48-.191-.517-.22-.542-.248c-.92-.436-1.904-.986-2.732-1.64l-.06-.05-.163-.16-.197-.216c-.415-.478-.906-1.186-.664-1.435.87-.483 4.213.044 5.328.728zm-12.765.995c.098.07.194.141.286.214l.273.22.675.568.286.23c.836.65 1.92 1.288 4.022 1.738l2.472.527 1 .224.598.145.523.137c.08.022.155.044.227.066l.341.107.508.156c.93.293 2.212.789 2.649 1.961a7.231 7.231 0 01-.935.11l-1.224.08a19.95 19.95 0 00-.67.062l-.329-.338c-.497-.502-.763-.707-1.225-.891l-.649-.232-.519-.168-.365-.107-.39-.104a17.607 17.607 0 00-.205-.051l-.439-.102-.48-.1-.527-.098-.583-.1-.646-.098-.714-.1-1.016-.133-.48-.075-.626-.112-.484-.096-.526-.115c-.09-.02-.183-.041-.277-.064l-.574-.141a27.147 27.147 0 01-.296-.078l-.603-.171c-1.014-.301-2.062-.685-2.964-1.162-.418-.221-1.527-1.425-1.87-2.102-.09-.656 5.15-.708 5.756.193zm5.927-1.041c.118.115.231.233.342.353l.547.597.231.24.25.241c.738.687 1.776 1.385 3.76 2.012l2.076.657.986.327.595.211c.28.104.534.204.75.3l.316.145.585.247c.719.316 1.643.827 2.063 1.91l-3.055-.195c-.304-.63-.76-1.014-1.2-1.189-.35-.14-.666-.257-1-.371l-.603-.195-.905-.266-3.475-.952-.623-.184-.482-.15-.522-.17-.556-.192-.578-.213-.593-.232a18.223 18.223 0 01-2.325-1.122l-.266-.16c-.384-.24-1.357-.927-1.766-1.834-.154-.483 1.654-.537 3.24-.37l.466.058c.836.116 1.538.293 1.742.497zM68.235 22.94h15.032c1.848 0 3.155.342 3.922 1.023.83.746 1.245 2.054 1.245 3.925 0 1.459-.172 2.537-.517 3.234-.344.698-.947 1.221-1.808 1.57.94.412 1.562.824 1.867 1.236.305.413.458 1.15.458 2.213v3.805h-5.167v-3.044c0-.444-.117-.817-.352-1.118-.298-.396-.744-.595-1.34-.595h-8.172v4.757h-5.168V22.94zm5.168 4.4v3.45h8.29c.564 0 .968-.124 1.21-.37.243-.245.364-.693.364-1.343s-.125-1.102-.376-1.356c-.25-.253-.65-.38-1.198-.38h-8.29zm20.034 12.606V22.94h18.085v4.114H98.604v2.355h12.331v4.09H98.604v2.331h12.918v4.115H93.437zm22.477-16.957v16.98h5.167V26.582l.376.76 6.435 12.629h4.228l5.966-12.625.375-.764V39.97h5.167V22.989h-8.807l-4.416 9.537-.42.822-.378-.822-4.416-9.537h-9.277zM162.7 39.946h-4.322l-1.033-1.028a9.827 9.827 0 01-1.09.647c-.864.444-1.66.71-2.386.8h-2.518c-1.015-.102-1.904-.388-2.668-.857-.94-.583-1.497-1.357-1.672-2.32a3.95 3.95 0 01.657-2.931 4.496 4.496 0 011.917-1.56 5.349 5.349 0 01-.78-1.246 3.155 3.155 0 01-.291-1.285c0-.444.1-.875.3-1.293a3.827 3.827 0 011.588-1.38 4.845 4.845 0 012.095-.466h2.443c.977 0 1.825.263 2.546.793.72.53 1.161 1.284 1.324 2.267.025.228.038.393.038.495 0 .624-.201 1.211-.602 1.76-.325.46-.808.9-1.446 1.319l1.09 1.148.845-1.028h3.269a13.907 13.907 0 01-.582 1.37c-.501.99-1.009 1.636-1.522 1.94l2.8 2.855zm-9.038-8.238c.276 0 .538-.16.789-.476.251-.317.376-.653.376-1.009 0-.291-.1-.526-.301-.703-.2-.178-.526-.267-.977-.267-.301 0-.529.092-.686.276a1.009 1.009 0 00-.234.675c0 .368.103.71.31 1.028.206.317.447.476.723.476zm1.672 5.08l-2.555-1.865a9.227 9.227 0 00-1.09.19c-.726.216-1.09.552-1.09 1.008 0 .343.263.673.789.99.414.241.859.419 1.335.533.125.025.231.038.319.038.376 0 .802-.095 1.278-.286.476-.19.814-.393 1.014-.609zm19.63-14.085c4.792 0 7.743.404 8.855 1.213.971.698 1.456 2.553 1.456 5.565h-5.19c0-.983-.259-1.61-.775-1.879-.642-.332-2.091-.499-4.346-.499-2.52 0-4 .198-4.439.595-.438.396-.657 1.649-.657 3.757 0 2.093.219 3.338.657 3.734.439.397 1.919.595 4.439.595 2.286 0 3.715-.14 4.287-.416.571-.278.857-.932.857-1.963h5.167c0 3.029-.469 4.884-1.409 5.566-1.112.808-4.079 1.213-8.902 1.213-4.822 0-7.738-.444-8.748-1.332-1.01-.888-1.515-3.361-1.515-7.42 0-4.044.485-6.493 1.456-7.35 1.049-.92 3.985-1.379 8.807-1.379zm36.358 8.752c0 4.138-.493 6.612-1.48 7.42-1.064.873-4.274 1.309-9.629 1.309-3.915 0-6.482-.143-7.704-.428-1.534-.365-2.505-1.158-2.912-2.379-.313-.935-.47-2.91-.47-5.922 0-4.138.485-6.611 1.456-7.42 1.065-.888 4.275-1.332 9.63-1.332 5.339 0 8.541.436 9.606 1.308 1.002.825 1.503 3.306 1.503 7.444zm-17.028 0c0 2.173.247 3.437.74 3.794.493.357 2.219.535 5.179.535 2.975 0 4.709-.178 5.202-.535.493-.357.74-1.621.74-3.794 0-2.188-.247-3.46-.74-3.817-.493-.357-2.219-.535-5.179-.535-2.975 0-4.709.178-5.202.535-.493.357-.74 1.63-.74 3.817zm20.199 8.515V22.989h5.167v16.98h-5.167zm8.62-17.005h5.167v12.58H240v4.4h-16.887v-16.98zM111.028 45.425a2.622 2.622 0 00-1.36-.351c-.767 0-1.409.252-1.908.754-.475.477-.715 1.072-.715 1.766a2.5 2.5 0 00.685 1.767c.497.526 1.149.79 1.938.79.689 0 1.276-.218 1.747-.652.47-.433.739-1.001.804-1.69a.294.294 0 00-.291-.321h-2.924l-.067.008a.295.295 0 00-.226.286v.393l.008.067.028.074c.05.09.146.153.257.153l1.959-.001-.049.08-.102.127c-.073.08-.156.153-.25.219a1.5 1.5 0 01-.877.276c-.49 0-.882-.168-1.195-.51a1.514 1.514 0 01-.429-1.06c0-.383.123-.718.373-1.017.297-.353.7-.528 1.234-.528.288 0 .542.063.764.19.197.113.353.275.471.49.052.093.15.152.256.152h.513l.075-.01a.296.296 0 00.192-.405 2.242 2.242 0 00-.911-1.047zm65.042.36c-.493-.473-1.108-.711-1.83-.711-.724 0-1.341.243-1.833.725-.494.484-.744 1.098-.744 1.825 0 .723.251 1.334.749 1.812.494.475 1.109.715 1.828.715.724 0 1.34-.246 1.833-.732.493-.488.743-1.104.743-1.83 0-.72-.251-1.328-.746-1.804zm10.75 0c-.492-.473-1.108-.711-1.83-.711-.724 0-1.34.243-1.832.725-.495.484-.744 1.098-.744 1.825 0 .723.251 1.334.748 1.812.495.475 1.11.715 1.828.715.724 0 1.341-.246 1.833-.732.494-.488.743-1.104.743-1.83 0-.72-.25-1.328-.746-1.804zm38.046-.711c.722 0 1.337.238 1.83.711.495.476.746 1.084.746 1.804 0 .726-.249 1.342-.743 1.83-.493.486-1.109.732-1.833.732-.719 0-1.334-.24-1.828-.715-.497-.478-.749-1.089-.749-1.812 0-.727.25-1.341.744-1.825.492-.482 1.109-.725 1.833-.725zm14.663.467c-.274-.31-.651-.467-1.109-.467-.492 0-.892.172-1.175.517-.226.27-.341.593-.341.955 0 .53.243.938.705 1.18l.996.352.098.045a.471.471 0 01.281.462.589.589 0 01-.16.42c-.101.11-.241.165-.439.165-.197 0-.334-.052-.432-.152a.61.61 0 01-.167-.45.293.293 0 00-.292-.295h-.431l-.067.008a.294.294 0 00-.226.286c0 .459.16.846.474 1.143.31.293.7.44 1.153.44.496 0 .907-.172 1.209-.514A1.54 1.54 0 00240 48.59c0-.501-.189-.904-.561-1.18a2.336 2.336 0 00-.659-.313l-.374-.114a1.385 1.385 0 01-.379-.168c-.072-.055-.107-.134-.107-.265 0-.15.04-.27.121-.374.063-.08.162-.122.327-.122.2 0 .328.056.413.17.066.088.098.19.098.315 0 .162.131.294.293.294h.431l.067-.008a.294.294 0 00.225-.286c0-.387-.122-.725-.366-.999zm-43.299-.467c.458 0 .835.156 1.11.467.243.274.365.612.365.999 0 .14-.096.256-.225.286l-.067.008h-.431a.293.293 0 01-.292-.294.504.504 0 00-.099-.315c-.085-.114-.213-.17-.413-.17-.164 0-.264.042-.327.122a.583.583 0 00-.121.374c0 .131.035.21.107.265.064.05.192.108.379.168l.375.114c.282.093.5.195.658.313.372.276.561.679.561 1.18 0 .396-.133.749-.394 1.045-.302.342-.712.514-1.209.514-.453 0-.843-.147-1.153-.44-.314-.297-.474-.684-.474-1.143 0-.139.097-.256.226-.286l.067-.008h.431c.161 0 .292.132.292.294 0 .191.055.336.167.45.098.101.235.153.432.153.199 0 .338-.055.439-.165a.588.588 0 00.16-.42.474.474 0 00-.28-.462l-.098-.045-.478-.166-.519-.186c-.462-.242-.705-.65-.705-1.18 0-.362.116-.685.341-.956.284-.344.684-.516 1.175-.516zm-60.261 0c.498 0 .947.117 1.341.351.397.237.701.57.909.997a.295.295 0 01-.194.416l-.069.008h-.513a.29.29 0 01-.245-.135 1.458 1.458 0 00-.353-.386 1.416 1.416 0 00-.87-.27c-.454 0-.812.147-1.093.444a1.536 1.536 0 00-.426 1.101c0 .45.147.818.447 1.12.3.301.662.45 1.102.45.232 0 .451-.054.659-.162a1.35 1.35 0 00.548-.513.288.288 0 01.174-.13l.075-.01h.512c.221 0 .363.237.258.433a2.57 2.57 0 01-.923 1 2.43 2.43 0 01-1.303.363c-.716 0-1.325-.238-1.812-.71-.5-.486-.753-1.106-.753-1.84 0-.719.245-1.327.731-1.807.485-.479 1.09-.72 1.798-.72zm71.398.427c-.253-.285-.599-.427-1.017-.427-.398 0-.728.133-.973.4a1.23 1.23 0 00-.328.849c0 .244.063.474.186.687l.08.125.018.022-.098.062-.14.11-.128.121c-.284.29-.43.651-.43 1.065 0 .464.148.86.444 1.168.299.312.698.468 1.177.468.356 0 .666-.093.92-.28l.116-.097.114-.116c.074-.084.148-.18.219-.29l.008-.014.732.714.061.045a.29.29 0 00.343-.043l.308-.293.051-.063.031-.072a.297.297 0 00-.078-.29l-.934-.914.698-1.334.025-.066a.294.294 0 00-.284-.364h-.484l-.064.007-.06.02a.291.291 0 00-.136.132l-.442.862-.248-.246.147-.102.069-.057.064-.059c.241-.232.368-.512.368-.826 0-.345-.113-.65-.335-.904zm10.873-.427c.498 0 .947.117 1.341.351.397.237.701.57.908.997a.294.294 0 01-.193.416l-.069.008h-.513a.29.29 0 01-.245-.135 1.458 1.458 0 00-.353-.386 1.416 1.416 0 00-.87-.27c-.454 0-.812.147-1.093.444a1.536 1.536 0 00-.426 1.101c0 .45.147.818.447 1.12.3.301.662.45 1.102.45.232 0 .451-.054.659-.162.228-.116.409-.285.547-.513a.293.293 0 01.175-.13l.075-.01h.512c.221 0 .363.237.258.433a2.569 2.569 0 01-.923 1 2.43 2.43 0 01-1.303.363c-.716 0-1.325-.238-1.812-.71-.5-.486-.753-1.106-.753-1.84 0-.719.245-1.327.731-1.807.485-.479 1.09-.72 1.798-.72zm-61.491.351a2.573 2.573 0 00-1.34-.351c-.708 0-1.314.241-1.798.72-.486.48-.732 1.088-.732 1.806 0 .735.253 1.355.754 1.841.487.472 1.096.71 1.811.71a2.43 2.43 0 001.304-.364c.388-.24.697-.575.923-.999a.294.294 0 00-.258-.433h-.513l-.074.01a.293.293 0 00-.175.13 1.41 1.41 0 01-1.207.674c-.439 0-.801-.148-1.101-.45-.3-.301-.447-.668-.447-1.119 0-.437.14-.799.426-1.1.281-.298.639-.445 1.093-.445.339 0 .626.09.869.27.134.1.252.228.353.386a.293.293 0 00.246.135h.512l.07-.008a.295.295 0 00.193-.416 2.311 2.311 0 00-.909-.997zm24.308-.275c.138 0 .254.097.284.227l.008.067v.392c0 .14-.096.256-.225.287l-.067.008h-.693v3.65a.294.294 0 01-.152.258l-.073.028-.067.007h-.431a.292.292 0 01-.285-.226l-.008-.068v-3.65h-.691a.291.291 0 01-.257-.153l-.028-.073-.008-.068v-.392c0-.14.096-.256.225-.286l.068-.008h2.4zm-109.887.417c-.35-.282-.831-.417-1.436-.417h-1.206l-.067.008a.294.294 0 00-.226.286v4.336l.008.068c.03.13.146.226.285.226h.43l.068-.007.073-.029a.294.294 0 00.152-.258v-1.658l1.367 1.835.234.117h.536l.077-.01.067-.027a.296.296 0 00.09-.434l-.92-1.228.101-.036.139-.066c.134-.074.256-.17.365-.287.287-.307.432-.687.432-1.124 0-.546-.19-.987-.569-1.295zm5.101-.417c.139 0 .255.097.285.227l.008.067v.392c0 .14-.096.256-.226.287l-.067.008H74.63v.976h1.578c.111 0 .208.062.257.153l.028.074.008.067v.393c0 .139-.096.256-.226.286l-.067.008H74.63v1.005h1.642c.111 0 .207.063.257.154l.028.073.008.068v.392c0 .14-.096.256-.226.287l-.067.007h-2.365a.293.293 0 01-.285-.226l-.007-.068v-4.336c0-.14.096-.256.225-.286l.067-.008h2.365zm22.668.227a.293.293 0 00-.284-.227h-.432l-.067.008a.294.294 0 00-.225.286v4.336l.008.068c.03.13.146.226.284.226h.432l.067-.007a.294.294 0 00.225-.287v-4.336l-.008-.067zm22.881-.227c.139 0 .255.097.285.227l.008.067v.392c0 .14-.096.256-.226.287l-.067.008h-1.642v.976h1.578c.111 0 .207.062.257.153l.028.074.008.067v.393c0 .139-.096.256-.226.286l-.067.008h-1.578v1.005h1.642c.111 0 .207.063.257.154l.028.073.008.068v.392c0 .14-.096.256-.226.287l-.067.007h-2.365a.294.294 0 01-.285-.226l-.007-.068v-4.336c0-.14.096-.256.225-.286l.067-.008h2.365zm-40.142.57c-.31-.384-.8-.57-1.444-.57h-1.363l-.067.008a.294.294 0 00-.225.286v4.336l.007.068c.03.13.147.226.285.226h.43l.068-.007.073-.029a.294.294 0 00.152-.258v-1.447l.64.001.213-.007c.483-.036.87-.196 1.15-.487.277-.287.415-.658.415-1.095 0-.405-.11-.75-.334-1.025zm109.326-.57c.604 0 1.085.135 1.436.417.378.308.568.749.568 1.295a1.6 1.6 0 01-.431 1.124 1.454 1.454 0 01-.366.287l-.138.066-.102.036.92 1.228a.296.296 0 01-.09.434l-.067.028-.076.01h-.536l-.234-.118-1.367-1.835v1.658a.295.295 0 01-.153.258l-.073.029-.067.007h-.431a.292.292 0 01-.284-.226l-.008-.068v-4.336c0-.14.096-.256.225-.286l.067-.008h1.207zm-43.54.417c-.351-.282-.832-.417-1.437-.417h-1.206l-.067.008a.294.294 0 00-.225.286v4.336l.007.068c.031.13.147.226.285.226h.431l.067-.007.073-.029a.294.294 0 00.152-.258v-1.66l1.367 1.837.234.117h.537l.076-.01.067-.027a.296.296 0 00.09-.434l-.921-1.228.103-.036.138-.066c.134-.074.256-.17.366-.287a1.6 1.6 0 00.431-1.124c0-.546-.19-.987-.568-1.295zm-4.957-.417c.139 0 .255.097.285.227l.008.067v.392c0 .14-.097.256-.226.287l-.067.008h-.693l.001 3.65a.296.296 0 01-.152.258l-.074.028-.067.007h-.431a.292.292 0 01-.284-.226l-.008-.068v-3.65h-.692a.293.293 0 01-.257-.153l-.028-.073-.007-.068v-.392c0-.14.096-.256.225-.286l.067-.008h2.4zm91.04.227a.292.292 0 00-.284-.227h-.431l-.067.008a.295.295 0 00-.226.286v4.336l.008.068c.03.13.146.226.285.226h2.214l.067-.007a.294.294 0 00.225-.287v-.392l-.008-.068-.028-.073a.291.291 0 00-.256-.153l-1.492-.001.001-3.649-.008-.067zm-108.696-.227c.139 0 .255.097.285.227l.008.067-.001 3.649h1.491c.111 0 .207.063.257.154l.028.073.008.068v.392c0 .14-.097.256-.226.287l-.067.007h-2.214a.294.294 0 01-.285-.226l-.007-.068v-4.336c0-.14.096-.256.225-.286l.067-.008h.431zm-39.126.118a.292.292 0 00-.234-.118h-.478l-.068.008a.293.293 0 00-.2.17l-1.859 4.336-.021.073a.294.294 0 00.29.337h.466l.068-.008.063-.023c.06-.03.11-.082.137-.146l.546-1.276h1.62l.547 1.276.035.06c.054.073.14.117.234.117h.466l.075-.01a.295.295 0 00.194-.4l-1.847-4.336-.034-.06zm64.917-.118c.139 0 .255.097.285.227l.008.067v4.336c0 .14-.096.256-.226.287l-.067.007h-.431a.294.294 0 01-.285-.226l-.007-.068v-4.336c0-.14.096-.256.225-.286l.067-.008h.431zm-48.494.075a.292.292 0 00-.195-.075h-.583l-.067.008a.294.294 0 00-.225.286v4.336l.008.068c.03.13.146.226.284.226h.431l.068-.007.073-.029a.296.296 0 00.152-.258v-2.858l2.053 3.024.047.054a.291.291 0 00.194.074h.431l.067-.007a.294.294 0 00.226-.287v-4.336l-.008-.067a.293.293 0 00-.285-.227h-.431l-.067.008-.073.028a.294.294 0 00-.152.258l-.001 2.642-1.9-2.807-.047-.055zm-8.108-.075c.604 0 1.085.135 1.436.417.379.308.569.749.569 1.295 0 .437-.145.817-.432 1.124-.11.118-.231.213-.366.287l-.138.066-.102.036.92 1.228a.296.296 0 01-.09.434l-.067.028-.076.01h-.536l-.234-.118-1.368-1.837v1.66a.295.295 0 01-.151.258l-.073.029-.067.007h-.431a.293.293 0 01-.285-.226l-.008-.068v-4.336c0-.14.096-.256.225-.286l.067-.008h1.207zm37.564.227a.294.294 0 00-.285-.227h-2.365l-.067.008a.294.294 0 00-.226.286v4.336l.008.068c.03.13.146.226.285.226h2.365l.067-.007a.294.294 0 00.225-.287v-.392l-.007-.068-.028-.073a.293.293 0 00-.257-.153l-1.643-.001v-1.006h1.579l.067-.007a.294.294 0 00.225-.286V47.4l-.007-.067-.028-.074a.293.293 0 00-.257-.153h-1.579v-.977h1.643l.067-.007a.294.294 0 00.225-.286v-.393l-.007-.067zm98.512-.227c.138 0 .254.097.284.227l.008.067v4.336c0 .14-.096.256-.225.287l-.067.007h-.432a.292.292 0 01-.284-.226l-.008-.068v-4.336c0-.14.096-.256.225-.286l.067-.008h.432zm-139.714.227a.293.293 0 00-.284-.227h-.432l-.067.008a.294.294 0 00-.225.286v4.336l.007.068c.03.13.147.226.285.226h.431l.067-.007a.294.294 0 00.226-.287v-4.336l-.008-.067zm75.208-.227a.29.29 0 01.234.118l.035.06 1.316 3.064 1.316-3.065a.294.294 0 01.137-.146l.063-.023.068-.008h.665c.138 0 .254.097.284.227l.008.067v4.336c0 .14-.096.256-.225.287l-.067.007h-.432a.292.292 0 01-.284-.226l-.008-.068-.001-2.413-1.075 2.529a.292.292 0 01-.137.147l-.063.023-.069.008h-.361a.291.291 0 01-.234-.118l-.035-.06-1.076-2.533v2.417a.294.294 0 01-.152.258l-.073.029-.067.007h-.431a.294.294 0 01-.285-.226l-.007-.068v-4.336c0-.14.096-.256.225-.286l.067-.008h.664zm58.142 1.35c.299-.298.667-.445 1.119-.445.454 0 .821.142 1.117.43.293.285.438.647.438 1.104 0 .466-.147.84-.442 1.136-.296.298-.661.445-1.113.445-.457 0-.827-.144-1.125-.433-.295-.287-.441-.652-.441-1.113 0-.458.148-.827.447-1.124zm-49.507-.445c-.452 0-.82.147-1.12.445-.298.297-.446.666-.446 1.124 0 .461.146.826.441 1.113.297.29.667.433 1.125.433.452 0 .817-.147 1.113-.445.295-.297.441-.67.441-1.136 0-.458-.145-.82-.438-1.104-.295-.288-.662-.43-1.116-.43zm31.821 1.855l.738.725-.077.14a.986.986 0 01-.224.268.566.566 0 01-.375.127.513.513 0 01-.407-.174.629.629 0 01-.168-.446c0-.102.024-.196.073-.284.075-.133.209-.247.409-.34l.031-.016zm-21.07-1.855c-.452 0-.82.147-1.12.445-.299.297-.446.666-.446 1.124 0 .461.146.826.441 1.113.297.29.667.433 1.125.433.452 0 .817-.147 1.113-.445.295-.297.441-.67.441-1.136 0-.458-.145-.82-.438-1.104-.296-.288-.662-.43-1.116-.43zM84.853 47.64l.397-.937.39.937h-.787zm106.151-1.51h-.483v1.426l.062-.023.077-.01h.344c.353 0 .606-.065.763-.182.151-.114.226-.277.226-.52 0-.201-.056-.347-.169-.458-.129-.128-.346-.207-.657-.227l-.163-.005zm-121.753 0h.483l.163.006c.311.02.528.1.657.227.113.11.169.257.169.458 0 .243-.074.406-.226.52-.156.117-.41.182-.763.182h-.344l-.076.01-.063.023v-1.425zm24.789 0h-.484v1.426l.064-.023.076-.01h.344c.354 0 .606-.065.763-.182.151-.114.226-.277.226-.52 0-.201-.056-.347-.169-.458-.13-.128-.346-.207-.657-.227l-.163-.005zm51.504 0h.483l.164.006c.311.02.527.1.657.227.112.11.168.257.168.458 0 .243-.074.406-.226.52-.156.117-.409.182-.763.182h-.344l-.076.01-.063.023v-1.425zm-65.304 0h-.646v1.223h.646c.284 0 .479-.068.603-.195a.553.553 0 00.153-.413c0-.184-.05-.319-.15-.421-.1-.105-.254-.17-.47-.188l-.136-.005zm125.893.003a.364.364 0 01.24-.078c.111 0 .182.027.233.08.055.057.08.123.08.212a.258.258 0 01-.076.178l-.06.058a.939.939 0 01-.163.112l-.07.035-.101-.102a.756.756 0 01-.108-.153.368.368 0 01-.043-.17c0-.085.022-.134.068-.172z" fill="#fff"/></svg>