<svg width="266" height="80" fill="none" xmlns="http://www.w3.org/2000/svg"><path fill-rule="evenodd" clip-rule="evenodd" d="M70.577 34.473V19.911l-.032-.031c-5.263-4.54-26.682-13.566-36.806-4.405-12.342 11.166 8.574 27.21 25 33.142-11.16-4.748-27.089-14.682-19.182-21.594 6.55-4.669 25.432 1.89 30.996 7.426l.024.024z" fill="#808285"/><path fill-rule="evenodd" clip-rule="evenodd" d="M29.647 33.583c-2.08.113-2.748.704-3.284 1.613-1.51 2.56-.476 5.644-1.024 9.102-.193 1.221-.9 4.783-6.208 7.426-.74.368-2.23.788-3.831.409-1.317-.326-5.777-7.65-3.064-8.953 1.52-.449 7.043-.655 8.728-4.759.887-2.158 1.762-4.912 2.765-6.603.915-1.542 2.326-1.931 4.238-1.457.376.98 1.104 2.134 1.68 3.222z" fill="#F7931D"/><path fill-rule="evenodd" clip-rule="evenodd" d="M53.788 49.873c.695.33 1.527.661 2.37.98l2.442.906.534.203c-.542 2.252 1.194 4.175 3.779 6.166l.587.444.927.673 1.3.913 1.693 1.18.686.488.687.497.682.508.677.52c1.007.79 1.98 1.624 2.864 2.516l.483.575.814.954.46.555c1.737 2.126 3.958 5.264 4.733 9.162l.13.701.042.29c.099.821-.009 1.614-1.13 1.846-.258.112-1.123.034-2.265-.215l-.592-.138a21.01 21.01 0 01-.31-.08l-.645-.179c-3.069-.901-6.899-2.682-7.313-5.084l-.004-.118.002-.819-.011-.461-.018-.347-.028-.376-.042-.405-.057-.431-.076-.456-.045-.237-.108-.49c-.537-2.253-1.81-5.139-4.813-7.994l-.233-.239-.484-.481-.76-.733-2.127-2.007-.53-.511-.523-.514-.508-.517c-2.336-2.415-4.091-4.897-3.27-7.245zm8.996 2.456c1.703.602 3.505 1.12 5.134 1.577.11 2.244 2.102 3.866 4.881 5.456l.682.38.708.382.732.384 2.696 1.39 1.195.63.802.436.801.451c1.467.842 2.916 1.77 4.254 2.831l.387.336 1.46 1.206.563.476.591.516c1.909 1.699 4.127 4.032 5.688 7.288l.308.697.117.289c.31.82.414 1.632-.606 1.972-.13.08-.449.14-.903.172l-.42.019c-.226.006-.473.006-.737-.001l-.55-.022a21.465 21.465 0 01-.29-.018l-.605-.051-.63-.072a21.973 21.973 0 01-.323-.044l-.655-.105c-2.527-.45-5.193-1.428-5.987-3.264l-.07-.411-.073-.338-.1-.4-.132-.46-.11-.338-.129-.36-.149-.383-.17-.404-.194-.423-.219-.442-.245-.458-.273-.475c-1.149-1.93-3.005-4.215-6.011-6.508l-.669-.504-.59-.432-.607-.427-.935-.636-1.907-1.266-.631-.426-.623-.43-.609-.435-.592-.441c-2.522-1.928-4.443-4.076-4.255-6.914zm-17.59-6.595l.475.312 1.05.671c1.095.69 2.285 1.41 3.196 1.913-.994 2.1.104 4.105 2.006 6.27l.452.504.478.509.5.517.781.79 1.7 1.704c1.17 1.19 2.354 2.455 3.4 3.824l.613.826.737.957.28.38.292.414c1.373 2.006 2.913 5.096 2.454 9.637l-.07.57c-.138.928-.458 1.92-1.854 2.02-.09.013-.271-.016-.525-.082l-.337-.096-.4-.13-.452-.163-.5-.193-.264-.107-.554-.234-.582-.261-.601-.285c-.406-.197-.82-.41-1.232-.634l-.614-.346c-2.342-1.361-4.447-3.097-4.39-4.757l.05-.162.465-1.214.113-.32.112-.344.108-.368.1-.392c.017-.067.032-.135.047-.204l.084-.426c.367-2.11.19-4.988-2.192-8.352-.35-.55-.745-1.116-1.16-1.693l-1.434-1.971-.575-.813-.188-.27-.363-.544c-1.72-2.628-2.836-5.257-1.207-7.457zm-7.387-4.73l1.78 1.546.786.67c.52.434 1.018.83 1.429 1.112-1.378.973-1.506 1.584-1.36 2.286l.057.238.179.648.034.143c.261 1.16.927 2.36 1.742 3.634l.563.86.59.885.6.911c.9 1.388 1.78 2.873 2.383 4.492l.108.24.504 1.04.163.353.164.38.161.402.154.426c.696 2.046 1.026 4.857-.867 8.262-.577.998-1.974 2.187-2.71 2.148-.149-.008-.393-.09-.71-.234l-.338-.165c-.06-.03-.122-.063-.185-.097l-.4-.221-.211-.124-.446-.272-.47-.303-.488-.33-.5-.354c-.085-.06-.17-.123-.254-.185l-.508-.386-.254-.2-.502-.412-.248-.21-.484-.431-.465-.44c-1.51-1.48-2.595-3.067-2.284-4.298.09-.14.232-.299.408-.48l.71-.713.383-.403.261-.294.262-.316c1.257-1.58 2.354-3.947.967-7.514a22.944 22.944 0 00-.68-2.16l-.618-1.674c-.62-1.685-1.192-3.38-1.217-4.924-.021-1.371.433-2.802 1.811-3.536zM32 35.66c.242.297.52.674.813 1.081l.91 1.268c.307.422.61.828.89 1.168-1.443.612-1.802 1.053-1.956 1.685l-.047.232-.078.525c-.235 1.613.243 3.134.844 4.755l.465 1.239c.417 1.122.824 2.311 1.045 3.623l.039.258.038.31.033.355.026.398.016.437c.048 2.343-.448 6.022-3.404 8.223l-.326.24c-.715.522-1.517 1.014-2.946 1.098-.256.012-.703-.208-1.247-.59l-.337-.25-.356-.283-.371-.317a16.264 16.264 0 01-.19-.17l-.384-.358-.194-.188-.388-.394-.384-.412a19.14 19.14 0 01-.56-.647l-.358-.445c-1.392-1.798-2.331-3.772-1.537-4.962.114-.096.263-.191.44-.288l.285-.147.321-.152.924-.421.608-.296.416-.22c1.74-.96 3.526-2.49 3.495-5.482l-.003-.673.015-1.428.015-.74.041-1.493.123-3.441c.066-1.805 1.324-2.885 3.264-3.098zm-6.314-10.515c-.014.303-.019.633-.02.978l.011 1.614c.001.182.002.363 0 .542-1.699-.306-2.435-.002-3.028.463l-.205.17-.303.27c-.887.795-1.327 1.637-1.7 2.57l-.243.635-.248.665c-.346.908-.772 1.901-1.545 3.01l-.58.783-.27.338-.214.252-.245.268a9.498 9.498 0 01-.135.14l-.295.286c-1.253 1.17-3.38 2.546-7.051 3.185-.81.14-2.384.128-3.73-.445-.259-.124-.504-.728-.699-1.543l-.11-.511a17.61 17.61 0 01-.264-2l-.034-.576c-.06-1.515.114-2.803.675-2.751l1.089.027.744.002.555-.012.594-.027.626-.044c2.45-.207 5.454-.883 7.272-2.92l.516-.588 1.145-1.334.605-.693c1.019-1.146 2.067-2.219 2.907-2.674l.126-.064.136-.057.153-.05.085-.022.189-.037.22-.029.26-.017a6.28 6.28 0 01.144-.005h.326l.38.01.437.026.78.065.61.063.334.037zm-.602-4.594l-.15.492-.308 1.047c-.107.362-.22.733-.346 1.111-2.153-.607-2.956-.487-3.783-.01l-.25.153c-.449.288-.88.67-1.346 1.127l-.407.41-1.138 1.172-.52.522a31.739 31.739 0 01-2.244 2.022l-.64.507-.32.234-.254.172c-.09.059-.185.119-.287.18l-.322.185-.358.187c-1.447.716-3.728 1.402-7.22 1.233l-.702-.044-.543-.05c-.77-.083-1.706-.245-2.533-.606-1.018-.519.292-6.25 1.693-5.948l.225.013.49.04 1.76.179.666.057c2.39.186 5.363.159 7.983-1.305l.359-.204.763-.45 1.639-.98.834-.487c1.105-.63 2.165-1.17 2.961-1.368l.318-.077.192-.037.22-.03.25-.02c.67-.035 1.676.064 3.318.573zm.667-4.037c-.19.212-.363.435-.537.666l-.532.713c-.186.244-.386.493-.614.743-1.527-.477-2.398-.514-3.227-.392l-.381.067-.193.04c-.526.113-1.065.35-1.67.67l-.468.253-1.598.904-.615.335-.665.345a28.55 28.55 0 01-2.34 1.054l-.695.266-.301.105-.351.113-.403.118c-.142.04-.293.08-.453.118l-.504.114c-1.678.35-4.122.578-7.332.088-.699-.106-1.857-.452-2.68-1.016-.412-.348-.12-1.263.477-2.203l.237-.353.261-.35c.951-1.207 2.257-2.228 3.016-1.844l.212.048.46.115 1.345.354.611.15c2.104.493 4.852.878 7.893-.072l.788-.251 2.63-.867.662-.209c.529-.162.993-.29 1.36-.361l.28-.046.335-.037.31-.025.37-.02.421-.01c.148-.001.303 0 .463.004l.496.023c.935.06 1.993.236 2.932.65zM64.077 6.412c.272.031.715.175 1.23.385l.457.197c.234.105.477.22.72.343l.484.251c1.2.647 2.277 1.4 2.259 1.82-1.18.45-1.382.99-.046 2.802.1.135.21.276.327.419l.367.434 1.245 1.394c.095.108.179.206.247.29l.227.304.218.312.142.223c.41.683.639 1.457-.388 1.786-.617-.218-1.204-.555-1.797-.912l-.9-.54a14.656 14.656 0 00-.463-.257c.723-.353.569-1.26.322-1.538l-.584-.661-.318-.336-.25-.238-.304-.272-.385-.325-.594-.484-.453-.391-.387-.354-.429-.41c-.663-.652-1.393-1.449-1.849-2.176-.263-.42-.326-1.81.902-2.066zM6.5 11.207l.72.241.825.286.607.203c.105.034.211.069.32.103l.67.203c1.96.567 4.409 1.027 7.18.652l.73-.095.763-.09.778-.084 1.148-.113 1.064-.09.63-.044.543-.03.435-.015.976-.006.492.004c1.196.028 2.698.207 3.69 1.131l-.54.442-1.241.99c-.103.082-.203.163-.3.243l-.317-.117-.555-.192c-.678-.222-1.12-.313-1.525-.355l-.299-.023-.627-.02c-.72-.017-1.45.063-2.28.224l-.57.119-.606.142-.648.163-1.065.284-2.535.69-.594.157-.26.056c-.047.01-.097.019-.149.028l-.336.052c-.06.008-.124.017-.188.024l-.415.045-.468.036-.253.014-.547.02a24.45 24.45 0 01-.918.005l-.678-.018c-1.41-.053-3.137-.219-5.189-.575-.632-.11-1.833-.627-2.661-1.225-1.154-.93 2.526-3.905 4.193-3.465zm55.14-4.785c-.102.086-.194.15-.275.202l-.21.13c-.117.076-.184.145-.189.289-.011.319.237.75.73 1.34l.324.375.383.413c.068.073.14.147.212.223.184.19.394.389.614.588l.453.4.893.768.39.348c.179.165.331.315.442.446l.147.187.447.47c.513.551 1.163 1.393.838 2.366-.693-.276-1.567-.724-2.433-1.197l-.856-.477-.412-.234c.345-.61.14-.948-.09-1.183l-.236-.222-.55-.547-.256-.245-.268-.243-.144-.124-.321-.262a13.989 13.989 0 00-.182-.14l-.416-.31-.504-.357-.408-.279-.504-.328-.432-.29c-.844-.58-1.937-1.416-2.631-2.37l-.208-.308-.075-.13c-.206-.385-.51-1.212.216-2.053.123-.11.628.017 1.286.267l.459.184.489.214.504.235.504.25.49.258.46.258c.805.467 1.385.898 1.319 1.088zm-50.282.239l.418.208 1.314.702.476.244c1.464.73 3.299 1.428 6.141 1.532l1.19.028.363.013 1.104.057 1.423.094 1.746.122.569.025.683.012.45.02.503.038c1.218.115 2.726.433 3.615 1.337-.136.08-.308.169-.5.264l-.623.301-.662.316c-.328.157-.638.312-.884.452-1.03-.546-1.644-.774-2.18-.902l-.315-.067-.474-.078-.166-.025a7.231 7.231 0 00-1.002-.083l-.411.003-.212.007-.438.026-.464.037-1.927.183-1.018.082-.76.05-.832.04-1.786.06-.413.009h-.718l-.54-.013-.585-.026c-.1-.006-.203-.012-.307-.02l-.644-.052a22.136 22.136 0 01-4.853-1c-.587-.195-1.842-1.012-2.522-1.654-.399-.553 1.138-1.476 2.69-2.012l.441-.141c.878-.26 1.701-.37 2.11-.19zM53.84 3.605l.003.57.015.322c.062.857.327 1.282 1.424 2.179l.422.337.24.186c.22.171.468.347.727.523l.528.35 1.039.672.456.305c.21.146.392.28.529.398l.191.178.463.366c.612.487 1.46 1.266 1.352 2.306a28.158 28.158 0 01-3.602-1.235c.186-.588-.096-.99-.392-1.257l-.176-.145-.222-.163a7.803 7.803 0 00-.264-.19l-.237-.155-.221-.132-.819-.457-.294-.179-.344-.222a17.13 17.13 0 01-.194-.13l-.439-.31c-.159-.115-.33-.242-.517-.384a1.727 1.727 0 00-.194-.12l-.296-.155-1.324-.657a26.31 26.31 0 01-.26-.135l-.533-.291c-.807-.457-1.621-1.001-2.166-1.61-.194-.216-.926-1.577-.66-2.48.078-.166.73-.09 1.569.105l.523.13.273.075.556.162.554.176.535.183c.95.34 1.707.69 1.755.884zm-7.679-1.772l.32.949.05.138.108.264c.344.773.907 1.392 2.7 2.47a25 25 0 00.6.348l.637.352 1.57.843.55.304c.256.145.48.279.657.398l.687.494c.658.488 1.597 1.293 1.81 2.348a23.968 23.968 0 01-2.68-.58l-1.304-.36c.132-.632-.6-1.383-.981-1.606l-1.218-.726-.396-.22-.299-.157-.532-.26-.43-.199-.792-.347-.907-.388-.558-.257-.458-.223-.51-.262-.547-.295c-.934-.52-1.96-1.17-2.766-1.878l-.235-.214a3.46 3.46 0 01-.14-.141l-.184-.208c-.328-.398-.736-1.033-.726-1.714.004-.11.356-.125.89-.075l.433.048.485.07.522.088.544.103.55.115.54.124.261.064.497.133c.079.022.156.044.23.067l.418.133c.257.09.465.176.604.257zM17.245 3.728l.182.107.359.225 1.11.738.198.128.415.255c1.146.68 2.622 1.337 5 1.692l6.507.848.387.059c1.136.19 3.02.684 3.785 2.042a9.077 9.077 0 01-.968.18l-1.27.178-.649.1c-.105.017-.209.036-.31.054l-.82-.573-.283-.182a2.4 2.4 0 00-.074-.042l-.127-.062-.117-.044-.194-.051-.268-.068-.735-.201-.634-.16-.442-.098-.469-.093-.501-.086-.542-.08-.288-.036-.617-.068-.676-.059-.363-.026-.78-.045-.857-.036-1.387-.037-.686-.03-.524-.035-.569-.049-.607-.066c-1.56-.189-3.413-.567-5.071-1.336l-.31-.15-.414-.22-.475-.27c-.573-.341-1.178-.758-1.498-1.142-.266-.467.716-.919 1.943-1.198l.47-.096.48-.078.241-.032.476-.048c.858-.067 1.624-.02 1.972.191zm21.316-2.716l.45.788.16.258.177.258c.53.73 1.34 1.464 3.147 2.306l1.363.62 3.299 1.563.47.211.408.176c.765.348 2.238 1.188 2.019 2.495l-.71-.124-.588-.114-1.47-.31-.536-.102a30.152 30.152 0 00-.3-.054c-.065-.643-.734-1.241-1.175-1.538l-.443-.29-.283-.172-.284-.16a8.713 8.713 0 00-.145-.075l-.304-.148-.329-.145-.363-.146-.408-.15-.462-.16-.814-.262-.639-.196-.84-.253-.477-.156-.415-.146-.479-.18-.531-.21-.572-.243-.6-.274c-1.018-.482-2.107-1.091-3.023-1.813l-.067-.058-.18-.175-.217-.24c-.46-.528-1.004-1.311-.735-1.586.963-.534 4.662.049 5.896.805zm-14.126 1.1c.109.077.214.156.317.236l.302.244.747.628.316.254c.925.72 2.125 1.425 4.451 1.922l2.736.583 1.105.248.663.16.578.152c.089.024.172.048.251.072l.378.12.561.171c1.031.324 2.448.872 2.932 2.17a8.007 8.007 0 01-1.034.12l-1.354.09c-.243.018-.49.04-.741.068l-.365-.375c-.55-.554-.845-.781-1.355-.985l-.719-.256-.574-.185-.404-.119-.431-.115c-.075-.02-.15-.038-.228-.057l-.485-.112-.53-.11-.585-.11-.645-.109-.714-.11-.791-.11-1.124-.146-.532-.084-.692-.124-.535-.106-.583-.127a33.5 33.5 0 01-.306-.07l-.636-.157a29.881 29.881 0 01-.327-.086l-.667-.19c-1.122-.332-2.282-.756-3.28-1.284-.462-.245-1.69-1.575-2.069-2.324-.1-.726 5.699-.783 6.369.213zM30.994.961c.13.128.255.258.378.39l.606.66.255.266.276.267c.818.76 1.967 1.531 4.161 2.225l2.298.726 1.091.361.658.234c.31.114.591.225.83.33l.35.162.647.273c.796.35 1.819.915 2.283 2.113l-3.38-.216c-.337-.698-.842-1.122-1.328-1.315a23.061 23.061 0 00-1.107-.41l-.667-.216-1.001-.295-3.846-1.052-.69-.203-.532-.166-.579-.189-.614-.212-.64-.235-.657-.257a20.175 20.175 0 01-2.572-1.24l-.295-.179c-.424-.264-1.502-1.023-1.954-2.027-.17-.534 1.83-.594 3.585-.408l.517.063c.924.128 1.7.324 1.927.55z" fill="#015AAA"/><path fill-rule="evenodd" clip-rule="evenodd" d="M75.51 25.001h16.633c2.045 0 3.492.377 4.34 1.131.92.824 1.379 2.27 1.379 4.34 0 1.613-.191 2.805-.572 3.576-.382.772-1.049 1.35-2.002 1.736 1.04.456 1.729.912 2.067 1.367.337.456.507 1.272.507 2.446v4.208h-5.719V40.44c0-.49-.13-.903-.39-1.236-.329-.438-.822-.657-1.481-.657h-9.044v5.26h-5.719V25zm5.717 4.865v3.814h9.175c.624 0 1.07-.136 1.339-.408.268-.271.402-.767.402-1.485 0-.72-.138-1.219-.415-1.5-.278-.28-.72-.42-1.326-.42h-9.175zm22.171 13.94V25h20.012v4.55h-14.295v2.604h13.645v4.523h-13.645v2.578h14.295v4.55h-20.012zm24.873-18.752v18.778h5.718V29.026l.416.84 7.121 13.966h4.678l6.602-13.961.416-.845v14.806h5.717V25.054h-9.746L144.307 35.6l-.466.91-.418-.91-4.886-10.546h-10.266zm51.773 18.751h-4.782l-1.144-1.136c-.485.323-.887.561-1.206.716-.957.49-1.837.785-2.641.883h-2.786c-1.122-.112-2.107-.428-2.953-.946-1.039-.646-1.656-1.501-1.85-2.567a4.478 4.478 0 01-.062-.715c0-.926.263-1.768.79-2.526.526-.757 1.234-1.332 2.121-1.725a5.917 5.917 0 01-.863-1.378 3.482 3.482 0 01-.322-1.42c0-.49.111-.968.332-1.43a4.235 4.235 0 011.757-1.526 5.366 5.366 0 012.319-.515h2.702c1.082 0 2.021.29 2.818.876.797.586 1.286 1.42 1.466 2.508.027.252.041.434.041.546 0 .691-.221 1.34-.665 1.947-.361.508-.894.996-1.601 1.459l1.206 1.269.936-1.136h3.617c-.249.659-.464 1.164-.644 1.514-.555 1.094-1.116 1.81-1.684 2.147l3.098 3.155zm-10.001-9.11c.305 0 .595-.175.873-.525.277-.351.416-.723.416-1.116 0-.322-.111-.582-.333-.778-.222-.196-.582-.295-1.081-.295-.333 0-.586.102-.759.305-.173.204-.26.453-.26.747 0 .407.114.786.343 1.137.229.35.496.526.801.526zm1.85 5.618l-2.828-2.062c-.54.07-.942.14-1.205.21-.805.239-1.206.61-1.206 1.116 0 .378.291.743.873 1.094.457.266.949.463 1.476.589.138.028.256.042.354.042.415 0 .887-.105 1.413-.316.527-.21.902-.434 1.123-.673zm21.723-15.575c5.302 0 8.568.447 9.799 1.341 1.074.772 1.611 2.823 1.611 6.154h-5.744c0-1.086-.286-1.779-.858-2.077-.71-.368-2.313-.552-4.808-.552-2.79 0-4.427.219-4.912.657-.485.439-.728 1.824-.728 4.156 0 2.314.243 3.69.728 4.129.485.438 2.122.657 4.912.657 2.53 0 4.111-.153 4.743-.46.633-.307.949-1.03.949-2.17h5.718c0 3.349-.52 5.4-1.56 6.154-1.23.894-4.513 1.342-9.85 1.342s-8.564-.491-9.682-1.474c-1.117-.981-1.676-3.716-1.676-8.205 0-4.47.537-7.18 1.611-8.127 1.161-1.016 4.41-1.525 9.747-1.525zm40.233 9.679c0 4.576-.545 7.31-1.637 8.205-1.178.964-4.73 1.447-10.656 1.447-4.332 0-7.173-.158-8.525-.474-1.698-.403-2.772-1.28-3.223-2.63-.347-1.034-.52-3.217-.52-6.548 0-4.577.537-7.312 1.612-8.206 1.178-.982 4.73-1.473 10.656-1.473 5.908 0 9.452.482 10.63 1.447 1.109.911 1.663 3.655 1.663 8.232zm-18.843 0c0 2.402.273 3.8.819 4.194.546.395 2.456.592 5.731.592 3.292 0 5.211-.197 5.757-.592.545-.394.819-1.792.819-4.194 0-2.42-.274-3.827-.819-4.222-.546-.394-2.456-.591-5.731-.591-3.292 0-5.211.197-5.757.591-.546.395-.819 1.802-.819 4.222zm22.352 9.415V25.054h5.719v18.778h-5.719zm9.539-18.804h5.718V38.94h12.969v4.866h-18.687V25.028zM122.863 49.865c-.438-.26-.941-.389-1.505-.389-.848 0-1.559.28-2.111.834-.525.528-.791 1.186-.791 1.954 0 .76.254 1.417.759 1.953.549.582 1.271.873 2.143.873.763 0 1.413-.24 1.934-.72.52-.479.818-1.107.89-1.868a.325.325 0 00-.322-.356h-3.236l-.074.008a.326.326 0 00-.25.317v.434l.009.075.031.081c.055.101.161.17.284.17l2.168-.002-.054.09-.113.14c-.081.089-.173.17-.277.241a1.658 1.658 0 01-.97.306c-.543 0-.977-.186-1.323-.563-.319-.347-.475-.733-.475-1.173 0-.424.136-.795.414-1.124.327-.391.773-.585 1.364-.585.32 0 .6.07.847.21.217.125.39.304.52.542a.324.324 0 00.284.168h.567l.084-.01a.325.325 0 00.211-.448 2.47 2.47 0 00-1.008-1.158zm71.976.398c-.545-.523-1.226-.787-2.025-.787-.801 0-1.484.269-2.028.802-.547.535-.823 1.215-.823 2.018 0 .8.278 1.475.828 2.004.547.526 1.227.79 2.023.79.801 0 1.483-.27 2.028-.809.547-.54.822-1.22.822-2.023 0-.797-.277-1.469-.825-1.995zm11.897 0c-.545-.523-1.226-.787-2.026-.787-.801 0-1.483.269-2.027.802-.547.535-.824 1.215-.824 2.018 0 .8.278 1.475.829 2.004.547.526 1.227.79 2.022.79.802 0 1.484-.27 2.029-.809.546-.54.822-1.22.822-2.023 0-.797-.277-1.469-.825-1.995zm42.101-.787c.799 0 1.48.264 2.025.787.548.526.825 1.198.825 1.995 0 .803-.275 1.484-.822 2.023-.545.538-1.227.81-2.028.81-.796 0-1.476-.265-2.023-.79-.55-.53-.828-1.205-.828-2.005 0-.803.276-1.483.823-2.018.545-.533 1.227-.802 2.028-.802zm16.227.517c-.304-.344-.722-.517-1.228-.517-.544 0-.987.191-1.3.572-.25.299-.378.656-.378 1.056 0 .587.269 1.037.78 1.306l1.103.389.109.049a.684.684 0 01.166.119.518.518 0 01.144.392.648.648 0 01-.177.465c-.112.12-.266.182-.486.182-.218 0-.37-.057-.478-.168a.674.674 0 01-.185-.498.324.324 0 00-.323-.326h-.477l-.074.009a.326.326 0 00-.25.317c0 .506.177.935.525 1.263.343.324.774.487 1.275.487.55 0 1.004-.19 1.338-.569.289-.328.436-.718.436-1.156 0-.553-.209-1-.621-1.305-.174-.13-.416-.243-.728-.345l-.415-.126c-.206-.067-.348-.131-.419-.186-.08-.061-.118-.148-.118-.293 0-.165.044-.3.134-.414.069-.088.179-.135.361-.135.221 0 .363.063.458.188.072.098.108.21.108.348 0 .18.145.326.324.326h.477l.074-.009a.325.325 0 00.249-.317c0-.428-.135-.801-.404-1.104zm-47.915-.517c.506 0 .924.173 1.227.517.269.303.405.676.405 1.104a.325.325 0 01-.249.317l-.075.009h-.476a.325.325 0 01-.324-.326.557.557 0 00-.109-.348c-.094-.125-.236-.188-.458-.188-.181 0-.291.046-.361.135a.648.648 0 00-.134.414c0 .145.039.232.119.293.071.055.212.12.419.186l.415.126c.312.102.553.216.728.345.412.306.621.752.621 1.305 0 .438-.147.829-.436 1.156-.334.379-.788.57-1.338.57-.502 0-.933-.164-1.276-.487-.348-.329-.524-.758-.524-1.264 0-.154.106-.283.249-.317l.075-.009h.476c.179 0 .324.146.324.326 0 .21.061.37.185.498.108.11.26.168.478.168.219 0 .373-.061.485-.182a.649.649 0 00.178-.465.521.521 0 00-.311-.511l-.108-.05-.529-.183-.574-.205c-.511-.269-.78-.719-.78-1.306 0-.4.128-.757.378-1.056.313-.38.756-.572 1.3-.572zm-66.685 0c.551 0 1.047.13 1.483.389.439.261.776.63 1.006 1.102a.327.327 0 01-.214.46l-.077.009h-.567a.324.324 0 01-.272-.15 1.602 1.602 0 00-.39-.425c-.27-.2-.588-.3-.962-.3-.503 0-.899.163-1.21.492a1.696 1.696 0 00-.472 1.217c0 .498.163.904.495 1.238a1.64 1.64 0 001.219.498c.258 0 .499-.06.73-.179.252-.128.452-.316.606-.567a.32.32 0 01.193-.145l.082-.01h.568c.244 0 .4.262.285.479-.25.469-.592.839-1.021 1.105a2.694 2.694 0 01-1.443.401c-.792 0-1.466-.262-2.004-.784-.555-.538-.834-1.223-.834-2.036 0-.794.271-1.467.809-1.998.536-.529 1.206-.796 1.99-.796zm79.008.473c-.279-.315-.662-.473-1.125-.473-.44 0-.806.148-1.076.442a1.355 1.355 0 00-.363.94c0 .27.069.524.205.76l.089.138.019.024-.108.069-.155.12-.141.135c-.314.321-.476.72-.476 1.177 0 .514.164.95.491 1.292.331.345.772.517 1.302.517.395 0 .738-.102 1.019-.309l.129-.107.125-.128c.083-.093.164-.2.243-.32l.009-.016.809.789.068.05c.12.068.275.052.38-.047l.341-.325.056-.07.034-.08a.328.328 0 00-.087-.32l-1.032-1.01.771-1.475.028-.074a.325.325 0 00-.314-.403h-.536l-.071.008-.066.023a.32.32 0 00-.15.146l-.489.953-.274-.272.162-.113.077-.063.07-.065c.267-.257.408-.567.408-.914 0-.38-.125-.719-.372-.999zm12.033-.473c.551 0 1.047.13 1.483.389.44.261.777.631 1.006 1.102a.326.326 0 01-.214.46l-.077.009h-.567a.324.324 0 01-.272-.15 1.586 1.586 0 00-.39-.425c-.27-.2-.587-.3-.962-.3-.503 0-.899.163-1.21.492a1.696 1.696 0 00-.472 1.217c0 .498.164.904.495 1.238.332.334.733.498 1.219.498.258 0 .499-.06.73-.179.252-.128.452-.316.606-.567a.324.324 0 01.193-.145l.082-.01h.568c.244 0 .401.262.285.479-.25.469-.591.839-1.021 1.105a2.694 2.694 0 01-1.443.401c-.791 0-1.466-.262-2.004-.784-.554-.538-.834-1.223-.834-2.036 0-.794.271-1.467.809-1.998.537-.529 1.206-.796 1.99-.796zm-68.046.389a2.848 2.848 0 00-1.483-.389c-.784 0-1.454.267-1.99.797-.538.53-.809 1.203-.809 1.997 0 .813.279 1.498.833 2.036.539.522 1.213.784 2.005.784.527 0 1.011-.134 1.442-.401.43-.266.771-.636 1.022-1.105a.326.326 0 00-.286-.48h-.567l-.082.011a.326.326 0 00-.194.145 1.561 1.561 0 01-1.335.746c-.487 0-.887-.164-1.219-.498-.332-.334-.495-.74-.495-1.238 0-.483.156-.883.472-1.218.311-.328.707-.491 1.209-.491.375 0 .693.1.963.3.147.11.277.25.39.426.06.093.162.149.272.149h.567l.076-.01a.326.326 0 00.215-.459 2.565 2.565 0 00-1.006-1.102zm26.899-.305c.153 0 .281.107.315.251l.008.075v.434a.325.325 0 01-.249.316l-.074.009h-.767v4.036c0 .123-.068.23-.168.285l-.081.031-.074.009h-.477a.324.324 0 01-.315-.25l-.009-.075-.001-4.036h-.764a.324.324 0 01-.285-.17l-.03-.08-.009-.075v-.434c0-.154.106-.283.249-.317l.075-.009h2.656zm-121.601.462c-.388-.312-.92-.462-1.59-.462h-1.334l-.074.01a.325.325 0 00-.25.316v4.795l.009.074c.033.144.162.251.315.251h.477l.074-.009.08-.03a.325.325 0 00.17-.286v-1.834l1.512 2.029.26.13h.592l.085-.01.074-.031a.327.327 0 00.1-.48l-1.019-1.358.113-.04.153-.073c.148-.082.284-.187.405-.317.317-.34.477-.76.477-1.243 0-.604-.21-1.091-.629-1.432zm5.645-.462c.153 0 .282.107.315.251l.009.075v.434a.325.325 0 01-.25.316l-.074.009h-1.817v1.08h1.746c.123 0 .23.068.284.17l.031.08.009.075v.434a.325.325 0 01-.25.317l-.074.008h-1.746v1.112h1.817c.123 0 .23.069.284.17l.031.081.009.075v.434a.325.325 0 01-.25.316l-.074.009h-2.617a.324.324 0 01-.315-.25l-.009-.075v-4.795c0-.154.106-.283.25-.317l.074-.009h2.617zm25.084.251a.323.323 0 00-.315-.25h-.477l-.074.008a.326.326 0 00-.25.317v4.795l.009.074c.034.144.162.251.315.251h.477l.075-.009a.326.326 0 00.249-.316v-4.795l-.009-.075zm25.321-.25c.153 0 .281.106.315.25l.008.075v.434a.325.325 0 01-.249.316l-.074.009h-1.818v1.08h1.747c.122 0 .229.068.284.17l.031.08.008.075v.434a.325.325 0 01-.249.317l-.074.008h-1.747v1.112h1.818c.122 0 .229.069.284.17l.031.081.008.075v.434a.325.325 0 01-.249.316l-.074.009h-2.618a.325.325 0 01-.315-.25l-.008-.075v-4.795c0-.154.106-.283.249-.317l.074-.009h2.618zm-44.422.63c-.342-.425-.884-.63-1.597-.63h-1.51l-.074.008a.325.325 0 00-.249.317v4.795l.009.074c.033.144.162.251.315.251h.477l.074-.009.08-.03a.325.325 0 00.17-.286v-1.6h.708l.235-.008c.534-.039.963-.216 1.273-.537.306-.318.459-.729.459-1.212 0-.447-.123-.83-.37-1.133zm120.98-.63c.669 0 1.201.149 1.589.46.419.342.629.829.629 1.433 0 .483-.16.903-.477 1.243-.121.13-.256.235-.405.317l-.153.073-.113.04 1.019 1.358a.326.326 0 01-.1.48l-.074.03-.084.011h-.594l-.259-.13-1.513-2.03.001 1.835c0 .123-.069.23-.169.285l-.081.031-.074.009h-.477a.324.324 0 01-.315-.25l-.009-.075v-4.795c0-.154.107-.283.25-.317l.074-.009h1.335zm-48.182.46c-.388-.311-.92-.46-1.589-.46h-1.335l-.074.008a.325.325 0 00-.249.317v4.795l.008.074c.034.144.162.251.315.251h.477l.074-.009.081-.03a.327.327 0 00.169-.286l-.001-1.836 1.513 2.03.259.131h.594l.084-.01.074-.031a.326.326 0 00.1-.48l-1.019-1.358.113-.04.153-.073c.149-.082.284-.187.405-.317.317-.34.477-.76.477-1.243 0-.604-.21-1.091-.629-1.432zm-5.484-.46c.153 0 .281.106.315.25l.008.075v.434a.325.325 0 01-.249.316l-.074.009h-.768l.002 4.036c0 .123-.069.23-.169.285l-.081.031-.074.009h-.477a.325.325 0 01-.315-.25l-.009-.075v-4.036h-.765a.321.321 0 01-.284-.17l-.031-.08-.009-.075v-.434c0-.154.106-.283.249-.317l.075-.009h2.656zm100.745.25a.325.325 0 00-.315-.25h-.477l-.074.008a.326.326 0 00-.25.317v4.795l.009.074c.033.144.162.251.315.251h2.45l.074-.009a.326.326 0 00.25-.316v-.434l-.009-.075-.031-.081a.324.324 0 00-.284-.17h-1.65l.001-4.035-.009-.075zm-120.283-.25c.153 0 .281.106.315.25l.008.075v4.035h1.65c.122 0 .229.069.284.17l.031.081.008.075v.434a.325.325 0 01-.249.316l-.074.009h-2.45a.323.323 0 01-.315-.25l-.009-.075v-4.795c0-.154.106-.283.249-.317l.075-.009h.477zm-43.298.13a.323.323 0 00-.26-.13h-.527l-.076.008a.324.324 0 00-.222.188l-2.056 4.795-.023.081a.325.325 0 00.32.373h.516l.075-.009.07-.026a.325.325 0 00.152-.161l.604-1.411h1.793l.605 1.41.039.067c.06.08.155.13.259.13h.515l.084-.01a.326.326 0 00.214-.443L94.9 49.758l-.038-.067zm71.838-.13c.153 0 .282.106.315.25l.009.075v4.795a.326.326 0 01-.25.316l-.074.009h-.477a.324.324 0 01-.315-.25l-.009-.075v-4.795c0-.154.107-.283.25-.317l.074-.009h.477zm-53.664.082a.323.323 0 00-.215-.083h-.645l-.074.01a.326.326 0 00-.25.316v4.795l.009.074c.033.144.162.251.315.251h.477l.074-.009.081-.03a.326.326 0 00.168-.286V51.52l2.272 3.344.052.06a.323.323 0 00.215.082h.477l.074-.009a.326.326 0 00.25-.316v-4.795l-.009-.075a.324.324 0 00-.315-.25h-.477l-.074.008-.081.031a.326.326 0 00-.168.286l-.001 2.921-2.103-3.104-.052-.06zm-8.972-.083c.669 0 1.201.15 1.589.462.419.34.629.828.629 1.432 0 .483-.16.903-.477 1.243-.121.13-.257.235-.405.317l-.153.073-.114.04 1.02 1.358c.125.167.06.39-.1.48l-.074.03-.085.011h-.593l-.259-.13-1.513-2.03v1.835c0 .123-.068.23-.168.285l-.081.031-.074.009h-.477a.324.324 0 01-.315-.25l-.009-.075v-4.795c0-.154.107-.283.25-.317l.074-.009h1.335zm41.568.251a.325.325 0 00-.315-.25H142.7l-.074.008a.325.325 0 00-.249.317v4.795l.008.074c.034.144.162.251.315.251h2.618l.074-.009a.325.325 0 00.249-.316v-.434l-.008-.075-.031-.081a.324.324 0 00-.284-.17H143.5v-1.112h1.747l.074-.008a.325.325 0 00.249-.317v-.434l-.008-.075-.031-.08a.324.324 0 00-.284-.17H143.5v-1.08h1.818l.074-.009a.325.325 0 00.249-.316v-.434l-.008-.075zm109.013-.25c.154 0 .282.106.316.25l.008.075v4.795a.325.325 0 01-.249.316l-.075.009h-.477a.325.325 0 01-.315-.25l-.008-.075v-4.795c0-.154.106-.283.249-.317l.074-.009h.477zm-154.607.25a.323.323 0 00-.315-.25h-.477l-.074.008a.325.325 0 00-.25.317v4.795l.009.074c.033.144.162.251.315.251h.477l.074-.009a.325.325 0 00.25-.316v-4.795l-.009-.075zm83.226-.25c.103 0 .198.049.259.13l.038.066 1.456 3.389 1.456-3.39a.324.324 0 01.152-.16l.07-.026.076-.01h.735c.153 0 .281.107.315.251l.008.075v4.795a.325.325 0 01-.249.316l-.074.009h-.478a.325.325 0 01-.315-.25l-.008-.075-.002-2.669-1.189 2.797a.323.323 0 01-.151.162l-.07.026-.076.009h-.4a.323.323 0 01-.259-.13l-.038-.067-1.192-2.8.001 2.672c0 .123-.068.23-.169.285l-.08.031-.075.009h-.476a.325.325 0 01-.316-.25l-.008-.075v-4.795c0-.154.106-.283.249-.317l.075-.009h.735zm64.339 1.492c.331-.33.738-.492 1.239-.492.502 0 .908.157 1.235.475.325.316.485.716.485 1.221 0 .517-.162.929-.489 1.258-.327.328-.731.49-1.231.49-.507 0-.916-.158-1.245-.478-.326-.317-.488-.72-.488-1.23 0-.507.163-.915.494-1.243zm-54.784-.492c-.501 0-.908.163-1.239.492-.331.329-.494.737-.494 1.243 0 .51.162.914.488 1.23.329.32.738.48 1.245.48.5 0 .904-.163 1.231-.492.327-.328.489-.74.489-1.257 0-.505-.161-.905-.485-1.22-.327-.318-.733-.476-1.235-.476zm35.214 2.051l.815.802-.084.155a1.09 1.09 0 01-.248.297.628.628 0 01-.415.14.568.568 0 01-.451-.193.696.696 0 01-.186-.493c0-.113.027-.216.081-.314.083-.146.231-.273.453-.376l.035-.018zm-23.317-2.05c-.501 0-.908.162-1.24.492-.33.328-.493.736-.493 1.242 0 .51.161.914.487 1.23.33.32.739.48 1.246.48.5 0 .904-.163 1.231-.492.327-.328.489-.74.489-1.257 0-.505-.161-.905-.485-1.22-.327-.318-.733-.476-1.235-.476zM93.898 52.313l.44-1.036.43 1.036h-.87zm117.467-1.669h-.535v1.577l.07-.026.084-.011h.381c.391 0 .671-.072.844-.201.168-.126.25-.307.25-.575 0-.223-.062-.384-.186-.507-.143-.141-.383-.229-.727-.251l-.181-.006zm-134.732 0h.535l.18.006c.345.022.584.11.728.251.124.123.186.284.186.507 0 .268-.082.449-.25.575-.173.13-.453.2-.844.2h-.381l-.084.012-.07.026v-1.577zm27.432 0h-.535v1.577l.07-.026.084-.011h.381c.391 0 .671-.072.844-.201.168-.126.25-.307.25-.575 0-.223-.062-.385-.187-.507-.143-.141-.382-.229-.726-.251l-.181-.006zm56.994 0h.535l.181.006c.344.022.584.11.727.251.124.122.186.284.186.507 0 .268-.082.449-.25.575-.173.13-.452.2-.844.2h-.381l-.084.012-.07.026v-1.577zm-72.265 0h-.715v1.351h.715c.315 0 .53-.074.667-.214a.61.61 0 00.17-.458c0-.203-.056-.352-.166-.465-.112-.116-.282-.187-.52-.208l-.151-.006zm139.314.003a.399.399 0 01.265-.087c.122 0 .201.03.257.089a.314.314 0 01.089.234c0 .068-.025.13-.084.197l-.066.065a1.052 1.052 0 01-.181.123l-.077.039-.113-.113a.839.839 0 01-.118-.169.396.396 0 01-.048-.188c0-.094.024-.148.076-.19z" fill="#808285"/></svg>