<svg width="1920" height="180" fill="none" xmlns="http://www.w3.org/2000/svg"><g opacity=".4" fill="#fff"><path d="M490.632 184.132a2.426 2.426 0 012.438 2.434 2.426 2.426 0 01-2.438 2.434 2.427 2.427 0 01-2.438-2.434 2.425 2.425 0 012.438-2.434zM371.452 102.992c1.084-1.082 2.709-1.082 3.522 0 1.083 1.082 1.083 2.705 0 3.516-.925.923-2.244 1.059-3.116.406a2.028 2.028 0 01-.406-.406 2.923 2.923 0 01-.47-.612c-.58-1.014-.423-2.235.47-2.904zM35.581 41.327h161.164l28.982-28.94h351.581l28.711 28.94 1.084-1.082-29.254-29.21H225.185l-28.982 28.94H35.581v1.352z"/><path d="M608.187 38.893c1.083 1.082 1.083 2.704 0 3.516-1.084 1.082-2.709 1.082-3.521 0-1.084-1.082-1.084-2.705 0-3.516.812-1.082 2.437-1.082 3.521 0zM264.26 43.725l29.795 29.48h163.872l25.19-25.153h70.154v1.352h-69.612l-25.19 25.154H293.513l-30.066-30.022.813-.811z"/><path d="M552.999 46.159a2.426 2.426 0 012.438 2.434 2.426 2.426 0 01-2.438 2.434 2.426 2.426 0 01-2.438-2.434 2.426 2.426 0 012.438-2.434zM265.885 42.372c-1.084-1.082-2.709-1.082-3.522 0-1.083 1.082-1.083 2.705 0 3.516 1.084 1.082 2.709 1.082 3.522 0 .812-.811.812-2.434 0-3.516zM541.283 132.743h-128.66l-26.274 26.235H199.454v1.352h187.437l26.274-26.235h128.118v-1.352z"/><path d="M199.725 157.085a2.426 2.426 0 00-2.438 2.434 2.425 2.425 0 002.438 2.434 2.425 2.425 0 002.437-2.434 2.425 2.425 0 00-2.437-2.434zM541.283 131.12a2.426 2.426 0 012.438 2.434 2.425 2.425 0 01-2.438 2.434 2.426 2.426 0 01-2.438-2.434c-.271-1.352 1.084-2.434 2.438-2.434z"/><path d="M110.611 112.188H-24.542l.542 1.353h134.069l74.216 73.836h304.046a2.465 2.465 0 01-.077-1.352H184.827l-74.216-73.837z"/><path d="M117.924 90.55H-31.855l.542 1.353h148.696l41.442 41.381h186.624l26.409-26.37a2.028 2.028 0 01-.406-.406 2.923 2.923 0 01-.47-.612l-26.074 26.036H159.366l-41.442-41.381z"/></g><g opacity=".4" fill="#fff"><path d="M1916.05 15.85h-117.56l-21.14 21.13h-256.46l-20.94-21.13-.79.79 21.33 21.328h257.25l21.14-21.13h117.17v-.988z"/><path d="M1498.37 17.627c-.79-.79-.79-1.975 0-2.567.79-.79 1.97-.79 2.56 0 .79.79.79 1.975 0 2.567-.59.79-1.77.79-2.56 0zM1749.24 14.1l-21.73-21.527h-119.54l-18.37 18.366h-51.18v-.987h50.78l18.38-18.367h120.32l21.93 21.922-.59.592z"/><path d="M1538.62 12.322c-.99 0-1.78-.79-1.78-1.778 0-.987.79-1.777 1.78-1.777s1.78.79 1.78 1.777a1.77 1.77 0 01-1.78 1.778zM1748.05 15.087c.79.79 1.98.79 2.57 0 .79-.79.79-1.975 0-2.568-.79-.79-1.97-.79-2.57 0-.59.593-.59 1.778 0 2.568zM1959.8 88.014l.59-.593-21.93-21.921h-120.32l-18.38 18.366h-50.77v.988h51.17l18.37-18.367h119.54l21.73 21.527z"/><path d="M1749.18 82.484c-.98 0-1.77.79-1.77 1.777 0 .988.79 1.778 1.77 1.778.99 0 1.78-.79 1.78-1.778a1.77 1.77 0 00-1.78-1.777zM1961.38 86.236c.79.79.79 1.975 0 2.567-.79.79-1.97.79-2.57 0-.79-.79-.79-1.975 0-2.567.6-.593 1.78-.593 2.57 0zM1498.36 182.135c-.79.79-.79 1.975 0 2.568.8.79 1.98.79 2.57 0 .64-.634.76-1.522.38-2.154a1.376 1.376 0 00-.38-.414 1.91 1.91 0 00-.37-.222c-.75-.357-1.69-.283-2.2.222zM1833.66 105.115h-7.91l-27.66 27.648h-49L1714.71 98.4H1593.6l-14.43-14.416h-79.82v-.988h80.22l14.42 14.417h121.12l34.38 34.363h48.21l27.66-27.648h8.3v.987z"/><path d="M1499.55 81.614c-.99 0-1.78.79-1.78 1.777 0 .987.79 1.777 1.78 1.777s1.78-.79 1.78-1.777a1.77 1.77 0 00-1.78-1.777zM1563.57 131.38H1691v-.987h-127.04l-24.89-24.883-.79.592 25.29 25.278z"/><path d="M1691 132.763c.99 0 1.78-.79 1.78-1.777a1.77 1.77 0 00-1.78-1.778c-.98 0-1.77.79-1.77 1.778 0 .987.79 1.777 1.77 1.777zM1537.49 107.089c-.79-.789-.79-1.974 0-2.567.79-.79 1.97-.79 2.56 0 .79.79.79 1.975 0 2.567-.79.79-1.97.79-2.56 0zM1748.3 166.929l34.38 34.165.4-.987-34.38-34.166h-232.16l-15.98 15.972c.13.061.26.135.37.222.16.118.29.258.38.414l15.63-15.62h231.36z"/></g><g opacity=".1" clip-path="url(#clip0)" fill="#fff"><path d="M584.418-114.05h733.062l87.03-86.466h358.91v-1.584h-359.55l-87.03 86.466H585.053L498.026-202.1H138.483v1.584h358.908l87.027 86.466z"/><path d="M1763.1-198.299c1.58 0 2.86-1.267 2.86-2.85a2.85 2.85 0 00-2.86-2.851 2.843 2.843 0 00-2.86 2.851c0 1.583 1.27 2.85 2.86 2.85zM138.8-198.299a2.842 2.842 0 01-2.858-2.85A2.842 2.842 0 01138.8-204a2.843 2.843 0 012.859 2.851 2.843 2.843 0 01-2.859 2.85zM575.842-88.712h750.208l48.6-48.459h217.57l32.71 32.623 1.27-1.267-33.35-32.94h-218.83l-48.6 48.46H576.477l-48.595-48.46H309.043l-33.032 32.94.953 1.267 32.714-32.623h217.568l48.596 48.459z"/><path d="M1623.35-103.281c1.27 1.267 3.17 1.267 4.12 0 1.27-1.267 1.27-3.167 0-4.117-1.27-1.267-3.17-1.267-4.12 0-1.28 1.266-1.28 3.167 0 4.117zM278.551-103.281c-1.27 1.267-3.176 1.267-4.129 0-1.27-1.267-1.27-3.167 0-4.117 1.271-1.267 3.177-1.267 4.129 0 1.271 1.266 1.271 3.167 0 4.117zM.001-63.692h267.752l32.714-32.939h225.191l31.762 31.672h787.06l31.76-31.672h225.19l32.71 32.94H1920v1.583h-286.49l-32.72-32.94h-223.92l-31.76 31.673H556.785l-31.762-31.672h-223.92l-32.715 32.939H.001v-1.584zM.001 4.405h157.856l26.998 26.921h455.463l71.147-70.946h478.965l71.15 70.946h455.46l27-26.921H1920v1.583h-175.32l-27 26.922h-456.74l-71.14-70.946H712.1L640.953 32.91H184.219L157.222 5.988H.002V4.405z"/><path d="M699.078 11.689h175.007L898.224-12.7h105.446l24.14 24.388h175.01l-24.14-24.071-1.27.95 21.6 21.537h-170.56l-24.14-24.388H897.589L873.45 10.105H702.889l21.598-21.537-.953-.95-24.456 24.07z"/><path d="M1180.27-13.966c-1.27-1.267-3.18-1.267-4.13 0-1.27 1.267-1.27 3.168 0 4.118 1.27 1.267 3.18 1.267 4.13 0 .95-.95.95-2.85 0-4.118zM721.63-13.966c1.27-1.267 3.176-1.267 4.129 0 1.27 1.267 1.27 3.168 0 4.118-1.271 1.267-3.177 1.267-4.129 0-.953-.95-.953-2.85 0-4.118zM672.08 36.077h202.958l23.186-23.438h105.446l23.19 23.438h202.96v-1.584h-202.33l-23.18-23.437H897.589l-23.186 23.437H672.08v1.584z"/><path d="M1229.5 37.977c1.59 0 2.86-1.267 2.86-2.85 0-1.584-1.27-2.851-2.86-2.851a2.843 2.843 0 00-2.86 2.85c0 1.584 1.27 2.851 2.86 2.851zM672.398 37.977a2.843 2.843 0 01-2.859-2.85 2.843 2.843 0 012.859-2.851 2.842 2.842 0 012.858 2.85c0 1.584-1.27 2.851-2.858 2.851zM901.083 36.394h100.047v1.584H901.083v-1.584z"/><path d="M1000.81 40.195c1.59 0 2.86-1.267 2.86-2.85 0-1.584-1.27-2.851-2.86-2.851a2.841 2.841 0 00-2.854 2.85c0 1.584 1.27 2.85 2.854 2.85zM901.083 40.195a2.843 2.843 0 01-2.859-2.85 2.843 2.843 0 012.859-2.851 2.842 2.842 0 012.858 2.85c0 1.584-1.27 2.85-2.858 2.85zM877.579 61.733h146.741v1.583H877.579v-1.583z"/><path d="M1024.32 65.533c1.59 0 2.86-1.267 2.86-2.85 0-1.584-1.27-2.851-2.86-2.851a2.843 2.843 0 00-2.86 2.85c-.32 1.584.95 2.85 2.86 2.85zM877.578 65.533a2.842 2.842 0 01-2.858-2.85c0-1.584 1.27-2.851 2.858-2.851a2.842 2.842 0 012.859 2.85c.318 1.584-.953 2.85-2.859 2.85z"/><path d="M846.769 88.654h208.361l30.49-30.405h186.44v-1.584h-187.08l-30.49 30.405H847.405l-30.492-30.405H629.836v1.584h186.442l30.491 30.405z"/><path d="M1272.06 60.15c1.59 0 2.86-1.268 2.86-2.851 0-1.584-1.27-2.85-2.86-2.85a2.843 2.843 0 00-2.86 2.85c-.32 1.583.95 2.85 2.86 2.85zM629.837 60.149a2.842 2.842 0 01-2.858-2.85c0-1.584 1.27-2.851 2.858-2.851a2.843 2.843 0 012.859 2.85c.317 1.584-.953 2.851-2.859 2.851zM821.361 113.992h259.179l30.49-30.406h99.73v-1.583h-100.37l-30.49 30.405H821.996l-30.491-30.405H691.138v1.584h99.732l30.491 30.405z"/><path d="M1210.44 85.487c1.59 0 2.86-1.267 2.86-2.85 0-1.584-1.27-2.851-2.86-2.851a2.843 2.843 0 00-2.86 2.85c0 1.584 1.27 2.85 2.86 2.85zM691.455 85.487a2.843 2.843 0 01-2.859-2.85 2.843 2.843 0 012.859-2.851 2.842 2.842 0 012.858 2.85c0 1.584-1.27 2.851-2.858 2.851z"/><path d="M686.056 139.329h529.784l56.22-55.743h164.21l24.77-25.021h211.22V56.98h-211.85l-24.78 25.021h-164.21l-56.21 55.744H686.691l-56.218-55.744H466.264L441.49 56.981H229.639v1.584h211.216l24.774 25.02h164.208l56.219 55.744z"/><path d="M1672.26 60.782c1.59 0 2.86-1.267 2.86-2.85 0-1.584-1.27-2.851-2.86-2.851a2.843 2.843 0 00-2.86 2.85c-.32 1.584.95 2.85 2.86 2.85zM229.639 60.782a2.843 2.843 0 01-2.859-2.85 2.843 2.843 0 012.859-2.851 2.843 2.843 0 012.859 2.85c.317 1.584-.953 2.85-2.859 2.85zM686.056 164.667h529.784l48.92-48.458h155.63v-1.584h-156.27l-48.91 48.459H686.691l-48.913-48.459H481.51v1.584h155.633l48.913 48.458z"/><path d="M1420.07 118.427c1.59 0 2.86-1.267 2.86-2.851s-1.27-2.85-2.86-2.85a2.842 2.842 0 00-2.86 2.85 2.843 2.843 0 002.86 2.851zM481.828 118.426a2.843 2.843 0 01-2.859-2.851 2.843 2.843 0 012.859-2.851 2.842 2.842 0 012.858 2.851 2.842 2.842 0 01-2.858 2.851z"/><path d="M.001 41.462h156.586l45.101 45.291h216.616l50.183 50.043h164.209l51.771 51.626h532.963l51.77-51.626h164.21l50.18-50.043h216.62l45.42-45.291H1920v1.583h-173.74l-45.42 45.292h-216.61l-50.19 50.042h-164.2l-51.78 51.626H683.832l-51.772-51.626H467.852l-50.184-50.042H201.053l-45.102-45.292H.001v-1.583z"/><path d="M.001 177.97H629.52l35.891 35.79h571.08l35.89-35.79H1920v1.583h-646.99l-35.89 35.79H664.775l-35.891-35.79H.001v-1.583zM281.41 298.959h418.937l58.124-58.278h384.949l58.13 58.278h418.94l62.25-62.395-1.27-.95-61.62 61.761h-417.67l-58.12-58.277H757.836l-58.124 58.277H282.045l-61.618-61.761-1.27.95 62.253 62.395z"/><path d="M1684.01 238.464c1.27-1.266 1.27-3.167 0-4.117-1.27-1.267-3.18-1.267-4.13 0-1.27 1.267-1.27 3.167 0 4.117 1.27.951 3.18.951 4.13 0zM217.887 238.464c-1.27-1.266-1.27-3.167 0-4.117 1.271-1.267 3.176-1.267 4.129 0 1.271 1.267 1.271 3.167 0 4.117-1.27.951-3.176.951-4.129 0zM755.613 281.855l15.563-15.836h359.544l15.56 15.836 1.27-1.267-16.2-16.153H770.541l-16.199 16.153 1.271 1.267z"/><path d="M1144.7 283.122c1.27 1.267 3.17 1.267 4.12 0 1.27-1.267 1.27-3.167 0-4.117-1.27-1.267-3.17-1.267-4.12 0-1.28 1.266-1.28 3.167 0 4.117zM757.203 283.122c-1.271 1.267-3.177 1.267-4.129 0-1.271-1.267-1.271-3.167 0-4.117 1.27-1.267 3.176-1.267 4.129 0 1.27 1.266 1.27 3.167 0 4.117zM807.703 289.773h286.487v1.584H807.703v-1.584z"/><path d="M1094.19 293.575c1.59 0 2.86-1.267 2.86-2.851 0-1.583-1.27-2.85-2.86-2.85a2.84 2.84 0 00-2.85 2.85c-.32 1.584.95 2.851 2.85 2.851zM807.703 293.574a2.843 2.843 0 01-2.859-2.851 2.843 2.843 0 012.859-2.85 2.842 2.842 0 012.858 2.85c.318 1.584-.952 2.851-2.858 2.851zM277.915 371.488l54.948-54.794H1569.03l54.95 54.794.95-.95-55.26-55.427H332.228l-55.266 55.427.953.95z"/><path d="M1622.07 373.071c1.27 1.267 3.18 1.267 4.13 0 1.27-1.267 1.27-3.167 0-4.117-1.27-1.267-3.17-1.267-4.13 0-.95.95-.95 2.85 0 4.117zM279.82 373.071c-1.27 1.267-3.176 1.267-4.129 0-1.27-1.267-1.27-3.167 0-4.117 1.271-1.267 3.177-1.267 4.129 0 .953.95.953 2.85 0 4.117zM542.81 340.45h815.96v1.583H542.81v-1.583z"/><path d="M1358.77 344.251c1.59 0 2.86-1.267 2.86-2.85a2.843 2.843 0 00-2.86-2.851 2.843 2.843 0 00-2.86 2.851c0 1.583 1.27 2.85 2.86 2.85zM543.128 344.25a2.843 2.843 0 01-2.859-2.85 2.843 2.843 0 012.859-2.851 2.843 2.843 0 012.859 2.851c.317 1.583-1.271 2.85-2.859 2.85z"/><path d="M359.862 367.371H1542.03l22.56-22.487-.96-.951-22.23 21.854H360.497l-22.233-21.854-.953.951 22.551 22.487z"/><path d="M1566.17 346.469c1.27-1.267 1.27-3.167 0-4.118-1.27-1.267-3.17-1.267-4.13 0-1.27 1.267-1.27 3.168 0 4.118.96 1.267 2.86 1.267 4.13 0zM335.722 346.467c-1.27-1.267-1.27-3.167 0-4.117 1.271-1.267 3.176-1.267 4.129 0 1.271 1.267 1.271 3.167 0 4.117-.953 1.267-2.858 1.267-4.129 0zM382.094 418.996l.953-.95-25.091-25.338H1543.94l-25.09 25.338 1.27.95 27.63-27.871H354.144l27.95 27.871z"/><path d="M1517.26 416.146c-1.27 1.267-1.27 3.167 0 4.118 1.27 1.267 3.18 1.267 4.13 0 1.27-1.267 1.27-3.168 0-4.118-.95-.95-2.86-.95-4.13 0zM384.636 416.146c1.27 1.267 1.27 3.167 0 4.118-1.271 1.267-3.176 1.267-4.129 0-1.271-1.267-1.271-3.168 0-4.118.953-.95 2.858-.95 4.129 0z"/><path d="M332.229 447.819h237.896l29.538-29.772h702.567l29.54 29.772h237.9l53.99-53.843h220.11v-1.584h-220.74l-54 53.843h-236.62l-29.54-29.772H599.028l-29.538 29.772H332.864l-53.995-53.843H58.125v1.584h220.109l53.995 53.843z"/><path d="M1843.77 395.876c1.59 0 2.86-1.267 2.86-2.85a2.843 2.843 0 00-2.86-2.851 2.843 2.843 0 00-2.86 2.851c-.31 1.583.96 2.85 2.86 2.85zM58.124 395.876a2.843 2.843 0 01-2.858-2.85 2.843 2.843 0 012.858-2.851 2.843 2.843 0 012.86 2.851c.317 1.583-.954 2.85-2.86 2.85zM283.634 483.608h314.124l40.02-40.224h626.342l40.02 40.224h314.12l44.79-44.658-.96-1.267-44.46 44.341h-312.86l-40.02-40.224H637.143l-40.02 40.224H284.269l-44.466-44.341-.953 1.267 44.784 44.658z"/><path d="M1664.64 440.534c1.27-1.267 1.27-3.168 0-4.118-1.28-1.267-3.18-1.267-4.13 0-1.27 1.267-1.27 3.167 0 4.118.95 1.266 2.85 1.266 4.13 0zM237.261 440.533c-1.27-1.266-1.27-3.167 0-4.117 1.271-1.267 3.177-1.267 4.129 0 1.271 1.267 1.271 3.167 0 4.117-.952 1.267-2.858 1.267-4.129 0zM282.682 524.783h316.03l56.218-56.061h592.04l56.22 56.061h316.03v-1.584h-315.4l-56.22-56.06H654.295l-56.218 56.06H282.682v1.584z"/><path d="M1619.22 527c1.59 0 2.86-1.267 2.86-2.85a2.843 2.843 0 00-2.86-2.851 2.843 2.843 0 00-2.86 2.851c0 1.583 1.27 2.85 2.86 2.85zM282.682 527a2.842 2.842 0 01-2.858-2.85 2.842 2.842 0 012.858-2.851 2.843 2.843 0 012.859 2.851c.317 1.583-1.271 2.85-2.859 2.85zM.001-31.069h188.983l33.985 33.89h412.267l33.668-33.89 1.27 1.267-34.302 34.206H222.333l-33.985-33.89H.001v-1.583z"/><path d="M671.445-28.218c1.271-1.267 1.271-3.168 0-4.118-1.27-1.267-3.176-1.267-4.129 0-1.27 1.267-1.27 3.167 0 4.118.953 1.267 2.859 1.267 4.129 0zM1232.99-31.069l33.67 33.89h412.27l33.98-33.89H1920v1.584h-206.45l-33.99 33.89h-413.53l-33.99-34.207.95-1.267z"/><path d="M1234.58-32.335c-1.27-1.267-3.18-1.267-4.13 0-1.27 1.267-1.27 3.167 0 4.117 1.27 1.267 3.18 1.267 4.13 0 1.27-1.267 1.27-3.167 0-4.117zM274.741-24.417l34.938-34.523h192.159l29.538 29.455h82.263v-1.584h-81.627l-29.539-29.455H309.044l-35.256 35.157.953.95z"/><path d="M613.321-27.268a2.843 2.843 0 002.859-2.85 2.843 2.843 0 00-2.859-2.851 2.843 2.843 0 00-2.859 2.85 2.843 2.843 0 002.859 2.85zM276.647-22.833c-1.271 1.267-3.176 1.267-4.129 0-1.27-1.267-1.27-3.168 0-4.118 1.27-1.267 3.176-1.267 4.129 0 .953.95.953 2.85 0 4.118zM1627.16-24.417l.95-.95-35.26-35.157h-193.42l-29.54 29.456h-81.63v1.583h82.26l29.54-29.455h192.16l34.94 34.523z"/><path d="M1288.58-33.286a2.843 2.843 0 00-2.86 2.85c0 1.585 1.27 2.852 2.86 2.852 1.58 0 2.86-1.267 2.86-2.851s-1.28-2.85-2.86-2.85zM1629.7-27.268c1.27 1.267 1.27 3.167 0 4.117-1.27 1.267-3.18 1.267-4.13 0-1.27-1.267-1.27-3.167 0-4.117.95-.95 2.86-.95 4.13 0zM0 209.642h256.635l55.266 54.793h371.93l27.315-27.238 1.271.95-27.951 27.872H311.265L256 211.226H0v-1.584z"/><path d="M713.688 240.047c1.27-1.267 1.27-3.167 0-4.117-1.271-1.267-3.177-1.267-4.13 0-1.27 1.267-1.27 3.167 0 4.117 1.271.95 3.177.95 4.13 0zM1190.75 237.197l27.31 27.238H1590l55.26-54.793H1920v1.584h-274.1l-55.27 54.793h-373.2l-27.95-27.872 1.27-.95z"/><path d="M1192.34 235.613c-1.27-1.267-3.18-1.267-4.13 0-1.27 1.267-1.27 3.168 0 4.118 1.27 1.267 3.18 1.267 4.13 0 1.27-.95 1.27-2.851 0-4.118zM652.069 238.464l.953-.95-25.727-25.655H312.218v1.584H626.66l25.409 25.021z"/><path d="M650.164 240.047c1.271 1.267 3.177 1.267 4.129 0 1.271-1.267 1.271-3.167 0-4.117-1.27-1.267-3.176-1.267-4.129 0-.952.95-.952 2.85 0 4.117zM312.22 215.343a2.842 2.842 0 01-2.858-2.85 2.842 2.842 0 012.858-2.851 2.843 2.843 0 012.859 2.851c.317 1.583-.953 2.85-2.859 2.85zM1250.14 238.464l25.1-25.021h314.44v-1.584H1274.6l-25.73 25.655 1.27.95z"/><path d="M1247.29 235.614c-1.28 1.267-1.28 3.167 0 4.117 1.27 1.267 3.17 1.267 4.12 0 1.27-1.267 1.27-3.167 0-4.117-.95-.951-2.85-.951-4.12 0zM1589.68 209.642c1.59 0 2.86 1.267 2.86 2.851 0 1.583-1.27 2.85-2.86 2.85a2.843 2.843 0 01-2.86-2.85c-.32-1.584.95-2.851 2.86-2.851zM79.406-138.121h150.868l30.809-30.722h219.156v-1.584H260.448l-30.809 30.723H79.406v1.583z"/><path d="M479.922-166.626a2.842 2.842 0 002.858-2.851c0-1.583-1.27-2.85-2.858-2.85a2.843 2.843 0 00-2.859 2.85 2.843 2.843 0 002.859 2.851zM79.406-136.22a2.843 2.843 0 01-2.859-2.851c0-1.584 1.27-2.85 2.859-2.85a2.842 2.842 0 012.858 2.85c.318 1.584-1.27 2.851-2.858 2.851zM1671.62-138.121h150.87v-1.584h-150.23l-30.81-30.722h-219.79v1.584h219.16l30.8 30.722z"/><path d="M1421.98-172.644a2.843 2.843 0 00-2.86 2.851c0 1.583 1.27 2.85 2.86 2.85a2.84 2.84 0 002.85-2.85 2.84 2.84 0 00-2.85-2.851zM1822.49-141.921c1.59 0 2.86 1.266 2.86 2.85a2.843 2.843 0 01-2.86 2.851 2.843 2.843 0 01-2.86-2.851c0-1.584 1.27-2.85 2.86-2.85zM.002 118.742h12.704l44.467-44.341h78.769l55.266 55.11h194.699l23.186 23.121h128.318v1.583H408.458l-23.186-23.121h-194.7l-55.265-55.11H57.808l-44.466 44.342H.002v-1.584z"/><path d="M537.092 156.433a2.843 2.843 0 002.859-2.851c0-1.584-1.27-2.85-2.859-2.85a2.842 2.842 0 00-2.858 2.85 2.842 2.842 0 002.858 2.851zM1492.8 152.632l23.19-23.121h194.7l55.27-55.11h78.76l44.47 44.341H1920v1.584h-31.44l-44.47-44.342h-77.5l-55.26 55.11h-194.7l-23.19 23.121h-128.95v-1.583h128.31z"/><path d="M1364.8 150.415a2.84 2.84 0 00-2.85 2.85 2.84 2.84 0 002.85 2.851c1.59 0 2.86-1.267 2.86-2.851 0-1.583-1.27-2.85-2.86-2.85zM105.768 154.215h204.863v-1.584H106.403l-40.02-39.907-1.27.95 40.655 40.541z"/><path d="M310.631 156.432a2.843 2.843 0 002.859-2.85 2.843 2.843 0 00-2.859-2.851 2.842 2.842 0 00-2.858 2.851c0 1.583 1.27 2.85 2.858 2.85zM63.842 115.258c-1.27-1.267-1.27-3.167 0-4.118 1.27-1.266 3.177-1.266 4.13 0 1.27 1.267 1.27 3.168 0 4.118-1.271 1.267-3.177 1.267-4.13 0zM1591.27 154.215h204.86l40.65-40.541-1.27-.95-40.02 39.908h-204.22v1.583z"/><path d="M1591.27 150.414a2.843 2.843 0 00-2.86 2.851c0 1.584 1.27 2.85 2.86 2.85a2.84 2.84 0 002.85-2.85c.32-1.584-1.27-2.851-2.85-2.851zM1833.93 111.141c1.27-1.267 3.17-1.267 4.12 0 1.28 1.266 1.28 3.167 0 4.117-1.27 1.267-3.17 1.267-4.12 0-1.27-.95-1.27-2.851 0-4.117zM.001 87.07h14.293v1.584H.001V87.07z"/><path d="M14.293 90.87a2.843 2.843 0 002.859-2.85c0-1.584-1.27-2.85-2.859-2.85a2.843 2.843 0 00-2.858 2.85c-.318 1.584.952 2.85 2.858 2.85zM1887.6 87.07h32.4v1.583h-32.4v-1.584z"/><path d="M1887.6 84.852a2.843 2.843 0 00-2.86 2.851c0 1.584 1.27 2.85 2.86 2.85 1.59 0 2.86-1.266 2.86-2.85.32-1.267-.95-2.85-2.86-2.85zM.002 346.784h262.352l27.633-27.239.953.951-27.951 27.871H.002v-1.583z"/><path d="M292.526 322.396c1.271-1.267 1.271-3.167 0-4.117-1.27-1.267-3.176-1.267-4.129 0-1.27 1.266-1.27 3.167 0 4.117.953.95 2.859.95 4.129 0zM1611.91 319.546l27.63 27.238H1920v1.583h-281.09l-27.95-27.871.95-.95z"/><path d="M1613.82 317.962c-1.27-1.267-3.18-1.267-4.13 0-1.27 1.267-1.27 3.167 0 4.117 1.27 1.267 3.17 1.267 4.13 0 .95-.95.95-2.85 0-4.117zM0 261.268h200.734l45.737 45.925-.953.95-45.419-45.292H0v-1.583z"/><path d="M243.613 309.726c1.271 1.267 3.176 1.267 4.129 0 1.271-1.266 1.271-3.167 0-4.117-1.27-1.267-3.176-1.267-4.129 0-.953.95-.953 2.851 0 4.117zM1701.16 261.268H1920v1.583h-218.2l-45.11 45.292-1.27-.95 45.74-45.925z"/><path d="M1653.84 305.292c-1.27 1.267-1.27 3.168 0 4.118 1.27 1.267 3.17 1.267 4.12 0 1.27-1.267 1.27-3.167 0-4.118-.95-.95-2.85-.95-4.12 0zM0 310.994h204.864v1.584H0v-1.584z"/><path d="M204.863 314.794a2.842 2.842 0 002.859-2.85 2.843 2.843 0 00-2.859-2.851 2.842 2.842 0 00-2.858 2.851c-.318 1.584.953 2.85 2.858 2.85zM1697.03 310.993H1920v1.584h-222.97v-1.584z"/><path d="M1697.03 308.776a2.843 2.843 0 00-2.86 2.851c0 1.583 1.27 2.85 2.86 2.85 1.59 0 2.86-1.267 2.86-2.85.32-1.584-.95-2.851-2.86-2.851z"/></g><defs><clipPath id="clip0"><path fill="#fff" d="M0 0h1920v180H0z"/></clipPath></defs></svg>