<svg width="1920" height="180" fill="none" xmlns="http://www.w3.org/2000/svg"><g clip-path="url(#clip0)"><g opacity=".6" fill="#D67500"><path d="M1980.88 126.021l-55.09 31.742-41.66-11.1 96.95-37.194v-.974l-98.51 37.779c-.19 0-.39.195-.39.389 0 .195.2.39.39.39l43.22 11.489h.39l54.9-31.547-.2-.974zM1518.32 59.616h-.19c-.2 0-.2-.195-.2-.39l-4.67-22.59v-.389c0-.194.2-.194.39-.194l116.03-13.437c.2 0 .39.195.59.39 0 .194 0 .389-.39.583l-111.56 36.027c.2 0 0 0 0 0zm-4.08-22.785l4.47 21.616L1625.2 23.98 1514.24 36.83z"/><path d="M1822.8 101.095c-.19 0-.19 0 0 0L1629.49 23.59c-.2 0-.2-.195-.2-.39s0-.39.2-.39l97.73-80.62c.19 0 .19-.195.39-.195.19 0 .19.195.39.195l95.39 158.126c.19.195 0 .389 0 .584-.39 0-.59.195-.59.195zm-192.15-78.09l191.18 76.727-94.42-156.569-96.76 79.842z"/><path d="M1822.8 101.095c-.19 0-.38 0-.38-.195l-95.4-158.126v-.39c0-.194.2-.194.2-.194l80.01-35.832h.39c.19 0 .19.195.19.39l15.38 193.763c0 .194-.19.389-.39.584zm-94.81-158.321l94.04 155.984-14.99-191.426-79.05 35.442z"/><path d="M1822.8 101.095c-.19 0-.39-.195-.39-.39l-15.18-193.958c0-.194 0-.194.19-.39 0 0 .2-.194.39-.194l66.78-.584s.19 0 .39.195c0 .194.19.194 0 .39l-51.79 194.541c0 .195-.19.39-.39.39zm-14.79-193.958L1823 97.979l50.62-191.426-65.61.584z"/><path d="M1980.89 108.495l-98.32 37.584-58.79-45.179 157.11-16.942v-.974l-158.47 16.942c-.2 0-.39.195-.39.39 0 .194 0 .389.19.389l59.77 45.958h.39l98.12-37.584.39-.584zM1571.67 99.732h-.2l-53.34-40.116c-.2-.195-.2-.39-.2-.584.2-.195.39-.195.59-.195l84.49 30.768c.19 0 .39.195.39.39 0 .194-.2.39-.39.39l-31.34 9.347zm-50.62-39.142l50.62 38.168 29.78-8.958-80.4-29.21z"/><path d="M1602.82 90.384l-84.69-30.768c-.2 0-.39-.195-.39-.39 0-.194.19-.39.39-.39l111.36-36.025c.19 0 .39 0 .39.194.19.195.19.39 0 .39l-26.87 66.99h-.19zm-83.13-31.158l82.93 30.184 26.28-65.626-109.21 35.442z"/><path d="M1563.68 243.837c-.38 0-.38-.195-.38-.39l7.98-143.91c0-.195.19-.39.39-.39l31.34-9.347c.19 0 .39 0 .39.195.19.194.19.194.19.389l-39.32 153.258c-.2 0-.39.195-.59.195zm8.38-144.106l-7.6 139.042 37.97-148-30.37 8.958z"/><path d="M1822.8 101.095l-219.79-10.71c-.19 0-.19 0-.39-.196v-.39l26.87-66.989c0-.194.19-.194.19-.194h.39l193.12 77.505c.2 0 .39.389.2.584-.2.195-.39.39-.59.39zm-219.21-11.49l216.49 10.516-190.2-76.337-26.29 65.821z"/><path d="M1629.68 23.59s-.19 0 0 0c-.39 0-.39-.195-.39-.39l-22.58-174.484c0-.195 0-.39.19-.39h.59l120.31 93.863c.19 0 .19.195.19.39 0 .194 0 .194-.19.39l-97.73 80.62c-.19-.194-.19 0-.39 0zm-22-173.901l22.39 172.537 96.76-79.647-119.15-92.89zM1563.68 243.837c-.19 0-.19 0-.38-.195-.2-.195-.2-.195-.2-.389l39.33-153.258c0-.195.19-.195.19-.39h.39l166.45 115.09c.2.194.2.194.2.389s-.2.39-.39.39l-205.59 38.363zm39.52-153.063l-38.93 151.894 203.83-37.973-164.9-113.921z"/><path d="M1769.27 205.474h-.2l-166.45-115.09c-.19-.195-.19-.39-.19-.584 0-.195.19-.39.39-.39l219.79 10.711c.19 0 .39 0 .39.195v.389l-53.34 104.379c0 .195 0 .195-.39.39.19 0 .19 0 0 0zm-164.7-114.895l164.7 113.726 52.76-103.21-217.46-10.516z"/><path d="M1769.27 205.474c-.2 0-.2 0-.39-.195-.2-.195-.2-.39 0-.584l53.34-104.379c0-.195.2-.195.39-.195h.39l59.77 45.958c.19 0 .19.195.19.389 0 .195-.19.39-.19.39l-113.31 58.226c0 .39 0 .39-.19.39zM1823 101.29l-52.56 102.626 111.35-57.253L1823 101.29z"/><path d="M1878.68 311.021c-.2 0-.2 0-.39-.195l-109.41-105.742c-.2-.195-.2-.195-.2-.389 0-.195.2-.195.39-.39l156.53-46.737c.19 0 .38 0 .38.195.2.195.2.39.2.39l-46.92 152.673c-.19 0-.19.195-.58.195.19 0 .19 0 0 0zm-108.44-105.937l108.24 104.574 46.53-150.921-154.77 46.347z"/><path d="M1769.27 205.474c-.2 0-.39-.195-.39-.195 0-.195 0-.389.19-.584l113.31-58.226h.39l43.22 11.489c.19 0 .38.195.38.389 0 .195-.19.39-.38.39l-156.72 46.737c.19 0 .19 0 0 0zm113.3-58.421l-108.63 55.889 150.1-44.984-41.47-10.905zM1250.05 235.463c-.19 0-.39-.194-.39-.194l-26.86-47.711v-.389c0-.195.19-.195.39-.195l80.01-15.969c.2 0 .39 0 .39.195.2.195 0 .39 0 .584l-53.15 63.679c0-.194-.19 0-.39 0zm-26.08-47.905l26.08 46.542 51.98-62.121-78.06 15.579zM1513.65 37.026c-.19 0-.39-.194-.39-.389l-37.18-122.879c0-.195 0-.39.19-.584.2-.195.39-.195.59 0l153.21 109.442c.2.195.2.39.2.39 0 .194-.2.389-.39.389l-116.23 13.631zm-36.4-122.294l36.79 121.32 114.47-13.241-151.26-108.08z"/><path d="M1629.68 23.59h-.19L1476.27-85.854c-.19 0-.19-.195-.19-.39 0-.194.19-.389.19-.389l130.63-65.042h.39c.2 0 .2.195.2.39L1630.07 23.2c0 .195 0 .39-.19.39h-.2zM1477.25-86.438L1629.1 22.031 1606.71-150.7l-129.46 64.263zM1433.83 123.1c-.19 0-.19 0-.39-.195-.19-.195-.19-.389 0-.584l79.82-86.074c.2-.194.2-.194.39-.194.2 0 .2.194.39.389l4.67 22.59c0 .194 0 .389-.19.389l-84.49 63.484c0 .195 0 .195-.2.195zm79.63-85.684l-75.73 81.789 80.2-60.173-4.47-21.616z"/><path d="M1433.83 123.1c-.19 0-.39-.195-.39-.195 0-.195 0-.389.2-.584l84.49-63.484c.19-.195.39-.195.58 0l53.35 40.115c.19.195.19.39.19.39s-.19.39-.39.39L1433.83 123.1c.2 0 .2 0 0 0zm84.49-63.29l-82.54 62.121 134.72-22.784-52.18-39.337z"/><path d="M1563.68 243.837c-.19 0-.19 0-.38-.195l-129.86-120.737c-.19-.194-.19-.389-.19-.389 0-.195.19-.195.39-.39l137.64-23.368c.19 0 .19 0 .39.195.19 0 .19.194.19.39l-7.98 143.91c.19.194.19.389-.2.584.2 0 0 0 0 0zM1435 122.905l128.3 119.374 7.78-142.547L1435 122.905zM1981.47.026l-158.08 99.51 51-192.789 107.27 45.374v-.974L1874.2-94.226h-.39c-.19 0-.19.194-.19.39l-51.4 194.346c0 .195 0 .39.19.39h.39L1981.27 1l.2-.974z"/><path d="M1981.08 83.179l-156.52 16.747 156.91-98.731V.026l-159.06 100.095c-.19.195-.19.39-.19.584 0 .195.19.39.39.39l158.27-16.942.2-.974zM1250.05 235.463c-.19 0-.19 0-.38-.195-.2-.194-.2-.389 0-.584l53.14-63.679c0-.195.2-.195.39-.195l105.13-.389c.19 0 .39.195.39.389 0 .195 0 .39-.2.585l-158.47 64.068c.2 0 .2 0 0 0zm53.54-63.679l-51.98 62.121 154.38-62.316-102.4.195z"/><path d="M1378.15 339.258c-.19 0-.19 0-.19-.195l-128.1-103.989c-.19-.195-.19-.195-.19-.39s.19-.389.19-.389l158.28-63.874h.38c.2.195.2.195.2.389l-30.37 167.864c.19.389.19.584-.2.584zm-127.12-104.184l126.93 103.015 29.98-166.305-156.91 63.29z"/><path d="M1303.2 171.784c-.19 0-.39-.194-.39-.389s0-.39.2-.584l130.63-48.685c.19 0 .39 0 .58.195.2.195.2.39 0 .584l-25.5 48.295c0 .195-.2.195-.39.195l-105.13.389zm129.66-48.294l-127.13 47.321 102.41-.39 24.72-46.931z"/><path d="M1378.15 339.258h-.19c-.2-.195-.2-.195-.2-.39l30.38-167.863c0-.195.19-.195.19-.389h.39l155.16 72.442c.19 0 .19.195.19.389 0 .195 0 .39-.19.39l-185.53 95.616c0-.195-.2-.195-.2-.195zm30.57-167.669l-29.98 166.5 183.97-94.642-153.99-71.858z"/><path d="M1563.68 243.837s-.19 0 0 0l-155.35-72.442c-.2 0-.2-.195-.2-.195v-.39l25.51-48.294c0-.195.19-.195.39-.195.19 0 .19 0 .39.195l129.85 120.736c.19.195.19.39 0 .585-.39-.195-.39 0-.59 0zm-154.57-73.027l152.24 70.885-127.13-118.4-25.11 47.515zM1980.3 241.5l-100.65 67.963 46.33-150.337 54.32 69.911v-1.558l-54.12-69.716c-.2-.195-.2-.195-.39-.195s-.39.195-.39.39l-47.11 152.479c0 .194 0 .389.19.584h.39l101.24-68.353.19-1.168zM1603.01 84.542c-2.92 0-5.45 2.337-5.45 5.453 0 2.92 2.33 5.452 5.45 5.452 2.92 0 5.45-2.337 5.45-5.452-.19-2.921-2.53-5.453-5.45-5.453zM1882.57 140.237c-3.5 0-6.42 2.921-6.62 6.426 0 3.505 2.92 6.427 6.43 6.621 3.5 0 6.42-2.921 6.62-6.426.19-3.7-2.73-6.621-6.43-6.621zM1629.68 17.163c-3.31 0-6.03 2.726-6.03 5.842 0 3.31 2.72 6.037 5.84 6.037 3.31 0 6.03-2.727 6.03-5.842.2-3.31-2.53-6.037-5.84-6.037zM1513.65 39.558c1.56 0 2.92-1.364 2.92-2.921 0-1.558-1.36-2.921-2.92-2.921-1.56 0-2.92 1.363-2.92 2.92 0 1.558 1.36 2.922 2.92 2.922zM1518.32 55.916c-1.94 0-3.31 1.557-3.31 3.31 0 1.947 1.56 3.31 3.31 3.31 1.95 0 3.31-1.557 3.31-3.31 0-1.947-1.36-3.31-3.31-3.31zM1571.67 96.616c-1.37 0-2.73 1.168-2.73 2.531 0 1.363 1.17 2.727 2.53 2.727 1.36 0 2.73-1.169 2.73-2.532 0-1.558-1.17-2.726-2.53-2.726zM1822.8 96.031c-2.53 0-4.67 1.948-4.67 4.479 0 2.532 1.95 4.674 4.48 4.674 2.53 0 4.67-1.948 4.67-4.479 0-2.532-1.95-4.674-4.48-4.674zM1306.51 171.394c0-1.752-1.36-3.31-3.31-3.31-1.75 0-3.31 1.363-3.31 3.31 0 1.753 1.37 3.311 3.31 3.311 1.95 0 3.31-1.558 3.31-3.311z"/><path d="M1408.52 165.552c-2.92 0-5.45 2.337-5.45 5.453 0 2.921 2.34 5.453 5.45 5.453 2.92 0 5.46-2.337 5.46-5.453-.2-2.921-2.54-5.453-5.46-5.453zM1434.03 119.205a3.493 3.493 0 00-3.51 3.505 3.493 3.493 0 003.51 3.506c1.94 0 3.5-1.558 3.5-3.506-.19-1.947-1.75-3.505-3.5-3.505z"/></g><g opacity=".8" fill="#D67500"><path d="M-13.742 81.082l57.624 33.159 43.575-11.595L-13.945 63.79v-1.017l103.03 39.466c.204 0 .408.203.408.407a.438.438 0 01-.407.407l-45.204 12.002H43.475l-57.42-32.956.203-1.017zM470.056 11.711h.204c.204 0 .204-.203.204-.407l4.886-23.598v-.407c0-.203-.203-.203-.407-.203L353.586-26.941c-.203 0-.407.203-.61.407 0 .203 0 .407.407.61l116.673 37.635c-.203 0 0 0 0 0zm4.276-23.801l-4.683 22.58L358.27-25.516 474.332-12.09z"/><path d="M151.596 55.042c.204 0 .204 0 0 0L353.79-25.924c.204 0 .204-.203.204-.407 0-.203 0-.406-.204-.406l-102.217-84.221c-.203 0-.203-.204-.407-.204-.204 0-.204.204-.407.204L150.986 54.229c-.204.203 0 .407 0 .61.407 0 .61.203.61.203zm200.972-81.576L152.615 53.618 251.37-109.94l101.198 83.407z"/><path d="M151.597 55.042c.203 0 .407 0 .407-.203l99.773-165.187v-.407c0-.204-.204-.204-.204-.204l-83.687-37.431h-.407c-.204 0-.204.203-.204.407L151.189 54.432c0 .203.204.407.408.61zm99.162-165.39l-98.348 162.95 15.679-199.975 82.669 37.025z"/><path d="M151.597 55.043a.438.438 0 00.407-.407l15.882-202.619c0-.203 0-.203-.204-.407 0 0-.203-.203-.407-.203l-69.841-.611s-.204 0-.407.204c0 .203-.204.203 0 .407l54.162 203.229c0 .203.204.407.408.407zm15.475-202.619L151.393 51.788l-52.94-199.974 68.619.61z"/><path d="M-13.742 62.773l102.828 39.263 61.492-47.197-164.32-17.698v-1.018l165.746 17.699c.203 0 .407.203.407.407 0 .203 0 .407-.204.407l-62.51 48.01h-.408L-13.335 63.383l-.407-.61zM414.265 53.618h.203l55.792-41.907c.203-.203.203-.406.203-.61-.203-.203-.407-.203-.61-.203L381.482 43.04a.437.437 0 00-.407.407c0 .203.203.407.407.407l32.783 9.764zm52.94-40.89l-52.94 39.873-31.154-9.358 84.094-30.514z"/><path d="M381.686 43.854l88.574-32.142a.437.437 0 00.407-.407.437.437 0 00-.407-.407L353.79-26.737c-.204 0-.407 0-.407.203-.204.204-.204.407 0 .407l28.099 69.98h.204zm86.945-32.55l-86.742 31.533-27.488-68.557 114.23 37.025z"/><path d="M422.613 204.158c.408 0 .408-.203.408-.407l-8.349-150.336a.437.437 0 00-.407-.407l-32.783-9.765c-.203 0-.407 0-.407.204-.204.203-.204.203-.204.406l41.132 160.102c.203 0 .407.203.61.203zm-8.755-150.54l7.941 145.251L382.093 44.26l31.765 9.358z"/><path d="M151.596 55.042l229.886-11.188c.204 0 .204 0 .407-.204v-.407l-28.099-69.98c0-.204-.204-.204-.204-.204h-.407l-201.99 80.966c-.203 0-.407.407-.203.61.203.204.407.407.61.407zM380.871 43.04L154.447 54.025 353.383-25.72l27.488 68.76z"/><path d="M422.613 204.159c.204 0 .204 0 .407-.204.204-.203.204-.203.204-.407L382.093 43.447c0-.204-.204-.204-.204-.407h-.407L207.388 163.269c-.204.203-.204.203-.204.407 0 .203.204.406.408.406l215.021 40.077zM381.278 44.261l40.724 158.677-213.189-39.669L381.278 44.261z"/><path d="M295.352 265.799h.203l127.262-61.64c.204 0 .204-.204.204-.407 0-.204-.204-.407-.408-.407l-215.021-40.076c-.204 0-.407 0-.407.203v.61l87.963 101.717h.204zm125.836-62.047l-125.633 60.826-86.741-100.496 212.374 39.67z"/><path d="M207.592 164.082h.203L381.889 43.854c.204-.204.204-.407.204-.61a.438.438 0 00-.407-.408L151.8 54.026c-.203 0-.407 0-.407.203v.407l55.792 109.039c0 .204 0 .204.407.407-.204 0-.204 0 0 0zM379.853 44.057L207.592 162.862l-55.181-107.82 227.442-10.985z"/><path d="M235.691 286.955c.204 0 .204 0 0 0l59.66-21.156c.204 0 .204-.204.204-.407v-.407l-87.963-101.716c-.204-.204-.408-.204-.611-.204-.204 0-.204.407-.204.611l28.303 122.873c0 .203.204.203.204.406h.407zm58.846-21.767l-58.439 20.75-27.692-120.432 86.131 99.682z"/><path d="M235.691 286.955c.204 0 .204.001.407-.203 0-.203.204-.203.204-.407l-28.303-122.873c0-.203-.204-.203-.407-.407-.204 0-.408 0-.408.204L92.751 273.732c-.204.204-.204.407-.204.407 0 .204.204.204.407.407l142.737 12.409zm-28.507-122.466l27.896 121.449-141.108-12.409 113.212-109.04z"/><path d="M207.592 164.082c.203 0 .203 0 .407-.203.203-.204.203-.407 0-.61l-55.792-109.04c0-.204-.203-.204-.407-.204h-.407l-62.511 48.01c-.204 0-.204.204-.204.407 0 .204.204.407.204.407l118.506 60.827c0 .406 0 .406.204.406zM151.393 55.246l54.977 107.209L89.9 102.646l61.493-47.4z"/><path d="M93.158 274.343c.204 0 .204 0 .407-.204L208 163.676c.204-.204.204-.204.204-.407 0-.204-.204-.204-.408-.407L44.086 114.038c-.204 0-.407 0-.407.204-.204.203-.204.406-.204.406l49.072 159.491c.204 0 .204.204.611.204-.204 0-.204 0 0 0zm113.416-110.667L93.362 272.919l-48.665-157.66 161.877 48.417z"/><path d="M207.592 164.082c.203 0 .407-.203.407-.203 0-.203 0-.407-.204-.61L89.289 102.442h-.407l-45.204 12.003a.437.437 0 00-.407.407c0 .203.204.407.407.407l163.914 48.823c-.204 0-.204 0 0 0zM89.085 103.053l113.62 58.385-156.99-46.993 43.37-11.392zM914.149 224.705a.437.437 0 00.407-.407c0-.203 0-.407-.203-.61l-135.407-79.339h-.407c-.204 0-.204.204-.204.204l-28.099 49.841v.407c0 .203.203.203.407.203l163.506 29.701zm-135.407-78.932l132.76 77.508-160.248-28.887 27.488-48.621z"/><path d="M750.643 195.411c.204 0 .407-.204.407-.204l28.1-49.841v-.406c0-.204-.204-.204-.408-.204l-83.687-16.681c-.204 0-.407 0-.407.203-.204.204 0 .407 0 .61l55.588 66.523c0-.204.203 0 .407 0zm27.285-50.045l-27.285 48.621-54.366-64.895 81.651 16.274zM558.427 78.03c.203 0 .203 0 .407-.203.204-.203.204-.407 0-.61L475.35-12.7c-.203-.204-.203-.204-.407-.204-.203 0-.203.204-.407.407l-4.887 23.598c0 .204 0 .407.204.407l88.37 66.32c0 .203 0 .203.204.203zm-83.28-89.51l79.207 85.442-83.89-62.86 4.683-22.582z"/><path d="M558.427 78.03c.204 0 .407-.203.407-.203 0-.203 0-.407-.203-.61l-88.371-66.32c-.204-.203-.407-.203-.611 0l-55.791 41.908c-.204.203-.204.407-.204.407s.204.406.407.406L558.427 78.03c-.204 0-.204 0 0 0zm-88.371-66.115l86.335 64.895-140.904-23.802 54.569-41.093z"/><path d="M422.613 204.159c.204 0 .204 0 .407-.204L558.834 77.827c.204-.203.204-.407.204-.407 0-.203-.204-.203-.408-.407L414.672 52.602c-.204 0-.204 0-.407.203-.204 0-.204.203-.204.407l8.348 150.336c-.203.204-.203.407.204.611-.204 0 0 0 0 0zM557.205 77.827L423.02 202.531l-8.144-148.912 142.329 24.208zM-14.352-50.539L150.986 53.415 97.638-147.983l-112.194 47.4v-1.017L97.84-149h.408c.203 0 .203.203.203.407l53.756 203.025c0 .204 0 .407-.204.407H151.597L-14.149-49.521l-.204-1.018z"/><path d="M-13.945 36.327l163.709 17.495-164.117-103.14v-1.221L152.005 54.025c.204.204.204.407.204.61 0 .204-.204.407-.408.407L-13.742 37.344l-.203-1.017zM750.643 195.411c.203 0 .203 0 .407-.204.204-.203.204-.407 0-.61l-55.588-66.522c0-.204-.203-.204-.407-.204l-109.954-.407a.438.438 0 00-.407.407c0 .204 0 .407.203.611l165.746 66.929c-.204 0-.204 0 0 0zm-55.995-66.523l54.366 64.895-161.47-65.098 107.104.203z"/><path d="M616.662 303.84c.203 0 .203 0 .203-.203l133.982-108.633c.203-.204.203-.204.203-.407 0-.203-.203-.407-.203-.407l-165.542-66.726h-.408c-.203.204-.203.204-.203.407l31.764 175.359c-.203.407-.203.61.204.61zm132.963-108.836L616.865 302.62l-31.357-173.732 164.117 66.116z"/><path d="M695.055 128.889a.438.438 0 00.407-.407c0-.204 0-.407-.203-.61L558.63 77.013c-.203 0-.407 0-.611.204-.203.203-.203.407 0 .61l26.674 50.451c0 .204.204.204.408.204l109.954.407zm-135.61-50.452l132.963 49.435-107.104-.407-25.859-49.028z"/><path d="M616.662 303.84h.203c.204-.203.204-.203.204-.407l-31.765-175.358c0-.204-.203-.204-.203-.407h-.408l-162.284 75.677c-.203 0-.203.203-.203.406 0 .204 0 .407.203.407l194.049 99.886c0-.204.204-.204.204-.204zm-31.969-175.155l31.358 173.935-192.42-98.869 161.062-75.066z"/><path d="M422.613 204.159s.204 0 0 0l162.488-75.677c.204 0 .204-.204.204-.204v-.407l-26.674-50.45c0-.204-.204-.204-.408-.204-.203 0-.203 0-.407.203L422.002 203.548c-.203.204-.203.407 0 .611.408-.204.408 0 .611 0zm161.674-76.288l-159.23 74.05L558.02 78.234l26.267 49.637zM-13.538 135.602l56.199-20.954-56.403-32.345v-1.018l57.828 33.16c.203 0 .204.203.204.407a.438.438 0 01-.408.407l-57.42 21.36v-1.017z"/><path d="M-13.131 201.717l105.27 70.998-48.46-157.049-56.81 73.032v-1.628l56.606-72.828c.204-.204.204-.204.407-.204.204 0 .407.204.407.407l49.276 159.287c0 .204 0 .407-.203.611h-.408l-105.881-71.405-.204-1.221z"/><path d="M-13.131 187.274l55.588-71.608-55.995 20.75v-1.018l57.217-21.36c.203 0 .407 0 .61.204.204.203.204.406 0 .61l-57.42 73.846v-1.424zM381.483 37.75c3.054 0 5.701 2.442 5.701 5.697 0 3.051-2.443 5.696-5.701 5.696-3.055 0-5.702-2.441-5.702-5.696.204-3.052 2.647-5.696 5.702-5.696zM207.592 160.014c2.036 0 3.462 1.627 3.462 3.458 0 2.034-1.629 3.458-3.462 3.458-2.036 0-3.461-1.627-3.461-3.458-.204-1.831 1.425-3.458 3.461-3.458zM89.085 95.932c3.666 0 6.72 3.052 6.924 6.714 0 3.662-3.055 6.713-6.72 6.916-3.665 0-6.72-3.051-6.923-6.713-.204-3.865 2.85-6.917 6.72-6.917zM778.539 140.484c2.444 0 4.48 2.034 4.48 4.476 0 2.441-2.036 4.475-4.48 4.475-2.443 0-4.48-2.034-4.48-4.475 0-2.442 2.037-4.476 4.48-4.476zM470.057 7.846c2.036 0 3.461 1.628 3.461 3.459 0 2.034-1.629 3.458-3.461 3.458-2.037 0-3.462-1.628-3.462-3.458 0-2.035 1.425-3.459 3.462-3.459zM414.265 50.364c1.425 0 2.851 1.22 2.851 2.644 0 1.424-1.222 2.848-2.647 2.848-1.426 0-2.851-1.22-2.851-2.644 0-1.628 1.222-2.849 2.647-2.849zM151.597 49.753c2.647 0 4.887 2.035 4.887 4.68 0 2.644-2.037 4.881-4.684 4.881-2.647 0-4.886-2.034-4.886-4.678 0-2.645 2.036-4.883 4.683-4.883zM691.594 128.481c0-1.83 1.425-3.458 3.461-3.458 1.833 0 3.462 1.424 3.462 3.458 0 1.831-1.425 3.459-3.462 3.459-2.036 0-3.461-1.628-3.461-3.459zM584.898 122.378c3.054 0 5.701 2.442 5.701 5.697 0 3.051-2.443 5.696-5.701 5.696-3.055 0-5.702-2.441-5.702-5.696.204-3.052 2.647-5.697 5.702-5.697zM558.224 73.962a3.648 3.648 0 013.665 3.661 3.648 3.648 0 01-3.665 3.662 3.648 3.648 0 01-3.665-3.662c.203-2.034 1.832-3.661 3.665-3.661z"/><path d="M43.882 119.124a4.478 4.478 0 01-4.48-4.476 4.478 4.478 0 014.48-4.475 4.478 4.478 0 014.48 4.475 4.478 4.478 0 01-4.48 4.476z"/></g><g opacity=".7" fill="#DA8013"><path d="M1418.75-26.955L1370.6 49.57l27.88 6.393 19.86-83.66.41.742-19.8 83.468c-.06.192-.18.26-.37.204l-28.65-6.614c-.2-.056-.2-.056-.26-.18-.07-.123.05-.191-.02-.315l48.69-77.304.41.741z"/><path d="M1389.6-79.243L1370.67 48.24l47.86-75.881.34.618-48.57 76.921c-.06.192-.25.136-.44.081-.19-.055-.26-.179-.21-.37l19.4-129.841.55.989z"/><path d="M1356.02-139.569l-87.12 4.662 100.91 183.624 19.24-128.95.55.99-19.18 129.073c-.05.192-.18.26-.3.328-.13.068-.32.013-.39-.11L1268-135.062c-.06-.123-.13-.247-.01-.315l.12-.068.13-.069 87.31-4.606.47.55z"/><path d="M1179.71-52.361c-.13.068-.18.26-.12.383l40.88 149.334c.06.123.06.123.13.247s.19.055.32-.013l149.32-47.5c.13-.068.25-.137.18-.26.06-.192-.01-.316-.2-.371l-190.2-101.833c-.07-.124-.19-.055-.31.013zm41.31 149.252L1180.37-51.44l188.84 101.13-148.19 47.2z"/><path d="M1268.17-135.636c-.12.068-.12.068 0 0l-88.46 83.274c-.13.069-.06.192-.18.26.06.124.06.124.13.248l190.2 101.833c.19.055.31-.013.44-.081.12-.068.18-.26.11-.384l-101.73-185.108c-.07-.123-.07-.123-.26-.179-.06.192-.25.137-.25.137zm-87.7 83.496l87.74-82.55 100.98 183.748L1180.47-52.14zM990.94-40.996s-.123.068 0 0c-.247.136-.234.451-.043.507l49.843 52.652c.06.124.38.111.5.043.13-.068.11-.384.05-.507l-49.842-52.653c-.26-.179-.384-.11-.508-.042z"/><path d="M990.94-40.997c-.123.068-.123.068-.055.192a.436.436 0 00.012.316l49.843 52.652c.06.124.19.056.19.056l.24-.137 55.95-57.121c.12-.068.18-.26.11-.384-.07-.123-.14-.247-.26-.179l-105.906 4.537-.124.068zm50.02 52.393l-49.116-51.924 104.206-4.405-55.09 56.329z"/><path d="M1049.92-164.286l-.12.069-59.051 123.165c-.124.068-.056.192.012.316.068.123.26.179.26.179l105.779-4.47c.12-.067.12-.067.25-.136.12-.068.05-.191-.01-.315l-46.73-118.697c-.07-.123-.14-.247-.26-.179l-.13.068zM991.572-41.022l58.528-122.07 46.24 117.516-104.768 4.554zM1040.78 11.656c-.13.068-.13.068-.18.26-.06.192.2.37.33.303l91.73 7.792c.19.055.37-.205.3-.329.05-.191-.21-.37-.33-.302l-91.73-7.792-.12.068z"/><path d="M1096.65-45.589s.07.124 0 0l-56.06 57.19c-.13.068-.18.26-.11.383.06.124.13.248.26.18l91.72 7.791c.13-.068.32-.012.25-.136.13-.068.06-.192-.01-.316l-35.86-65.036c-.07-.124-.07-.124-.26-.18.26.18.19.056.07.124zm-55.05 57.275l55.21-56.397 35.31 64.048-90.52-7.651z"/><path d="M1096.65-45.589l-.12.068c-.13.069-.06.192.01.316l35.86 65.037c.06.123.13.247.26.179l.24-.137 47.33-71.877c.12-.069.05-.192-.02-.316-.07-.123-.26-.179-.26-.179l-83.3 6.91c.19.055.13-.07 0 0zm36.04 64.777l-35.31-64.048 81.91-6.79-46.6 70.838z"/><path d="M1179.71-52.361l-.13.068-47.32 71.877c-.06.192-.11.384.08.44l88.19 77.455c.07.124.26.18.39.111.12-.068.18-.26.11-.384L1180.09-52.25c-.07-.123-.14-.247-.26-.179l-.12.069zm-46.56 72.099l46.66-71.03 40.43 147.646-87.09-76.616zM1400.39 59.425c-1.73.955-3.84.345-4.73-1.263-.95-1.73-.34-3.84 1.27-4.728 1.73-.954 3.84-.345 4.73 1.263 1.08 1.663.46 3.773-1.27 4.728zM1372.39 48.423c.75 1.36.3 2.895-1.06 3.645s-2.89.307-3.64-1.053c-.75-1.36-.31-2.895 1.05-3.645 1.24-.682 2.97-.183 3.65 1.053zM1042.35 14.5c-1.49.819-3.22.32-4.03-1.164-.82-1.484-.32-3.21 1.16-4.029 1.49-.818 3.21-.32 4.03 1.164.82 1.484.32 3.21-1.16 4.03z"/><path d="M1130.39 15.615a4.77 4.77 0 016.53 1.885 4.768 4.768 0 01-1.89 6.523c-2.35 1.296-5.23.464-6.52-1.885a4.756 4.756 0 011.88-6.523zM1222.2 99.624c-1.36.75-2.96.183-3.65-1.054a2.69 2.69 0 011.06-3.645c1.36-.75 2.96-.183 3.65 1.054.68 1.236.18 2.963-1.06 3.645z"/></g><g opacity=".6" fill="#DA8013"><path d="M667.692-33.629a.123.123 0 00-.008.163l30.272 55.286.078.085c.038.043.081.004.123-.035l54.658-32.896c.042-.039.085-.078.046-.12.004-.081-.034-.124-.116-.128l-84.93-22.39c-.038-.042-.081-.003-.123.035zm30.438 55.213l-30.087-54.91 84.327 22.238-54.24 32.672z"/><path d="M694.872-74.953c-.042.039-.042.039 0 0l-27.18 41.324c-.043.039-.004.082-.047.12l.077.085 84.93 22.39c.082.004.124-.035.167-.074.042-.038.046-.12.007-.162l-57.749-63.714c-.038-.043-.038-.043-.12-.046-.004.08-.085.077-.085.077zm-26.856 41.34l26.96-40.969L752.3-11.336l-84.284-22.277zM594.006-11.322s-.043.038 0 0c-.086.077-.051.2.03.204l24.705 16.152c.038.042.162.008.205-.031.042-.039.007-.163-.031-.205l-24.704-16.151c-.12-.047-.163-.008-.205.03z"/><path d="M594.005-11.323c-.042.039-.042.039-.003.082-.004.08.034.123.034.123L618.74 5.034c.039.042.082.004.082.004l.085-.078 16.767-27.898a.125.125 0 00.008-.163c-.039-.042-.078-.085-.12-.046l-41.514 11.786-.043.038zM618.756 4.71l-24.348-15.931 40.852-11.573-16.504 27.504z"/><path d="M605.736-65.713l-.042.038-11.77 54.349c-.042.038-.004.08.035.123.039.043.12.047.12.047l41.471-11.748.085-.077c.043-.038.004-.081-.035-.124l-29.701-42.6c-.039-.043-.078-.086-.12-.047l-.043.039zm-11.483 54.32l11.665-53.864 29.396 42.18-41.061 11.685zM618.71 4.829c-.043.039-.043.039-.047.12-.004.081.116.127.159.089L655.885-.53c.081.004.127-.116.089-.158.004-.081-.116-.128-.159-.09L618.752 4.79l-.042.039z"/><path d="M635.438-23.112s.038.042 0 0l-16.81 27.937c-.042.039-.046.12-.007.163.038.042.077.085.119.046l37.063-5.566c.043-.04.124-.035.086-.078.042-.038.003-.081-.035-.124l-20.335-22.374c-.039-.043-.039-.043-.12-.047.12.047.081.004.039.043zm-16.4 27.875l16.547-27.543L655.61-.745l-36.572 5.508z"/><path d="M667.692-33.629l-.043.04L655.688-.66c-.004.081-.008.162.073.166l42.234 22.357c.039.042.12.046.162.007.043-.038.047-.12.008-.162l-30.311-55.329c-.039-.042-.077-.085-.12-.046l-.042.038zM656.055-.683l11.779-32.532 29.937 54.66L656.055-.683zM619.599 5.807a1.18 1.18 0 01-1.706-.08 1.179 1.179 0 01.082-1.706 1.18 1.18 0 011.706.08 1.18 1.18 0 01-.082 1.706z"/><path d="M654.574-2.056a1.94 1.94 0 012.762.131 1.939 1.939 0 01-.133 2.762 1.94 1.94 0 01-2.762-.131 1.939 1.939 0 01.133-2.762zM698.857 22.555a1.091 1.091 0 11-1.469-1.616 1.091 1.091 0 011.543.073c.387.425.352 1.156-.074 1.543z"/></g></g><defs><clipPath id="clip0"><path fill="#fff" transform="translate(-17 -509)" d="M0 0h2001v880H0z"/></clipPath></defs></svg>