<svg width="20" height="19" viewBox="0 0 20 19" fill="none" xmlns="http://www.w3.org/2000/svg">
<path fill-rule="evenodd" clip-rule="evenodd" d="M4.98907 2.78109C4.98907 3.95792 4.10323 4.89957 2.68088 4.89957H2.65482C1.28534 4.89957 0.399994 3.95792 0.399994 2.78109C0.399994 1.57937 1.3123 0.664062 2.70777 0.664062C4.10323 0.664062 4.96259 1.57937 4.98907 2.78109ZM4.7204 6.57245V18.8287H0.641207V6.57245H4.7204ZM19.4314 18.8287L19.4315 11.8014C19.4315 8.03676 17.4191 6.28465 14.7348 6.28465C12.5691 6.28465 11.5994 7.47425 11.058 8.30878V6.57278H6.97832C7.03208 7.72284 6.97832 18.8291 6.97832 18.8291H11.058V11.9841C11.058 11.6178 11.0845 11.2524 11.1923 10.9902C11.4871 10.2584 12.1584 9.50074 13.2854 9.50074C14.7621 9.50074 15.3523 10.6246 15.3523 12.2716V18.8287H19.4314Z" fill="white"/>
</svg>
