<svg width="22" height="21" viewBox="0 0 22 21" fill="none" xmlns="http://www.w3.org/2000/svg">
<path fill-rule="evenodd" clip-rule="evenodd" d="M5.43246 2.68819C5.43246 3.99577 4.44821 5.04206 2.86782 5.04206H2.83885C1.31721 5.04206 0.333496 3.99577 0.333496 2.68819C0.333496 1.35294 1.34717 0.335938 2.89769 0.335938C4.44821 0.335938 5.40305 1.35294 5.43246 2.68819ZM5.13395 6.90082V20.5189H0.60151V6.90082H5.13395ZM21.4794 20.5189L21.4796 12.7107C21.4796 8.52782 19.2436 6.58104 16.2611 6.58104C13.8547 6.58104 12.7773 7.90281 12.1757 8.83006V6.90118H7.64272C7.70246 8.17903 7.64272 20.5193 7.64272 20.5193H12.1757V12.9138C12.1757 12.5068 12.2051 12.1008 12.325 11.8094C12.6525 10.9963 13.3984 10.1545 14.6506 10.1545C16.2913 10.1545 16.9472 11.4032 16.9472 13.2332V20.5189H21.4794Z" fill="white"/>
</svg>
