<svg width="22" height="23" viewBox="0 0 22 23" fill="none" xmlns="http://www.w3.org/2000/svg">
<path fill-rule="evenodd" clip-rule="evenodd" d="M11.0012 0.669189C8.10424 0.669189 7.74068 0.681856 6.60289 0.733635C5.46733 0.785635 4.69221 0.965415 4.01398 1.2292C3.31242 1.50164 2.7173 1.86609 2.1244 2.45921C1.53106 3.0521 1.16662 3.64722 0.89328 4.34856C0.628832 5.02701 0.448831 5.80235 0.397719 6.93748C0.34683 8.07527 0.333496 8.43905 0.333496 11.336C0.333496 14.2329 0.346385 14.5953 0.397941 15.7331C0.450164 16.8687 0.629944 17.6438 0.893502 18.322C1.16617 19.0236 1.53062 19.6187 2.12374 20.2116C2.71641 20.805 3.31153 21.1703 4.01265 21.4427C4.69132 21.7065 5.46666 21.8863 6.60201 21.9383C7.73979 21.9901 8.10313 22.0027 10.9998 22.0027C13.897 22.0027 14.2594 21.9901 15.3972 21.9383C16.5328 21.8863 17.3088 21.7065 17.9875 21.4427C18.6888 21.1703 19.283 20.805 19.8757 20.2116C20.469 19.6187 20.8335 19.0236 21.1068 18.3223C21.369 17.6438 21.549 16.8685 21.6024 15.7333C21.6535 14.5956 21.6668 14.2329 21.6668 11.336C21.6668 8.43905 21.6535 8.07549 21.6024 6.9377C21.549 5.80213 21.369 5.02701 21.1068 4.34878C20.8335 3.64722 20.469 3.0521 19.8757 2.45921C19.2824 1.86587 18.689 1.50142 17.9868 1.2292C17.3068 0.965415 16.5312 0.785635 15.3957 0.733635C14.2579 0.681856 13.8956 0.669189 10.9978 0.669189H11.0012ZM10.0443 2.59142C10.2301 2.59113 10.43 2.59122 10.6457 2.59132L11.0012 2.59142C13.8492 2.59142 14.1868 2.60164 15.3114 2.65276C16.3515 2.70031 16.9159 2.87409 17.2919 3.02009C17.7897 3.21343 18.1446 3.44454 18.5177 3.81788C18.891 4.19122 19.1222 4.54678 19.3159 5.04456C19.4619 5.42012 19.6359 5.98457 19.6833 7.02458C19.7344 8.14903 19.7455 8.48682 19.7455 11.3335C19.7455 14.1802 19.7344 14.518 19.6833 15.6424C19.6357 16.6825 19.4619 17.2469 19.3159 17.6225C19.1226 18.1202 18.891 18.4747 18.5177 18.8478C18.1444 19.2211 17.7899 19.4523 17.2919 19.6456C16.9164 19.7923 16.3515 19.9656 15.3114 20.0132C14.187 20.0643 13.8492 20.0754 11.0012 20.0754C8.15293 20.0754 7.81537 20.0643 6.69091 20.0132C5.6509 19.9652 5.08645 19.7914 4.71022 19.6454C4.21244 19.452 3.85688 19.2209 3.48354 18.8476C3.11021 18.4743 2.87909 18.1196 2.68531 17.6216C2.53931 17.246 2.36531 16.6816 2.31798 15.6416C2.26686 14.5171 2.25664 14.1793 2.25664 11.3308C2.25664 8.48237 2.26686 8.14637 2.31798 7.02191C2.36553 5.9819 2.53931 5.41745 2.68531 5.04145C2.87865 4.54366 3.11021 4.1881 3.48354 3.81477C3.85688 3.44143 4.21244 3.21032 4.71022 3.01654C5.08623 2.86987 5.6509 2.69653 6.69091 2.64876C7.67492 2.60431 8.05626 2.59098 10.0443 2.58875V2.59142ZM15.415 5.64214C15.415 4.93524 15.9883 4.36257 16.695 4.36257V4.36213C17.4017 4.36213 17.975 4.93546 17.975 5.64214C17.975 6.34881 17.4017 6.92215 16.695 6.92215C15.9883 6.92215 15.415 6.34881 15.415 5.64214ZM11.0009 5.85814C7.9759 5.85826 5.52333 8.31091 5.52333 11.336C5.52333 14.3611 7.97603 16.8127 11.0012 16.8127C14.0263 16.8127 16.4781 14.3611 16.4781 11.336C16.4781 8.31083 14.0261 5.85814 11.0009 5.85814ZM14.5568 11.336C14.5568 9.37218 12.9647 7.78039 11.0012 7.78039C9.03737 7.78039 7.44557 9.37218 7.44557 11.336C7.44557 13.2996 9.03737 14.8916 11.0012 14.8916C12.9647 14.8916 14.5568 13.2996 14.5568 11.336Z" fill="white"/>
</svg>
