<svg width="20" height="20" viewBox="0 0 20 20" fill="none" xmlns="http://www.w3.org/2000/svg">
<path fill-rule="evenodd" clip-rule="evenodd" d="M10.0009 0.0639648C7.39367 0.0639648 7.06646 0.075365 6.04245 0.121965C5.02044 0.168766 4.32283 0.330568 3.71243 0.56797C3.08102 0.813173 2.54542 1.14118 2.01181 1.67498C1.47781 2.20859 1.1498 2.74419 0.903799 3.3754C0.665797 3.98601 0.503795 4.68381 0.457794 5.70542C0.411994 6.72944 0.399994 7.05684 0.399994 9.66407C0.399994 12.2713 0.411594 12.5975 0.457995 13.6215C0.504995 14.6435 0.666797 15.3411 0.903999 15.9515C1.1494 16.5829 1.47741 17.1185 2.01121 17.6522C2.54462 18.1862 3.08022 18.515 3.71123 18.7602C4.32203 18.9976 5.01984 19.1594 6.04165 19.2062C7.06566 19.2528 7.39267 19.2642 9.99969 19.2642C12.6071 19.2642 12.9333 19.2528 13.9573 19.2062C14.9793 19.1594 15.6778 18.9976 16.2886 18.7602C16.9198 18.515 17.4546 18.1862 17.988 17.6522C18.522 17.1185 18.85 16.5829 19.096 15.9517C19.332 15.3411 19.494 14.6433 19.542 13.6217C19.588 12.5977 19.6 12.2713 19.6 9.66407C19.6 7.05684 19.588 6.72964 19.542 5.70562C19.494 4.68361 19.332 3.98601 19.096 3.3756C18.85 2.74419 18.522 2.20859 17.988 1.67498C17.454 1.14098 16.92 0.812973 16.288 0.56797C15.676 0.330568 14.9779 0.168766 13.9559 0.121965C12.9319 0.075365 12.6059 0.0639648 9.99789 0.0639648H10.0009ZM9.13969 1.79398C9.30691 1.79372 9.4868 1.7938 9.68093 1.79389L10.0009 1.79398C12.5641 1.79398 12.8679 1.80318 13.8801 1.84918C14.8161 1.89198 15.3242 2.04838 15.6626 2.17979C16.1106 2.35379 16.43 2.56179 16.7658 2.89779C17.1018 3.2338 17.3098 3.5538 17.4842 4.0018C17.6156 4.33981 17.7722 4.84781 17.8148 5.78382C17.8608 6.79583 17.8708 7.09984 17.8708 9.66186C17.8708 12.2239 17.8608 12.5279 17.8148 13.5399C17.772 14.4759 17.6156 14.9839 17.4842 15.3219C17.3102 15.7699 17.1018 16.0889 16.7658 16.4247C16.4298 16.7607 16.1108 16.9687 15.6626 17.1427C15.3246 17.2747 14.8161 17.4307 13.8801 17.4735C12.8681 17.5195 12.5641 17.5295 10.0009 17.5295C7.43747 17.5295 7.13367 17.5195 6.12165 17.4735C5.18564 17.4303 4.67764 17.2739 4.33904 17.1425C3.89103 16.9685 3.57103 16.7605 3.23502 16.4245C2.89902 16.0885 2.69102 15.7693 2.51662 15.3211C2.38522 14.9831 2.22861 14.4751 2.18601 13.5391C2.14001 12.5271 2.13081 12.2231 2.13081 9.65946C2.13081 7.09584 2.14001 6.79343 2.18601 5.78142C2.22881 4.84541 2.38522 4.33741 2.51662 3.999C2.69062 3.551 2.89902 3.231 3.23502 2.89499C3.57103 2.55899 3.89103 2.35099 4.33904 2.17659C4.67744 2.04458 5.18564 1.88858 6.12165 1.84558C7.00726 1.80558 7.35047 1.79358 9.13969 1.79158V1.79398ZM13.9733 4.53961C13.9733 3.9034 14.4893 3.388 15.1253 3.388V3.3876C15.7614 3.3876 16.2774 3.9036 16.2774 4.53961C16.2774 5.17562 15.7614 5.69162 15.1253 5.69162C14.4893 5.69162 13.9733 5.17562 13.9733 4.53961ZM10.0007 4.73401C7.27816 4.73412 5.07084 6.9415 5.07084 9.66406C5.07084 12.3867 7.27827 14.5931 10.0009 14.5931C12.7235 14.5931 14.9301 12.3867 14.9301 9.66406C14.9301 6.94143 12.7233 4.73401 10.0007 4.73401ZM13.2009 9.66407C13.2009 7.89665 11.7681 6.46403 10.0009 6.46403C8.23348 6.46403 6.80086 7.89665 6.80086 9.66407C6.80086 11.4313 8.23348 12.8641 10.0009 12.8641C11.7681 12.8641 13.2009 11.4313 13.2009 9.66407Z" fill="white"/>
</svg>
