<svg width="20" height="14" viewBox="0 0 20 14" fill="none" xmlns="http://www.w3.org/2000/svg">
<path fill-rule="evenodd" clip-rule="evenodd" d="M8.7655 0.0736677L7.49585 0.0969162L6.7804 0.116369L5.86981 0.149345L5.37904 0.171866L4.89826 0.198035L4.43444 0.228124L3.99457 0.262408C3.92364 0.268487 3.854 0.274752 3.78579 0.281209L3.39493 0.322298C3.02361 0.365781 2.71439 0.416582 2.49869 0.475934C1.67255 0.702632 1.02193 1.3706 0.801128 2.21885C0.72525 2.50966 0.663725 2.86024 0.613838 3.23758L0.56773 3.6226L0.528778 4.01813L0.496377 4.41681L0.469926 4.81131L0.440082 5.37919L0.42023 5.89639L0.405781 6.46436L0.400253 7.03156L0.405781 7.4635L0.42023 8.03146L0.440082 8.54865L0.469926 9.11651L0.496377 9.51101L0.528778 9.9097L0.56773 10.3052C0.574802 10.3705 0.582172 10.4353 0.589852 10.4995L0.639764 10.8765C0.684632 11.1828 0.737896 11.4667 0.801128 11.709C1.02193 12.5573 1.67255 13.2252 2.49869 13.4521C2.71439 13.5114 3.02361 13.5622 3.39493 13.6056L3.78579 13.6467C3.854 13.6532 3.92364 13.6594 3.99457 13.6655L4.43444 13.6998L4.89826 13.7299L5.37904 13.756L5.86981 13.7786L6.5089 13.8027L7.57513 13.8328L9.02648 13.8574L10.1764 13.8635L10.8271 13.8589L12.222 13.8373L13.4911 13.8027L14.1302 13.7786L14.6209 13.756L15.1017 13.7299L15.7889 13.6832L16.2142 13.6467L16.605 13.6056C16.9763 13.5622 17.2855 13.5114 17.5012 13.4521C18.3273 13.2252 18.978 12.5573 19.1988 11.709C19.2747 11.4182 19.3362 11.0676 19.3861 10.6903L19.4322 10.3052L19.4712 9.9097L19.5036 9.51101L19.5301 9.11651L19.5599 8.54865L19.5798 8.03146L19.5942 7.4635L19.5997 6.89631L19.5942 6.46436L19.5798 5.89639L19.5599 5.37919L19.5301 4.81131L19.5036 4.41681L19.4712 4.01813L19.4322 3.6226C19.4252 3.55735 19.4178 3.49254 19.4101 3.42832L19.3602 3.05129C19.3153 2.74504 19.262 2.46119 19.1988 2.21885C18.978 1.3706 18.3273 0.702632 17.5012 0.475934C17.2855 0.416582 16.9763 0.365781 16.605 0.322298L16.2142 0.281209C16.1459 0.274752 16.0763 0.268487 16.0054 0.262408L15.5655 0.228124L15.1017 0.198035L14.6209 0.171866L13.7104 0.132865L13.2196 0.116369L12.0512 0.0870751L11.2345 0.0736677L10.0293 0.0639648L8.7655 0.0736677ZM8.2 10.2639V4.26394L13 7.26405L8.2 10.2639Z" fill="white"/>
</svg>
