<svg width="22" height="16" viewBox="0 0 22 16" fill="none" xmlns="http://www.w3.org/2000/svg">
<path fill-rule="evenodd" clip-rule="evenodd" d="M9.62821 0.0134665L8.21749 0.0392981L7.42255 0.0609128L6.41078 0.0975524L5.86549 0.122576L5.33128 0.151652L4.81593 0.185085L4.32718 0.223178C4.24837 0.229933 4.17099 0.236894 4.09521 0.244068L3.66092 0.289722C3.24833 0.338037 2.90475 0.394483 2.66509 0.460429C1.74715 0.712316 1.02425 1.4545 0.778912 2.397C0.694603 2.72013 0.626242 3.10966 0.570813 3.52892L0.519582 3.95673L0.476301 4.3962L0.440301 4.83918L0.41091 5.27752L0.377751 5.90849L0.355692 6.48315L0.339638 7.11423L0.333496 7.74446L0.339638 8.22439L0.355692 8.85546L0.377751 9.43011L0.41091 10.0611L0.440301 10.4994L0.476301 10.9424L0.519582 11.3819C0.527439 11.4544 0.535627 11.5264 0.544161 11.5977L0.599619 12.0167C0.649472 12.3569 0.708655 12.6723 0.778912 12.9416C1.02425 13.8841 1.74715 14.6263 2.66509 14.8783C2.90475 14.9443 3.24833 15.0007 3.66092 15.049L4.09521 15.0946C4.17099 15.1018 4.24837 15.1088 4.32718 15.1155L4.81593 15.1536L5.33128 15.187L5.86549 15.2161L6.41078 15.2411L7.12088 15.268L8.30558 15.3014L9.91819 15.3287L11.1959 15.3355L11.9189 15.3304L13.4688 15.3064L14.8789 15.268L15.589 15.2411L16.1342 15.2161L16.6684 15.187L17.432 15.1352L17.9045 15.0946L18.3388 15.049C18.7513 15.0007 19.0949 14.9443 19.3346 14.8783C20.2525 14.6263 20.9754 13.8841 21.2207 12.9416C21.3051 12.6185 21.3734 12.2289 21.4289 11.8097L21.4801 11.3819L21.5234 10.9424L21.5594 10.4994L21.5888 10.0611L21.622 9.43011L21.6441 8.85546L21.6601 8.22439L21.6663 7.59418L21.6601 7.11423L21.6441 6.48315L21.622 5.90849L21.5888 5.27752L21.5594 4.83918L21.5234 4.3962L21.4801 3.95673C21.4723 3.88423 21.4641 3.81222 21.4555 3.74086L21.4001 3.32194C21.3502 2.98166 21.291 2.66627 21.2207 2.397C20.9754 1.4545 20.2525 0.712316 19.3346 0.460429C19.0949 0.394483 18.7513 0.338037 18.3388 0.289722L17.9045 0.244068C17.8287 0.236894 17.7513 0.229933 17.6725 0.223178L17.1838 0.185085L16.6684 0.151652L16.1342 0.122576L15.1225 0.0792413L14.5772 0.0609128L13.279 0.0283636L12.3716 0.0134665L11.0324 0.00268555L9.62821 0.0134665ZM8.99989 11.336V4.66932L14.3332 8.00278L8.99989 11.336Z" fill="white"/>
</svg>
