<svg width="240" height="73" viewBox="0 0 240 73" fill="none" xmlns="http://www.w3.org/2000/svg">
<path fill-rule="evenodd" clip-rule="evenodd" d="M63.7782 31.5066L63.7784 18.3376C63.7767 18.3362 63.7524 18.3125 63.7491 18.3095C58.9929 14.2039 39.6372 6.04158 30.4884 14.3258C19.3359 24.4239 38.2366 38.933 53.0802 44.2968C42.9958 40.0031 28.6012 31.0199 35.7465 24.769C41.6645 20.547 58.7282 26.4779 63.7562 31.4846L63.7782 31.5066Z" fill="white"/>
<path fill-rule="evenodd" clip-rule="evenodd" d="M26.7913 30.7019C24.9118 30.8033 24.3072 31.338 23.8233 32.16C22.4586 34.4756 23.3927 37.2642 22.8982 40.3911C22.7238 41.4955 22.0845 44.7169 17.2876 47.1066C16.6193 47.4393 15.2723 47.8188 13.826 47.4764C12.6364 47.1821 8.60521 40.5593 11.0573 39.3801C12.4306 38.9746 17.4217 38.7874 18.9447 35.0767C19.746 33.1252 20.5364 30.6344 21.4432 29.1052C22.2703 27.7107 23.5454 27.3593 25.273 27.7875C25.6127 28.6736 26.2707 29.7179 26.7913 30.7019Z" fill="white"/>
<path fill-rule="evenodd" clip-rule="evenodd" d="M48.6064 45.4321C49.2347 45.7301 49.9861 46.0304 50.7483 46.3192L52.9549 47.1378C53.1228 47.2009 53.2843 47.2624 53.4377 47.3221C52.9479 49.3583 54.516 51.0968 56.852 52.8981L57.3832 53.2995L58.2206 53.9075L59.3962 54.7336L60.9252 55.8009L61.5453 56.2414L62.1655 56.6911L62.7827 57.1507L63.3937 57.6211C64.3039 58.3354 65.1827 59.0893 65.9822 59.8961L66.4184 60.4163L67.1537 61.279L67.5697 61.7804C69.1393 63.703 71.1462 66.5408 71.8472 70.066L71.9639 70.6999L72.0021 70.9622C72.0918 71.7047 71.9945 72.4219 70.9818 72.6316C70.7478 72.7327 69.9663 72.6619 68.9347 72.4374L68.3994 72.3125C68.3072 72.2896 68.2136 72.2656 68.1188 72.2406L67.5364 72.0782C64.7632 71.2631 61.3021 69.653 60.9282 67.4804L60.9243 67.3742L60.9262 66.6332L60.9161 66.2162L60.9003 65.9026L60.8746 65.5621L60.8369 65.1962L60.7849 64.8064L60.7164 64.3941C60.7035 64.3236 60.6899 64.2523 60.6754 64.1801L60.5782 63.7368C60.0932 61.699 58.9427 59.0898 56.2286 56.5075L56.018 56.2918L55.5813 55.8563L54.8945 55.1935L52.9723 53.3787L52.4924 52.9165L52.0207 52.4516L51.5611 51.9845C49.4506 49.8 47.8645 47.5556 48.6064 45.4321ZM56.7358 47.6532C58.2745 48.1982 59.9034 48.6659 61.3757 49.0798C61.4742 51.1087 63.2751 52.5757 65.7863 54.0131L66.4021 54.3578L67.0421 54.703L67.7033 55.0503L70.1403 56.3064L71.2204 56.8762L71.9446 57.2707L72.6687 57.6788C73.9943 58.4403 75.3037 59.2786 76.5124 60.2389L76.862 60.5423L78.1812 61.6336L78.6907 62.0638L79.225 62.5302C80.9494 64.0667 82.9537 66.1762 84.365 69.1208L84.6433 69.7508L84.7487 70.0124C85.0292 70.7545 85.1228 71.4889 84.2006 71.7962C84.0843 71.8687 83.7955 71.9231 83.3853 71.9511L83.0051 71.9685C82.8014 71.9737 82.5781 71.9737 82.3392 71.9677L81.8419 71.9476C81.7559 71.9429 81.6685 71.9374 81.5798 71.9312L81.0337 71.8852L80.4639 71.8203C80.3674 71.8078 80.2701 71.7946 80.1724 71.7804L79.5807 71.6852C77.2969 71.2792 74.8879 70.3945 74.1703 68.7343L74.1063 68.3622L74.0416 68.0567L73.9514 67.6942L73.8311 67.2783L73.7318 66.9732L73.6156 66.647L73.4812 66.3009L73.3271 65.936L73.152 65.5534L72.9544 65.1541L72.733 64.7392L72.4864 64.3098C71.4476 62.5649 69.7702 60.4987 67.0539 58.4251L66.4497 57.9688L65.9169 57.5783L65.368 57.1919L64.5228 56.6173L62.7995 55.4719L62.229 55.0869L61.6666 54.6983L61.116 54.3051L60.581 53.906C58.3019 52.1621 56.5662 50.2202 56.7358 47.6532ZM40.8398 41.69L41.2693 41.9717L42.2181 42.5789C43.2081 43.203 44.2838 43.8534 45.1069 44.3086C44.2085 46.2078 45.2001 48.0204 46.9191 49.9793L47.3282 50.434L47.7599 50.8946L48.2111 51.3617L48.9175 52.0758L50.453 53.6171C51.5113 54.6938 52.5806 55.8376 53.5266 57.0755L54.08 57.8229L54.7458 58.6878L54.9998 59.0323L55.2627 59.406C56.5035 61.2198 57.8951 64.0143 57.4809 68.1209L57.4168 68.6357C57.2925 69.4757 57.0035 70.3731 55.7421 70.4632C55.6609 70.4749 55.4968 70.4488 55.2677 70.3892L54.9627 70.3019L54.6022 70.184L54.1929 70.0372L53.7418 69.8629C53.6635 69.8317 53.5838 69.7994 53.5027 69.766L53.0017 69.5537L52.4761 69.3181L51.9327 69.0607C51.566 68.8821 51.192 68.6902 50.8199 68.4869L50.2643 68.1738C48.1486 66.9431 46.2462 65.3739 46.2977 63.8725L46.3429 63.7262L46.7629 62.6281L46.8651 62.3387L46.9665 62.0273L47.0641 61.6943L47.155 61.3402C47.1694 61.2794 47.1834 61.2178 47.197 61.1554L47.2723 60.7706C47.6046 58.8626 47.4436 56.2601 45.2919 53.2183C44.9758 52.7203 44.6189 52.2083 44.2441 51.6869L42.9478 49.9039L42.4277 49.1697C42.371 49.0879 42.3146 49.0061 42.2587 48.9242L41.9299 48.4328C40.3755 46.0567 39.3678 43.679 40.8398 41.69ZM34.1651 37.4122L35.7733 38.8103L36.4841 39.4158C36.9534 39.8082 37.4037 40.1666 37.7751 40.4221C36.5295 41.3015 36.414 41.8545 36.5456 42.489L36.5974 42.7041L36.7593 43.2903C36.7698 43.3325 36.7801 43.3754 36.7899 43.4192C37.0261 44.469 37.6278 45.5538 38.3643 46.7055L38.8728 47.4835L39.406 48.2835L39.9487 49.1076C40.7624 50.3627 41.5571 51.7062 42.1018 53.1699L42.1996 53.3859L42.6552 54.3268L42.8025 54.647L42.9508 54.9893L43.0963 55.3536L43.2354 55.7393C43.8637 57.5893 44.1621 60.1313 42.4512 63.2107C41.9304 64.1128 40.6678 65.1882 40.0018 65.1528C39.8684 65.1458 39.6471 65.0714 39.3616 64.9408L39.0555 64.7919C39.0013 64.7641 38.9454 64.7348 38.8881 64.7042L38.5277 64.5039C38.465 64.4678 38.4011 64.4305 38.3361 64.3919L37.9332 64.1459L37.5086 63.8726L37.0675 63.5744L36.6151 63.254C36.5391 63.1989 36.4628 63.1429 36.3864 63.0862L35.9272 62.7371C35.8506 62.6775 35.7742 62.6172 35.6979 62.5564L35.2436 62.1842C35.1685 62.1211 35.0939 62.0575 35.0197 61.9934L34.5821 61.604L34.1622 61.2061C32.7981 59.8686 31.8175 58.433 32.0982 57.3198C32.1802 57.1935 32.3081 57.0497 32.4668 56.8857L33.1088 56.2404L33.4544 55.8767L33.6908 55.6107L33.9273 55.3252C35.0633 53.8965 36.0545 51.755 34.801 48.5293C34.6436 47.899 34.4254 47.2439 34.1859 46.5771L33.628 45.0624C33.0678 43.539 32.5508 42.0055 32.5286 40.61C32.5094 39.3697 32.9202 38.0761 34.1651 37.4122ZM28.9177 32.5795C29.1359 32.8484 29.3867 33.1888 29.6522 33.5574L30.475 34.7043C30.7521 35.086 31.0261 35.4525 31.2791 35.7606C29.9749 36.3139 29.6505 36.7128 29.5115 37.2843L29.4688 37.4937L29.3985 37.9683C29.1857 39.4269 29.6177 40.8023 30.1611 42.2688L30.5812 43.3885C30.9583 44.4038 31.3257 45.479 31.5252 46.6657L31.5605 46.8986L31.5947 47.178L31.625 47.4999L31.6486 47.8601L31.6626 48.2546C31.706 50.374 31.2577 53.7005 28.5862 55.6907L28.292 55.9089C27.6461 56.3803 26.9211 56.8246 25.6295 56.9014C25.3981 56.912 24.9947 56.7129 24.5032 56.367L24.1983 56.1422L23.8763 55.8853L23.5412 55.5991C23.4845 55.5491 23.4274 55.4981 23.37 55.446L23.0227 55.1216C22.9644 55.0656 22.9061 55.0088 22.8476 54.9511L22.4973 54.5953L22.1499 54.2224C21.9776 54.0321 21.8079 53.8365 21.6431 53.6373L21.3207 53.2346C20.0626 51.6086 19.2135 49.8238 19.9318 48.7483C20.0344 48.6607 20.169 48.5749 20.3288 48.4875L20.5865 48.3548L20.8769 48.2172L21.7114 47.8359L22.2607 47.5689L22.6365 47.3699C24.2091 46.5013 25.8229 45.1183 25.7952 42.4119L25.7927 41.8037L25.8057 40.512C25.8096 40.2907 25.8142 40.0672 25.8194 39.8427L25.857 38.4927L25.9683 35.3811C26.0277 33.7486 27.1645 32.772 28.9177 32.5795ZM23.2117 23.071C23.1992 23.3453 23.1946 23.6436 23.1939 23.9555L23.2035 25.4147C23.2045 25.5792 23.2049 25.743 23.2043 25.905C21.6682 25.6283 21.0033 25.9036 20.4669 26.3239L20.2818 26.4776L20.0082 26.722C19.2068 27.4401 18.8092 28.202 18.4719 29.0454L18.2523 29.6201L18.028 30.2215C17.7157 31.0422 17.3307 31.9405 16.6318 32.9429L16.1072 33.6509L15.8639 33.957L15.6701 34.1844L15.4487 34.427C15.4094 34.4685 15.3688 34.5105 15.327 34.553L15.0601 34.8129C13.9283 35.8699 12.0064 37.1143 8.68865 37.6929C7.957 37.8201 6.53429 37.8088 5.31841 37.2901C5.08426 37.1784 4.86251 36.6315 4.6867 35.8951L4.58699 35.4324C4.47773 34.8707 4.39427 34.2401 4.34812 33.6249L4.31797 33.1032C4.26337 31.7328 4.42088 30.5683 4.92794 30.6154L5.9115 30.6403L6.58437 30.6414L7.08582 30.6306L7.62233 30.6069L8.1877 30.5671C10.4024 30.3797 13.1166 29.7679 14.7595 27.927L15.2259 27.3939L16.2603 26.1876L16.8076 25.5614C17.728 24.5247 18.675 23.5548 19.4346 23.1429L19.5482 23.0856L19.6713 23.0339L19.8095 22.9888C19.834 22.9818 19.8595 22.9752 19.8859 22.9688L20.0568 22.9349L20.2563 22.9094L20.4899 22.8933C20.5319 22.8914 20.5756 22.89 20.6211 22.889L20.9159 22.8883L21.2582 22.8989L21.6535 22.9217L22.3577 22.9805L22.9093 23.0371C23.0071 23.0478 23.1078 23.0591 23.2117 23.071ZM22.6678 18.9165L22.5313 19.3612L22.2535 20.3086C22.157 20.6352 22.0547 20.9714 21.9408 21.3132C19.9953 20.764 19.2694 20.8724 18.5221 21.3034L18.2961 21.442C17.891 21.7032 17.5008 22.048 17.0806 22.4614L16.7119 22.8322L15.6841 23.8924L15.214 24.3643C14.6415 24.9293 13.9807 25.5437 13.1866 26.1923L12.6086 26.6509L12.3186 26.863L12.0894 27.0182C12.008 27.0714 11.9216 27.1258 11.8299 27.181L11.5389 27.3484L11.2149 27.5175C9.9081 28.1653 7.84607 28.7856 4.69099 28.6328L4.05627 28.5928L3.56583 28.5478C2.86941 28.4722 2.02376 28.3256 1.27724 27.9997C0.356765 27.5304 1.54065 22.3479 2.80688 22.6202L3.00983 22.6319L3.45313 22.6684L5.04293 22.83L5.64487 22.8821C7.80443 23.0497 10.4913 23.0256 12.8592 21.7013L13.1834 21.517L13.8732 21.111L15.3537 20.2233L16.1076 19.7837C17.1065 19.2136 18.0641 18.7262 18.7836 18.5463L19.0713 18.477L19.2445 18.4437L19.4425 18.4162L19.6689 18.3979C20.2741 18.3667 21.1833 18.4559 22.6678 18.9165ZM23.2701 15.2655C23.0993 15.4576 22.9421 15.6594 22.7854 15.8682L22.3043 16.5132C22.1359 16.7335 21.9552 16.9583 21.7494 17.1849C20.3693 16.7535 19.5825 16.7202 18.8338 16.8306L18.4889 16.8909C18.4312 16.9023 18.3733 16.9144 18.3148 16.9269C17.8393 17.0288 17.3519 17.2438 16.8051 17.5324L16.383 17.762L14.9384 18.5794L14.3825 18.8823L13.7819 19.1943C13.1576 19.5096 12.4596 19.833 11.6679 20.1477L11.0387 20.3878L10.7672 20.4828L10.4497 20.5854L10.0861 20.6919C9.95728 20.7276 9.82074 20.7634 9.67653 20.7986L9.22086 20.9016C7.70502 21.2181 5.49653 21.4237 2.59512 20.9815C1.96382 20.8853 0.917001 20.5722 0.174059 20.0626C-0.198417 19.7473 0.0649098 18.9205 0.604164 18.0697L0.818616 17.7506L1.05472 17.4349C1.91405 16.3426 3.09372 15.4192 3.78006 15.7672L3.97143 15.8103L4.38657 15.9139L5.60238 16.2346L6.15488 16.3701C8.05584 16.8157 10.5393 17.1637 13.2875 16.3049L13.9997 16.0777L16.3756 15.2939L16.9747 15.1049C17.4522 14.9586 17.8715 14.843 18.2032 14.7782L18.4568 14.7364L18.7593 14.7029L19.0398 14.6806L19.3742 14.6629L19.7545 14.6538C19.888 14.6526 20.0279 14.6536 20.1728 14.6574L20.6211 14.6776C21.4658 14.7324 22.4221 14.8913 23.2701 15.2655ZM57.9044 6.13021C58.1505 6.15866 58.5508 6.28835 59.016 6.4791L59.4285 6.65662C59.6407 6.75192 59.8601 6.85633 60.0797 6.96669L60.5172 7.1944C61.6013 7.77882 62.5741 8.45922 62.5579 8.8404C61.4928 9.24625 61.309 9.73583 62.5169 11.3736C62.6071 11.4958 62.7068 11.623 62.8124 11.7524L63.1435 12.1453L64.2693 13.4055C64.3551 13.5033 64.4305 13.5918 64.4921 13.6683L64.6969 13.9427L64.8943 14.2252L65.0225 14.4271C65.3928 15.0439 65.5999 15.7438 64.6719 16.0415C64.114 15.8445 63.5843 15.5398 63.0481 15.2167L62.2346 14.7294C62.0967 14.6496 61.9573 14.5714 61.8159 14.4962C62.4702 14.1775 62.3304 13.3574 62.107 13.1055L61.58 12.5075L61.2918 12.2039L61.0671 11.9884L60.7915 11.7424L60.4438 11.4485L59.9072 11.0112L59.4978 10.6571L59.1481 10.3375L58.7605 9.96623C58.1607 9.37691 57.5014 8.65625 57.0897 7.99925C56.8516 7.61918 56.7949 6.36252 57.9044 6.13021ZM5.87429 10.4664L6.52412 10.6848L7.27009 10.9431L7.81834 11.1268C7.913 11.1578 8.00929 11.1888 8.10718 11.2197L8.71339 11.4035C10.4838 11.9161 12.6971 12.3323 15.2014 11.9927L15.8608 11.9074L16.5509 11.8258L17.2536 11.7494L18.2908 11.6477L19.253 11.5664L19.8223 11.5261L20.3126 11.4986L20.7055 11.4855L21.5878 11.4798L22.032 11.4838C23.113 11.509 24.4703 11.6715 25.3677 12.507L24.8791 12.9067L23.7573 13.8011C23.6648 13.8756 23.574 13.9492 23.4862 14.0213L23.2002 13.9158L22.6983 13.7422C22.0858 13.5416 21.6854 13.4586 21.3202 13.4209L21.0502 13.4001L20.4835 13.3824C19.8325 13.3668 19.1732 13.4393 18.4225 13.5847L17.9076 13.6922L17.36 13.8204L16.7744 13.9681L15.8127 14.2244L13.5215 14.849L12.9844 14.9913L12.7503 15.0416C12.7074 15.0499 12.6625 15.0582 12.6157 15.0663L12.3112 15.1137C12.2566 15.1213 12.1999 15.1287 12.1413 15.1359L11.7662 15.176L11.3438 15.2087C11.2694 15.2135 11.1931 15.2178 11.1148 15.2218L10.6212 15.24C10.3625 15.2462 10.086 15.2478 9.79149 15.2438L9.17861 15.228C7.90494 15.1799 6.34358 15.0297 4.48971 14.7075C3.91841 14.608 2.83324 14.1404 2.08453 13.6001C1.04171 12.7586 4.36759 10.0682 5.87429 10.4664ZM55.7021 6.13999C55.6102 6.21758 55.5268 6.27521 55.4532 6.32206L55.2632 6.43949C55.1581 6.50849 55.0978 6.57116 55.0931 6.70103C55.0827 6.98934 55.3073 7.37974 55.7523 7.91366L56.0457 8.25155L56.3913 8.62588C56.4532 8.69142 56.5173 8.75855 56.5835 8.82733C56.7495 8.99975 56.9388 9.17887 57.1382 9.35932L57.547 9.7204L58.3542 10.415L58.7066 10.7293C58.8685 10.8786 59.0062 11.0149 59.1066 11.1329L59.2393 11.3019L59.6429 11.7278C60.1065 12.2257 60.6938 12.9875 60.4005 13.867C59.774 13.6177 58.9841 13.2123 58.2017 12.7841L57.4283 12.3531C57.3019 12.2817 57.1773 12.2108 57.0554 12.1412C57.3674 11.5905 57.1829 11.2837 56.9747 11.0718L56.7609 10.871L56.2641 10.3758L56.0331 10.1542L55.791 9.93506C55.7488 9.8981 55.7054 9.86076 55.6606 9.82282L55.3704 9.58602C55.318 9.54471 55.2635 9.50233 55.2063 9.45863L54.8299 9.17884L54.3749 8.85628L54.0061 8.60415L53.5507 8.30678L53.1604 8.04457C52.3975 7.52038 51.4093 6.76464 50.7821 5.9021L50.5947 5.62333L50.5272 5.50604C50.3406 5.15739 50.0654 4.41 50.7221 3.6488C50.8332 3.55015 51.2894 3.66447 51.8839 3.89089L52.2984 4.05734L52.7403 4.25037L53.196 4.46333L53.6519 4.68959L54.0943 4.9225L54.5096 5.15542C55.238 5.5784 55.7612 5.96797 55.7021 6.13999ZM10.2637 6.35557L10.6417 6.54381L11.8292 7.17817L12.2588 7.39897C13.5823 8.06002 15.2402 8.69044 17.809 8.78435L18.8836 8.80983C18.9922 8.81344 19.1017 8.81755 19.2118 8.82211L20.2094 8.8732L21.4957 8.9587L23.0731 9.06893L23.5872 9.09107L24.2049 9.10176L24.612 9.11971L25.0655 9.15413C26.1665 9.25833 27.5291 9.54632 28.3328 10.3636C28.2094 10.4356 28.0548 10.5164 27.8814 10.6027L27.3182 10.8747L26.7194 11.1599C26.4237 11.3024 26.1433 11.4425 25.921 11.5688C24.9895 11.0751 24.4353 10.8692 23.9507 10.7533L23.6659 10.693L23.2377 10.6223L23.0874 10.5992C22.7845 10.5523 22.4881 10.5297 22.1826 10.5249L21.8107 10.5272C21.7477 10.5288 21.6841 10.5311 21.6197 10.5339L21.2236 10.5569L20.8039 10.5906L19.0631 10.7559L18.1429 10.8303L17.4564 10.8747L16.7047 10.912L15.0904 10.9665L14.7176 10.9738L14.0681 10.9737L13.58 10.9622L13.0519 10.9384C12.9608 10.9332 12.8681 10.9274 12.774 10.9209L12.1925 10.8733C10.8974 10.7502 9.38228 10.491 7.80688 9.96884C7.27594 9.79293 6.14241 9.05434 5.52782 8.47387C5.16747 7.97328 6.55655 7.13876 7.95821 6.65447L8.35753 6.52622C9.15085 6.29115 9.89427 6.19172 10.2637 6.35557ZM48.6542 3.59205L48.6575 4.10703L48.6706 4.39819C48.7268 5.17347 48.9663 5.55837 49.9573 6.36901L50.3393 6.67413C50.4084 6.72837 50.4804 6.78442 50.5554 6.84244C50.755 6.9971 50.9787 7.15588 51.2126 7.31482L51.69 7.63175L52.6284 8.23883L53.0406 8.51494C53.231 8.64667 53.3948 8.76803 53.5184 8.87508L53.6916 9.03601L54.11 9.36697C54.663 9.80747 55.4298 10.5115 55.3316 11.4524C54.3331 11.18 53.2843 10.8435 52.0764 10.3356C52.2447 9.8038 51.9899 9.4404 51.7224 9.19826L51.5637 9.06715L51.363 8.92011C51.2779 8.85649 51.1988 8.79992 51.1238 8.74858L50.9097 8.6085L50.7099 8.48898L49.9706 8.07557L49.704 7.91399L49.3934 7.71316C49.3374 7.67581 49.279 7.63638 49.2182 7.59462L48.8216 7.31451C48.6782 7.21067 48.523 7.09575 48.3543 6.96795C48.3134 6.93694 48.2542 6.90051 48.1795 6.85888L47.9117 6.71865L46.7152 6.12495C46.6379 6.08522 46.5595 6.04443 46.4802 6.0026L45.9982 5.73939C45.2695 5.32661 44.5336 4.83452 44.0414 4.28426C43.8659 4.08833 43.2043 2.85805 43.4454 2.04104C43.515 1.89076 44.1039 1.95978 44.8625 2.13634L45.3353 2.25429C45.4165 2.2758 45.4988 2.29816 45.5817 2.32126L46.084 2.46787L46.5852 2.62687L47.0684 2.7929C47.9274 3.10046 48.6111 3.41643 48.6542 3.59205ZM41.7152 1.9897L42.0037 2.84769C42.0187 2.88994 42.0339 2.93148 42.0493 2.97241L42.1469 3.21128C42.4577 3.9102 42.9669 4.47037 44.5865 5.44472C44.7593 5.54863 44.9415 5.65406 45.1292 5.75991L45.7043 6.07765L47.1242 6.84004L47.6211 7.115C47.8522 7.24628 48.0544 7.36743 48.2139 7.47478L48.8349 7.92161C49.4295 8.3633 50.278 9.09084 50.4706 10.0456C49.6238 9.91923 48.8336 9.73084 48.0491 9.52109L46.8703 9.19551C46.9901 8.62411 46.3281 7.94485 45.9839 7.74328L44.8829 7.08653L44.5253 6.88693L44.2554 6.74575L43.7741 6.51029L43.3853 6.33077L42.6707 6.01616L41.851 5.66607L41.3466 5.43357L40.9323 5.2314L40.4713 4.99506L39.9771 4.72758C39.1332 4.25755 38.2068 3.67053 37.4779 3.03006L37.2655 2.83638C37.2319 2.80463 37.1884 2.76146 37.1384 2.70827L36.9726 2.52005C36.676 2.16093 36.3079 1.5863 36.3168 0.970763C36.3202 0.871075 36.6385 0.857894 37.1214 0.902603L37.5121 0.946543L37.9504 1.00951L38.4223 1.08882L38.9137 1.18179L39.4104 1.28573L39.8985 1.39797C39.9783 1.41722 40.0572 1.43671 40.1348 1.45637L40.5834 1.57602C40.6549 1.59617 40.7246 1.61638 40.7921 1.63661L41.1696 1.75764C41.4011 1.83781 41.5892 1.91636 41.7152 1.9897ZM15.5838 3.70355L15.7479 3.80023L16.0726 4.00389L17.0751 4.67079C17.134 4.70919 17.1937 4.74769 17.2543 4.78622L17.6297 5.01742C18.6654 5.63261 19.9988 6.22646 22.1472 6.54704L28.0279 7.31449L28.3777 7.36746C29.404 7.54018 31.1066 7.98593 31.7979 9.21411C31.5849 9.27238 31.2772 9.32486 30.9238 9.37703L29.7751 9.53808L29.1894 9.62818C29.0942 9.64407 29.0007 9.66046 28.9097 9.67743L28.1688 9.15912L27.9121 8.9942C27.8888 8.98039 27.8668 8.96789 27.8459 8.95651L27.7307 8.90002L27.6251 8.86086L27.4501 8.81405L27.2074 8.75335L26.5432 8.57098L25.9709 8.42729L25.5706 8.33775L25.1474 8.25374L24.6944 8.17573L24.2048 8.10417C24.1198 8.0928 24.0329 8.08173 23.9442 8.07095L23.3869 8.00992L22.7759 7.9565C22.6692 7.94826 22.56 7.94035 22.4482 7.93278L21.7439 7.89162L20.9689 7.8592L19.7153 7.82614L19.0955 7.79829L18.6221 7.76722L18.108 7.72312L17.5594 7.66339C16.1498 7.49237 14.4754 7.15051 12.9766 6.4553L12.6969 6.3187L12.3222 6.12106L11.8927 5.87608C11.3754 5.56798 10.8284 5.1912 10.5391 4.84365C10.2988 4.421 11.1867 4.01274 12.2953 3.76053L12.7197 3.67355L13.1541 3.60285C13.2267 3.59252 13.2994 3.58293 13.3717 3.57413L13.8013 3.53098C14.577 3.47011 15.2694 3.51229 15.5838 3.70355ZM34.8464 1.24675L35.2538 1.95957L35.3983 2.19305L35.5575 2.42597C36.0358 3.08598 36.7687 3.75021 38.4016 4.51133L39.6331 5.07272L42.6143 6.48565L43.0384 6.67673L43.4076 6.83562C44.0992 7.1503 45.4298 7.91005 45.2322 9.09166L44.5913 8.97966L44.0595 8.87707L42.7305 8.59728L42.2466 8.50385C42.1599 8.48795 42.0696 8.47186 41.975 8.4555C41.9163 7.87385 41.3124 7.33307 40.9139 7.0645L40.5134 6.80263L40.2578 6.64713L40.0012 6.5029C39.9578 6.4796 39.9141 6.45664 39.8698 6.43393L39.5954 6.30015L39.2983 6.16905L38.9698 6.0372L38.6012 5.90118L38.1839 5.75753L37.4477 5.52029L36.8706 5.34261L36.1111 5.11384L35.6801 4.97287L35.3052 4.84082L34.8725 4.67896L34.3926 4.48789L33.8762 4.26818L33.3337 4.02041C32.4138 3.5844 31.4297 3.03387 30.6018 2.38084L30.5412 2.32909L30.3793 2.17036L30.1821 1.95399C29.7673 1.47638 29.2756 0.767942 29.5183 0.519105C30.3883 0.036245 33.7309 0.56314 34.8464 1.24675ZM22.0809 2.24202C22.1794 2.31189 22.2745 2.38316 22.3673 2.45553L22.6405 2.67568L23.315 3.24388L23.6011 3.47378C24.4374 4.12448 25.5217 4.76228 27.6234 5.21171L30.0954 5.7387L31.0946 5.96329L31.6933 6.10752L32.216 6.24496C32.2957 6.26719 32.3715 6.28905 32.4429 6.3105L32.7843 6.41844L33.2916 6.57366C34.2229 6.86663 35.5036 7.36253 35.9409 8.53533C35.6953 8.58779 35.3747 8.61858 35.006 8.64464L33.7825 8.72562C33.5635 8.74241 33.3391 8.76226 33.1129 8.7873L32.7833 8.44858C32.2859 7.94698 32.0196 7.74163 31.5584 7.55776L30.9093 7.32578L30.3904 7.15836L30.0249 7.05118L29.6354 6.94685C29.5682 6.92967 29.4996 6.91258 29.4296 6.89558L28.9914 6.79443L28.5118 6.69465L27.9839 6.59566L27.4008 6.49686L26.7554 6.39766L26.0408 6.29746L25.0249 6.16532L24.5445 6.09015L23.9188 5.97787L23.4353 5.88153L22.909 5.76738C22.8182 5.74685 22.7259 5.72555 22.6324 5.70347L22.058 5.56165C21.9603 5.53644 21.8616 5.51043 21.7623 5.48361L21.1593 5.31293C20.1451 5.01203 19.0967 4.62826 18.195 4.15074C17.7775 3.9295 16.6679 2.72629 16.3258 2.0494C16.2348 1.39287 21.4752 1.34083 22.0809 2.24202ZM28.0079 1.20095C28.1263 1.31643 28.239 1.43432 28.3502 1.5541L28.8971 2.15081L29.128 2.39073L29.3775 2.63242C30.1164 3.31897 31.1545 4.01717 33.1376 4.64443L35.2143 5.30078L36.2003 5.62792L36.7948 5.83906C37.0755 5.94263 37.3289 6.04287 37.5445 6.13814L37.8606 6.28384L38.4455 6.53092C39.1647 6.84687 40.0892 7.35831 40.509 8.44184L37.4539 8.24627C37.1498 7.61518 36.6936 7.23204 36.2544 7.05708C35.9031 6.91744 35.5884 6.79994 35.2539 6.68602L34.6507 6.49075L33.7464 6.22485L30.2706 5.27306L29.6476 5.08947L29.1665 4.93973L28.6437 4.76863L28.0883 4.57662L27.5097 4.36413L26.9171 4.13161C26.1218 3.80841 25.3139 3.43296 24.5925 3.00995L24.3262 2.8491C23.9424 2.61008 22.9689 1.9233 22.5601 1.01574C22.4058 0.533141 24.2143 0.478608 25.7997 0.646858L26.2664 0.703811C27.1018 0.819726 27.8035 0.996823 28.0079 1.20095Z" fill="white"/>
<path fill-rule="evenodd" clip-rule="evenodd" d="M68.2353 22.9407H83.267C85.1149 22.9407 86.4221 23.2819 87.1894 23.9635C88.0193 24.7087 88.4344 26.0169 88.4344 27.8878C88.4344 29.3466 88.2619 30.4246 87.9173 31.1224C87.5729 31.8198 86.9704 32.3433 86.1089 32.6918C87.0486 33.1041 87.6707 33.5163 87.9763 33.9285C88.2815 34.3408 88.4344 35.0783 88.4344 36.1405V39.9457H83.267V36.9016C83.267 36.4577 83.1495 36.0848 82.9148 35.7838C82.6172 35.3875 82.1712 35.1893 81.5759 35.1893H73.4026V39.9457H68.2353V22.9407ZM73.4026 27.3407V30.7893H81.6935C82.257 30.7893 82.6605 30.6663 82.9031 30.4206C83.1459 30.1749 83.267 29.7268 83.267 29.0769C83.267 28.4267 83.1419 27.9751 82.8912 27.7212C82.6408 27.4678 82.2414 27.3407 81.6935 27.3407H73.4026ZM93.437 39.9457V22.9407H111.522V27.0555H98.604V29.41H110.935V33.5004H98.604V35.8314H111.522V39.9457H93.437ZM115.914 22.9886V39.9697H121.081V26.5806L121.457 27.3407L127.892 39.9697H132.12L138.086 27.3447L138.461 26.5806V39.9697H143.628V22.9886H134.821L130.405 32.5256L129.985 33.3485L129.607 32.5256L125.191 22.9886H115.914ZM162.7 39.9457H158.378L157.345 38.9183C156.906 39.2099 156.543 39.4257 156.255 39.5652C155.391 40.0091 154.595 40.2755 153.869 40.3644H151.351C150.336 40.263 149.447 39.9775 148.683 39.5082C147.743 38.9247 147.186 38.1508 147.011 37.1871C146.973 36.9586 146.954 36.7431 146.954 36.5402C146.954 35.703 147.192 34.9418 147.668 34.2569C148.144 33.5719 148.783 33.0518 149.585 32.6968C149.259 32.3034 148.999 31.8882 148.805 31.4507C148.611 31.0131 148.514 30.585 148.514 30.1664C148.514 29.7224 148.614 29.291 148.814 28.8726C149.215 28.2636 149.745 27.8038 150.402 27.493C151.06 27.1823 151.758 27.0272 152.497 27.0272H154.94C155.917 27.0272 156.765 27.2901 157.486 27.8197C158.206 28.3492 158.647 29.1039 158.81 30.0872C158.835 30.3154 158.848 30.4802 158.848 30.5817C158.848 31.2063 158.647 31.7932 158.246 32.3416C157.921 32.8013 157.438 33.2423 156.8 33.6609L157.89 34.8086L158.735 33.7812H162.004C161.779 34.3775 161.585 34.8339 161.422 35.1511C160.921 36.1405 160.413 36.7874 159.9 37.0918L162.7 39.9457ZM153.662 31.7076C153.938 31.7076 154.2 31.5488 154.451 31.2319C154.702 30.9148 154.827 30.5786 154.827 30.2234C154.827 29.9318 154.727 29.6968 154.526 29.5195C154.326 29.3419 154 29.2529 153.549 29.2529C153.248 29.2529 153.02 29.345 152.863 29.5289C152.707 29.713 152.629 29.9379 152.629 30.2045C152.629 30.5723 152.732 30.9148 152.939 31.2319C153.145 31.5488 153.386 31.7076 153.662 31.7076ZM155.334 36.7873L152.779 34.9229C152.29 34.9863 151.927 35.0497 151.689 35.113C150.963 35.3287 150.599 35.6648 150.599 36.1215C150.599 36.464 150.862 36.7938 151.388 37.1109C151.802 37.352 152.247 37.5296 152.723 37.6435C152.848 37.6691 152.954 37.6816 153.042 37.6816C153.418 37.6816 153.844 37.5866 154.32 37.3964C154.796 37.2059 155.134 37.0031 155.334 36.7873ZM174.964 22.7031C179.756 22.7031 182.707 23.1073 183.819 23.9159C184.79 24.6137 185.275 26.4687 185.275 29.4811H180.085C180.085 28.4982 179.826 27.8719 179.31 27.6023C178.668 27.2696 177.219 27.103 174.964 27.103C172.444 27.103 170.964 27.3012 170.525 27.6976C170.087 28.094 169.868 29.3466 169.868 31.4553C169.868 33.548 170.087 34.7928 170.525 35.1893C170.964 35.5856 172.444 35.7838 174.964 35.7838C177.25 35.7838 178.679 35.6449 179.251 35.3675C179.822 35.0901 180.108 34.4362 180.108 33.4054H185.275C185.275 36.4337 184.806 38.289 183.866 38.9706C182.754 39.7792 179.787 40.1838 174.964 40.1838C170.142 40.1838 167.226 39.7398 166.216 38.8516C165.206 37.9638 164.701 35.4906 164.701 31.4314C164.701 27.3882 165.186 24.9386 166.157 24.0824C167.206 23.1628 170.142 22.7031 174.964 22.7031ZM211.322 31.4553C211.322 35.5934 210.829 38.0669 209.842 38.8755C208.778 39.7476 205.568 40.1838 200.213 40.1838C196.298 40.1838 193.731 40.0408 192.509 39.7557C190.975 39.391 190.004 38.5982 189.597 37.3772C189.284 36.4418 189.127 34.4679 189.127 31.4553C189.127 27.317 189.612 24.8436 190.583 24.035C191.648 23.147 194.858 22.7031 200.213 22.7031C205.552 22.7031 208.754 23.1389 209.819 24.0109C210.821 24.8355 211.322 27.317 211.322 31.4553ZM194.294 31.4553C194.294 33.6276 194.541 34.892 195.034 35.2486C195.527 35.6056 197.253 35.7838 200.213 35.7838C203.188 35.7838 204.922 35.6056 205.415 35.2486C205.908 34.892 206.155 33.6276 206.155 31.4553C206.155 29.2671 205.908 27.9949 205.415 27.638C204.922 27.2813 203.196 27.103 200.236 27.103C197.261 27.103 195.527 27.2813 195.034 27.638C194.541 27.9949 194.294 29.2671 194.294 31.4553ZM214.493 39.9697V22.9886H219.66V39.9697H214.493ZM223.113 22.9647H228.28V35.5459H240V39.9457H223.113V22.9647Z" fill="white"/>
<path fill-rule="evenodd" clip-rule="evenodd" d="M111.028 45.4249C110.632 45.1904 110.177 45.0737 109.668 45.0737C108.901 45.0737 108.259 45.3258 107.76 45.8279C107.285 46.3053 107.045 46.8999 107.045 47.5944C107.045 48.282 107.275 48.8759 107.73 49.3611C108.227 49.8869 108.879 50.1505 109.668 50.1505C110.357 50.1505 110.944 49.9329 111.415 49.4991C111.885 49.0659 112.154 48.4977 112.219 47.8097C112.235 47.637 112.1 47.4878 111.928 47.4878H109.004L108.937 47.4956C108.808 47.5261 108.711 47.6427 108.711 47.782V48.1745L108.719 48.242L108.747 48.3155C108.797 48.4068 108.893 48.4687 109.004 48.4687L110.963 48.4677L110.914 48.5479L110.812 48.6748C110.739 48.7555 110.656 48.8284 110.562 48.8937C110.295 49.0785 110.006 49.1696 109.685 49.1696C109.195 49.1696 108.803 49.0019 108.49 48.6609C108.201 48.3467 108.061 47.9977 108.061 47.6004C108.061 47.2167 108.184 46.8815 108.434 46.5833C108.731 46.2298 109.134 46.0546 109.668 46.0546C109.956 46.0546 110.21 46.1183 110.432 46.2451C110.629 46.3579 110.785 46.5198 110.903 46.7348C110.955 46.8285 111.053 46.8867 111.159 46.8867H111.672L111.747 46.8769C111.915 46.8322 112.014 46.6428 111.939 46.4725C111.735 46.0152 111.431 45.6634 111.028 45.4249ZM176.07 45.785C175.577 45.3118 174.962 45.0737 174.24 45.0737C173.516 45.0737 172.899 45.3166 172.407 45.7988C171.913 46.283 171.663 46.8973 171.663 47.6238C171.663 48.3473 171.914 48.9577 172.412 49.4361C172.906 49.9113 173.521 50.1505 174.24 50.1505C174.964 50.1505 175.58 49.9054 176.073 49.4187C176.566 48.9309 176.816 48.315 176.816 47.5888C176.816 46.8689 176.565 46.2613 176.07 45.785ZM186.82 45.785C186.328 45.3118 185.712 45.0737 184.99 45.0737C184.266 45.0737 183.65 45.3166 183.158 45.7988C182.663 46.2829 182.414 46.8973 182.414 47.6238C182.414 48.3473 182.665 48.9578 183.162 49.4361C183.657 49.9112 184.272 50.1505 184.99 50.1505C185.714 50.1505 186.331 49.9054 186.823 49.4187C187.317 48.9309 187.566 48.315 187.566 47.5888C187.566 46.8689 187.316 46.2613 186.82 45.785ZM224.866 45.0737C225.588 45.0737 226.203 45.3118 226.696 45.785C227.191 46.2612 227.442 46.8688 227.442 47.5888C227.442 48.315 227.193 48.931 226.699 49.4187C226.206 49.9054 225.59 50.1505 224.866 50.1505C224.147 50.1505 223.532 49.9112 223.038 49.4361C222.541 48.9577 222.289 48.3473 222.289 47.6238C222.289 46.8973 222.539 46.2829 223.033 45.7987C223.525 45.3166 224.142 45.0737 224.866 45.0737ZM239.529 45.5411C239.255 45.2301 238.878 45.0737 238.42 45.0737C237.928 45.0737 237.528 45.2464 237.245 45.5905C237.019 45.861 236.904 46.1841 236.904 46.5458C236.904 47.0766 237.147 47.4838 237.609 47.7264L238.605 48.0782L238.703 48.1226C238.764 48.1546 238.815 48.1912 238.854 48.2303C238.941 48.3178 238.984 48.4302 238.984 48.5847C238.984 48.7531 238.932 48.8882 238.824 49.0053C238.723 49.1145 238.583 49.1696 238.385 49.1696C238.188 49.1696 238.051 49.1181 237.953 49.0179C237.841 48.9024 237.786 48.758 237.786 48.5673C237.786 48.4048 237.655 48.2731 237.494 48.2731H237.063L236.996 48.2809C236.866 48.3114 236.77 48.4281 236.77 48.5673C236.77 49.0256 236.93 49.4134 237.244 49.7103C237.554 50.0031 237.944 50.1505 238.397 50.1505C238.893 50.1505 239.304 49.9782 239.606 49.6358C239.867 49.3395 240 48.9867 240 48.5907C240 48.09 239.811 47.6868 239.439 47.4105C239.281 47.2934 239.063 47.1907 238.78 47.0979L238.406 46.9843C238.219 46.9237 238.091 46.8655 238.027 46.816C237.955 46.7606 237.92 46.6822 237.92 46.5515C237.92 46.4016 237.96 46.2801 238.041 46.1766C238.104 46.0966 238.203 46.0546 238.368 46.0546C238.568 46.0546 238.696 46.1115 238.781 46.2249C238.847 46.313 238.879 46.4149 238.879 46.5398C238.879 46.7023 239.01 46.834 239.172 46.834H239.603L239.67 46.8262C239.799 46.7957 239.895 46.6791 239.895 46.5398C239.895 46.1525 239.773 45.8147 239.529 45.5411ZM196.23 45.0737C196.688 45.0737 197.065 45.23 197.34 45.5412C197.583 45.8148 197.705 46.1527 197.705 46.5398C197.705 46.6791 197.609 46.7957 197.48 46.8262L197.413 46.834H196.982C196.821 46.834 196.69 46.7023 196.69 46.5398C196.69 46.4149 196.657 46.313 196.591 46.2249C196.506 46.1115 196.378 46.0546 196.178 46.0546C196.014 46.0546 195.914 46.0966 195.851 46.1766C195.77 46.2801 195.73 46.4016 195.73 46.5515C195.73 46.6823 195.765 46.7607 195.837 46.816C195.901 46.8655 196.029 46.9237 196.216 46.9843L196.591 47.0979C196.873 47.1907 197.091 47.2934 197.249 47.4105C197.621 47.6868 197.81 48.09 197.81 48.5907C197.81 48.9868 197.677 49.3396 197.416 49.6357C197.114 49.9782 196.704 50.1505 196.207 50.1505C195.754 50.1505 195.364 50.0031 195.054 49.7104C194.74 49.4135 194.58 49.0257 194.58 48.5673C194.58 48.4281 194.677 48.3114 194.806 48.2809L194.873 48.2731H195.304C195.465 48.2731 195.596 48.4048 195.596 48.5673C195.596 48.7581 195.651 48.9025 195.763 49.0179C195.861 49.1181 195.998 49.1696 196.195 49.1696C196.394 49.1696 196.533 49.1146 196.634 49.0052C196.742 48.8882 196.794 48.7532 196.794 48.5847C196.794 48.4301 196.751 48.3178 196.665 48.2304C196.626 48.1912 196.574 48.1547 196.514 48.1226L196.416 48.0782L195.938 47.9121L195.419 47.7264C194.957 47.4838 194.714 47.0766 194.714 46.5458C194.714 46.1841 194.83 45.861 195.055 45.5905C195.339 45.2465 195.739 45.0737 196.23 45.0737ZM135.969 45.0737C136.467 45.0737 136.916 45.1906 137.31 45.4252C137.707 45.6616 138.011 45.9958 138.219 46.4221C138.303 46.5958 138.201 46.7953 138.025 46.8375L137.956 46.8456H137.443C137.344 46.8456 137.251 46.795 137.198 46.7111C137.096 46.5527 136.978 46.4246 136.845 46.3255C136.601 46.1449 136.314 46.0546 135.975 46.0546C135.521 46.0546 135.163 46.2017 134.882 46.4991C134.597 46.8013 134.456 47.1631 134.456 47.6004C134.456 48.0508 134.603 48.4179 134.903 48.7195C135.203 49.0213 135.565 49.1696 136.005 49.1696C136.237 49.1696 136.456 49.1164 136.664 49.0083C136.892 48.8921 137.073 48.7227 137.212 48.4953C137.251 48.4299 137.314 48.3837 137.386 48.3646L137.461 48.355H137.973C138.194 48.355 138.336 48.5922 138.231 48.7882C138.005 49.2124 137.697 49.5469 137.308 49.7874C136.918 50.0293 136.481 50.1505 136.005 50.1505C135.289 50.1505 134.68 49.9131 134.193 49.4411C133.693 48.9547 133.44 48.3349 133.44 47.6004C133.44 46.882 133.685 46.2737 134.171 45.7938C134.656 45.3151 135.261 45.0737 135.969 45.0737ZM207.367 45.5013C207.114 45.216 206.768 45.0737 206.35 45.0737C205.952 45.0737 205.622 45.2069 205.377 45.4733C205.16 45.7119 205.049 45.9993 205.049 46.3228C205.049 46.5666 205.112 46.7973 205.235 47.0101L205.315 47.1352L205.333 47.1573L205.235 47.2193L205.095 47.3281L204.967 47.45C204.683 47.7404 204.537 48.1015 204.537 48.5147C204.537 48.9793 204.685 49.3742 204.981 49.6827C205.28 49.9947 205.679 50.1505 206.158 50.1505C206.514 50.1505 206.824 50.0582 207.078 49.8709L207.194 49.7741L207.308 49.6581C207.382 49.5744 207.456 49.4778 207.527 49.3687L207.535 49.3543L208.267 50.0677L208.328 50.1134C208.437 50.1745 208.576 50.1603 208.671 50.0702L208.979 49.7772L209.03 49.7139L209.061 49.6419C209.088 49.542 209.062 49.4303 208.983 49.3525L208.049 48.4383L208.747 47.1044L208.772 47.0381C208.817 46.8592 208.683 46.6735 208.488 46.6735H208.004L207.94 46.6807L207.88 46.7014C207.822 46.7286 207.774 46.7743 207.744 46.8331L207.302 47.6953L207.054 47.4493L207.201 47.3472L207.27 47.2904L207.334 47.2315C207.575 46.9991 207.702 46.7186 207.702 46.405C207.702 46.0604 207.589 45.7547 207.367 45.5013ZM218.24 45.0737C218.738 45.0737 219.187 45.1906 219.581 45.4252C219.978 45.6616 220.282 45.9959 220.489 46.4222C220.574 46.5959 220.472 46.7954 220.296 46.8375L220.227 46.8456H219.714C219.615 46.8456 219.522 46.795 219.469 46.7111C219.367 46.5527 219.249 46.4246 219.116 46.3255C218.872 46.1449 218.585 46.0546 218.246 46.0546C217.792 46.0546 217.434 46.2017 217.153 46.4991C216.868 46.8013 216.727 47.1632 216.727 47.6004C216.727 48.0508 216.874 48.4179 217.174 48.7195C217.474 49.0213 217.836 49.1696 218.276 49.1696C218.508 49.1696 218.727 49.1164 218.935 49.0083C219.163 48.8921 219.344 48.7226 219.482 48.4954C219.522 48.4299 219.585 48.3837 219.657 48.3646L219.732 48.355H220.244C220.465 48.355 220.607 48.5921 220.502 48.7881C220.276 49.2124 219.968 49.5469 219.579 49.7874C219.189 50.0293 218.752 50.1505 218.276 50.1505C217.56 50.1505 216.951 49.913 216.464 49.4411C215.964 48.9548 215.711 48.335 215.711 47.6004C215.711 46.882 215.956 46.2737 216.442 45.7938C216.927 45.3151 217.532 45.0737 218.24 45.0737ZM156.749 45.4252C156.355 45.1907 155.907 45.0737 155.409 45.0737C154.701 45.0737 154.095 45.3151 153.611 45.7938C153.125 46.2737 152.879 46.882 152.879 47.6004C152.879 48.3349 153.132 48.9547 153.633 49.4411C154.12 49.9131 154.729 50.1505 155.444 50.1505C155.921 50.1505 156.358 50.0293 156.748 49.7874C157.136 49.5469 157.445 49.2124 157.671 48.7881C157.775 48.5921 157.634 48.355 157.413 48.355H156.9L156.826 48.3646C156.754 48.3837 156.691 48.4299 156.651 48.4953C156.513 48.7226 156.331 48.8921 156.104 49.0083C155.895 49.1164 155.677 49.1696 155.444 49.1696C155.005 49.1696 154.643 49.0213 154.343 48.7195C154.043 48.4179 153.896 48.0507 153.896 47.6004C153.896 47.1632 154.036 46.8013 154.322 46.4991C154.603 46.2017 154.961 46.0546 155.415 46.0546C155.754 46.0546 156.041 46.1449 156.284 46.3254C156.418 46.4247 156.536 46.5528 156.637 46.7111C156.691 46.795 156.784 46.8456 156.883 46.8456H157.395L157.465 46.8375C157.64 46.7954 157.743 46.5959 157.658 46.4222C157.451 45.9959 157.146 45.6616 156.749 45.4252ZM181.057 45.1499C181.195 45.1499 181.311 45.2467 181.341 45.3766L181.349 45.4441V45.8365C181.349 45.9758 181.253 46.0924 181.124 46.1229L181.057 46.1307L180.364 46.1305L180.364 49.7802C180.364 49.8916 180.303 49.9885 180.212 50.0385L180.139 50.0666L180.072 50.0743H179.641C179.502 50.0743 179.386 49.9776 179.356 49.8476L179.348 49.7802L179.348 46.1305L178.657 46.1307C178.546 46.1307 178.449 46.0688 178.4 45.9775L178.372 45.904L178.364 45.8365V45.4441C178.364 45.3048 178.46 45.1882 178.589 45.1577L178.657 45.1499H181.057ZM71.1701 45.5669C70.8195 45.2849 70.3386 45.1499 69.734 45.1499H68.5277L68.4607 45.1577C68.3315 45.1882 68.2353 45.3048 68.2353 45.4441V49.7802L68.243 49.8476C68.2733 49.9776 68.3893 50.0743 68.5277 50.0743H68.9587L69.0257 50.0666L69.0988 50.0385C69.1896 49.9885 69.2511 49.8916 69.2511 49.7802L69.251 48.1216L70.6181 49.9566L70.8521 50.0743H71.3883L71.4646 50.0646L71.5318 50.0372C71.6767 49.9552 71.7348 49.7539 71.6218 49.6031L70.7012 48.3747L70.8034 48.339L70.9415 48.2727C71.0757 48.1991 71.198 48.1036 71.3073 47.9863C71.5937 47.6789 71.7388 47.299 71.7388 46.8622C71.7388 46.3157 71.5488 45.8753 71.1701 45.5669ZM76.2714 45.1499C76.4098 45.1499 76.5258 45.2467 76.5561 45.3766L76.5638 45.4441V45.8365C76.5638 45.9758 76.4676 46.0924 76.3384 46.1229L76.2714 46.1307L74.6292 46.1305V47.1066L76.2074 47.107C76.3181 47.107 76.4145 47.1689 76.4641 47.2603L76.4921 47.3337L76.4998 47.4012V47.7937C76.4998 47.933 76.4036 48.0497 76.2744 48.0802L76.2074 48.0879L74.6292 48.0874V49.0929L76.2714 49.0936C76.3821 49.0936 76.4785 49.1555 76.5281 49.2468L76.5561 49.3203L76.5638 49.3877V49.7802C76.5638 49.9194 76.4676 50.0361 76.3384 50.0666L76.2714 50.0743H73.9061C73.7677 50.0743 73.6517 49.9776 73.6214 49.8476L73.6137 49.7802V45.4441C73.6137 45.3048 73.7099 45.1882 73.8391 45.1577L73.9061 45.1499H76.2714ZM98.9393 45.3766C98.909 45.2467 98.793 45.1499 98.6546 45.1499H98.2233L98.1562 45.1577C98.027 45.1882 97.9309 45.3048 97.9309 45.4441V49.7802L97.9386 49.8476C97.9689 49.9776 98.0849 50.0743 98.2233 50.0743H98.6546L98.7216 50.0666C98.8508 50.0361 98.947 49.9194 98.947 49.7802V45.4441L98.9393 45.3766ZM121.82 45.1499C121.959 45.1499 122.075 45.2467 122.105 45.3766L122.113 45.4441V45.8365C122.113 45.9758 122.017 46.0924 121.887 46.1229L121.82 46.1307L120.178 46.1305V47.1066L121.756 47.107C121.867 47.107 121.963 47.1689 122.013 47.2603L122.041 47.3337L122.049 47.4012V47.7937C122.049 47.933 121.953 48.0497 121.823 48.0802L121.756 48.0879L120.178 48.0874V49.0929L121.82 49.0936C121.931 49.0936 122.027 49.1555 122.077 49.2468L122.105 49.3203L122.113 49.3877V49.7802C122.113 49.9194 122.017 50.0361 121.887 50.0666L121.82 50.0743H119.455C119.317 50.0743 119.201 49.9776 119.17 49.8476L119.163 49.7802V45.4441C119.163 45.3048 119.259 45.1882 119.388 45.1577L119.455 45.1499H121.82ZM81.6778 45.7202C81.3686 45.3361 80.8788 45.1499 80.2345 45.1499H78.8709L78.8039 45.1577C78.6747 45.1882 78.5785 45.3048 78.5785 45.4441V49.7802L78.5862 49.8476C78.6165 49.9776 78.7325 50.0743 78.8709 50.0743H79.3019L79.3689 50.0666L79.442 50.0385C79.5328 49.9885 79.5943 49.8916 79.5943 49.7802L79.5942 48.3335L80.2345 48.3342L80.4471 48.3266C80.9295 48.2912 81.3171 48.1312 81.5976 47.8404C81.874 47.5527 82.0123 47.1819 82.0123 46.7447C82.0123 46.3402 81.9016 45.9945 81.6778 45.7202ZM191.004 45.1499C191.608 45.1499 192.089 45.2849 192.44 45.5669C192.818 45.8753 193.008 46.3157 193.008 46.8622C193.008 47.2991 192.863 47.679 192.577 47.9863C192.468 48.1036 192.345 48.1991 192.211 48.2727L192.073 48.339L191.971 48.3747L192.891 49.6031C193.004 49.7539 192.946 49.9552 192.801 50.0372L192.734 50.0646L192.658 50.0743H192.122L191.888 49.9566L190.521 48.1216L190.521 49.7802C190.521 49.8916 190.459 49.9885 190.368 50.0385L190.295 50.0666L190.228 50.0743H189.797C189.659 50.0743 189.543 49.9776 189.513 49.8476L189.505 49.7802V45.4441C189.505 45.3048 189.601 45.1882 189.73 45.1577L189.797 45.1499H191.004ZM147.464 45.5669C147.113 45.2849 146.632 45.1499 146.027 45.1499H144.821L144.754 45.1577C144.625 45.1882 144.529 45.3048 144.529 45.4441V49.7802L144.536 49.8476C144.567 49.9776 144.683 50.0743 144.821 50.0743H145.252L145.319 50.0666L145.392 50.0385C145.483 49.9885 145.544 49.8916 145.544 49.7802L145.544 48.1204L146.911 49.9566L147.145 50.0743H147.682L147.758 50.0646L147.825 50.0372C147.97 49.9552 148.028 49.7539 147.915 49.6031L146.994 48.3747L147.097 48.339L147.235 48.2727C147.369 48.1991 147.491 48.1036 147.601 47.9863C147.887 47.6791 148.032 47.2991 148.032 46.8622C148.032 46.3157 147.842 45.8753 147.464 45.5669ZM142.507 45.1499C142.646 45.1499 142.762 45.2467 142.792 45.3766L142.8 45.4441V45.8365C142.8 45.9758 142.703 46.0924 142.574 46.1229L142.507 46.1307L141.814 46.1305L141.815 49.7802C141.815 49.8916 141.753 49.9885 141.663 50.0385L141.589 50.0666L141.522 50.0743H141.091C140.953 50.0743 140.837 49.9776 140.807 49.8476L140.799 49.7802V46.1305L140.107 46.1307C139.996 46.1307 139.9 46.0688 139.85 45.9775L139.822 45.904L139.815 45.8365V45.4441C139.815 45.3048 139.911 45.1882 140.04 45.1577L140.107 45.1499H142.507ZM233.547 45.3766C233.517 45.2467 233.401 45.1499 233.263 45.1499H232.832L232.765 45.1577C232.636 45.1882 232.539 45.3048 232.539 45.4441V49.7802L232.547 49.8476C232.577 49.9776 232.693 50.0743 232.832 50.0743H235.046L235.113 50.0666C235.242 50.0361 235.338 49.9194 235.338 49.7802V49.3877L235.33 49.3203L235.302 49.2468C235.253 49.1555 235.156 49.0936 235.046 49.0936L233.554 49.0929L233.555 45.4441L233.547 45.3766ZM124.851 45.1499C124.99 45.1499 125.106 45.2467 125.136 45.3766L125.144 45.4441L125.143 49.0929L126.634 49.0936C126.745 49.0936 126.841 49.1555 126.891 49.2468L126.919 49.3203L126.927 49.3877V49.7802C126.927 49.9194 126.83 50.0361 126.701 50.0666L126.634 50.0743H124.42C124.282 50.0743 124.166 49.9776 124.135 49.8476L124.128 49.7802V45.4441C124.128 45.3048 124.224 45.1882 124.353 45.1577L124.42 45.1499H124.851ZM85.7249 45.2681C85.6705 45.1948 85.5841 45.1499 85.4905 45.1499H85.0131L84.9448 45.158C84.8565 45.1794 84.7815 45.2413 84.7445 45.3276L82.886 49.6637L82.865 49.7371C82.8392 49.9086 82.9706 50.0743 83.1545 50.0743H83.6206L83.6889 50.0662L83.7522 50.0429C83.8123 50.0124 83.8614 49.9614 83.8891 49.8967L84.4352 48.6208H86.0551L86.6025 49.8967L86.637 49.9566C86.6914 50.0296 86.7776 50.0743 86.871 50.0743H87.3372L87.4124 50.0647C87.579 50.0207 87.6784 49.8342 87.606 49.6643L85.7593 45.3282L85.7249 45.2681ZM150.642 45.1499C150.781 45.1499 150.897 45.2467 150.927 45.3766L150.935 45.4441V49.7802C150.935 49.9194 150.839 50.0361 150.709 50.0666L150.642 50.0743H150.211C150.073 50.0743 149.957 49.9776 149.926 49.8476L149.919 49.7802V45.4441C149.919 45.3048 150.015 45.1882 150.144 45.1577L150.211 45.1499H150.642ZM102.148 45.2245C102.095 45.177 102.026 45.1499 101.953 45.1499H101.37L101.303 45.1577C101.174 45.1882 101.078 45.3048 101.078 45.4441V49.7802L101.086 49.8476C101.116 49.9776 101.232 50.0743 101.37 50.0743H101.801L101.869 50.0666L101.942 50.0385C102.032 49.9885 102.094 49.8916 102.094 49.7802L102.094 46.9218L104.147 49.9461L104.194 50C104.247 50.0474 104.316 50.0743 104.388 50.0743H104.819L104.886 50.0666C105.016 50.0361 105.112 49.9194 105.112 49.7802V45.4441L105.104 45.3766C105.074 45.2467 104.958 45.1499 104.819 45.1499H104.388L104.321 45.1577L104.248 45.1858C104.157 45.2357 104.096 45.3327 104.096 45.4441L104.095 48.0862L102.195 45.2785L102.148 45.2245ZM94.0399 45.1499C94.6445 45.1499 95.1254 45.2849 95.476 45.5669C95.8546 45.8753 96.0446 46.3157 96.0446 46.8622C96.0446 47.2991 95.8995 47.6791 95.6131 47.9863C95.5038 48.1036 95.3815 48.1991 95.2473 48.2727L95.1092 48.339L95.0066 48.3747L95.9276 49.6031C96.0406 49.7539 95.9825 49.9552 95.8376 50.0372L95.7704 50.0646L95.6941 50.0743H95.1579L94.9239 49.9566L93.5564 48.1204L93.5569 49.7802C93.5569 49.8916 93.4953 49.9885 93.4046 50.0385L93.3315 50.0666L93.2645 50.0743H92.8335C92.6951 50.0743 92.5791 49.9776 92.5488 49.8476L92.5411 49.7802V45.4441C92.5411 45.3048 92.6373 45.1882 92.7665 45.1577L92.8335 45.1499H94.0399ZM131.604 45.3766C131.573 45.2467 131.457 45.1499 131.319 45.1499H128.954L128.887 45.1577C128.757 45.1882 128.661 45.3048 128.661 45.4441V49.7802L128.669 49.8476C128.699 49.9776 128.815 50.0743 128.954 50.0743H131.319L131.386 50.0666C131.515 50.0361 131.611 49.9194 131.611 49.7802V49.3877L131.604 49.3203L131.576 49.2468C131.526 49.1555 131.43 49.0936 131.319 49.0936L129.676 49.0929V48.0874L131.255 48.0879L131.322 48.0802C131.451 48.0497 131.547 47.933 131.547 47.7937V47.4012L131.54 47.3337L131.512 47.2603C131.462 47.1689 131.366 47.107 131.255 47.107L129.676 47.1066V46.1305L131.319 46.1307L131.386 46.1229C131.515 46.0924 131.611 45.9758 131.611 45.8365V45.4441L131.604 45.3766ZM230.116 45.1499C230.254 45.1499 230.37 45.2467 230.4 45.3766L230.408 45.4441V49.7802C230.408 49.9194 230.312 50.0361 230.183 50.0666L230.116 50.0743H229.684C229.546 50.0743 229.43 49.9776 229.4 49.8476L229.392 49.7802V45.4441C229.392 45.3048 229.488 45.1882 229.617 45.1577L229.684 45.1499H230.116ZM90.4022 45.3766C90.3719 45.2467 90.2559 45.1499 90.1175 45.1499H89.6862L89.6191 45.1577C89.4899 45.1882 89.3938 45.3048 89.3938 45.4441V49.7802L89.4015 49.8476C89.4318 49.9776 89.5478 50.0743 89.6862 50.0743H90.1175L90.1845 50.0666C90.3137 50.0361 90.4099 49.9194 90.4099 49.7802V45.4441L90.4022 45.3766ZM165.61 45.1499C165.704 45.1499 165.79 45.1946 165.844 45.2676L165.879 45.3275L167.195 48.3924L168.511 45.3275C168.539 45.2628 168.588 45.2118 168.648 45.1814L168.711 45.158L168.779 45.1499H169.444C169.582 45.1499 169.698 45.2467 169.728 45.3766L169.736 45.4441V49.7802C169.736 49.9194 169.64 50.0361 169.511 50.0666L169.444 50.0743H169.012C168.874 50.0743 168.758 49.9776 168.728 49.8476L168.72 49.7802L168.719 47.3668L167.644 49.8959C167.617 49.9608 167.567 50.0121 167.507 50.0427L167.444 50.0662L167.375 50.0743H167.014C166.921 50.0743 166.834 50.0294 166.78 49.956L166.745 49.8959L165.669 47.3633L165.669 49.7802C165.669 49.8916 165.608 49.9885 165.517 50.0385L165.444 50.0666L165.377 50.0743H164.946C164.808 50.0743 164.692 49.9776 164.661 49.8476L164.654 49.7802V45.4441C164.654 45.3048 164.75 45.1882 164.879 45.1577L164.946 45.1499H165.61ZM223.752 46.5C224.051 46.2018 224.419 46.0546 224.871 46.0546C225.325 46.0546 225.692 46.1971 225.988 46.4846C226.281 46.7697 226.426 47.1315 226.426 47.5888C226.426 48.0553 226.279 48.4284 225.984 48.7255C225.688 49.0228 225.323 49.1696 224.871 49.1696C224.414 49.1696 224.044 49.0261 223.746 48.7367C223.451 48.4499 223.305 48.0852 223.305 47.6238C223.305 47.1657 223.453 46.7971 223.752 46.5ZM174.245 46.0546C173.793 46.0546 173.425 46.2018 173.125 46.5C172.827 46.7971 172.679 47.1656 172.679 47.6238C172.679 48.0851 172.825 48.4499 173.12 48.7367C173.417 49.0261 173.787 49.1696 174.245 49.1696C174.697 49.1696 175.062 49.0228 175.358 48.7255C175.653 48.4285 175.799 48.0554 175.799 47.5888C175.799 47.1314 175.654 46.7697 175.361 46.4846C175.066 46.1971 174.699 46.0546 174.245 46.0546ZM206.066 47.9096L206.804 48.6349L206.727 48.7747C206.652 48.8973 206.577 48.9861 206.503 49.0432C206.397 49.1291 206.277 49.1696 206.128 49.1696C205.957 49.1696 205.828 49.1139 205.721 48.9958C205.607 48.8709 205.553 48.7268 205.553 48.5496C205.553 48.4476 205.577 48.3542 205.626 48.2656C205.701 48.1335 205.835 48.0191 206.035 47.9258L206.066 47.9096ZM184.996 46.0546C184.544 46.0546 184.176 46.2018 183.876 46.5C183.577 46.7971 183.43 47.1656 183.43 47.6238C183.43 48.0851 183.576 48.4499 183.871 48.7367C184.168 49.0261 184.538 49.1696 184.996 49.1696C185.448 49.1696 185.813 49.0228 186.109 48.7255C186.404 48.4285 186.55 48.0554 186.55 47.5888C186.55 47.1314 186.405 46.7697 186.112 46.4846C185.816 46.1971 185.45 46.0546 184.996 46.0546ZM84.853 47.64L85.2498 46.7028L85.6396 47.64H84.853ZM191.004 46.1307L190.521 46.1305V47.5564L190.583 47.5326L190.66 47.5229H191.004C191.357 47.5229 191.61 47.4581 191.767 47.3412C191.918 47.2274 191.993 47.0641 191.993 46.8212C191.993 46.62 191.937 46.4737 191.824 46.3629C191.695 46.2352 191.478 46.1558 191.167 46.1357L191.004 46.1307ZM69.251 46.1305L69.734 46.1307L69.8975 46.1357C70.2085 46.1558 70.425 46.2352 70.5543 46.3629C70.6669 46.4737 70.723 46.62 70.723 46.8212C70.723 47.0641 70.6487 47.2274 70.4969 47.3412C70.3407 47.4581 70.0877 47.5229 69.734 47.5229H69.39L69.3138 47.5326L69.251 47.5564V46.1305ZM94.0399 46.1307L93.5564 46.1305V47.5564L93.6195 47.5326L93.6958 47.5229H94.0399C94.3936 47.5229 94.6465 47.4581 94.8027 47.3412C94.9545 47.2274 95.0287 47.0641 95.0287 46.8212C95.0287 46.6199 94.9727 46.4736 94.8602 46.363C94.7308 46.2352 94.5144 46.1558 94.2033 46.1357L94.0399 46.1307ZM145.544 46.1305L146.027 46.1307L146.191 46.1357C146.502 46.1558 146.718 46.2352 146.848 46.363C146.96 46.4736 147.016 46.6199 147.016 46.8212C147.016 47.0641 146.942 47.2274 146.79 47.3412C146.634 47.4581 146.381 47.5229 146.027 47.5229H145.683L145.607 47.5326L145.544 47.5564V46.1305ZM80.2401 46.1307L79.5942 46.1305V47.3527L80.2401 47.353C80.5244 47.353 80.719 47.2855 80.8431 47.1583C80.9454 47.0551 80.9962 46.923 80.9962 46.7447C80.9962 46.5611 80.9461 46.4263 80.8467 46.3237C80.7452 46.2193 80.5919 46.1549 80.3767 46.1363L80.2401 46.1307ZM206.133 46.1333C206.199 46.0805 206.275 46.0546 206.373 46.0546C206.484 46.0546 206.555 46.082 206.606 46.1349C206.661 46.1922 206.686 46.2577 206.686 46.3466C206.686 46.4084 206.664 46.4644 206.61 46.525L206.55 46.5834C206.506 46.6218 206.452 46.6592 206.387 46.6952L206.317 46.7298L206.216 46.628C206.169 46.575 206.133 46.5239 206.108 46.4753C206.079 46.4181 206.065 46.3631 206.065 46.3055C206.065 46.2198 206.087 46.1711 206.133 46.1333Z" fill="white"/>
</svg>
