<svg width="266" height="80" viewBox="0 0 266 80" fill="none" xmlns="http://www.w3.org/2000/svg">
<path fill-rule="evenodd" clip-rule="evenodd" d="M70.5771 34.4733L70.5773 19.9108C70.5755 19.9093 70.5486 19.8831 70.5449 19.8797C65.2817 15.3397 43.8627 6.31365 33.7386 15.4745C21.3972 26.6412 42.3128 42.6856 58.7386 48.6169C47.5793 43.8689 31.6502 33.9352 39.5572 27.0228C46.1061 22.354 64.9887 28.9125 70.5527 34.4489L70.5771 34.4733Z" fill="#808285"/>
<path fill-rule="evenodd" clip-rule="evenodd" d="M29.6474 33.5833C27.5675 33.6955 26.8985 34.2868 26.363 35.1957C24.8528 37.7564 25.8865 40.8401 25.3392 44.2978C25.1463 45.5191 24.4388 49.0814 19.1305 51.724C18.3911 52.0919 16.9004 52.5116 15.3 52.1329C13.9835 51.8074 9.52263 44.4839 12.2361 43.1799C13.7558 42.7315 19.2789 42.5245 20.9644 38.4211C21.8511 36.2631 22.7257 33.5087 23.7292 31.8176C24.6444 30.2757 26.0555 29.887 27.9672 30.3606C28.3432 31.3405 29.0713 32.4952 29.6474 33.5833Z" fill="#F7931D"/>
<path fill-rule="evenodd" clip-rule="evenodd" d="M53.788 49.8725C54.4832 50.2021 55.3148 50.5341 56.1582 50.8535L58.6 51.7587C58.7858 51.8285 58.9645 51.8965 59.1343 51.9625C58.5922 54.2142 60.3275 56.1366 62.9126 58.1285L63.5004 58.5725L64.427 59.2448L65.7279 60.1583L67.42 61.3385L68.1062 61.8257L68.7925 62.3229L69.4754 62.8311L70.1516 63.3514C71.1588 64.1412 72.1313 64.9749 73.016 65.8671L73.4987 66.4424L74.3125 67.3963L74.7728 67.9508C76.5097 70.0768 78.7306 73.2149 79.5063 77.1131L79.6354 77.8141L79.6777 78.1042C79.7769 78.9252 79.6693 79.7183 78.5486 79.9502C78.2896 80.062 77.4249 79.9837 76.2833 79.7355L75.691 79.5973C75.5889 79.572 75.4853 79.5455 75.3804 79.5178L74.7359 79.3382C71.6671 78.4369 67.837 76.6564 67.4233 74.2539L67.419 74.1365L67.421 73.3171L67.4099 72.856L67.3924 72.5091L67.364 72.1326L67.3222 71.728L67.2647 71.297L67.1889 70.8411C67.1747 70.7631 67.1595 70.6842 67.1435 70.6044L67.0359 70.1143C66.4992 67.8608 65.2261 64.9754 62.2228 62.1199L61.9897 61.8814L61.5063 61.3998L60.7464 60.6668L58.6193 58.66L58.0883 58.1489L57.5663 57.6348L57.0577 57.1183C54.7222 54.7027 52.967 52.2207 53.788 49.8725ZM62.7839 52.3286C64.4867 52.9313 66.2891 53.4484 67.9184 53.9061C68.0275 56.1497 70.0203 57.772 72.7992 59.3615L73.4806 59.7427L74.1889 60.1244L74.9206 60.5085L77.6173 61.8975L78.8125 62.5276L79.614 62.9638L80.4153 63.415C81.8822 64.2571 83.3311 65.1841 84.6687 66.246L85.0556 66.5816L86.5154 67.7884L87.0792 68.2641L87.6704 68.7799C89.5787 70.4789 91.7966 72.8116 93.3584 76.0679L93.6663 76.7645L93.783 77.0537C94.0934 77.8745 94.197 78.6865 93.1765 79.0263C93.0478 79.1065 92.7282 79.1667 92.2742 79.1977L91.8536 79.2169C91.6281 79.2227 91.381 79.2226 91.1166 79.216L90.5663 79.1938C90.4712 79.1885 90.3745 79.1825 90.2764 79.1757L89.672 79.1247L89.0414 79.053C88.9346 79.0392 88.827 79.0245 88.7189 79.0089L88.064 78.9036C85.5368 78.4546 82.871 77.4763 82.0769 75.6404L82.0061 75.2289L81.9345 74.8912L81.8347 74.4903L81.7016 74.0304L81.5917 73.693L81.4632 73.3323L81.3144 72.9496L81.1439 72.5461L80.9501 72.1229L80.7314 71.6813L80.4864 71.2226L80.2135 70.7478C79.064 68.8182 77.2078 66.5333 74.2019 64.2404L73.5333 63.7358L72.9437 63.304L72.3363 62.8767L71.401 62.2413L69.494 60.9746L68.8626 60.5488L68.2403 60.1192L67.631 59.6843L67.039 59.243C64.5169 57.3146 62.5963 55.1672 62.7839 52.3286ZM45.1934 45.7344L45.6686 46.0459L46.7186 46.7173C47.8141 47.4075 49.0045 48.1267 49.9153 48.6301C48.9212 50.7303 50.0185 52.7346 51.9207 54.9008L52.3734 55.4037L52.8512 55.913L53.3505 56.4295L54.1321 57.2191L55.8314 58.9236C57.0024 60.1142 58.1857 61.3791 59.2325 62.7479L59.8449 63.5744L60.5818 64.5308L60.8628 64.9118L61.1537 65.3251C62.5268 67.3308 64.0667 70.421 63.6084 74.9621L63.5374 75.5314C63.4 76.4603 63.0802 77.4526 61.6842 77.5523C61.5944 77.5652 61.4128 77.5364 61.1593 77.4705L60.8218 77.374L60.4228 77.2436L59.9699 77.0812L59.4707 76.8885C59.3841 76.854 59.2958 76.8183 59.2061 76.7814L58.6518 76.5466L58.0701 76.286L57.4687 76.0013C57.063 75.8039 56.6491 75.5917 56.2374 75.3669L55.6225 75.0206C53.2813 73.6597 51.176 71.9245 51.2331 70.2642L51.2831 70.1024L51.7479 68.8881L51.861 68.5681L51.9731 68.2237L52.0811 67.8555L52.1817 67.4639C52.1977 67.3967 52.2132 67.3286 52.2282 67.2595L52.3115 66.8341C52.6793 64.7241 52.5011 61.8462 50.1201 58.4825C49.7702 57.9319 49.3753 57.3657 48.9606 56.7891L47.5261 54.8175L46.9506 54.0055C46.8877 53.9151 46.8253 53.8246 46.7635 53.7341L46.3997 53.1907C44.6796 50.5632 43.5644 47.9338 45.1934 45.7344ZM37.8072 41.0041L39.5868 42.55L40.3733 43.2196C40.8927 43.6536 41.3909 44.0499 41.802 44.3324C40.4236 45.3049 40.2958 45.9164 40.4414 46.618L40.4987 46.8559L40.6779 47.5041C40.6896 47.5508 40.7009 47.5983 40.7118 47.6467C40.9731 48.8076 41.639 50.0071 42.454 51.2807L43.0167 52.1411L43.6067 53.0257L44.2073 53.937C45.1078 55.3249 45.9871 56.8105 46.59 58.4291L46.6982 58.6681L47.2023 59.7085L47.3653 60.0625L47.5294 60.4411L47.6904 60.8439L47.8444 61.2705C48.5397 63.3162 48.8699 66.1273 46.9766 69.5324C46.4003 70.53 45.0031 71.7192 44.2661 71.6801C44.1185 71.6724 43.8736 71.59 43.5576 71.4456L43.2189 71.2809C43.1589 71.2502 43.0971 71.2179 43.0337 71.184L42.6348 70.9625C42.5655 70.9226 42.4948 70.8813 42.4228 70.8387L41.9769 70.5666L41.5071 70.2644L41.0189 69.9347L40.5184 69.5803C40.4342 69.5194 40.3498 69.4575 40.2653 69.3948L39.7571 69.0087C39.6724 68.9428 39.5878 68.8762 39.5034 68.8089L39.0006 68.3974C38.9175 68.3276 38.8349 68.2572 38.7529 68.1864L38.2686 67.7557L37.804 67.3157C36.2944 65.8367 35.2093 64.2492 35.5199 63.0182C35.6107 62.8785 35.7522 62.7195 35.9278 62.5382L36.6383 61.8246L37.0207 61.4223L37.2824 61.1283L37.544 60.8125C38.8012 59.2327 39.8979 56.8646 38.5109 53.2975C38.3367 52.6005 38.0952 51.8761 37.8302 51.1387L37.2129 49.4638C36.5929 47.7791 36.0208 46.0833 35.9963 44.5402C35.9749 43.1687 36.4295 41.7381 37.8072 41.0041ZM32.0003 35.6598C32.2418 35.9571 32.5193 36.3335 32.8131 36.7411L33.7236 38.0094C34.0303 38.4314 34.3335 38.8367 34.6135 39.1774C33.1703 39.7893 32.8113 40.2304 32.6574 40.8624L32.6101 41.094L32.5324 41.6188C32.2969 43.2317 32.775 44.7527 33.3763 46.3744L33.8412 47.6126C34.2585 48.7353 34.665 49.9243 34.8858 51.2365L34.9249 51.4941L34.9627 51.8031L34.9962 52.159L35.0223 52.5574L35.0379 52.9936C35.0859 55.3373 34.5898 59.0158 31.6335 61.2166L31.3079 61.4579C30.5932 61.9791 29.7909 62.4705 28.3616 62.5553C28.1055 62.5671 27.6592 62.3469 27.1152 61.9644L26.7779 61.7159L26.4215 61.4317L26.0507 61.1152C25.9879 61.06 25.9247 61.0035 25.8612 60.9459L25.4769 60.5872C25.4124 60.5253 25.3478 60.4625 25.2832 60.3987L24.8955 60.0052L24.5111 59.5928C24.3204 59.3824 24.1326 59.1661 23.9503 58.9459L23.5935 58.5006C22.2013 56.7025 21.2616 54.7288 22.0565 53.5395C22.17 53.4427 22.319 53.3478 22.4959 53.2511L22.7811 53.1043L23.1023 52.9522L24.0258 52.5305L24.6337 52.2354L25.0496 52.0153C26.7898 51.0547 28.5757 49.5254 28.545 46.5326L28.5422 45.86L28.5566 44.4316C28.5609 44.1869 28.566 43.9398 28.5718 43.6915L28.6134 42.1986L28.7365 38.7578C28.8023 36.9526 30.0603 35.8727 32.0003 35.6598ZM25.6861 25.1452C25.6722 25.4484 25.6672 25.7783 25.6664 26.1232L25.6771 27.7369C25.6781 27.9187 25.6786 28.0999 25.6779 28.279C23.9781 27.973 23.2422 28.2774 22.6487 28.7422L22.4438 28.9122L22.1411 29.1824C21.2543 29.9765 20.8143 30.819 20.4411 31.7517L20.198 32.3872L19.9498 33.0523C19.6042 33.9598 19.1781 34.9532 18.4048 36.0617L17.8243 36.8446L17.555 37.1831L17.3406 37.4345L17.0956 37.7027C17.0521 37.7487 17.0072 37.7952 16.9609 37.8422L16.6656 38.1295C15.4131 39.2984 13.2863 40.6745 9.61488 41.3143C8.80524 41.4549 7.23087 41.4424 5.88537 40.8689C5.62626 40.7453 5.38086 40.1406 5.18631 39.3262L5.07598 38.8146C4.95507 38.1934 4.86271 37.4961 4.81164 36.8158L4.77828 36.239C4.71785 34.7235 4.89216 33.4358 5.45328 33.4878L6.54169 33.5154L7.28628 33.5166L7.84119 33.5047L8.43489 33.4785L9.06053 33.4345C11.5113 33.2272 14.5149 32.5506 16.3329 30.5149L16.8491 29.9255L17.9937 28.5915L18.5993 27.8991C19.6178 26.7526 20.6658 25.6801 21.5064 25.2246L21.632 25.1612L21.7683 25.1041L21.9212 25.0542C21.9484 25.0465 21.9765 25.0392 22.0058 25.0322L22.1949 24.9946L22.4157 24.9665L22.6741 24.9486C22.7207 24.9465 22.7691 24.9449 22.8194 24.9438L23.1455 24.9431L23.5243 24.9549L23.9618 24.9801L24.7411 25.045L25.3515 25.1077C25.4596 25.1195 25.5712 25.132 25.6861 25.1452ZM25.0843 20.551L24.9332 21.0428L24.6258 22.0904C24.519 22.4516 24.4058 22.8234 24.2797 23.2013C22.1269 22.594 21.3236 22.7139 20.4966 23.1904L20.2465 23.3437C19.7982 23.6325 19.3665 24.0138 18.9014 24.471L18.4935 24.881L17.3561 26.0535L16.8358 26.5753C16.2023 27.2001 15.4711 27.8794 14.5923 28.5967L13.9527 29.1038L13.6318 29.3384L13.3782 29.51C13.2882 29.5688 13.1925 29.629 13.0911 29.69L12.769 29.8752L12.4105 30.0622C10.9644 30.7785 8.68251 31.4644 5.1911 31.2955L4.48872 31.2512L3.94599 31.2014C3.17533 31.1179 2.23954 30.9558 1.41343 30.5954C0.394836 30.0764 1.70492 24.3455 3.10614 24.6466L3.33072 24.6596L3.82128 24.6999L5.58055 24.8786L6.24666 24.9362C8.63643 25.1216 11.6097 25.0949 14.2301 23.6305L14.5889 23.4267L15.3522 22.9778L16.9905 21.9961L17.8248 21.51C18.9302 20.8796 19.9898 20.3405 20.786 20.1417L21.1044 20.065L21.2961 20.0282L21.5151 19.9977L21.7657 19.9775C22.4354 19.943 23.4415 20.0417 25.0843 20.551ZM25.7507 16.5136C25.5617 16.7261 25.3877 16.9492 25.2144 17.1802L24.682 17.8934C24.4956 18.137 24.2957 18.3856 24.0679 18.6362C22.5407 18.1592 21.67 18.1223 20.8415 18.2444L20.4599 18.311C20.396 18.3237 20.3319 18.337 20.2671 18.3509C19.741 18.4635 19.2017 18.7013 18.5965 19.0204L18.1295 19.2743L16.5308 20.1782L15.9157 20.5132L15.2511 20.8582C14.5602 21.2069 13.7878 21.5644 12.9117 21.9124L12.2155 22.178L11.915 22.283L11.5637 22.3965L11.1613 22.5143C11.0187 22.5538 10.8676 22.5933 10.7081 22.6322L10.2038 22.7461C8.52639 23.0962 6.08247 23.3235 2.87176 22.8345C2.17317 22.7281 1.01475 22.3819 0.192614 21.8184C-0.219569 21.4697 0.0718293 20.5554 0.668569 19.6146L0.905882 19.2617L1.16715 18.9126C2.11809 17.7048 3.42351 16.6837 4.18302 17.0684L4.39479 17.1161L4.85419 17.2307L6.19961 17.5853L6.811 17.7351C8.9146 18.2279 11.6628 18.6127 14.7039 17.663L15.4921 17.4118L18.1212 16.5451L18.7843 16.336C19.3127 16.1743 19.7766 16.0465 20.1437 15.9748L20.4243 15.9285L20.759 15.8915L21.0695 15.8668L21.4395 15.8472L21.8603 15.8372C22.0081 15.8359 22.1629 15.837 22.3232 15.8412L22.8193 15.8635C23.7541 15.9241 24.8123 16.0999 25.7507 16.5136ZM64.0771 6.41166C64.3494 6.44312 64.7923 6.58653 65.3071 6.79747L65.7636 6.99377C65.9984 7.09916 66.2412 7.21462 66.4843 7.33666L66.9684 7.58846C68.1681 8.23472 69.2446 8.98712 69.2267 9.40864C68.0479 9.85744 67.8446 10.3988 69.1812 12.2099C69.281 12.345 69.3914 12.4856 69.5083 12.6288L69.8747 13.0633L71.1204 14.4568C71.2154 14.565 71.2989 14.6628 71.367 14.7474L71.5936 15.0508L71.8121 15.3633L71.9539 15.5865C72.3637 16.2686 72.5929 17.0425 71.566 17.3717C70.9486 17.1539 70.3624 16.817 69.7691 16.4597L68.8688 15.9208C68.7162 15.8325 68.562 15.7461 68.4056 15.663C69.1295 15.3105 68.9749 14.4037 68.7277 14.125L68.1445 13.4638L67.8256 13.128L67.5769 12.8898L67.2719 12.6177L66.8872 12.2928L66.2933 11.8092L65.8404 11.4175L65.4533 11.0642L65.0244 10.6536C64.3607 10.0019 63.6311 9.205 63.1755 8.47848C62.912 8.05819 62.8493 6.66855 64.0771 6.41166ZM6.50049 11.2069L7.21959 11.4483L8.04508 11.734L8.65177 11.9372C8.75652 11.9714 8.86308 12.0057 8.9714 12.0399L9.64223 12.2432C11.6014 12.8099 14.0507 13.2703 16.8218 12.8947L17.5515 12.8004L18.3153 12.7101L19.0928 12.6256L20.2406 12.5132L21.3054 12.4233L21.9354 12.3787L22.4779 12.3483L22.9127 12.3338L23.889 12.3275L24.3806 12.3319C25.5769 12.3598 27.0789 12.5395 28.0719 13.4634L27.5313 13.9054L26.2898 14.8945C26.1874 14.9769 26.087 15.0583 25.9898 15.1379L25.6734 15.0213L25.118 14.8293C24.4402 14.6075 23.9971 14.5157 23.593 14.474L23.2942 14.451L22.667 14.4314C21.9467 14.4142 21.2171 14.4943 20.3864 14.6551L19.8165 14.774L19.2106 14.9157L18.5626 15.0791L17.4984 15.3625L14.9629 16.0532L14.3686 16.2105L14.1095 16.2662C14.062 16.2754 14.0124 16.2845 13.9605 16.2935L13.6236 16.3459C13.5631 16.3543 13.5004 16.3625 13.4356 16.3705L13.0205 16.4148L12.553 16.451C12.4707 16.4563 12.3863 16.4611 12.2996 16.4654L11.7534 16.4856C11.4672 16.4924 11.1611 16.4943 10.8353 16.4898L10.157 16.4723C8.74761 16.4191 7.0198 16.2531 4.9683 15.8967C4.33611 15.7867 3.13525 15.2697 2.30673 14.6722C1.15274 13.7416 4.83317 10.7665 6.50049 11.2069ZM61.64 6.42249C61.5383 6.50829 61.446 6.57201 61.3646 6.62383L61.1544 6.75368C61.0381 6.82998 60.9713 6.89928 60.9661 7.04289C60.9546 7.36171 61.2031 7.79343 61.6957 8.38384L62.0203 8.7575L62.4027 9.17143C62.4712 9.2439 62.5421 9.31814 62.6154 9.3942C62.7991 9.58486 63.0086 9.78294 63.2293 9.98249L63.6816 10.3818L64.5748 11.1498L64.9648 11.4975C65.144 11.6626 65.2963 11.8133 65.4074 11.9437L65.5543 12.1306L66.001 12.6016C66.514 13.1522 67.1639 13.9945 66.8393 14.9672C66.146 14.6914 65.2719 14.2432 64.4061 13.7697L63.5503 13.2931C63.4104 13.2141 63.2726 13.1357 63.1376 13.0587C63.4829 12.4497 63.2787 12.1105 63.0483 11.8762L62.8117 11.6541L62.262 11.1065L62.0063 10.8615L61.7384 10.6191C61.6917 10.5783 61.6438 10.537 61.5941 10.495L61.2729 10.2332C61.215 10.1875 61.1547 10.1406 61.0914 10.0923L60.6749 9.7829L60.1714 9.42621L59.7632 9.14741L59.2593 8.81857L58.8274 8.52861C57.9832 7.94894 56.8896 7.11324 56.1956 6.15943L55.9882 5.85115L55.9135 5.72146C55.707 5.33591 55.4025 4.50944 56.1291 3.66769C56.2521 3.5586 56.7569 3.68501 57.4148 3.9354L57.8735 4.11946L58.3626 4.33291L58.8668 4.56841L59.3713 4.81861L59.8608 5.07616L60.3205 5.33374C61.1264 5.80148 61.7055 6.23227 61.64 6.42249ZM11.3578 6.66089L11.776 6.86905L13.0902 7.57054L13.5656 7.8147C15.0302 8.54571 16.8648 9.24283 19.7075 9.34668L20.8966 9.37486C21.0168 9.37885 21.138 9.3834 21.2598 9.38844L22.3637 9.44494L23.7871 9.53948L25.5327 9.66137L26.1016 9.68586L26.7852 9.69768L27.2357 9.71753L27.7375 9.75558C28.9559 9.87081 30.4637 10.1893 31.353 11.0931C31.2166 11.1727 31.0454 11.262 30.8536 11.3575L30.2304 11.6583L29.5677 11.9736C29.2405 12.1312 28.9302 12.2861 28.6842 12.4258C27.6533 11.8798 27.04 11.6521 26.5039 11.524L26.1887 11.4573L25.7149 11.3791L25.5485 11.3536C25.2133 11.3017 24.8853 11.2768 24.5473 11.2714L24.1357 11.2739C24.066 11.2757 23.9956 11.2782 23.9243 11.2813L23.486 11.3068L23.0216 11.3441L21.0952 11.5269L20.0769 11.6091L19.3173 11.6583L18.4854 11.6995L16.699 11.7597L16.2865 11.7678L15.5677 11.7677L15.0276 11.755L14.4433 11.7286C14.3424 11.7229 14.2398 11.7165 14.1357 11.7093L13.4922 11.6567C12.0591 11.5205 10.3824 11.234 8.63907 10.6565C8.05153 10.462 6.79716 9.64523 6.11706 9.00334C5.71829 8.44978 7.25544 7.52696 8.80653 6.99142L9.24841 6.8496C10.1263 6.58966 10.949 6.4797 11.3578 6.66089ZM53.8408 3.60508L53.8444 4.17455L53.859 4.49652C53.9211 5.35384 54.1862 5.77947 55.2829 6.67589L55.7055 7.0133C55.782 7.07328 55.8617 7.13525 55.9446 7.19941C56.1656 7.37045 56.4132 7.54602 56.672 7.72178L57.2002 8.07225L58.2387 8.74357L58.6948 9.0489C58.9055 9.19457 59.0868 9.32878 59.2236 9.44715L59.4152 9.62511L59.8782 9.99109C60.4902 10.4782 61.3387 11.2568 61.23 12.2972C60.1251 11.996 58.9645 11.6239 57.6278 11.0622C57.8141 10.4741 57.5321 10.0723 57.2361 9.80453L57.0604 9.65954L56.8384 9.49694C56.7442 9.42659 56.6567 9.36403 56.5737 9.30727L56.3367 9.15236L56.1157 9.02019L55.2975 8.56304L55.0025 8.38436L54.6588 8.16228C54.5968 8.12098 54.5323 8.07737 54.465 8.0312L54.026 7.72144C53.8674 7.60661 53.6956 7.47953 53.5089 7.33821C53.4637 7.30392 53.3982 7.26363 53.3155 7.2176L53.0191 7.06253L51.6952 6.40601C51.6096 6.36207 51.5228 6.31696 51.4351 6.2707L50.9017 5.97965C50.0953 5.52319 49.2809 4.97902 48.7362 4.37053C48.5421 4.15388 47.8099 2.79341 48.0767 1.88994C48.1537 1.72376 48.8054 1.80009 49.6449 1.99533L50.1681 2.12576C50.258 2.14954 50.349 2.17427 50.4407 2.19982L50.9967 2.36193L51.5513 2.53776L52.0859 2.72136C53.0366 3.06147 53.7931 3.41087 53.8408 3.60508ZM46.1622 1.83303L46.4814 2.78181C46.498 2.82853 46.5148 2.87447 46.5319 2.91972L46.6398 3.18387C46.9838 3.95675 47.5473 4.57619 49.3396 5.65365C49.5307 5.76856 49.7324 5.88514 49.94 6.0022L50.5765 6.35355L52.1478 7.19662L52.6976 7.50067C52.9533 7.64584 53.1771 7.77982 53.3536 7.89852L54.0408 8.39264C54.6988 8.88107 55.6378 9.68559 55.8509 10.7414C54.9138 10.6016 54.0393 10.3933 53.1712 10.1614L51.8668 9.80134C51.9993 9.16947 51.2667 8.41834 50.8859 8.19544L49.6676 7.4692L49.2718 7.24847L48.9732 7.09235L48.4406 6.83197L48.0102 6.63346L47.2194 6.28556L46.3124 5.89842L45.7542 5.64132L45.2958 5.41776L44.7857 5.1564L44.2388 4.86063C43.3049 4.34086 42.2798 3.69172 41.4732 2.98348L41.2381 2.7693C41.201 2.73419 41.1527 2.68645 41.0974 2.62763L40.914 2.4195C40.5858 2.02237 40.1785 1.38694 40.1882 0.706266C40.192 0.596029 40.5443 0.581454 41.0786 0.630894L41.511 0.679483L41.996 0.749112L42.5182 0.836813L43.062 0.93962L43.6117 1.05457L44.1517 1.17868C44.2401 1.19997 44.3274 1.22151 44.4133 1.24326L44.9097 1.37557C44.9888 1.39785 45.0659 1.42021 45.1407 1.44257L45.5583 1.57641C45.8145 1.66506 46.0227 1.75192 46.1622 1.83303ZM17.2451 3.7283L17.4266 3.83521L17.786 4.06042L18.8954 4.7979C18.9606 4.84035 19.0266 4.88292 19.0936 4.92554L19.5091 5.1812C20.6551 5.86149 22.1308 6.51818 24.5082 6.87269L31.0157 7.72134L31.4028 7.77992C32.5385 7.97091 34.4227 8.46383 35.1877 9.82198C34.9519 9.88642 34.6115 9.94445 34.2204 10.0021L32.9493 10.1802L32.3011 10.2799C32.1957 10.2974 32.0923 10.3156 31.9916 10.3343L31.1717 9.76117L30.8876 9.57879C30.8618 9.56353 30.8375 9.54971 30.8144 9.53712L30.6869 9.47465L30.57 9.43135L30.3763 9.37959L30.1078 9.31246L29.3727 9.11079L28.7394 8.9519L28.2965 8.85288L27.8282 8.75999L27.3269 8.67372L26.7851 8.59458C26.691 8.58201 26.5949 8.56977 26.4967 8.55785L25.88 8.49037L25.2039 8.43129C25.0858 8.42217 24.965 8.41343 24.8412 8.40506L24.0619 8.35954L23.2043 8.3237L21.817 8.28713L21.1311 8.25634L20.6073 8.22198L20.0384 8.17321L19.4312 8.10716C17.8714 7.91805 16.0185 7.54001 14.36 6.77123L14.0504 6.62018L13.6358 6.40163L13.1605 6.13072C12.5881 5.79002 11.9828 5.37337 11.6626 4.98904C11.3967 4.52166 12.3792 4.0702 13.6061 3.79131L14.0756 3.69512L14.5564 3.61694C14.6368 3.60552 14.7171 3.59492 14.7972 3.58518L15.2726 3.53747C16.1309 3.47016 16.8972 3.5168 17.2451 3.7283ZM38.5611 1.01151L39.0119 1.79976L39.1718 2.05795L39.3481 2.31551C39.8773 3.04537 40.6883 3.77988 42.4953 4.62154L43.8581 5.24233L47.157 6.80478L47.6264 7.01608L48.035 7.19178C48.8003 7.53977 50.2727 8.37991 50.054 9.68656L49.3448 9.56271L48.7564 9.44926L47.2857 9.13986L46.7501 9.03654C46.6542 9.01897 46.5543 9.00117 46.4496 8.98308C46.3847 8.33988 45.7164 7.74187 45.2754 7.44488L44.8322 7.15531L44.5494 6.98335L44.2654 6.82385C44.2174 6.7981 44.169 6.7727 44.12 6.74759L43.8163 6.59965L43.4875 6.45468L43.124 6.30888L42.7162 6.15846L42.2544 5.99962L41.4397 5.73728L40.8011 5.54079L39.9606 5.28781L39.4837 5.13193L39.0688 4.98589L38.59 4.80691L38.0589 4.59563L37.4874 4.35267L36.8871 4.07868C35.8692 3.59653 34.7801 2.98774 33.864 2.26561L33.797 2.20838L33.6178 2.03286L33.3996 1.79359C32.9406 1.26544 32.3964 0.482038 32.665 0.206869C33.6278 -0.327086 37.3267 0.255564 38.5611 1.01151ZM24.4348 2.11207C24.5438 2.18934 24.649 2.26814 24.7518 2.34817L25.0541 2.59162L25.8005 3.21994L26.1171 3.47418C27.0425 4.19372 28.2424 4.89902 30.5681 5.39601L33.3037 5.97876L34.4094 6.22712L35.0719 6.38661L35.6503 6.53859C35.7385 6.56318 35.8224 6.58735 35.9014 6.61107L36.2792 6.73043L36.8405 6.90207C37.8711 7.22604 39.2884 7.77442 39.7723 9.07133C39.5005 9.12934 39.1458 9.16338 38.7378 9.1922L37.3838 9.28176C37.1414 9.30032 36.8932 9.32228 36.6428 9.34996L36.2781 8.9754C35.7276 8.42072 35.4329 8.19363 34.9226 7.99031L34.2043 7.73379L33.6301 7.54865L33.2256 7.43013L32.7947 7.31476C32.7202 7.29576 32.6443 7.27687 32.5669 7.25806L32.0819 7.14621L31.5512 7.03587L30.9671 6.92641L30.3218 6.81715L29.6076 6.70745L28.8168 6.59665L27.6926 6.45052L27.161 6.3674L26.4686 6.24324L25.9336 6.1367L25.3511 6.01048C25.2506 5.98777 25.1486 5.96422 25.0451 5.93981L24.4095 5.78298C24.3013 5.7551 24.1921 5.72633 24.0822 5.69668L23.415 5.50794C22.2926 5.1752 21.1325 4.75082 20.1346 4.22276C19.6726 3.97812 18.4448 2.64759 18.0662 1.89906C17.9654 1.17306 23.7646 1.11551 24.4348 2.11207ZM30.9936 0.960936C31.1246 1.08864 31.2494 1.219 31.3724 1.35145L31.9776 2.01131L32.2331 2.27661L32.5092 2.54388C33.3269 3.30308 34.4757 4.07517 36.6701 4.7688L38.9682 5.4946L40.0594 5.85636L40.7172 6.08984C41.0278 6.20438 41.3083 6.31522 41.5469 6.42058L41.8966 6.58169L42.5439 6.85492C43.3398 7.2043 44.3628 7.76986 44.8273 8.96805L41.4466 8.75178C41.1101 8.05391 40.6052 7.63023 40.1192 7.43675C39.7304 7.28234 39.3821 7.15241 39.012 7.02642L38.3446 6.8105L37.3439 6.51645L33.4975 5.46396L32.8081 5.26093L32.2757 5.09535L31.6971 4.90615L31.0826 4.69382L30.4423 4.45884L29.7865 4.20171C28.9064 3.84432 28.0125 3.42913 27.2141 2.96136L26.9194 2.78349C26.4947 2.51918 25.4174 1.75972 24.965 0.75613C24.7943 0.222463 26.7956 0.162159 28.55 0.348213L29.0665 0.411193C29.9909 0.539374 30.7674 0.735211 30.9936 0.960936Z" fill="#015AAA"/>
<path fill-rule="evenodd" clip-rule="evenodd" d="M75.5093 25.001H92.1433C94.1883 25.001 95.6348 25.3783 96.4839 26.132C97.4023 26.9561 97.8616 28.4027 97.8616 30.4716C97.8616 32.0848 97.6707 33.2768 97.2895 34.0484C96.9083 34.8197 96.2415 35.3985 95.2882 35.7839C96.3281 36.2398 97.0166 36.6956 97.3547 37.1515C97.6924 37.6074 97.8616 38.423 97.8616 39.5975V43.8054H92.1433V40.4392C92.1433 39.9483 92.0134 39.536 91.7536 39.2031C91.4243 38.7649 90.9308 38.5457 90.272 38.5457H81.2275V43.8054H75.5093V25.001ZM81.2274 29.8665V33.6801H90.4021C91.0257 33.6801 91.4722 33.5441 91.7407 33.2723C92.0093 33.0007 92.1433 32.5052 92.1433 31.7865C92.1433 31.0675 92.0049 30.5681 91.7275 30.2873C91.4504 30.0071 91.0084 29.8665 90.4021 29.8665H81.2274ZM103.398 43.8054V25.001H123.41V29.5512H109.115V32.1549H122.76V36.6781H109.115V39.2557H123.41V43.8054H103.398ZM128.271 25.054V43.832H133.989V29.026L134.405 29.8666L141.526 43.832H146.204L152.806 29.871L153.222 29.026V43.832H158.939V25.054H149.193L144.307 35.6001L143.841 36.5101L143.423 35.6001L138.537 25.054H128.271ZM180.044 43.8054H175.262L174.118 42.6693C173.633 42.9917 173.231 43.2304 172.912 43.3846C171.955 43.8755 171.075 44.17 170.271 44.2684H167.485C166.363 44.1562 165.378 43.8405 164.532 43.3216C163.493 42.6764 162.876 41.8206 162.682 40.7549C162.641 40.5022 162.62 40.2639 162.62 40.0396C162.62 39.1137 162.883 38.272 163.41 37.5145C163.936 36.7571 164.644 36.182 165.531 35.7894C165.17 35.3544 164.883 34.8952 164.668 34.4115C164.453 33.9276 164.346 33.4542 164.346 32.9913C164.346 32.5003 164.457 32.0232 164.678 31.5606C165.122 30.8871 165.708 30.3787 166.435 30.035C167.163 29.6914 167.936 29.5199 168.754 29.5199H171.456C172.538 29.5199 173.477 29.8106 174.274 30.3962C175.071 30.9817 175.56 31.8164 175.74 32.9037C175.767 33.1561 175.781 33.3383 175.781 33.4505C175.781 34.1412 175.56 34.7902 175.116 35.3966C174.755 35.905 174.222 36.3926 173.515 36.8555L174.721 38.1247L175.657 36.9886H179.274C179.025 37.648 178.81 38.1527 178.63 38.5034C178.075 39.5975 177.514 40.3128 176.946 40.6495L180.044 43.8054ZM170.043 34.6956C170.348 34.6956 170.638 34.5201 170.916 34.1696C171.193 33.8189 171.332 33.4472 171.332 33.0544C171.332 32.732 171.221 32.4721 170.999 32.2761C170.777 32.0796 170.417 31.9812 169.918 31.9812C169.585 31.9812 169.332 32.083 169.159 32.2864C168.986 32.49 168.899 32.7387 168.899 33.0335C168.899 33.4402 169.013 33.8189 169.242 34.1696C169.471 34.5201 169.738 34.6956 170.043 34.6956ZM171.893 40.313L169.065 38.2512C168.525 38.3213 168.123 38.3914 167.86 38.4615C167.055 38.7 166.654 39.0716 166.654 39.5767C166.654 39.9554 166.945 40.3201 167.527 40.6708C167.984 40.9373 168.476 41.1338 169.003 41.2597C169.141 41.288 169.259 41.3018 169.357 41.3018C169.772 41.3018 170.244 41.1967 170.77 40.9865C171.297 40.7758 171.672 40.5515 171.893 40.313ZM193.616 24.7383C198.918 24.7383 202.184 25.1852 203.415 26.0794C204.489 26.8511 205.026 28.9023 205.026 32.2335H199.282C199.282 31.1466 198.996 30.454 198.424 30.1559C197.714 29.7879 196.111 29.6037 193.616 29.6037C190.826 29.6037 189.189 29.8229 188.704 30.2613C188.219 30.6996 187.976 32.0848 187.976 34.4166C187.976 36.7307 188.219 38.1073 188.704 38.5457C189.189 38.984 190.826 39.2032 193.616 39.2032C196.146 39.2032 197.727 39.0496 198.359 38.7428C198.992 38.436 199.308 37.7129 199.308 36.5731H205.026C205.026 39.9218 204.506 41.9734 203.466 42.7272C202.236 43.6214 198.953 44.0687 193.616 44.0687C188.279 44.0687 185.052 43.5777 183.934 42.5955C182.817 41.6138 182.258 38.8789 182.258 34.3902C182.258 29.9192 182.795 27.2103 183.869 26.2635C185.03 25.2467 188.279 24.7383 193.616 24.7383ZM233.849 34.4166C233.849 38.9926 233.304 41.7278 232.212 42.622C231.034 43.5864 227.482 44.0687 221.556 44.0687C217.224 44.0687 214.383 43.9107 213.031 43.5953C211.333 43.192 210.259 42.3153 209.808 40.9651C209.461 39.9307 209.288 37.748 209.288 34.4166C209.288 29.8404 209.825 27.1052 210.9 26.2111C212.078 25.2292 215.63 24.7383 221.556 24.7383C227.464 24.7383 231.008 25.2202 232.186 26.1845C233.295 27.0963 233.849 29.8404 233.849 34.4166ZM215.006 34.4166C215.006 36.8187 215.279 38.2169 215.825 38.6112C216.371 39.006 218.281 39.2031 221.556 39.2031C224.848 39.2031 226.767 39.006 227.313 38.6112C227.858 38.2169 228.132 36.8187 228.132 34.4166C228.132 31.9968 227.858 30.59 227.313 30.1952C226.767 29.8009 224.857 29.6036 221.582 29.6036C218.29 29.6036 216.371 29.8009 215.825 30.1952C215.279 30.59 215.006 31.9968 215.006 34.4166ZM237.358 43.832V25.054H243.077V43.832H237.358ZM246.897 25.0276H252.615V38.9401H265.584V43.8055H246.897V25.0276Z" fill="#808285"/>
<path fill-rule="evenodd" clip-rule="evenodd" d="M122.863 49.8646C122.425 49.6053 121.922 49.4763 121.358 49.4763C120.51 49.4763 119.799 49.7551 119.247 50.3103C118.722 50.8382 118.456 51.4957 118.456 52.2637C118.456 53.0241 118.71 53.6808 119.215 54.2174C119.764 54.7989 120.486 55.0903 121.358 55.0903C122.121 55.0903 122.771 54.8497 123.292 54.37C123.812 53.891 124.11 53.2626 124.182 52.5018C124.2 52.3109 124.05 52.1458 123.86 52.1458H120.624L120.55 52.1544C120.407 52.1881 120.3 52.3171 120.3 52.4711V52.9052L120.309 52.9798L120.34 53.0611C120.395 53.1621 120.501 53.2305 120.624 53.2305L122.792 53.2295L122.738 53.3181L122.625 53.4585C122.544 53.5477 122.452 53.6282 122.348 53.7005C122.053 53.9049 121.733 54.0056 121.378 54.0056C120.835 54.0056 120.401 53.8201 120.055 53.443C119.736 53.0956 119.58 52.7097 119.58 52.2704C119.58 51.8461 119.716 51.4754 119.994 51.1456C120.321 50.7547 120.767 50.561 121.358 50.561C121.678 50.561 121.958 50.6314 122.205 50.7717C122.422 50.8964 122.595 51.0754 122.725 51.3131C122.782 51.4168 122.891 51.4812 123.009 51.4812H123.576L123.66 51.4703C123.846 51.4209 123.955 51.2114 123.871 51.0231C123.647 50.5174 123.309 50.1284 122.863 49.8646ZM194.839 50.2628C194.294 49.7396 193.613 49.4763 192.814 49.4763C192.013 49.4763 191.33 49.7449 190.786 50.2781C190.239 50.8135 189.963 51.4929 189.963 52.2963C189.963 53.0963 190.241 53.7713 190.791 54.3003C191.338 54.8257 192.018 55.0903 192.814 55.0903C193.615 55.0903 194.297 54.8192 194.842 54.2811C195.389 53.7417 195.664 53.0606 195.664 52.2575C195.664 51.4614 195.387 50.7895 194.839 50.2628ZM206.736 50.2628C206.191 49.7396 205.51 49.4763 204.71 49.4763C203.909 49.4763 203.227 49.7449 202.683 50.2781C202.136 50.8135 201.859 51.4928 201.859 52.2963C201.859 53.0963 202.137 53.7714 202.688 54.3003C203.235 54.8257 203.915 55.0903 204.71 55.0903C205.512 55.0903 206.194 54.8192 206.739 54.2811C207.285 53.7417 207.561 53.0606 207.561 52.2575C207.561 51.4614 207.284 50.7895 206.736 50.2628ZM248.837 49.4763C249.636 49.4763 250.317 49.7396 250.862 50.2628C251.41 50.7895 251.687 51.4614 251.687 52.2575C251.687 53.0606 251.412 53.7417 250.865 54.2811C250.32 54.8193 249.638 55.0903 248.837 55.0903C248.041 55.0903 247.361 54.8257 246.814 54.3003C246.264 53.7713 245.986 53.0963 245.986 52.2963C245.986 51.4928 246.262 50.8135 246.809 50.2781C247.354 49.7448 248.036 49.4763 248.837 49.4763ZM265.064 49.9931C264.76 49.6492 264.342 49.4763 263.836 49.4763C263.292 49.4763 262.849 49.6673 262.536 50.0477C262.286 50.3469 262.158 50.7041 262.158 51.1042C262.158 51.6911 262.427 52.1414 262.938 52.4097L264.041 52.7987L264.15 52.8478C264.217 52.8832 264.273 52.9236 264.316 52.9669C264.413 53.0637 264.46 53.1879 264.46 53.3589C264.46 53.545 264.403 53.6944 264.283 53.8239C264.171 53.9447 264.017 54.0056 263.797 54.0056C263.579 54.0056 263.427 53.9486 263.319 53.8378C263.195 53.7102 263.134 53.5504 263.134 53.3396C263.134 53.1599 262.989 53.0143 262.811 53.0143H262.334L262.26 53.0229C262.117 53.0566 262.01 53.1856 262.01 53.3396C262.01 53.8464 262.187 54.2752 262.535 54.6035C262.878 54.9273 263.309 55.0903 263.81 55.0903C264.36 55.0903 264.814 54.8998 265.148 54.5211C265.437 54.1935 265.584 53.8034 265.584 53.3655C265.584 52.8118 265.375 52.3659 264.963 52.0603C264.789 51.9309 264.547 51.8173 264.235 51.7147L263.82 51.5891C263.614 51.5221 263.472 51.4577 263.401 51.403C263.321 51.3417 263.283 51.255 263.283 51.1104C263.283 50.9447 263.327 50.8104 263.417 50.6958C263.486 50.6075 263.596 50.561 263.778 50.561C263.999 50.561 264.141 50.6239 264.236 50.7493C264.308 50.8467 264.344 50.9594 264.344 51.0975C264.344 51.2772 264.489 51.4228 264.668 51.4228H265.145L265.219 51.4142C265.362 51.3805 265.468 51.2515 265.468 51.0975C265.468 50.6693 265.333 50.2957 265.064 49.9931ZM217.149 49.4763C217.655 49.4763 218.073 49.6491 218.376 49.9932C218.645 50.2958 218.781 50.6694 218.781 51.0975C218.781 51.2515 218.675 51.3805 218.532 51.4142L218.457 51.4228H217.981C217.802 51.4228 217.657 51.2772 217.657 51.0975C217.657 50.9594 217.621 50.8467 217.548 50.7493C217.454 50.6239 217.312 50.561 217.09 50.561C216.909 50.561 216.799 50.6074 216.729 50.6958C216.64 50.8104 216.595 50.9447 216.595 51.1104C216.595 51.2551 216.634 51.3417 216.714 51.403C216.785 51.4577 216.926 51.5221 217.133 51.5891L217.548 51.7147C217.86 51.8173 218.101 51.9309 218.276 52.0603C218.688 52.3659 218.897 52.8118 218.897 53.3655C218.897 53.8034 218.75 54.1936 218.461 54.521C218.127 54.8998 217.673 55.0903 217.123 55.0903C216.621 55.0903 216.19 54.9273 215.847 54.6036C215.499 54.2753 215.323 53.8465 215.323 53.3396C215.323 53.1856 215.429 53.0566 215.572 53.0229L215.647 53.0143H216.123C216.302 53.0143 216.447 53.1599 216.447 53.3396C216.447 53.5505 216.508 53.7102 216.632 53.8378C216.74 53.9487 216.892 54.0056 217.11 54.0056C217.329 54.0056 217.483 53.9447 217.595 53.8238C217.715 53.6945 217.773 53.5451 217.773 53.3589C217.773 53.1878 217.725 53.0636 217.629 52.9671C217.586 52.9237 217.529 52.8833 217.462 52.8478L217.354 52.7987L216.825 52.615L216.251 52.4097C215.74 52.1414 215.471 51.6911 215.471 51.1042C215.471 50.7041 215.599 50.3469 215.849 50.0478C216.162 49.6673 216.605 49.4763 217.149 49.4763ZM150.464 49.4763C151.015 49.4763 151.511 49.6056 151.947 49.865C152.386 50.1263 152.723 50.4959 152.953 50.9674C153.046 51.1595 152.933 51.3801 152.739 51.4268L152.662 51.4357H152.095C151.985 51.4357 151.883 51.3797 151.823 51.2869C151.711 51.1118 151.58 50.9702 151.433 50.8605C151.163 50.6608 150.845 50.561 150.471 50.561C149.968 50.561 149.572 50.7236 149.261 51.0525C148.945 51.3867 148.789 51.7868 148.789 52.2704C148.789 52.7684 148.952 53.1744 149.284 53.5078C149.616 53.8417 150.016 54.0056 150.503 54.0056C150.761 54.0056 151.002 53.9468 151.233 53.8272C151.485 53.6987 151.685 53.5114 151.839 53.2599C151.883 53.1876 151.952 53.1365 152.032 53.1155L152.114 53.1048H152.682C152.926 53.1048 153.082 53.3671 152.967 53.5838C152.717 54.0529 152.375 54.4228 151.946 54.6888C151.514 54.9563 151.03 55.0903 150.503 55.0903C149.711 55.0903 149.037 54.8278 148.499 54.3058C147.944 53.768 147.665 53.0826 147.665 52.2704C147.665 51.4759 147.936 50.8032 148.474 50.2725C149.01 49.7433 149.68 49.4763 150.464 49.4763ZM229.472 49.9492C229.193 49.6336 228.81 49.4763 228.347 49.4763C227.907 49.4763 227.541 49.6235 227.271 49.9182C227.03 50.182 226.908 50.4998 226.908 50.8576C226.908 51.1272 226.977 51.3823 227.113 51.6176L227.202 51.756L227.221 51.7803L227.113 51.8489L226.958 51.9692L226.817 52.104C226.503 52.4251 226.341 52.8245 226.341 53.2814C226.341 53.7951 226.505 54.2319 226.832 54.573C227.163 54.918 227.604 55.0903 228.134 55.0903C228.529 55.0903 228.872 54.9882 229.153 54.7811L229.282 54.6741L229.407 54.5458C229.49 54.4532 229.571 54.3465 229.65 54.2257L229.659 54.2099L230.468 54.9987L230.536 55.0492C230.656 55.1168 230.811 55.1011 230.916 55.0016L231.257 54.6775L231.313 54.6075L231.347 54.5279C231.377 54.4175 231.348 54.2939 231.26 54.2078L230.228 53.1969L230.999 51.7219L231.027 51.6485C231.077 51.4507 230.929 51.2454 230.713 51.2454H230.177L230.106 51.2533L230.04 51.2763C229.976 51.3063 229.923 51.3568 229.89 51.4219L229.401 52.3753L229.127 52.1032L229.289 51.9904L229.366 51.9275L229.436 51.8624C229.703 51.6055 229.844 51.2952 229.844 50.9484C229.844 50.5674 229.719 50.2294 229.472 49.9492ZM241.505 49.4763C242.056 49.4763 242.552 49.6056 242.988 49.865C243.428 50.1264 243.765 50.4961 243.994 50.9674C244.088 51.1595 243.974 51.3801 243.78 51.4268L243.703 51.4357H243.136C243.026 51.4357 242.924 51.3797 242.864 51.2869C242.752 51.1118 242.622 50.9702 242.474 50.8605C242.204 50.6608 241.887 50.561 241.512 50.561C241.009 50.561 240.613 50.7236 240.302 51.0525C239.986 51.3867 239.83 51.7869 239.83 52.2704C239.83 52.7684 239.994 53.1744 240.325 53.5078C240.657 53.8416 241.058 54.0056 241.544 54.0056C241.802 54.0056 242.043 53.9468 242.274 53.8272C242.526 53.6987 242.726 53.5113 242.88 53.26C242.924 53.1877 242.994 53.1365 243.073 53.1155L243.155 53.1048H243.723C243.967 53.1048 244.124 53.367 244.008 53.5838C243.758 54.0529 243.417 54.4228 242.987 54.6888C242.555 54.9563 242.071 55.0903 241.544 55.0903C240.753 55.0903 240.078 54.8277 239.54 54.3059C238.986 53.7681 238.706 53.0827 238.706 52.2704C238.706 51.476 238.977 50.8033 239.515 50.2725C240.052 49.7432 240.721 49.4763 241.505 49.4763ZM173.459 49.865C173.023 49.6056 172.527 49.4763 171.976 49.4763C171.192 49.4763 170.522 49.7433 169.986 50.2725C169.448 50.8033 169.177 51.476 169.177 52.2704C169.177 53.0826 169.456 53.768 170.01 54.3058C170.549 54.8277 171.223 55.0903 172.015 55.0903C172.542 55.0903 173.026 54.9562 173.457 54.6887C173.887 54.4228 174.228 54.0529 174.479 53.5838C174.594 53.367 174.438 53.1048 174.193 53.1048H173.626L173.544 53.1155C173.464 53.1365 173.395 53.1876 173.35 53.2599C173.197 53.5113 172.996 53.6987 172.745 53.8272C172.514 53.9468 172.272 54.0056 172.015 54.0056C171.528 54.0056 171.128 53.8416 170.796 53.5079C170.464 53.1743 170.301 52.7683 170.301 52.2704C170.301 51.7869 170.457 51.3867 170.773 51.0525C171.084 50.7236 171.48 50.561 171.982 50.561C172.357 50.561 172.675 50.6608 172.945 50.8605C173.092 50.9703 173.222 51.1119 173.335 51.2869C173.395 51.3797 173.497 51.4357 173.607 51.4357H174.174L174.25 51.4268C174.445 51.3801 174.558 51.1595 174.465 50.9674C174.235 50.4961 173.898 50.1264 173.459 49.865ZM200.358 49.5605C200.511 49.5605 200.639 49.6675 200.673 49.8112L200.681 49.8858V50.3197C200.681 50.4737 200.575 50.6027 200.432 50.6365L200.358 50.645L199.591 50.6449L199.591 54.6807C199.591 54.8039 199.523 54.9111 199.423 54.9663L199.342 54.9974L199.268 55.006H198.791C198.638 55.006 198.509 54.899 198.476 54.7553L198.467 54.6807L198.466 50.6449L197.702 50.645C197.579 50.645 197.472 50.5766 197.417 50.4756L197.387 50.3943L197.378 50.3197V49.8858C197.378 49.7318 197.484 49.6028 197.627 49.5691L197.702 49.5605H200.358ZM78.757 50.0216C78.369 49.7097 77.8368 49.5605 77.1677 49.5605H75.8329L75.7587 49.5691C75.6157 49.6028 75.5093 49.7318 75.5093 49.8858V54.6807L75.5178 54.7553C75.5514 54.899 75.6797 55.006 75.8329 55.006H76.3098L76.384 54.9974L76.4648 54.9663C76.5653 54.9111 76.6334 54.8039 76.6334 54.6807L76.6333 52.8466L78.1461 54.8758L78.4051 55.006H78.9984L79.0829 54.9952L79.1572 54.9649C79.3176 54.8742 79.3818 54.6516 79.2568 54.4849L78.238 53.1265L78.3512 53.087L78.504 53.0137C78.6525 52.9323 78.7878 52.8267 78.9088 52.697C79.2257 52.3571 79.3862 51.937 79.3862 51.4539C79.3862 50.8496 79.176 50.3626 78.757 50.0216ZM84.402 49.5605C84.5552 49.5605 84.6836 49.6675 84.7171 49.8112L84.7256 49.8858V50.3197C84.7256 50.4737 84.6192 50.6027 84.4762 50.6365L84.402 50.645L82.5848 50.6449V51.7242L84.3312 51.7247C84.4537 51.7247 84.5604 51.7932 84.6153 51.8941L84.6462 51.9754L84.6548 52.05V52.4841C84.6548 52.6381 84.5483 52.7671 84.4054 52.8008L84.3312 52.8094L82.5848 52.8088V53.9207L84.402 53.9214C84.5246 53.9214 84.6312 53.9899 84.6862 54.0909L84.7171 54.1721L84.7256 54.2467V54.6807C84.7256 54.8347 84.6192 54.9637 84.4762 54.9974L84.402 55.006H81.7847C81.6315 55.006 81.5031 54.899 81.4696 54.7553L81.4611 54.6807V49.8858C81.4611 49.7318 81.5675 49.6028 81.7105 49.5691L81.7847 49.5605H84.402ZM109.486 49.8112C109.453 49.6675 109.325 49.5605 109.171 49.5605H108.694L108.62 49.5691C108.477 49.6028 108.37 49.7318 108.37 49.8858V54.6807L108.379 54.7553C108.413 54.899 108.541 55.006 108.694 55.006H109.171L109.246 54.9974C109.388 54.9637 109.495 54.8347 109.495 54.6807V49.8858L109.486 49.8112ZM134.807 49.5605C134.96 49.5605 135.088 49.6675 135.122 49.8112L135.13 49.8858V50.3197C135.13 50.4737 135.024 50.6027 134.881 50.6365L134.807 50.645L132.989 50.6449V51.7242L134.736 51.7247C134.858 51.7247 134.965 51.7932 135.02 51.8941L135.051 51.9754L135.059 52.05V52.4841C135.059 52.6381 134.953 52.7671 134.81 52.8008L134.736 52.8094L132.989 52.8088V53.9207L134.807 53.9214C134.929 53.9214 135.036 53.9899 135.091 54.0909L135.122 54.1721L135.13 54.2467V54.6807C135.13 54.8347 135.024 54.9637 134.881 54.9974L134.807 55.006H132.189C132.036 55.006 131.908 54.899 131.874 54.7553L131.866 54.6807V49.8858C131.866 49.7318 131.972 49.6028 132.115 49.5691L132.189 49.5605H134.807ZM90.3847 50.1911C90.0426 49.7663 89.5006 49.5605 88.7876 49.5605H87.2787L87.2045 49.5691C87.0615 49.6028 86.9551 49.7318 86.9551 49.8858V54.6807L86.9636 54.7553C86.9972 54.899 87.1255 55.006 87.2787 55.006H87.7556L87.8298 54.9974L87.9106 54.9663C88.0111 54.9111 88.0792 54.8039 88.0792 54.6807L88.0791 53.0809L88.7876 53.0818L89.0228 53.0734C89.5568 53.0342 89.9857 52.8572 90.2961 52.5356C90.6019 52.2176 90.755 51.8074 90.755 51.324C90.755 50.8767 90.6325 50.4944 90.3847 50.1911ZM211.365 49.5605C212.034 49.5605 212.566 49.7097 212.954 50.0216C213.373 50.3626 213.583 50.8496 213.583 51.4539C213.583 51.937 213.423 52.3572 213.106 52.697C212.985 52.8267 212.85 52.9323 212.701 53.0137L212.548 53.087L212.435 53.1265L213.454 54.4849C213.579 54.6516 213.515 54.8742 213.354 54.9649L213.28 54.9952L213.196 55.006H212.602L212.343 54.8758L210.83 52.8466L210.831 54.6807C210.831 54.8039 210.762 54.9111 210.662 54.9663L210.581 54.9974L210.507 55.006H210.03C209.877 55.006 209.748 54.899 209.715 54.7553L209.706 54.6807V49.8858C209.706 49.7318 209.813 49.6028 209.956 49.5691L210.03 49.5605H211.365ZM163.183 50.0216C162.795 49.7097 162.263 49.5605 161.594 49.5605H160.259L160.185 49.5691C160.042 49.6028 159.936 49.7318 159.936 49.8858V54.6807L159.944 54.7553C159.978 54.899 160.106 55.006 160.259 55.006H160.736L160.81 54.9974L160.891 54.9663C160.991 54.9111 161.06 54.8039 161.06 54.6807L161.059 52.8453L162.572 54.8758L162.831 55.006H163.425L163.509 54.9952L163.583 54.9649C163.744 54.8742 163.808 54.6516 163.683 54.4849L162.664 53.1265L162.777 53.087L162.93 53.0137C163.079 52.9323 163.214 52.8267 163.335 52.697C163.652 52.3572 163.812 51.9371 163.812 51.4539C163.812 50.8496 163.602 50.3626 163.183 50.0216ZM157.699 49.5605C157.852 49.5605 157.98 49.6675 158.014 49.8112L158.022 49.8858V50.3197C158.022 50.4737 157.916 50.6027 157.773 50.6365L157.699 50.645L156.931 50.6449L156.933 54.6807C156.933 54.8039 156.864 54.9111 156.764 54.9663L156.683 54.9974L156.609 55.006H156.132C155.979 55.006 155.851 54.899 155.817 54.7553L155.808 54.6807V50.6449L155.043 50.645C154.92 50.645 154.813 50.5766 154.759 50.4756L154.728 50.3943L154.719 50.3197V49.8858C154.719 49.7318 154.825 49.6028 154.968 49.5691L155.043 49.5605H157.699ZM258.444 49.8112C258.41 49.6675 258.282 49.5605 258.129 49.5605H257.652L257.578 49.5691C257.435 49.6028 257.328 49.7318 257.328 49.8858V54.6807L257.337 54.7553C257.37 54.899 257.499 55.006 257.652 55.006H260.102L260.176 54.9974C260.319 54.9637 260.426 54.8347 260.426 54.6807V54.2467L260.417 54.1721L260.386 54.0909C260.331 53.9899 260.224 53.9214 260.102 53.9214L258.452 53.9207L258.453 49.8858L258.444 49.8112ZM138.161 49.5605C138.314 49.5605 138.442 49.6675 138.476 49.8112L138.484 49.8858L138.484 53.9207L140.134 53.9214C140.256 53.9214 140.363 53.9899 140.418 54.0909L140.449 54.1721L140.457 54.2467V54.6807C140.457 54.8347 140.351 54.9637 140.208 54.9974L140.134 55.006H137.684C137.53 55.006 137.402 54.899 137.369 54.7553L137.36 54.6807V49.8858C137.36 49.7318 137.466 49.6028 137.609 49.5691L137.684 49.5605H138.161ZM94.8632 49.6912C94.803 49.6101 94.7074 49.5605 94.6039 49.5605H94.0756L93.9999 49.5695C93.9023 49.5931 93.8193 49.6616 93.7784 49.757L91.7217 54.5519L91.6985 54.6331C91.67 54.8227 91.8153 55.006 92.0189 55.006H92.5346L92.6102 54.997L92.6803 54.9712C92.7467 54.9375 92.8011 54.8811 92.8318 54.8096L93.436 53.3986H95.2286L95.8344 54.8095L95.8726 54.8758C95.9328 54.9566 96.0282 55.006 96.1316 55.006H96.6475L96.7307 54.9953C96.915 54.9467 97.025 54.7404 96.9449 54.5526L94.9013 49.7577L94.8632 49.6912ZM166.701 49.5605C166.854 49.5605 166.983 49.6675 167.016 49.8112L167.025 49.8858V54.6807C167.025 54.8347 166.918 54.9637 166.775 54.9974L166.701 55.006H166.224C166.071 55.006 165.942 54.899 165.909 54.7553L165.9 54.6807V49.8858C165.9 49.7318 166.007 49.6028 166.15 49.5691L166.224 49.5605H166.701ZM113.037 49.6429C112.978 49.5904 112.902 49.5605 112.822 49.5605H112.177L112.103 49.5691C111.96 49.6028 111.853 49.7318 111.853 49.8858V54.6807L111.862 54.7553C111.895 54.899 112.024 55.006 112.177 55.006H112.654L112.728 54.9974L112.809 54.9663C112.909 54.9111 112.977 54.8039 112.977 54.6807L112.977 51.5198L115.249 54.8642L115.301 54.9238C115.36 54.9762 115.436 55.006 115.516 55.006H115.993L116.067 54.9974C116.21 54.9637 116.317 54.8347 116.317 54.6807V49.8858L116.308 49.8112C116.275 49.6675 116.146 49.5605 115.993 49.5605H115.516L115.442 49.5691L115.361 49.6002C115.261 49.6554 115.193 49.7626 115.193 49.8858L115.192 52.8075L113.089 49.7027L113.037 49.6429ZM104.065 49.5605C104.734 49.5605 105.266 49.7097 105.654 50.0216C106.073 50.3626 106.283 50.8496 106.283 51.4539C106.283 51.9371 106.123 52.3572 105.806 52.697C105.685 52.8267 105.549 52.9323 105.401 53.0137L105.248 53.087L105.134 53.1265L106.154 54.4849C106.279 54.6516 106.214 54.8742 106.054 54.9649L105.98 54.9952L105.895 55.006H105.302L105.043 54.8758L103.53 52.8453L103.53 54.6807C103.53 54.8039 103.462 54.9111 103.362 54.9663L103.281 54.9974L103.207 55.006H102.73C102.577 55.006 102.448 54.899 102.415 54.7553L102.406 54.6807V49.8858C102.406 49.7318 102.513 49.6028 102.656 49.5691L102.73 49.5605H104.065ZM145.633 49.8112C145.599 49.6675 145.471 49.5605 145.318 49.5605H142.7L142.626 49.5691C142.483 49.6028 142.377 49.7318 142.377 49.8858V54.6807L142.385 54.7553C142.419 54.899 142.547 55.006 142.7 55.006H145.318L145.392 54.9974C145.535 54.9637 145.641 54.8347 145.641 54.6807V54.2467L145.633 54.1721L145.602 54.0909C145.547 53.9899 145.44 53.9214 145.318 53.9214L143.5 53.9207V52.8088L145.247 52.8094L145.321 52.8008C145.464 52.7671 145.57 52.6381 145.57 52.4841V52.05L145.562 51.9754L145.531 51.8941C145.476 51.7932 145.369 51.7247 145.247 51.7247L143.5 51.7242V50.6449L145.318 50.645L145.392 50.6365C145.535 50.6027 145.641 50.4737 145.641 50.3197V49.8858L145.633 49.8112ZM254.646 49.5605C254.8 49.5605 254.928 49.6675 254.962 49.8112L254.97 49.8858V54.6807C254.97 54.8347 254.864 54.9637 254.721 54.9974L254.646 55.006H254.169C254.016 55.006 253.888 54.899 253.854 54.7553L253.846 54.6807V49.8858C253.846 49.7318 253.952 49.6028 254.095 49.5691L254.169 49.5605H254.646ZM100.039 49.8112C100.006 49.6675 99.8774 49.5605 99.7242 49.5605H99.2469L99.1727 49.5691C99.0298 49.6028 98.9233 49.7318 98.9233 49.8858V54.6807L98.9319 54.7553C98.9654 54.899 99.0937 55.006 99.2469 55.006H99.7242L99.7984 54.9974C99.9414 54.9637 100.048 54.8347 100.048 54.6807V49.8858L100.039 49.8112ZM183.265 49.5605C183.368 49.5605 183.463 49.6099 183.524 49.6906L183.562 49.7568L185.018 53.146L186.474 49.7568C186.505 49.6853 186.559 49.6289 186.626 49.5953L186.696 49.5695L186.772 49.5605H187.507C187.66 49.5605 187.788 49.6675 187.822 49.8112L187.83 49.8858V54.6807C187.83 54.8347 187.724 54.9637 187.581 54.9974L187.507 55.006H187.029C186.876 55.006 186.748 54.899 186.714 54.7553L186.706 54.6807L186.704 52.012L185.515 54.8086C185.485 54.8805 185.43 54.9372 185.364 54.971L185.294 54.997L185.218 55.006H184.818C184.715 55.006 184.619 54.9563 184.559 54.8752L184.521 54.8087L183.329 52.0081L183.33 54.6807C183.33 54.8039 183.262 54.9111 183.161 54.9663L183.081 54.9974L183.006 55.006H182.53C182.376 55.006 182.248 54.899 182.214 54.7553L182.206 54.6807V49.8858C182.206 49.7318 182.312 49.6028 182.455 49.5691L182.53 49.5605H183.265ZM247.604 51.0535C247.935 50.7238 248.342 50.5611 248.843 50.5611C249.345 50.5611 249.751 50.7185 250.078 51.0365C250.403 51.3518 250.563 51.7519 250.563 52.2575C250.563 52.7735 250.401 53.186 250.074 53.5145C249.747 53.8433 249.343 54.0057 248.843 54.0057C248.336 54.0057 247.927 53.8469 247.598 53.5269C247.272 53.2098 247.11 52.8064 247.11 52.2963C247.11 51.7897 247.273 51.3821 247.604 51.0535ZM192.82 50.5611C192.319 50.5611 191.912 50.7238 191.581 51.0535C191.25 51.382 191.087 51.7896 191.087 52.2963C191.087 52.8064 191.249 53.2098 191.575 53.5269C191.904 53.8469 192.313 54.0057 192.82 54.0057C193.32 54.0057 193.724 53.8433 194.051 53.5145C194.378 53.1861 194.54 52.7735 194.54 52.2575C194.54 51.7518 194.379 51.3517 194.055 51.0365C193.728 50.7186 193.322 50.5611 192.82 50.5611ZM228.034 52.6123L228.849 53.4143L228.765 53.5689C228.682 53.7044 228.599 53.8026 228.517 53.8658C228.399 53.9608 228.267 54.0056 228.102 54.0056C227.912 54.0056 227.769 53.944 227.651 53.8134C227.525 53.6753 227.465 53.5159 227.465 53.32C227.465 53.2072 227.492 53.1039 227.546 53.0059C227.629 52.8599 227.777 52.7334 227.999 52.6301L228.034 52.6123ZM204.717 50.5611C204.216 50.5611 203.809 50.7238 203.477 51.0535C203.147 51.382 202.984 51.7896 202.984 52.2963C202.984 52.8064 203.145 53.2098 203.471 53.5269C203.801 53.8469 204.21 54.0057 204.717 54.0057C205.217 54.0057 205.621 53.8433 205.948 53.5145C206.275 53.1861 206.437 52.7735 206.437 52.2575C206.437 51.7518 206.276 51.3517 205.952 51.0365C205.625 50.7186 205.219 50.5611 204.717 50.5611ZM93.8985 52.3142L94.3375 51.2778L94.7688 52.3142H93.8985ZM211.365 50.6452L210.83 50.645V52.2218L210.9 52.1955L210.984 52.1847H211.365C211.756 52.1847 212.036 52.1131 212.209 51.9838C212.377 51.858 212.459 51.6773 212.459 51.4088C212.459 51.1862 212.397 51.0245 212.273 50.902C212.13 50.7607 211.89 50.673 211.546 50.6508L211.365 50.6452ZM76.6332 50.645L77.1677 50.6452L77.3486 50.6508C77.6928 50.673 77.9323 50.7607 78.0755 50.902C78.2 51.0245 78.2621 51.1862 78.2621 51.4088C78.2621 51.6773 78.1799 51.858 78.0119 51.9838C77.8391 52.1131 77.5591 52.1847 77.1677 52.1847H76.787L76.7027 52.1955L76.6332 52.2218V50.645ZM104.065 50.6452L103.53 50.645V52.2218L103.6 52.1955L103.684 52.1847H104.065C104.456 52.1847 104.736 52.1131 104.909 51.9838C105.077 51.858 105.159 51.6773 105.159 51.4088C105.159 51.1861 105.097 51.0244 104.972 50.902C104.829 50.7607 104.59 50.673 104.246 50.6508L104.065 50.6452ZM161.059 50.645L161.594 50.6452L161.775 50.6508C162.119 50.6729 162.359 50.7607 162.502 50.902C162.626 51.0244 162.688 51.1861 162.688 51.4088C162.688 51.6773 162.606 51.858 162.438 51.9838C162.265 52.1131 161.986 52.1847 161.594 52.1847H161.213L161.129 52.1955L161.059 52.2218V50.645ZM88.7938 50.6452L88.0791 50.645V51.9965L88.7938 51.9968C89.1085 51.9968 89.3237 51.9221 89.461 51.7816C89.5743 51.6674 89.6305 51.5213 89.6305 51.3241C89.6305 51.1211 89.575 50.9721 89.465 50.8586C89.3527 50.7432 89.1831 50.6719 88.945 50.6514L88.7938 50.6452ZM228.108 50.6481C228.18 50.5897 228.264 50.561 228.373 50.561C228.495 50.561 228.574 50.5913 228.63 50.6498C228.691 50.7132 228.719 50.7856 228.719 50.8839C228.719 50.9523 228.694 51.0142 228.635 51.0812L228.569 51.1458C228.52 51.1882 228.46 51.2296 228.388 51.2693L228.311 51.3077L228.198 51.1951C228.147 51.1364 228.107 51.08 228.08 51.0262C228.047 50.963 228.032 50.9021 228.032 50.8384C228.032 50.7436 228.056 50.6899 228.108 50.6481Z" fill="#808285"/>
</svg>
