<svg width="1920" height="180" viewBox="0 0 1920 180" fill="none" xmlns="http://www.w3.org/2000/svg">
<g clip-path="url(#clip0)">
<g opacity="0.6">
<path d="M1980.88 126.021L1925.79 157.763L1884.13 146.663L1981.08 109.469V108.495L1882.57 146.274C1882.38 146.274 1882.18 146.469 1882.18 146.663C1882.18 146.858 1882.38 147.053 1882.57 147.053L1925.79 158.542C1925.79 158.542 1925.79 158.542 1925.98 158.542H1926.18L1981.08 126.995L1980.88 126.021Z" fill="#D67500"/>
<path d="M1518.32 59.6157H1518.13C1517.93 59.6157 1517.93 59.421 1517.93 59.2262L1513.26 36.6368C1513.26 36.4421 1513.26 36.442 1513.26 36.2473C1513.26 36.0526 1513.46 36.0526 1513.65 36.0526L1629.68 22.6157C1629.88 22.6157 1630.07 22.8105 1630.27 23.0052C1630.27 23.2 1630.27 23.3947 1629.88 23.5894L1518.32 59.6157C1518.52 59.6157 1518.32 59.6157 1518.32 59.6157ZM1514.24 36.8315L1518.71 58.4473L1625.2 23.9789L1514.24 36.8315Z" fill="#D67500"/>
<path d="M1822.8 101.095C1822.61 101.095 1822.61 101.095 1822.8 101.095L1629.49 23.5896C1629.29 23.5896 1629.29 23.3948 1629.29 23.2001C1629.29 23.0053 1629.29 22.8106 1629.49 22.8106L1727.22 -57.8104C1727.41 -57.8104 1727.41 -58.0051 1727.61 -58.0051C1727.8 -58.0051 1727.8 -57.8104 1728 -57.8104L1823.39 100.316C1823.58 100.511 1823.39 100.705 1823.39 100.9C1823 100.9 1822.8 101.095 1822.8 101.095ZM1630.65 23.0054L1821.83 99.7317L1727.41 -56.8367L1630.65 23.0054Z" fill="#D67500"/>
<path d="M1822.8 101.095C1822.61 101.095 1822.42 101.095 1822.42 100.9L1727.02 -57.2263C1727.02 -57.421 1727.02 -57.421 1727.02 -57.6158C1727.02 -57.8105 1727.22 -57.8105 1727.22 -57.8105L1807.23 -93.6421C1807.42 -93.6421 1807.42 -93.6421 1807.62 -93.6421C1807.81 -93.6421 1807.81 -93.4474 1807.81 -93.2526L1823.19 100.511C1823.19 100.705 1823 100.9 1822.8 101.095ZM1727.99 -57.2263L1822.03 98.7579L1807.04 -92.6684L1727.99 -57.2263Z" fill="#D67500"/>
<path d="M1822.8 101.095C1822.61 101.095 1822.41 100.9 1822.41 100.705L1807.23 -93.2527C1807.23 -93.4474 1807.23 -93.4474 1807.42 -93.6422C1807.42 -93.6422 1807.62 -93.8369 1807.81 -93.8369L1874.59 -94.4211C1874.59 -94.4211 1874.78 -94.4211 1874.98 -94.2264C1874.98 -94.0317 1875.17 -94.0317 1874.98 -93.8369L1823.19 100.705C1823.19 100.9 1823 101.095 1822.8 101.095ZM1808.01 -92.8632L1823 97.9789L1873.62 -93.4475L1808.01 -92.8632Z" fill="#D67500"/>
<path d="M1980.89 108.495L1882.57 146.079L1823.78 100.9L1980.89 83.9578V82.9841L1822.42 99.9263C1822.22 99.9263 1822.03 100.121 1822.03 100.316C1822.03 100.51 1822.03 100.705 1822.22 100.705L1881.99 146.663H1882.18H1882.38L1980.5 109.079L1980.89 108.495Z" fill="#D67500"/>
<path d="M1571.67 99.7316C1571.47 99.7316 1571.47 99.7316 1571.47 99.7316L1518.13 59.6158C1517.93 59.4211 1517.93 59.2264 1517.93 59.0317C1518.13 58.8369 1518.32 58.8369 1518.52 58.8369L1603.01 89.6053C1603.2 89.6053 1603.4 89.8001 1603.4 89.9948C1603.4 90.1895 1603.2 90.3842 1603.01 90.3842L1571.67 99.7316ZM1521.05 60.5895L1571.67 98.7579L1601.45 89.8L1521.05 60.5895Z" fill="#D67500"/>
<path d="M1602.82 90.3842L1518.13 59.6158C1517.93 59.6158 1517.74 59.421 1517.74 59.2263C1517.74 59.0315 1517.93 58.8368 1518.13 58.8368L1629.49 22.8105C1629.68 22.8105 1629.88 22.8106 1629.88 23.0053C1630.07 23.2 1630.07 23.3947 1629.88 23.3947L1603.01 90.3842C1603.2 90.3842 1603.01 90.3842 1602.82 90.3842ZM1519.69 59.2263L1602.62 89.4105L1628.9 23.7842L1519.69 59.2263Z" fill="#D67500"/>
<path d="M1563.68 243.837C1563.3 243.837 1563.3 243.642 1563.3 243.447L1571.28 99.5366C1571.28 99.3419 1571.47 99.1472 1571.67 99.1472L1603.01 89.7998C1603.2 89.7998 1603.4 89.7998 1603.4 89.9946C1603.59 90.1893 1603.59 90.1893 1603.59 90.384L1564.27 243.642C1564.07 243.642 1563.88 243.837 1563.68 243.837ZM1572.06 99.7314L1564.46 238.773L1602.43 90.7735L1572.06 99.7314Z" fill="#D67500"/>
<path d="M1822.8 101.095L1603.01 90.3841C1602.82 90.3841 1602.82 90.3842 1602.62 90.1894C1602.62 89.9947 1602.62 89.9947 1602.62 89.7999L1629.49 22.8105C1629.49 22.6157 1629.68 22.6157 1629.68 22.6157C1629.88 22.6157 1629.88 22.6157 1630.07 22.6157L1823.19 100.121C1823.39 100.121 1823.58 100.51 1823.39 100.705C1823.19 100.9 1823 101.095 1822.8 101.095ZM1603.59 89.6052L1820.08 100.121L1629.88 23.7842L1603.59 89.6052Z" fill="#D67500"/>
<path d="M1629.68 23.5893C1629.68 23.5893 1629.49 23.5893 1629.68 23.5893C1629.29 23.5893 1629.29 23.3945 1629.29 23.1998L1606.71 -151.284C1606.71 -151.479 1606.71 -151.674 1606.9 -151.674C1607.1 -151.674 1607.29 -151.674 1607.49 -151.674L1727.8 -57.8107C1727.99 -57.8107 1727.99 -57.616 1727.99 -57.4212C1727.99 -57.2265 1727.99 -57.2265 1727.8 -57.0317L1630.07 23.5893C1629.88 23.3946 1629.88 23.5893 1629.68 23.5893ZM1607.68 -150.311L1630.07 22.2261L1726.83 -57.4212L1607.68 -150.311Z" fill="#D67500"/>
<path d="M1563.68 243.837C1563.49 243.837 1563.49 243.837 1563.3 243.642C1563.1 243.447 1563.1 243.447 1563.1 243.253L1602.43 89.9947C1602.43 89.8 1602.62 89.8 1602.62 89.6052C1602.82 89.6052 1603.01 89.6052 1603.01 89.6052L1769.46 204.695C1769.66 204.889 1769.66 204.889 1769.66 205.084C1769.66 205.279 1769.46 205.474 1769.27 205.474L1563.68 243.837ZM1603.2 90.7737L1564.27 242.668L1768.1 204.695L1603.2 90.7737Z" fill="#D67500"/>
<path d="M1769.27 205.474H1769.07L1602.62 90.3841C1602.43 90.1893 1602.43 89.9946 1602.43 89.7999C1602.43 89.6052 1602.62 89.4104 1602.82 89.4104L1822.61 100.121C1822.8 100.121 1823 100.121 1823 100.316C1823 100.51 1823 100.705 1823 100.705L1769.66 205.084C1769.66 205.279 1769.66 205.279 1769.27 205.474C1769.46 205.474 1769.46 205.474 1769.27 205.474ZM1604.57 90.5788L1769.27 204.305L1822.03 101.095L1604.57 90.5788Z" fill="#D67500"/>
<path d="M1769.27 205.474C1769.07 205.474 1769.07 205.474 1768.88 205.279C1768.68 205.084 1768.68 204.889 1768.88 204.695L1822.22 100.316C1822.22 100.121 1822.42 100.121 1822.61 100.121C1822.8 100.121 1822.8 100.121 1823 100.121L1882.77 146.079C1882.96 146.079 1882.96 146.274 1882.96 146.468C1882.96 146.663 1882.77 146.858 1882.77 146.858L1769.46 205.084C1769.46 205.474 1769.46 205.474 1769.27 205.474ZM1823 101.29L1770.44 203.916L1881.79 146.663L1823 101.29Z" fill="#D67500"/>
<path d="M1878.68 311.021C1878.48 311.021 1878.48 311.021 1878.29 310.826L1768.88 205.084C1768.68 204.889 1768.68 204.889 1768.68 204.695C1768.68 204.5 1768.88 204.5 1769.07 204.305L1925.6 157.568C1925.79 157.568 1925.98 157.568 1925.98 157.763C1926.18 157.958 1926.18 158.153 1926.18 158.153L1879.26 310.826C1879.07 310.826 1879.07 311.021 1878.68 311.021C1878.87 311.021 1878.87 311.021 1878.68 311.021ZM1770.24 205.084L1878.48 309.658L1925.01 158.737L1770.24 205.084Z" fill="#D67500"/>
<path d="M1769.27 205.474C1769.07 205.474 1768.88 205.279 1768.88 205.279C1768.88 205.084 1768.88 204.89 1769.07 204.695L1882.38 146.469C1882.57 146.469 1882.57 146.469 1882.77 146.469L1925.99 157.958C1926.18 157.958 1926.37 158.153 1926.37 158.347C1926.37 158.542 1926.18 158.737 1925.99 158.737L1769.27 205.474C1769.46 205.474 1769.46 205.474 1769.27 205.474ZM1882.57 147.053L1773.94 202.942L1924.04 157.958L1882.57 147.053Z" fill="#D67500"/>
<path d="M1250.05 235.463C1249.86 235.463 1249.66 235.269 1249.66 235.269L1222.8 187.558C1222.8 187.363 1222.8 187.363 1222.8 187.169C1222.8 186.974 1222.99 186.974 1223.19 186.974L1303.2 171.005C1303.4 171.005 1303.59 171.005 1303.59 171.2C1303.79 171.395 1303.59 171.59 1303.59 171.784L1250.44 235.463C1250.44 235.269 1250.25 235.463 1250.05 235.463ZM1223.97 187.558L1250.05 234.1L1302.03 171.979L1223.97 187.558Z" fill="#D67500"/>
<path d="M1513.65 37.0265C1513.46 37.0265 1513.26 36.8318 1513.26 36.6371L1476.08 -86.2419C1476.08 -86.4366 1476.08 -86.6314 1476.27 -86.8261C1476.47 -87.0209 1476.66 -87.0209 1476.86 -86.8261L1630.07 22.616C1630.27 22.8107 1630.27 23.0055 1630.27 23.0055C1630.27 23.2002 1630.07 23.3949 1629.88 23.3949L1513.65 37.0265ZM1477.25 -85.2682L1514.04 36.0528L1628.51 22.8107L1477.25 -85.2682Z" fill="#D67500"/>
<path d="M1629.68 23.5893H1629.49L1476.27 -85.8528C1476.08 -85.8528 1476.08 -86.0475 1476.08 -86.2422C1476.08 -86.437 1476.27 -86.6317 1476.27 -86.6317L1606.9 -151.674C1607.1 -151.674 1607.1 -151.674 1607.29 -151.674C1607.49 -151.674 1607.49 -151.479 1607.49 -151.284L1630.07 23.1998C1630.07 23.3945 1630.07 23.5893 1629.88 23.5893H1629.68ZM1477.25 -86.437L1629.1 22.0314L1606.71 -150.7L1477.25 -86.437Z" fill="#D67500"/>
<path d="M1433.83 123.1C1433.64 123.1 1433.64 123.1 1433.44 122.905C1433.25 122.71 1433.25 122.516 1433.44 122.321L1513.26 36.2472C1513.46 36.0525 1513.46 36.0525 1513.65 36.0525C1513.85 36.0525 1513.85 36.2473 1514.04 36.442L1518.71 59.0315C1518.71 59.2262 1518.71 59.4209 1518.52 59.4209L1434.03 122.905C1434.03 123.1 1434.03 123.1 1433.83 123.1ZM1513.46 37.4157L1437.73 119.205L1517.93 59.0315L1513.46 37.4157Z" fill="#D67500"/>
<path d="M1433.83 123.1C1433.64 123.1 1433.44 122.905 1433.44 122.905C1433.44 122.71 1433.44 122.516 1433.64 122.321L1518.13 58.8367C1518.32 58.642 1518.52 58.642 1518.71 58.8367L1572.06 98.9525C1572.25 99.1472 1572.25 99.3419 1572.25 99.3419C1572.25 99.3419 1572.06 99.7314 1571.86 99.7314L1433.83 123.1C1434.03 123.1 1434.03 123.1 1433.83 123.1ZM1518.32 59.8104L1435.78 121.931L1570.5 99.1472L1518.32 59.8104Z" fill="#D67500"/>
<path d="M1563.68 243.837C1563.49 243.837 1563.49 243.837 1563.3 243.642L1433.44 122.905C1433.25 122.711 1433.25 122.516 1433.25 122.516C1433.25 122.321 1433.44 122.321 1433.64 122.126L1571.28 98.7581C1571.47 98.7581 1571.47 98.7581 1571.67 98.9528C1571.86 98.9528 1571.86 99.1475 1571.86 99.3422L1563.88 243.253C1564.07 243.447 1564.07 243.642 1563.68 243.837C1563.88 243.837 1563.68 243.837 1563.68 243.837ZM1435 122.905L1563.3 242.279L1571.08 99.7317L1435 122.905Z" fill="#D67500"/>
<path d="M1981.47 0.0262604L1823.39 99.5368L1874.39 -93.2526L1981.66 -47.879V-48.8526L1874.2 -94.2263C1874.01 -94.2263 1874.01 -94.2263 1873.81 -94.2263C1873.62 -94.2263 1873.62 -94.0316 1873.62 -93.8369L1822.22 100.51C1822.22 100.705 1822.22 100.9 1822.41 100.9H1822.61H1822.8L1981.27 0.999947L1981.47 0.0262604Z" fill="#D67500"/>
<path d="M1981.08 83.179L1824.56 99.9264L1981.47 1.1948V0.0263672L1822.41 100.121C1822.22 100.316 1822.22 100.511 1822.22 100.705C1822.22 100.9 1822.41 101.095 1822.61 101.095L1980.88 84.1527L1981.08 83.179Z" fill="#D67500"/>
<path d="M1250.05 235.463C1249.86 235.463 1249.86 235.463 1249.67 235.268C1249.47 235.074 1249.47 234.879 1249.67 234.684L1302.81 171.005C1302.81 170.81 1303.01 170.81 1303.2 170.81L1408.33 170.421C1408.52 170.421 1408.72 170.616 1408.72 170.81C1408.72 171.005 1408.72 171.2 1408.52 171.395L1250.05 235.463C1250.25 235.463 1250.25 235.463 1250.05 235.463ZM1303.59 171.784L1251.61 233.905L1405.99 171.589L1303.59 171.784Z" fill="#D67500"/>
<path d="M1378.15 339.258C1377.96 339.258 1377.96 339.258 1377.96 339.063L1249.86 235.074C1249.67 234.879 1249.67 234.879 1249.67 234.684C1249.67 234.489 1249.86 234.295 1249.86 234.295L1408.14 170.421C1408.33 170.421 1408.52 170.421 1408.52 170.421C1408.72 170.616 1408.72 170.616 1408.72 170.81L1378.35 338.674C1378.54 339.063 1378.54 339.258 1378.15 339.258ZM1251.03 235.074L1377.96 338.089L1407.94 171.784L1251.03 235.074Z" fill="#D67500"/>
<path d="M1303.2 171.784C1303.01 171.784 1302.81 171.59 1302.81 171.395C1302.81 171.2 1302.81 171.005 1303.01 170.811L1433.64 122.126C1433.83 122.126 1434.03 122.126 1434.22 122.321C1434.42 122.516 1434.42 122.711 1434.22 122.905L1408.72 171.2C1408.72 171.395 1408.52 171.395 1408.33 171.395L1303.2 171.784ZM1432.86 123.49L1305.73 170.811L1408.14 170.421L1432.86 123.49Z" fill="#D67500"/>
<path d="M1378.15 339.258H1377.96C1377.76 339.063 1377.76 339.063 1377.76 338.868L1408.14 171.005C1408.14 170.81 1408.33 170.81 1408.33 170.616C1408.52 170.616 1408.52 170.616 1408.72 170.616L1563.88 243.058C1564.07 243.058 1564.07 243.253 1564.07 243.447C1564.07 243.642 1564.07 243.837 1563.88 243.837L1378.35 339.453C1378.35 339.258 1378.15 339.258 1378.15 339.258ZM1408.72 171.589L1378.74 338.089L1562.71 243.447L1408.72 171.589Z" fill="#D67500"/>
<path d="M1563.68 243.837C1563.68 243.837 1563.49 243.837 1563.68 243.837L1408.33 171.395C1408.13 171.395 1408.13 171.2 1408.13 171.2C1408.13 171.005 1408.13 171.005 1408.13 170.81L1433.64 122.516C1433.64 122.321 1433.83 122.321 1434.03 122.321C1434.22 122.321 1434.22 122.321 1434.42 122.516L1564.27 243.252C1564.46 243.447 1564.46 243.642 1564.27 243.837C1563.88 243.642 1563.88 243.837 1563.68 243.837ZM1409.11 170.81L1561.35 241.695L1434.22 123.295L1409.11 170.81Z" fill="#D67500"/>
<path d="M1980.3 241.5L1879.65 309.463L1925.98 159.126L1980.3 229.037V227.479L1926.18 157.763C1925.98 157.568 1925.98 157.568 1925.79 157.568C1925.6 157.568 1925.4 157.763 1925.4 157.958L1878.29 310.437C1878.29 310.631 1878.29 310.826 1878.48 311.021H1878.68H1878.87L1980.11 242.668L1980.3 241.5Z" fill="#D67500"/>
<path d="M1603.01 84.542C1600.09 84.542 1597.56 86.8789 1597.56 89.9946C1597.56 92.9157 1599.89 95.4472 1603.01 95.4472C1605.93 95.4472 1608.46 93.1104 1608.46 89.9946C1608.27 87.0736 1605.93 84.542 1603.01 84.542Z" fill="#D67500"/>
<path d="M1882.57 140.237C1879.07 140.237 1876.15 143.158 1875.95 146.663C1875.95 150.168 1878.87 153.09 1882.38 153.284C1885.88 153.284 1888.8 150.363 1889 146.858C1889.19 143.158 1886.27 140.237 1882.57 140.237Z" fill="#D67500"/>
<path d="M1629.68 17.1628C1626.37 17.1628 1623.65 19.8892 1623.65 23.005C1623.65 26.3155 1626.37 29.0417 1629.49 29.0417C1632.8 29.0417 1635.52 26.3154 1635.52 23.1996C1635.72 19.8891 1632.99 17.1628 1629.68 17.1628Z" fill="#D67500"/>
<path d="M1513.65 39.5577C1515.21 39.5577 1516.57 38.1945 1516.57 36.6366C1516.57 35.0787 1515.21 33.7156 1513.65 33.7156C1512.09 33.7156 1510.73 35.0787 1510.73 36.6366C1510.73 38.1945 1512.09 39.5577 1513.65 39.5577Z" fill="#D67500"/>
<path d="M1518.32 55.9155C1516.38 55.9155 1515.01 57.4734 1515.01 59.226C1515.01 61.1733 1516.57 62.5365 1518.32 62.5365C1520.27 62.5365 1521.63 60.9786 1521.63 59.226C1521.63 57.2786 1520.27 55.9155 1518.32 55.9155Z" fill="#D67500"/>
<path d="M1571.67 96.6157C1570.3 96.6157 1568.94 97.7841 1568.94 99.1473C1568.94 100.51 1570.11 101.874 1571.47 101.874C1572.83 101.874 1574.2 100.705 1574.2 99.342C1574.2 97.7841 1573.03 96.6157 1571.67 96.6157Z" fill="#D67500"/>
<path d="M1822.8 96.0312C1820.27 96.0312 1818.13 97.9786 1818.13 100.51C1818.13 103.042 1820.08 105.184 1822.61 105.184C1825.14 105.184 1827.28 103.236 1827.28 100.705C1827.28 98.1733 1825.33 96.0312 1822.8 96.0312Z" fill="#D67500"/>
<path d="M1306.51 171.394C1306.51 169.642 1305.15 168.084 1303.2 168.084C1301.45 168.084 1299.89 169.447 1299.89 171.394C1299.89 173.147 1301.26 174.705 1303.2 174.705C1305.15 174.705 1306.51 173.147 1306.51 171.394Z" fill="#D67500"/>
<path d="M1408.52 165.552C1405.6 165.552 1403.07 167.889 1403.07 171.005C1403.07 173.926 1405.41 176.458 1408.52 176.458C1411.44 176.458 1413.98 174.121 1413.98 171.005C1413.78 168.084 1411.44 165.552 1408.52 165.552Z" fill="#D67500"/>
<path d="M1434.03 119.205C1432.08 119.205 1430.52 120.763 1430.52 122.71C1430.52 124.658 1432.08 126.216 1434.03 126.216C1435.97 126.216 1437.53 124.658 1437.53 122.71C1437.34 120.763 1435.78 119.205 1434.03 119.205Z" fill="#D67500"/>
</g>
<g opacity="0.8">
<path d="M-13.7419 81.0819L43.8822 114.241L87.4567 102.646L-13.9455 63.7901V62.7729L89.0857 102.239C89.2893 102.239 89.4929 102.442 89.4929 102.646C89.4929 102.849 89.2893 103.053 89.0857 103.053L43.8822 115.055C43.8822 115.055 43.8823 115.055 43.6787 115.055H43.475L-13.9455 82.099L-13.7419 81.0819Z" fill="#D67500"/>
<path d="M470.056 11.7112H470.26C470.464 11.7112 470.464 11.5078 470.464 11.3044L475.35 -12.2938C475.35 -12.4972 475.35 -12.4972 475.35 -12.7006C475.35 -12.9041 475.147 -12.9041 474.943 -12.9041L353.586 -26.9409C353.383 -26.9409 353.179 -26.7375 352.976 -26.534C352.976 -26.3306 352.976 -26.1272 353.383 -25.9238L470.056 11.7112C469.853 11.7112 470.056 11.7112 470.056 11.7112ZM474.332 -12.0904L469.649 10.4906L358.27 -25.5169L474.332 -12.0904Z" fill="#D67500"/>
<path d="M151.596 55.0424C151.8 55.0424 151.8 55.0424 151.596 55.0424L353.79 -25.9237C353.994 -25.9237 353.994 -26.1272 353.994 -26.3306C353.994 -26.534 353.994 -26.7374 353.79 -26.7374L251.573 -110.958C251.37 -110.958 251.37 -111.162 251.166 -111.162C250.962 -111.162 250.962 -110.958 250.759 -110.958L150.986 54.2287C150.782 54.4321 150.986 54.6356 150.986 54.839C151.393 54.839 151.596 55.0424 151.596 55.0424ZM352.568 -26.534L152.615 53.6184L251.37 -109.941L352.568 -26.534Z" fill="#D67500"/>
<path d="M151.597 55.0422C151.8 55.0422 152.004 55.0423 152.004 54.8388L251.777 -110.348C251.777 -110.552 251.777 -110.552 251.777 -110.755C251.777 -110.959 251.573 -110.959 251.573 -110.959L167.886 -148.39C167.683 -148.39 167.683 -148.39 167.479 -148.39C167.275 -148.39 167.275 -148.187 167.275 -147.983L151.189 54.4319C151.189 54.6354 151.393 54.8388 151.597 55.0422ZM250.759 -110.348L152.411 52.6011L168.09 -147.373L250.759 -110.348Z" fill="#D67500"/>
<path d="M151.597 55.0426C151.8 55.0426 152.004 54.8392 152.004 54.6357L167.886 -147.983C167.886 -148.186 167.886 -148.186 167.682 -148.39C167.682 -148.39 167.479 -148.593 167.275 -148.593L97.434 -149.204C97.434 -149.204 97.2303 -149.204 97.0267 -149C97.0267 -148.797 96.8231 -148.797 97.0267 -148.593L151.189 54.6357C151.189 54.8392 151.393 55.0426 151.597 55.0426ZM167.072 -147.576L151.393 51.7877L98.4521 -148.186L167.072 -147.576Z" fill="#D67500"/>
<path d="M-13.742 62.773L89.0855 102.036L150.578 54.8391L-13.742 37.1405V36.1233L152.004 53.822C152.207 53.822 152.411 54.0254 152.411 54.2288C152.411 54.4322 152.411 54.6357 152.207 54.6357L89.6963 102.646H89.4927H89.2891L-13.3347 63.3833L-13.742 62.773Z" fill="#D67500"/>
<path d="M414.265 53.6184C414.468 53.6184 414.468 53.6184 414.468 53.6184L470.26 11.7114C470.463 11.508 470.463 11.3046 470.463 11.1011C470.26 10.8977 470.056 10.8977 469.853 10.8977L381.482 43.0399C381.278 43.0399 381.075 43.2434 381.075 43.4468C381.075 43.6502 381.278 43.8536 381.482 43.8536L414.265 53.6184ZM467.205 12.7286L414.265 52.6012L383.111 43.2434L467.205 12.7286Z" fill="#D67500"/>
<path d="M381.686 43.8539L470.26 11.7116C470.464 11.7116 470.667 11.5082 470.667 11.3047C470.667 11.1013 470.464 10.8979 470.26 10.8979L353.79 -26.7371C353.586 -26.7371 353.383 -26.737 353.383 -26.5336C353.179 -26.3302 353.179 -26.1268 353.383 -26.1268L381.482 43.8539C381.279 43.8539 381.482 43.8539 381.686 43.8539ZM468.631 11.3047L381.889 42.8367L354.401 -25.7199L468.631 11.3047Z" fill="#D67500"/>
<path d="M422.613 204.158C423.021 204.158 423.021 203.955 423.021 203.751L414.672 53.4148C414.672 53.2114 414.469 53.0079 414.265 53.0079L381.482 43.2432C381.279 43.2432 381.075 43.2432 381.075 43.4466C380.871 43.65 380.871 43.65 380.871 43.8534L422.003 203.955C422.206 203.955 422.41 204.158 422.613 204.158ZM413.858 53.6182L421.799 198.869L382.093 44.2603L413.858 53.6182Z" fill="#D67500"/>
<path d="M151.596 55.0424L381.482 43.8536C381.686 43.8536 381.686 43.8536 381.889 43.6502C381.889 43.4468 381.889 43.4467 381.889 43.2433L353.79 -26.7375C353.79 -26.9409 353.586 -26.9409 353.586 -26.9409C353.383 -26.9409 353.383 -26.9409 353.179 -26.9409L151.189 54.0252C150.986 54.0252 150.782 54.4321 150.986 54.6355C151.189 54.839 151.393 55.0424 151.596 55.0424ZM380.871 43.0399L154.447 54.0252L353.383 -25.7203L380.871 43.0399Z" fill="#D67500"/>
<path d="M422.613 204.159C422.817 204.159 422.817 204.159 423.02 203.955C423.224 203.752 423.224 203.752 423.224 203.548L382.093 43.4469C382.093 43.2435 381.889 43.2435 381.889 43.04C381.686 43.04 381.482 43.04 381.482 43.04L207.388 163.269C207.184 163.472 207.184 163.472 207.184 163.676C207.184 163.879 207.388 164.082 207.592 164.082L422.613 204.159ZM381.278 44.2606L422.002 202.938L208.813 163.269L381.278 44.2606Z" fill="#D67500"/>
<path d="M295.352 265.799H295.555L422.817 204.159C423.021 204.159 423.021 203.955 423.021 203.752C423.021 203.548 422.817 203.345 422.613 203.345L207.592 163.269C207.388 163.269 207.185 163.269 207.185 163.472C207.185 163.675 207.185 163.879 207.185 164.082L295.148 265.799C295.148 265.799 295.148 265.799 295.352 265.799ZM421.188 203.752L295.555 264.578L208.814 164.082L421.188 203.752Z" fill="#D67500"/>
<path d="M207.592 164.082H207.795L381.889 43.8536C382.093 43.6502 382.093 43.4467 382.093 43.2433C382.093 43.0399 381.889 42.8364 381.686 42.8364L151.8 54.0252C151.597 54.0252 151.393 54.0252 151.393 54.2287C151.393 54.4321 151.393 54.6356 151.393 54.6356L207.185 163.675C207.185 163.879 207.185 163.879 207.592 164.082C207.388 164.082 207.388 164.082 207.592 164.082ZM379.853 44.057L207.592 162.862L152.411 55.0424L379.853 44.057Z" fill="#D67500"/>
<path d="M235.691 286.955C235.895 286.955 235.895 286.955 235.691 286.955L295.351 265.799C295.555 265.799 295.555 265.595 295.555 265.392C295.555 265.188 295.555 264.985 295.555 264.985L207.592 163.269C207.388 163.065 207.184 163.065 206.981 163.065C206.777 163.065 206.777 163.472 206.777 163.676L235.08 286.549C235.08 286.752 235.284 286.752 235.284 286.955C235.691 286.955 235.691 286.955 235.691 286.955ZM294.537 265.188L236.098 285.938L208.406 165.506L294.537 265.188Z" fill="#D67500"/>
<path d="M235.691 286.955C235.895 286.955 235.895 286.956 236.098 286.752C236.098 286.549 236.302 286.549 236.302 286.345L207.999 163.472C207.999 163.269 207.795 163.269 207.592 163.065C207.388 163.065 207.184 163.065 207.184 163.269L92.7505 273.732C92.5469 273.936 92.5469 274.139 92.5469 274.139C92.5469 274.343 92.7505 274.343 92.9541 274.546L235.691 286.955ZM207.184 164.489L235.08 285.938L93.9722 273.529L207.184 164.489Z" fill="#D67500"/>
<path d="M207.592 164.082C207.795 164.082 207.795 164.082 207.999 163.879C208.202 163.675 208.202 163.472 207.999 163.269L152.207 54.2288C152.207 54.0254 152.004 54.0254 151.8 54.0254C151.596 54.0254 151.596 54.0254 151.393 54.0254L88.8819 102.035C88.6782 102.035 88.6782 102.239 88.6782 102.442C88.6782 102.646 88.8819 102.849 88.8819 102.849L207.388 163.676C207.388 164.082 207.388 164.082 207.592 164.082ZM151.393 55.246L206.37 162.455L89.8999 102.646L151.393 55.246Z" fill="#D67500"/>
<path d="M93.1581 274.343C93.3617 274.343 93.3618 274.343 93.5654 274.139L207.999 163.676C208.203 163.472 208.203 163.472 208.203 163.269C208.203 163.065 207.999 163.065 207.795 162.862L44.086 114.038C43.8824 114.038 43.6788 114.038 43.6788 114.242C43.4752 114.445 43.4752 114.648 43.4752 114.648L92.5473 274.139C92.7509 274.139 92.7509 274.343 93.1581 274.343C92.9545 274.343 92.9545 274.343 93.1581 274.343ZM206.574 163.676L93.3618 272.919L44.6969 115.259L206.574 163.676Z" fill="#D67500"/>
<path d="M207.592 164.082C207.795 164.082 207.999 163.879 207.999 163.879C207.999 163.676 207.999 163.472 207.795 163.269L89.2892 102.442C89.0855 102.442 89.0855 102.442 88.8819 102.442L43.6785 114.445C43.4749 114.445 43.2712 114.648 43.2712 114.852C43.2712 115.055 43.4749 115.259 43.6785 115.259L207.592 164.082C207.388 164.082 207.388 164.082 207.592 164.082ZM89.0855 103.053L202.705 161.438L45.7147 114.445L89.0855 103.053Z" fill="#D67500"/>
<path d="M914.149 224.705C914.353 224.705 914.556 224.502 914.556 224.298C914.556 224.095 914.556 223.891 914.353 223.688L778.946 144.349C778.742 144.349 778.742 144.349 778.539 144.349C778.335 144.349 778.335 144.553 778.335 144.553L750.236 194.394C750.236 194.597 750.236 194.597 750.236 194.801C750.236 195.004 750.439 195.004 750.643 195.004L914.149 224.705ZM778.742 145.773L911.502 223.281L751.254 194.394L778.742 145.773Z" fill="#D67500"/>
<path d="M750.643 195.411C750.847 195.411 751.05 195.207 751.05 195.207L779.15 145.366C779.15 145.163 779.15 145.163 779.15 144.96C779.15 144.756 778.946 144.756 778.742 144.756L695.055 128.075C694.851 128.075 694.648 128.075 694.648 128.278C694.444 128.482 694.648 128.685 694.648 128.888L750.236 195.411C750.236 195.207 750.439 195.411 750.643 195.411ZM777.928 145.366L750.643 193.987L696.277 129.092L777.928 145.366Z" fill="#D67500"/>
<path d="M558.427 78.0305C558.63 78.0305 558.63 78.0305 558.834 77.8271C559.038 77.6236 559.038 77.4202 558.834 77.2168L475.35 -12.7004C475.147 -12.9038 475.147 -12.9038 474.943 -12.9038C474.74 -12.9038 474.74 -12.7004 474.536 -12.4969L469.649 11.1013C469.649 11.3047 469.649 11.5081 469.853 11.5081L558.223 77.8271C558.223 78.0305 558.223 78.0305 558.427 78.0305ZM475.147 -11.4798L554.354 73.9619L470.464 11.1013L475.147 -11.4798Z" fill="#D67500"/>
<path d="M558.427 78.0304C558.631 78.0304 558.834 77.827 558.834 77.827C558.834 77.6235 558.834 77.4201 558.631 77.2167L470.26 10.8977C470.056 10.6943 469.853 10.6943 469.649 10.8977L413.858 52.8048C413.654 53.0082 413.654 53.2116 413.654 53.2116C413.654 53.2116 413.858 53.6185 414.061 53.6185L558.427 78.0304C558.223 78.0304 558.223 78.0304 558.427 78.0304ZM470.056 11.9149L556.391 76.8098L415.487 53.0082L470.056 11.9149Z" fill="#D67500"/>
<path d="M422.613 204.159C422.817 204.159 422.817 204.159 423.02 203.955L558.834 77.8272C559.038 77.6237 559.038 77.4203 559.038 77.4203C559.038 77.2168 558.834 77.2169 558.63 77.0134L414.672 52.6016C414.468 52.6016 414.468 52.6016 414.265 52.805C414.061 52.805 414.061 53.0084 414.061 53.2118L422.409 203.548C422.206 203.752 422.206 203.955 422.613 204.159C422.409 204.159 422.613 204.159 422.613 204.159ZM557.205 77.8272L423.02 202.531L414.876 53.6187L557.205 77.8272Z" fill="#D67500"/>
<path d="M-14.3525 -50.539L150.986 53.415L97.6378 -147.983L-14.5562 -100.583V-101.6L97.8414 -149C98.045 -149 98.045 -149 98.2487 -149C98.4523 -149 98.4523 -148.797 98.4523 -148.593L152.208 54.4321C152.208 54.6356 152.208 54.839 152.004 54.839H151.8H151.597L-14.149 -49.5218L-14.3525 -50.539Z" fill="#D67500"/>
<path d="M-13.9453 36.3267L149.764 53.8219L-14.3525 -49.3185V-50.5391L152.004 54.0253C152.208 54.2287 152.208 54.4322 152.208 54.6356C152.208 54.839 152.004 55.0424 151.8 55.0424L-13.7417 37.3438L-13.9453 36.3267Z" fill="#D67500"/>
<path d="M750.643 195.411C750.846 195.411 750.846 195.411 751.05 195.207C751.254 195.004 751.254 194.8 751.05 194.597L695.462 128.075C695.462 127.871 695.259 127.871 695.055 127.871L585.101 127.464C584.897 127.464 584.694 127.668 584.694 127.871C584.694 128.075 584.694 128.278 584.897 128.482L750.643 195.411C750.439 195.411 750.439 195.411 750.643 195.411ZM694.648 128.888L749.014 193.783L587.544 128.685L694.648 128.888Z" fill="#D67500"/>
<path d="M616.662 303.84C616.865 303.84 616.865 303.84 616.865 303.637L750.847 195.004C751.05 194.8 751.05 194.8 751.05 194.597C751.05 194.394 750.847 194.19 750.847 194.19L585.305 127.464C585.101 127.464 584.897 127.464 584.897 127.464C584.694 127.668 584.694 127.668 584.694 127.871L616.458 303.23C616.255 303.637 616.255 303.84 616.662 303.84ZM749.625 195.004L616.865 302.62L585.508 128.888L749.625 195.004Z" fill="#D67500"/>
<path d="M695.055 128.889C695.259 128.889 695.462 128.685 695.462 128.482C695.462 128.278 695.462 128.075 695.259 127.872L558.63 77.0134C558.427 77.0134 558.223 77.0134 558.019 77.2169C557.816 77.4203 557.816 77.6237 558.019 77.8271L584.693 128.278C584.693 128.482 584.897 128.482 585.101 128.482L695.055 128.889ZM559.445 78.4374L692.408 127.872L585.304 127.465L559.445 78.4374Z" fill="#D67500"/>
<path d="M616.662 303.84H616.865C617.069 303.637 617.069 303.637 617.069 303.433L585.304 128.075C585.304 127.871 585.101 127.871 585.101 127.668C584.897 127.668 584.897 127.668 584.693 127.668L422.409 203.345C422.206 203.345 422.206 203.548 422.206 203.751C422.206 203.955 422.206 204.158 422.409 204.158L616.458 304.044C616.458 303.84 616.662 303.84 616.662 303.84ZM584.693 128.685L616.051 302.62L423.631 203.751L584.693 128.685Z" fill="#D67500"/>
<path d="M422.613 204.159C422.613 204.159 422.817 204.159 422.613 204.159L585.101 128.482C585.305 128.482 585.305 128.278 585.305 128.278C585.305 128.075 585.305 128.075 585.305 127.871L558.631 77.4202C558.631 77.2167 558.427 77.2168 558.223 77.2168C558.02 77.2168 558.02 77.2167 557.816 77.4202L422.002 203.548C421.799 203.752 421.799 203.955 422.002 204.159C422.41 203.955 422.41 204.159 422.613 204.159ZM584.287 127.871L425.057 201.921L558.02 78.234L584.287 127.871Z" fill="#D67500"/>
<path d="M-13.5381 135.602L42.6606 114.648L-13.7417 82.3026V81.2854L44.0859 114.445C44.2895 114.445 44.2896 114.648 44.2896 114.852C44.2896 115.055 44.0859 115.259 43.8823 115.259L-13.5381 136.619V135.602Z" fill="#D67500"/>
<path d="M-13.1311 201.717L92.1398 272.715L43.6786 115.666L-13.1311 188.698V187.07L43.475 114.242C43.6786 114.038 43.6786 114.038 43.8822 114.038C44.0858 114.038 44.2894 114.242 44.2894 114.445L93.5652 273.732C93.5652 273.936 93.5652 274.139 93.3616 274.343H93.1579H92.9543L-12.9274 202.938L-13.1311 201.717Z" fill="#D67500"/>
<path d="M-13.131 187.274L42.4569 115.666L-13.5382 136.416V135.398L43.6786 114.038C43.8822 114.038 44.0858 114.038 44.2894 114.242C44.493 114.445 44.493 114.648 44.2894 114.852L-13.131 188.698V187.274Z" fill="#D67500"/>
<path d="M381.483 37.7507C384.537 37.7507 387.184 40.192 387.184 43.4469C387.184 46.4984 384.741 49.143 381.483 49.143C378.428 49.143 375.781 46.7018 375.781 43.4469C375.985 40.3954 378.428 37.7507 381.483 37.7507Z" fill="#D67500"/>
<path d="M207.592 160.014C209.628 160.014 211.054 161.641 211.054 163.472C211.054 165.506 209.425 166.93 207.592 166.93C205.556 166.93 204.131 165.303 204.131 163.472C203.927 161.641 205.556 160.014 207.592 160.014Z" fill="#D67500"/>
<path d="M89.0855 95.9324C92.7507 95.9324 95.8049 98.9839 96.0085 102.646C96.0085 106.308 92.9543 109.359 89.2892 109.562C85.624 109.562 82.5697 106.511 82.3661 102.849C82.1625 98.9839 85.2168 95.9324 89.0855 95.9324Z" fill="#D67500"/>
<path d="M778.539 140.484C780.983 140.484 783.019 142.518 783.019 144.96C783.019 147.401 780.983 149.435 778.539 149.435C776.096 149.435 774.059 147.401 774.059 144.96C774.059 142.518 776.096 140.484 778.539 140.484Z" fill="#D67500"/>
<path d="M470.057 7.84619C472.093 7.84619 473.518 9.4736 473.518 11.3045C473.518 13.3388 471.889 14.7628 470.057 14.7628C468.02 14.7628 466.595 13.1353 466.595 11.3045C466.595 9.27017 468.02 7.84619 470.057 7.84619Z" fill="#D67500"/>
<path d="M414.265 50.3635C415.69 50.3635 417.116 51.5841 417.116 53.0081C417.116 54.4321 415.894 55.8562 414.469 55.8562C413.043 55.8562 411.618 54.6356 411.618 53.2116C411.618 51.5841 412.84 50.3635 414.265 50.3635Z" fill="#D67500"/>
<path d="M151.597 49.7532C154.244 49.7532 156.484 51.7875 156.484 54.4321C156.484 57.0767 154.447 59.3144 151.8 59.3144C149.153 59.3144 146.914 57.2801 146.914 54.6355C146.914 51.9909 148.95 49.7532 151.597 49.7532Z" fill="#D67500"/>
<path d="M691.594 128.481C691.594 126.651 693.019 125.023 695.055 125.023C696.888 125.023 698.517 126.447 698.517 128.481C698.517 130.312 697.092 131.94 695.055 131.94C693.019 131.94 691.594 130.312 691.594 128.481Z" fill="#D67500"/>
<path d="M584.898 122.378C587.952 122.378 590.599 124.82 590.599 128.075C590.599 131.126 588.156 133.771 584.898 133.771C581.843 133.771 579.196 131.33 579.196 128.075C579.4 125.023 581.843 122.378 584.898 122.378Z" fill="#D67500"/>
<path d="M558.224 73.9617C560.26 73.9617 561.889 75.5891 561.889 77.6234C561.889 79.6578 560.26 81.2853 558.224 81.2853C556.188 81.2853 554.559 79.6578 554.559 77.6234C554.762 75.5891 556.391 73.9617 558.224 73.9617Z" fill="#D67500"/>
<path d="M43.8824 119.124C41.4083 119.124 39.4028 117.12 39.4028 114.648C39.4028 112.177 41.4083 110.173 43.8824 110.173C46.3564 110.173 48.3621 112.177 48.3621 114.648C48.3621 117.12 46.3564 119.124 43.8824 119.124Z" fill="#D67500"/>
</g>
<g opacity="0.7">
<path d="M1418.75 -26.9547L1370.6 49.5699L1398.48 55.9628L1418.34 -27.6965L1418.75 -26.9547L1398.95 56.5128C1398.89 56.7047 1398.77 56.7729 1398.58 56.7174L1369.93 50.1027C1369.73 50.0473 1369.73 50.0473 1369.67 49.9237C1369.6 49.8 1369.72 49.7318 1369.65 49.6082L1418.34 -27.6965L1418.75 -26.9547Z" fill="#DA8013"/>
<path d="M1389.6 -79.2433L1370.67 48.2397L1418.53 -27.6411L1418.87 -27.0229L1370.3 49.8981C1370.24 50.09 1370.05 50.0345 1369.86 49.9791C1369.67 49.9236 1369.6 49.8 1369.65 49.6081L1389.05 -80.2325L1389.6 -79.2433Z" fill="#DA8013"/>
<path d="M1356.02 -139.569L1268.9 -134.907L1369.81 48.717L1389.05 -80.2326L1389.6 -79.2435L1370.42 49.8298C1370.37 50.0216 1370.24 50.0898 1370.12 50.158C1369.99 50.2262 1369.8 50.1708 1369.73 50.0471L1268 -135.061C1267.94 -135.184 1267.87 -135.308 1267.99 -135.376L1268.11 -135.444L1268.24 -135.513L1355.55 -140.119L1356.02 -139.569Z" fill="#DA8013"/>
<path d="M1179.71 -52.3613C1179.58 -52.2931 1179.53 -52.1013 1179.59 -51.9776L1220.47 97.3556C1220.53 97.4792 1220.53 97.4792 1220.6 97.6029C1220.67 97.7265 1220.79 97.6583 1220.92 97.5901L1370.24 50.0899C1370.37 50.0217 1370.49 49.9535 1370.42 49.8299C1370.48 49.638 1370.41 49.5144 1370.22 49.4589L1180.02 -52.3741C1179.95 -52.4978 1179.83 -52.4295 1179.71 -52.3613ZM1221.02 96.8909L1180.37 -51.4404L1369.21 49.6891L1221.02 96.8909Z" fill="#DA8013"/>
<path d="M1268.17 -135.636C1268.05 -135.568 1268.05 -135.568 1268.17 -135.636L1179.71 -52.3615C1179.58 -52.2933 1179.65 -52.1697 1179.53 -52.1015C1179.59 -51.9779 1179.59 -51.9778 1179.66 -51.8542L1369.86 49.9788C1370.05 50.0342 1370.17 49.966 1370.3 49.8978C1370.42 49.8296 1370.48 49.6378 1370.41 49.5141L1268.68 -135.594C1268.61 -135.717 1268.61 -135.717 1268.42 -135.773C1268.36 -135.581 1268.17 -135.636 1268.17 -135.636ZM1180.47 -52.1398L1268.21 -134.69L1369.19 49.0579L1180.47 -52.1398Z" fill="#DA8013"/>
<path d="M990.94 -40.9965C990.94 -40.9965 990.817 -40.9283 990.94 -40.9965C990.693 -40.8601 990.706 -40.5446 990.897 -40.4892L1040.74 12.1633C1040.8 12.287 1041.12 12.2742 1041.24 12.206C1041.37 12.1378 1041.35 11.8223 1041.29 11.6986L991.448 -40.9539C991.188 -41.133 991.064 -41.0647 990.94 -40.9965Z" fill="#DA8013"/>
<path d="M990.94 -40.9968C990.817 -40.9286 990.817 -40.9286 990.885 -40.805C990.829 -40.6131 990.897 -40.4895 990.897 -40.4895L1040.74 12.1631C1040.8 12.2867 1040.93 12.2185 1040.93 12.2185C1041.05 12.1503 1041.05 12.1503 1041.17 12.0821L1097.12 -45.0391C1097.24 -45.1073 1097.3 -45.2991 1097.23 -45.4228C1097.16 -45.5464 1097.09 -45.6701 1096.97 -45.6019L991.064 -41.065L990.94 -40.9968ZM1040.96 11.3957L991.844 -40.5278L1096.05 -44.9326L1040.96 11.3957Z" fill="#DA8013"/>
<path d="M1049.92 -164.286L1049.8 -164.217L990.749 -41.052C990.625 -40.9838 990.693 -40.8602 990.761 -40.7365C990.829 -40.6129 991.021 -40.5574 991.021 -40.5574L1096.8 -45.0261C1096.92 -45.0943 1096.92 -45.0943 1097.05 -45.1625C1097.17 -45.2307 1097.1 -45.3543 1097.04 -45.478L1050.31 -164.175C1050.24 -164.298 1050.17 -164.422 1050.05 -164.354L1049.92 -164.286ZM991.572 -41.0221L1050.1 -163.092L1096.34 -45.5761L991.572 -41.0221Z" fill="#DA8013"/>
<path d="M1040.78 11.6559C1040.65 11.7241 1040.65 11.7241 1040.6 11.916C1040.54 12.1078 1040.8 12.2869 1040.93 12.2187L1132.66 20.0106C1132.85 20.066 1133.03 19.806 1132.96 19.6823C1133.01 19.4905 1132.75 19.3114 1132.63 19.3796L1040.9 11.5877L1040.78 11.6559Z" fill="#DA8013"/>
<path d="M1096.65 -45.5888C1096.65 -45.5888 1096.72 -45.4651 1096.65 -45.5888L1040.59 11.6006C1040.46 11.6688 1040.41 11.8607 1040.48 11.9843C1040.54 12.108 1040.61 12.2316 1040.74 12.1634L1132.46 19.9553C1132.59 19.8871 1132.78 19.9425 1132.71 19.8189C1132.84 19.7507 1132.77 19.627 1132.7 19.5034L1096.84 -45.5333C1096.77 -45.657 1096.77 -45.657 1096.58 -45.7124C1096.84 -45.5333 1096.77 -45.657 1096.65 -45.5888ZM1041.6 11.686L1096.81 -44.7105L1132.12 19.3371L1041.6 11.686Z" fill="#DA8013"/>
<path d="M1096.65 -45.5889L1096.53 -45.5207C1096.4 -45.4525 1096.47 -45.3288 1096.54 -45.2052L1132.4 19.8316C1132.46 19.9552 1132.53 20.0789 1132.66 20.0106C1132.78 19.9424 1132.9 19.8742 1132.9 19.8742L1180.23 -52.0033C1180.35 -52.0715 1180.28 -52.1951 1180.21 -52.3188C1180.14 -52.4424 1179.95 -52.4978 1179.95 -52.4978L1096.65 -45.5889C1096.84 -45.5334 1096.78 -45.6571 1096.65 -45.5889ZM1132.69 19.1878L1097.38 -44.8598L1179.29 -51.6495L1132.69 19.1878Z" fill="#DA8013"/>
<path d="M1179.71 -52.3614L1179.58 -52.2933L1132.26 19.5843C1132.2 19.7761 1132.15 19.968 1132.34 20.0234L1220.53 97.4791C1220.6 97.6028 1220.79 97.6582 1220.92 97.59C1221.04 97.5218 1221.1 97.3299 1221.03 97.2063L1180.09 -52.2506C1180.02 -52.3742 1179.95 -52.4979 1179.83 -52.4297C1179.83 -52.4297 1179.83 -52.4296 1179.71 -52.3614ZM1133.15 19.7378L1179.81 -51.2913L1220.24 96.3536L1133.15 19.7378Z" fill="#DA8013"/>
<path d="M1400.39 59.4248C1398.66 60.3796 1396.55 59.7698 1395.66 58.1624C1394.71 56.4314 1395.32 54.3211 1396.93 53.4344C1398.66 52.4796 1400.77 53.0894 1401.66 54.6968C1402.74 56.3596 1402.12 58.4699 1400.39 59.4248Z" fill="#DA8013"/>
<path d="M1372.39 48.423C1373.14 49.7831 1372.69 51.3178 1371.33 52.0681C1369.97 52.8184 1368.44 52.3749 1367.69 51.0148C1366.94 49.6547 1367.38 48.1199 1368.74 47.3696C1369.98 46.6876 1371.71 47.1865 1372.39 48.423Z" fill="#DA8013"/>
<path d="M1042.35 14.5001C1040.86 15.3185 1039.13 14.8196 1038.32 13.3359C1037.5 11.8521 1038 10.1255 1039.48 9.30705C1040.97 8.4886 1042.69 8.98754 1043.51 10.4713C1044.33 11.955 1043.83 13.6816 1042.35 14.5001Z" fill="#DA8013"/>
<path d="M1130.39 15.6153C1132.74 14.3194 1135.62 15.151 1136.92 17.5002C1138.21 19.8494 1137.38 22.7272 1135.03 24.0231C1132.68 25.319 1129.8 24.4874 1128.51 22.1381C1127.21 19.7889 1128.04 16.9112 1130.39 15.6153Z" fill="#DA8013"/>
<path d="M1222.2 99.6238C1220.84 100.374 1219.24 99.8069 1218.55 98.5704C1217.81 97.2104 1218.37 95.6073 1219.61 94.9253C1220.97 94.175 1222.57 94.7422 1223.26 95.9786C1223.94 97.2151 1223.44 98.9417 1222.2 99.6238Z" fill="#DA8013"/>
</g>
<g opacity="0.6">
<path d="M667.692 -33.6286C667.649 -33.5899 667.645 -33.5087 667.684 -33.4661L697.956 21.8202C697.995 21.8627 697.995 21.8627 698.034 21.9053C698.072 21.9478 698.115 21.9091 698.157 21.8704L752.815 -11.0262C752.857 -11.0649 752.9 -11.1036 752.861 -11.1461C752.865 -11.2273 752.827 -11.2699 752.745 -11.2737L667.815 -33.6634C667.777 -33.7059 667.734 -33.6672 667.692 -33.6286ZM698.13 21.5843L668.043 -33.3269L752.37 -11.088L698.13 21.5843Z" fill="#DA8013"/>
<path d="M694.872 -74.953C694.83 -74.9143 694.83 -74.9143 694.872 -74.953L667.692 -33.6287C667.649 -33.59 667.688 -33.5474 667.645 -33.5088C667.684 -33.4662 667.684 -33.4662 667.722 -33.4237L752.652 -11.0341C752.734 -11.0302 752.776 -11.0689 752.819 -11.1076C752.861 -11.1462 752.865 -11.2275 752.826 -11.27L695.077 -74.9839C695.039 -75.0265 695.039 -75.0265 694.957 -75.0303C694.953 -74.9491 694.872 -74.953 694.872 -74.953ZM668.016 -33.6132L694.976 -74.5817L752.3 -11.3357L668.016 -33.6132Z" fill="#DA8013"/>
<path d="M594.006 -11.3225C594.006 -11.3225 593.963 -11.2838 594.006 -11.3225C593.92 -11.2451 593.955 -11.1214 594.036 -11.1175L618.741 5.03391C618.779 5.07645 618.903 5.04162 618.946 5.00294C618.988 4.96426 618.953 4.8405 618.915 4.79796L594.211 -11.3535C594.091 -11.3999 594.048 -11.3612 594.006 -11.3225Z" fill="#DA8013"/>
<path d="M594.005 -11.3226C593.963 -11.284 593.963 -11.284 594.002 -11.2414C593.998 -11.1602 594.036 -11.1177 594.036 -11.1177L618.74 5.03378C618.779 5.07632 618.822 5.03764 618.822 5.03764C618.864 4.99896 618.864 4.99896 618.907 4.96028L635.674 -22.9384C635.716 -22.9771 635.72 -23.0583 635.682 -23.1009C635.643 -23.1434 635.604 -23.186 635.562 -23.1473L594.048 -11.3613L594.005 -11.3226ZM618.756 4.70891L594.408 -11.2221L635.26 -22.7953L618.756 4.70891Z" fill="#DA8013"/>
<path d="M605.736 -65.7132L605.694 -65.6745L593.924 -11.3264C593.882 -11.2877 593.92 -11.2452 593.959 -11.2026C593.998 -11.1601 594.079 -11.1562 594.079 -11.1562L635.55 -22.9035C635.593 -22.9422 635.593 -22.9422 635.635 -22.9809C635.678 -23.0195 635.639 -23.0621 635.6 -23.1046L605.899 -65.7055C605.86 -65.748 605.821 -65.7906 605.779 -65.7519L605.736 -65.7132ZM594.253 -11.3922L605.918 -65.2569L635.314 -23.0775L594.253 -11.3922Z" fill="#DA8013"/>
<path d="M618.71 4.82895C618.667 4.86764 618.667 4.86764 618.663 4.94886C618.659 5.03007 618.779 5.07647 618.822 5.03779L655.885 -0.528591C655.966 -0.524734 656.012 -0.64464 655.974 -0.687178C655.978 -0.768397 655.858 -0.81479 655.815 -0.776109L618.752 4.79028L618.71 4.82895Z" fill="#DA8013"/>
<path d="M635.438 -23.1123C635.438 -23.1123 635.476 -23.0697 635.438 -23.1123L618.628 4.82512C618.586 4.8638 618.582 4.94502 618.621 4.98756C618.659 5.0301 618.698 5.07263 618.74 5.03395L655.803 -0.532393C655.846 -0.571073 655.927 -0.567221 655.889 -0.609759C655.931 -0.64844 655.892 -0.690979 655.854 -0.733517L635.519 -23.1084C635.48 -23.151 635.48 -23.151 635.399 -23.1548C635.519 -23.1084 635.48 -23.1509 635.438 -23.1123ZM619.038 4.76319L635.585 -22.7797L655.61 -0.745082L619.038 4.76319Z" fill="#DA8013"/>
<path d="M667.692 -33.6286L667.649 -33.5899L655.688 -0.660146C655.684 -0.578928 655.68 -0.497719 655.761 -0.49386L697.995 21.8627C698.034 21.9052 698.115 21.9091 698.157 21.8704C698.2 21.8317 698.204 21.7505 698.165 21.708L667.854 -33.6209C667.815 -33.6634 667.777 -33.706 667.734 -33.6673C667.734 -33.6673 667.734 -33.6673 667.692 -33.6286ZM656.055 -0.683399L667.834 -33.2148L697.771 21.445L656.055 -0.683399Z" fill="#DA8013"/>
<path d="M619.599 5.80734C619.088 6.2715 618.357 6.23679 617.893 5.72634C617.429 5.21588 617.464 4.48492 617.975 4.02076C618.486 3.55659 619.217 3.59131 619.681 4.10176C620.145 4.61221 620.109 5.34317 619.599 5.80734Z" fill="#DA8013"/>
<path d="M654.574 -2.05587C655.383 -2.79081 656.601 -2.73295 657.336 -1.92473C658.07 -1.11652 658.012 0.101765 657.203 0.836704C656.394 1.57164 655.176 1.51379 654.441 0.705569C653.707 -0.102649 653.765 -1.32093 654.574 -2.05587Z" fill="#DA8013"/>
<path d="M698.857 22.5551C698.389 22.9806 697.701 22.9072 697.314 22.4818C696.889 22.0139 696.963 21.3255 697.388 20.9387C697.856 20.5132 698.545 20.5866 698.931 21.0119C699.318 21.4373 699.283 22.1683 698.857 22.5551Z" fill="#DA8013"/>
</g>
</g>
<defs>
<clipPath id="clip0">
<rect width="2001" height="880" fill="white" transform="translate(-17 -509)"/>
</clipPath>
</defs>
</svg>
