<svg width="1920" height="180" viewBox="0 0 1920 180" fill="none" xmlns="http://www.w3.org/2000/svg">
<g opacity="0.4">
<path d="M490.632 184.132C491.986 184.132 493.07 185.213 493.07 186.566C493.07 187.918 491.986 189 490.632 189C489.563 189 488.663 188.326 488.331 187.377C488.243 187.124 488.194 186.851 488.194 186.566C488.194 186.38 488.215 186.199 488.254 186.025C488.498 184.936 489.464 184.132 490.632 184.132Z" fill="white"/>
<path d="M371.452 102.992C372.536 101.91 374.161 101.91 374.974 102.992C376.057 104.074 376.057 105.697 374.974 106.508C374.049 107.431 372.73 107.567 371.858 106.914C371.708 106.802 371.572 106.667 371.452 106.508C371.262 106.318 371.106 106.112 370.982 105.896C370.402 104.882 370.559 103.661 371.452 102.992Z" fill="white"/>
<path d="M35.5812 41.3271H196.745L225.727 12.3875H577.308L606.019 41.3271L607.103 40.2452L577.849 11.0352H225.185L196.203 39.9748H35.5812V41.3271Z" fill="white"/>
<path d="M608.187 38.8929C609.27 39.9747 609.27 41.5975 608.187 42.4089C607.103 43.4907 605.478 43.4907 604.666 42.4089C603.582 41.327 603.582 39.7042 604.666 38.8929C605.478 37.811 607.103 37.811 608.187 38.8929Z" fill="white"/>
<path d="M264.26 43.7247L294.055 73.2053H457.927L483.117 48.0521H553.271V49.4044H483.659L458.469 74.5576H293.513L263.447 44.5361L264.26 43.7247Z" fill="white"/>
<path d="M552.999 46.1588C554.353 46.1588 555.437 47.2407 555.437 48.593C555.437 49.9453 554.353 51.0272 552.999 51.0272C551.645 51.0272 550.561 49.9453 550.561 48.593C550.561 47.2407 551.645 46.1588 552.999 46.1588Z" fill="white"/>
<path d="M265.885 42.3722C264.801 41.2904 263.176 41.2904 262.363 42.3722C261.28 43.454 261.28 45.0768 262.363 45.8882C263.447 46.97 265.072 46.97 265.885 45.8882C266.697 45.0768 266.697 43.454 265.885 42.3722Z" fill="white"/>
<path d="M541.283 132.743H412.623L386.349 158.978H199.454V160.33H386.891L413.165 134.095H541.283V132.743Z" fill="white"/>
<path d="M199.725 157.085C198.37 157.085 197.287 158.167 197.287 159.519C197.287 160.872 198.37 161.953 199.725 161.953C201.079 161.953 202.162 160.872 202.162 159.519C202.162 158.167 201.079 157.085 199.725 157.085Z" fill="white"/>
<path d="M541.283 131.12C542.638 131.12 543.721 132.202 543.721 133.554C543.721 134.907 542.638 135.988 541.283 135.988C539.929 135.988 538.845 134.907 538.845 133.554C538.574 132.202 539.929 131.12 541.283 131.12Z" fill="white"/>
<path d="M110.611 112.188H-24.5418L-24.0001 113.541H110.069L184.285 187.377H488.331C488.243 187.124 488.194 186.851 488.194 186.566C488.194 186.38 488.215 186.199 488.254 186.025H184.827L110.611 112.188Z" fill="white"/>
<path d="M117.924 90.5509H-31.8545L-31.3128 91.9032H117.383L158.825 133.284H345.449L371.858 106.914C371.708 106.802 371.572 106.667 371.452 106.508C371.262 106.318 371.106 106.112 370.982 105.896L344.908 131.932H159.366L117.924 90.5509Z" fill="white"/>
</g>
<g opacity="0.4">
<path d="M1916.05 15.8497H1798.49L1777.35 36.9809H1520.89L1499.95 15.8497L1499.16 16.6397L1520.49 37.9683H1777.74L1798.88 16.8372H1916.05V15.8497Z" fill="white"/>
<path d="M1498.37 17.6272C1497.58 16.8372 1497.58 15.6523 1498.37 15.0599C1499.16 14.2699 1500.34 14.2699 1500.93 15.0599C1501.72 15.8498 1501.72 17.0347 1500.93 17.6272C1500.34 18.4171 1499.16 18.4171 1498.37 17.6272Z" fill="white"/>
<path d="M1749.24 14.0991L1727.51 -7.42711H1607.97L1589.6 10.9392H1538.42V9.95181H1589.2L1607.58 -8.41455H1727.9L1749.83 13.5066L1749.24 14.0991Z" fill="white"/>
<path d="M1538.62 12.3217C1537.63 12.3217 1536.84 11.5317 1536.84 10.5443C1536.84 9.55687 1537.63 8.76691 1538.62 8.76691C1539.61 8.76691 1540.4 9.55687 1540.4 10.5443C1540.4 11.5317 1539.61 12.3217 1538.62 12.3217Z" fill="white"/>
<path d="M1748.05 15.0866C1748.84 15.8766 1750.03 15.8766 1750.62 15.0866C1751.41 14.2967 1751.41 13.1118 1750.62 12.5193C1749.83 11.7294 1748.65 11.7294 1748.05 12.5193C1747.46 13.1118 1747.46 14.2967 1748.05 15.0866Z" fill="white"/>
<path d="M1959.8 88.0136L1960.39 87.4211L1938.46 65.5H1818.14L1799.76 83.8663H1748.99V84.8538H1800.16L1818.53 66.4874H1938.07L1959.8 88.0136Z" fill="white"/>
<path d="M1749.18 82.4838C1748.2 82.4838 1747.41 83.2738 1747.41 84.2612C1747.41 85.2486 1748.2 86.0386 1749.18 86.0386C1750.17 86.0386 1750.96 85.2486 1750.96 84.2612C1750.96 83.2738 1750.17 82.4838 1749.18 82.4838Z" fill="white"/>
<path d="M1961.38 86.2358C1962.17 87.0257 1962.17 88.2107 1961.38 88.8031C1960.59 89.5931 1959.41 89.5931 1958.81 88.8031C1958.02 88.0132 1958.02 86.8282 1958.81 86.2358C1959.41 85.6433 1960.59 85.6433 1961.38 86.2358Z" fill="white"/>
<path d="M1498.36 182.135C1497.57 182.925 1497.57 184.11 1498.36 184.703C1499.16 185.493 1500.34 185.493 1500.93 184.703C1501.57 184.069 1501.69 183.181 1501.31 182.549C1501.22 182.393 1501.09 182.253 1500.93 182.135C1500.82 182.048 1500.69 181.974 1500.56 181.913C1499.81 181.556 1498.87 181.63 1498.36 182.135Z" fill="white"/>
<path d="M1833.66 105.115H1825.75L1798.09 132.763H1749.09L1714.71 98.4004H1593.6L1579.17 83.9838H1499.35V82.9963H1579.57L1593.99 97.413H1715.11L1749.49 131.776H1797.7L1825.36 104.128H1833.66V105.115Z" fill="white"/>
<path d="M1499.55 81.6136C1498.56 81.6136 1497.77 82.4035 1497.77 83.391C1497.77 84.3784 1498.56 85.1684 1499.55 85.1684C1500.54 85.1684 1501.33 84.3784 1501.33 83.391C1501.33 82.4035 1500.54 81.6136 1499.55 81.6136Z" fill="white"/>
<path d="M1563.57 131.38H1691V130.393H1563.96L1539.07 105.51L1538.28 106.102L1563.57 131.38Z" fill="white"/>
<path d="M1691 132.763C1691.99 132.763 1692.78 131.973 1692.78 130.986C1692.78 129.998 1691.99 129.208 1691 129.208C1690.02 129.208 1689.23 129.998 1689.23 130.986C1689.23 131.973 1690.02 132.763 1691 132.763Z" fill="white"/>
<path d="M1537.49 107.089C1536.7 106.3 1536.7 105.115 1537.49 104.522C1538.28 103.732 1539.46 103.732 1540.05 104.522C1540.84 105.312 1540.84 106.497 1540.05 107.089C1539.26 107.879 1538.08 107.879 1537.49 107.089Z" fill="white"/>
<path d="M1748.3 166.929L1782.68 201.094L1783.08 200.107L1748.7 165.941H1516.54L1500.56 181.913C1500.69 181.974 1500.82 182.048 1500.93 182.135C1501.09 182.253 1501.22 182.393 1501.31 182.549L1516.94 166.929H1748.3Z" fill="white"/>
</g>
<g opacity="0.1" clip-path="url(#clip0)">
<path d="M584.418 -114.05H1317.48L1404.51 -200.516H1763.42V-202.1H1403.87L1316.84 -115.634H585.053L498.026 -202.1H138.483V-200.516H497.391L584.418 -114.05Z" fill="white"/>
<path d="M1763.1 -198.299C1764.68 -198.299 1765.96 -199.566 1765.96 -201.149C1765.96 -202.733 1764.68 -204 1763.1 -204C1761.51 -204 1760.24 -202.733 1760.24 -201.149C1760.24 -199.566 1761.51 -198.299 1763.1 -198.299Z" fill="white"/>
<path d="M138.8 -198.299C137.212 -198.299 135.942 -199.566 135.942 -201.149C135.942 -202.733 137.212 -204 138.8 -204C140.388 -204 141.659 -202.733 141.659 -201.149C141.659 -199.566 140.388 -198.299 138.8 -198.299Z" fill="white"/>
<path d="M575.842 -88.7122H1326.05L1374.65 -137.171H1592.22L1624.93 -104.548L1626.2 -105.815L1592.85 -138.755H1374.02L1325.42 -90.2958H576.477L527.882 -138.755H309.043L276.011 -105.815L276.964 -104.548L309.678 -137.171H527.246L575.842 -88.7122Z" fill="white"/>
<path d="M1623.35 -103.281C1624.62 -102.014 1626.52 -102.014 1627.47 -103.281C1628.74 -104.548 1628.74 -106.448 1627.47 -107.398C1626.2 -108.665 1624.3 -108.665 1623.35 -107.398C1622.07 -106.132 1622.07 -104.231 1623.35 -103.281Z" fill="white"/>
<path d="M278.551 -103.281C277.281 -102.014 275.375 -102.014 274.422 -103.281C273.152 -104.548 273.152 -106.448 274.422 -107.398C275.693 -108.665 277.599 -108.665 278.551 -107.398C279.822 -106.132 279.822 -104.231 278.551 -103.281Z" fill="white"/>
<path d="M0.00110674 -63.6916H267.753L300.467 -96.631H525.658L557.42 -64.9585H1344.48L1376.24 -96.631H1601.43L1634.14 -63.6916H1920V-62.108H1633.51L1600.79 -95.0473H1376.87L1345.11 -63.3749H556.785L525.023 -95.0473H301.103L268.388 -62.108H0.00110674V-63.6916Z" fill="white"/>
<path d="M0.00110674 4.40466H157.857L184.855 31.3262H640.318L711.465 -39.62H1190.43L1261.58 31.3262H1717.04L1744.04 4.40466H1920V5.9883H1744.68L1717.68 32.9099H1260.94L1189.8 -38.0364H712.1L640.953 32.9099H184.219L157.222 5.9883H0.00110674V4.40466Z" fill="white"/>
<path d="M699.078 11.6886H874.085L898.224 -12.6991H1003.67L1027.81 11.6886H1202.82L1178.68 -12.3824L1177.41 -11.4323L1199.01 10.105H1028.45L1004.31 -14.2828H897.589L873.45 10.105H702.889L724.487 -11.4323L723.534 -12.3824L699.078 11.6886Z" fill="white"/>
<path d="M1180.27 -13.9657C1179 -15.2326 1177.09 -15.2326 1176.14 -13.9657C1174.87 -12.6988 1174.87 -10.7984 1176.14 -9.84827C1177.41 -8.58138 1179.32 -8.58138 1180.27 -9.84827C1181.22 -10.7984 1181.22 -12.6988 1180.27 -13.9657Z" fill="white"/>
<path d="M721.63 -13.9657C722.9 -15.2326 724.806 -15.2326 725.759 -13.9657C727.029 -12.6988 727.029 -10.7984 725.759 -9.84827C724.488 -8.58138 722.582 -8.58138 721.63 -9.84827C720.677 -10.7984 720.677 -12.6988 721.63 -13.9657Z" fill="white"/>
<path d="M672.08 36.0769H875.038L898.224 12.6393H1003.67L1026.86 36.0769H1229.82V34.4932H1027.49L1004.31 11.0556H897.589L874.403 34.4932H672.08V36.0769Z" fill="white"/>
<path d="M1229.5 37.9771C1231.09 37.9771 1232.36 36.7102 1232.36 35.1266C1232.36 33.543 1231.09 32.276 1229.5 32.276C1227.91 32.276 1226.64 33.543 1226.64 35.1266C1226.64 36.7102 1227.91 37.9771 1229.5 37.9771Z" fill="white"/>
<path d="M672.398 37.9771C670.81 37.9771 669.539 36.7102 669.539 35.1266C669.539 33.543 670.81 32.276 672.398 32.276C673.986 32.276 675.256 33.543 675.256 35.1266C675.256 36.7102 673.986 37.9771 672.398 37.9771Z" fill="white"/>
<path d="M901.083 36.3943H1001.13V37.978H901.083V36.3943Z" fill="white"/>
<path d="M1000.81 40.1948C1002.4 40.1948 1003.67 38.928 1003.67 37.3443C1003.67 35.7607 1002.4 34.4938 1000.81 34.4938C999.226 34.4938 997.956 35.7607 997.956 37.3443C997.956 38.928 999.226 40.1948 1000.81 40.1948Z" fill="white"/>
<path d="M901.083 40.1949C899.495 40.1949 898.224 38.928 898.224 37.3444C898.224 35.7608 899.495 34.4939 901.083 34.4939C902.671 34.4939 903.941 35.7608 903.941 37.3444C903.941 38.928 902.671 40.1949 901.083 40.1949Z" fill="white"/>
<path d="M877.579 61.7326H1024.32V63.3162H877.579V61.7326Z" fill="white"/>
<path d="M1024.32 65.5327C1025.91 65.5327 1027.18 64.2658 1027.18 62.6822C1027.18 61.0986 1025.91 59.8316 1024.32 59.8316C1022.73 59.8316 1021.46 61.0986 1021.46 62.6822C1021.14 64.2658 1022.41 65.5327 1024.32 65.5327Z" fill="white"/>
<path d="M877.578 65.5328C875.99 65.5328 874.72 64.2659 874.72 62.6823C874.72 61.0986 875.99 59.8317 877.578 59.8317C879.167 59.8317 880.437 61.0986 880.437 62.6823C880.755 64.2659 879.484 65.5328 877.578 65.5328Z" fill="white"/>
<path d="M846.769 88.6541H1055.13L1085.62 58.2485H1272.06V56.6649H1084.98L1054.49 87.0704H847.405L816.913 56.6649H629.836V58.2485H816.278L846.769 88.6541Z" fill="white"/>
<path d="M1272.06 60.1493C1273.65 60.1493 1274.92 58.8824 1274.92 57.2988C1274.92 55.7152 1273.65 54.4483 1272.06 54.4483C1270.47 54.4483 1269.2 55.7152 1269.2 57.2988C1268.88 58.8824 1270.15 60.1493 1272.06 60.1493Z" fill="white"/>
<path d="M629.837 60.149C628.249 60.149 626.979 58.8821 626.979 57.2985C626.979 55.7148 628.249 54.4479 629.837 54.4479C631.425 54.4479 632.696 55.7148 632.696 57.2985C633.013 58.8821 631.743 60.149 629.837 60.149Z" fill="white"/>
<path d="M821.361 113.992H1080.54L1111.03 83.5865H1210.76V82.0028H1110.39L1079.9 112.408H821.996L791.505 82.0028H691.138V83.5865H790.87L821.361 113.992Z" fill="white"/>
<path d="M1210.44 85.4868C1212.03 85.4868 1213.3 84.2199 1213.3 82.6363C1213.3 81.0527 1212.03 79.7858 1210.44 79.7858C1208.85 79.7858 1207.58 81.0527 1207.58 82.6363C1207.58 84.2199 1208.85 85.4868 1210.44 85.4868Z" fill="white"/>
<path d="M691.455 85.487C689.867 85.487 688.596 84.2201 688.596 82.6365C688.596 81.0529 689.867 79.7859 691.455 79.7859C693.043 79.7859 694.313 81.0529 694.313 82.6365C694.313 84.2201 693.043 85.487 691.455 85.487Z" fill="white"/>
<path d="M686.056 139.329H1215.84L1272.06 83.5858H1436.27L1461.04 58.5646H1672.26V56.981H1460.41L1435.63 82.0022H1271.42L1215.21 137.746H686.691L630.473 82.0022H466.264L441.49 56.981H229.639V58.5646H440.855L465.629 83.5858H629.837L686.056 139.329Z" fill="white"/>
<path d="M1672.26 60.7818C1673.85 60.7818 1675.12 59.515 1675.12 57.9313C1675.12 56.3477 1673.85 55.0808 1672.26 55.0808C1670.67 55.0808 1669.4 56.3477 1669.4 57.9313C1669.08 59.515 1670.35 60.7818 1672.26 60.7818Z" fill="white"/>
<path d="M229.639 60.7816C228.051 60.7816 226.78 59.5147 226.78 57.9311C226.78 56.3475 228.051 55.0806 229.639 55.0806C231.227 55.0806 232.498 56.3475 232.498 57.9311C232.815 59.5147 231.545 60.7816 229.639 60.7816Z" fill="white"/>
<path d="M686.056 164.667H1215.84L1264.76 116.209H1420.39V114.625H1264.12L1215.21 163.084H686.691L637.778 114.625H481.51V116.209H637.143L686.056 164.667Z" fill="white"/>
<path d="M1420.07 118.427C1421.66 118.427 1422.93 117.16 1422.93 115.576C1422.93 113.992 1421.66 112.726 1420.07 112.726C1418.48 112.726 1417.21 113.992 1417.21 115.576C1417.21 117.16 1418.48 118.427 1420.07 118.427Z" fill="white"/>
<path d="M481.828 118.426C480.239 118.426 478.969 117.159 478.969 115.575C478.969 113.991 480.239 112.724 481.828 112.724C483.416 112.724 484.686 113.991 484.686 115.575C484.686 117.159 483.416 118.426 481.828 118.426Z" fill="white"/>
<path d="M0.00110674 41.4617H156.587L201.688 86.7533H418.304L468.487 136.796H632.696L684.467 188.422H1217.43L1269.2 136.796H1433.41L1483.59 86.7533H1700.21L1745.63 41.4617H1920V43.0453H1746.26L1700.84 88.3369H1484.23L1434.04 138.379H1269.84L1218.06 190.005H683.832L632.06 138.379H467.852L417.668 88.3369H201.053L155.951 43.0453H0.00110674V41.4617Z" fill="white"/>
<path d="M0.00110674 177.97H629.519L665.41 213.76H1236.49L1272.38 177.97H1920V179.553H1273.01L1237.12 215.343H664.775L628.884 179.553H0.00110674V177.97Z" fill="white"/>
<path d="M281.41 298.959H700.347L758.471 240.681H1143.42L1201.55 298.959H1620.49L1682.74 236.564L1681.47 235.614L1619.85 297.375H1202.18L1144.06 239.098H757.836L699.712 297.375H282.045L220.427 235.614L219.157 236.564L281.41 298.959Z" fill="white"/>
<path d="M1684.01 238.464C1685.28 237.198 1685.28 235.297 1684.01 234.347C1682.74 233.08 1680.83 233.08 1679.88 234.347C1678.61 235.614 1678.61 237.514 1679.88 238.464C1681.15 239.415 1683.06 239.415 1684.01 238.464Z" fill="white"/>
<path d="M217.887 238.464C216.617 237.198 216.617 235.297 217.887 234.347C219.158 233.08 221.063 233.08 222.016 234.347C223.287 235.614 223.287 237.514 222.016 238.464C220.746 239.415 218.84 239.415 217.887 238.464Z" fill="white"/>
<path d="M755.613 281.855L771.176 266.019H1130.72L1146.28 281.855L1147.55 280.588L1131.35 264.435H770.541L754.342 280.588L755.613 281.855Z" fill="white"/>
<path d="M1144.7 283.122C1145.97 284.389 1147.87 284.389 1148.82 283.122C1150.09 281.855 1150.09 279.955 1148.82 279.005C1147.55 277.738 1145.65 277.738 1144.7 279.005C1143.42 280.271 1143.42 282.172 1144.7 283.122Z" fill="white"/>
<path d="M757.203 283.122C755.932 284.389 754.026 284.389 753.074 283.122C751.803 281.855 751.803 279.955 753.074 279.005C754.344 277.738 756.25 277.738 757.203 279.005C758.473 280.271 758.473 282.172 757.203 283.122Z" fill="white"/>
<path d="M807.703 289.773H1094.19V291.357H807.703V289.773Z" fill="white"/>
<path d="M1094.19 293.575C1095.78 293.575 1097.05 292.308 1097.05 290.724C1097.05 289.141 1095.78 287.874 1094.19 287.874C1092.61 287.874 1091.34 289.141 1091.34 290.724C1091.02 292.308 1092.29 293.575 1094.19 293.575Z" fill="white"/>
<path d="M807.703 293.574C806.115 293.574 804.844 292.307 804.844 290.723C804.844 289.14 806.115 287.873 807.703 287.873C809.291 287.873 810.561 289.14 810.561 290.723C810.879 292.307 809.609 293.574 807.703 293.574Z" fill="white"/>
<path d="M277.915 371.488L332.863 316.694H1569.03L1623.98 371.488L1624.93 370.538L1569.67 315.111H332.228L276.962 370.538L277.915 371.488Z" fill="white"/>
<path d="M1622.07 373.071C1623.34 374.338 1625.25 374.338 1626.2 373.071C1627.47 371.804 1627.47 369.904 1626.2 368.954C1624.93 367.687 1623.03 367.687 1622.07 368.954C1621.12 369.904 1621.12 371.804 1622.07 373.071Z" fill="white"/>
<path d="M279.82 373.071C278.55 374.338 276.644 374.338 275.691 373.071C274.421 371.804 274.421 369.904 275.691 368.954C276.962 367.687 278.868 367.687 279.82 368.954C280.773 369.904 280.773 371.804 279.82 373.071Z" fill="white"/>
<path d="M542.81 340.45H1358.77V342.033H542.81V340.45Z" fill="white"/>
<path d="M1358.77 344.251C1360.36 344.251 1361.63 342.984 1361.63 341.401C1361.63 339.817 1360.36 338.55 1358.77 338.55C1357.18 338.55 1355.91 339.817 1355.91 341.401C1355.91 342.984 1357.18 344.251 1358.77 344.251Z" fill="white"/>
<path d="M543.128 344.25C541.54 344.25 540.269 342.983 540.269 341.4C540.269 339.816 541.54 338.549 543.128 338.549C544.716 338.549 545.987 339.816 545.987 341.4C546.304 342.983 544.716 344.25 543.128 344.25Z" fill="white"/>
<path d="M359.862 367.371H1542.03L1564.59 344.884L1563.63 343.933L1541.4 365.787H360.497L338.264 343.933L337.311 344.884L359.862 367.371Z" fill="white"/>
<path d="M1566.17 346.469C1567.44 345.202 1567.44 343.302 1566.17 342.351C1564.9 341.084 1563 341.084 1562.04 342.351C1560.77 343.618 1560.77 345.519 1562.04 346.469C1563 347.736 1564.9 347.736 1566.17 346.469Z" fill="white"/>
<path d="M335.722 346.467C334.452 345.2 334.452 343.3 335.722 342.35C336.993 341.083 338.898 341.083 339.851 342.35C341.122 343.617 341.122 345.517 339.851 346.467C338.898 347.734 336.993 347.734 335.722 346.467Z" fill="white"/>
<path d="M382.094 418.996L383.047 418.046L357.956 392.708H1543.94L1518.85 418.046L1520.12 418.996L1547.75 391.125H354.144L382.094 418.996Z" fill="white"/>
<path d="M1517.26 416.146C1515.99 417.413 1515.99 419.313 1517.26 420.264C1518.53 421.531 1520.44 421.531 1521.39 420.264C1522.66 418.997 1522.66 417.096 1521.39 416.146C1520.44 415.196 1518.53 415.196 1517.26 416.146Z" fill="white"/>
<path d="M384.636 416.146C385.906 417.413 385.906 419.313 384.636 420.264C383.365 421.531 381.46 421.531 380.507 420.264C379.236 418.997 379.236 417.096 380.507 416.146C381.46 415.196 383.365 415.196 384.636 416.146Z" fill="white"/>
<path d="M332.229 447.819H570.125L599.663 418.047H1302.23L1331.77 447.819H1569.67L1623.66 393.976H1843.77V392.392H1623.03L1569.03 446.235H1332.41L1302.87 416.463H599.028L569.49 446.235H332.864L278.869 392.392H58.125V393.976H278.234L332.229 447.819Z" fill="white"/>
<path d="M1843.77 395.876C1845.36 395.876 1846.63 394.609 1846.63 393.026C1846.63 391.442 1845.36 390.175 1843.77 390.175C1842.18 390.175 1840.91 391.442 1840.91 393.026C1840.6 394.609 1841.87 395.876 1843.77 395.876Z" fill="white"/>
<path d="M58.1245 395.876C56.5365 395.876 55.2661 394.609 55.2661 393.026C55.2661 391.442 56.5365 390.175 58.1245 390.175C59.7126 390.175 60.9831 391.442 60.9831 393.026C61.3007 394.609 60.0302 395.876 58.1245 395.876Z" fill="white"/>
<path d="M283.634 483.608H597.758L637.778 443.384H1264.12L1304.14 483.608H1618.26L1663.05 438.95L1662.09 437.683L1617.63 482.024H1304.77L1264.75 441.8H637.143L597.123 482.024H284.269L239.803 437.683L238.85 438.95L283.634 483.608Z" fill="white"/>
<path d="M1664.64 440.534C1665.91 439.267 1665.91 437.366 1664.64 436.416C1663.36 435.149 1661.46 435.149 1660.51 436.416C1659.24 437.683 1659.24 439.583 1660.51 440.534C1661.46 441.8 1663.36 441.8 1664.64 440.534Z" fill="white"/>
<path d="M237.261 440.533C235.991 439.267 235.991 437.366 237.261 436.416C238.532 435.149 240.438 435.149 241.39 436.416C242.661 437.683 242.661 439.583 241.39 440.533C240.438 441.8 238.532 441.8 237.261 440.533Z" fill="white"/>
<path d="M282.682 524.783H598.712L654.93 468.722H1246.97L1303.19 524.783H1619.22V523.199H1303.82L1247.6 467.139H654.295L598.077 523.199H282.682V524.783Z" fill="white"/>
<path d="M1619.22 527C1620.81 527 1622.08 525.733 1622.08 524.15C1622.08 522.566 1620.81 521.299 1619.22 521.299C1617.63 521.299 1616.36 522.566 1616.36 524.15C1616.36 525.733 1617.63 527 1619.22 527Z" fill="white"/>
<path d="M282.682 527C281.094 527 279.824 525.733 279.824 524.15C279.824 522.566 281.094 521.299 282.682 521.299C284.27 521.299 285.541 522.566 285.541 524.15C285.858 525.733 284.27 527 282.682 527Z" fill="white"/>
<path d="M0.00107015 -31.069H188.984L222.969 2.82047H635.236L668.904 -31.069L670.174 -29.8022L635.872 4.40408H222.333L188.348 -29.4854H0.00107015V-31.069Z" fill="white"/>
<path d="M671.445 -28.2184C672.716 -29.4852 672.716 -31.3856 671.445 -32.3358C670.175 -33.6027 668.269 -33.6027 667.316 -32.3358C666.046 -31.0689 666.046 -29.1685 667.316 -28.2184C668.269 -26.9514 670.175 -26.9514 671.445 -28.2184Z" fill="white"/>
<path d="M1232.99 -31.0686L1266.66 2.82086H1678.93L1712.91 -31.0686H1920V-29.485H1713.55L1679.56 4.40448H1266.03L1232.04 -29.8018L1232.99 -31.0686Z" fill="white"/>
<path d="M1234.58 -32.3354C1233.31 -33.6023 1231.4 -33.6023 1230.45 -32.3354C1229.18 -31.0685 1229.18 -29.1682 1230.45 -28.218C1231.72 -26.9511 1233.63 -26.9511 1234.58 -28.218C1235.85 -29.4849 1235.85 -31.3852 1234.58 -32.3354Z" fill="white"/>
<path d="M274.741 -24.4173L309.679 -58.9402H501.838L531.376 -29.4849H613.639V-31.0685H532.012L502.473 -60.5238H309.044L273.788 -25.3674L274.741 -24.4173Z" fill="white"/>
<path d="M613.321 -27.2681C614.909 -27.2681 616.18 -28.535 616.18 -30.1186C616.18 -31.7022 614.909 -32.9691 613.321 -32.9691C611.733 -32.9691 610.462 -31.7022 610.462 -30.1186C610.462 -28.535 611.733 -27.2681 613.321 -27.2681Z" fill="white"/>
<path d="M276.647 -22.8333C275.376 -21.5664 273.471 -21.5664 272.518 -22.8333C271.248 -24.1002 271.248 -26.0005 272.518 -26.9507C273.788 -28.2176 275.694 -28.2176 276.647 -26.9507C277.6 -26.0005 277.6 -24.1002 276.647 -22.8333Z" fill="white"/>
<path d="M1627.16 -24.4173L1628.11 -25.3674L1592.85 -60.5238H1399.43L1369.89 -31.0685H1288.26V-29.4849H1370.52L1400.06 -58.9402H1592.22L1627.16 -24.4173Z" fill="white"/>
<path d="M1288.58 -33.2856C1286.99 -33.2856 1285.72 -32.0187 1285.72 -30.4351C1285.72 -28.8514 1286.99 -27.5845 1288.58 -27.5845C1290.16 -27.5845 1291.44 -28.8514 1291.44 -30.4351C1291.44 -32.0187 1290.16 -33.2856 1288.58 -33.2856Z" fill="white"/>
<path d="M1629.7 -27.2682C1630.97 -26.0013 1630.97 -24.101 1629.7 -23.1508C1628.43 -21.8839 1626.52 -21.8839 1625.57 -23.1508C1624.3 -24.4177 1624.3 -26.3181 1625.57 -27.2682C1626.52 -28.2184 1628.43 -28.2184 1629.7 -27.2682Z" fill="white"/>
<path d="M7.7724e-05 209.642H256.635L311.901 264.435H683.831L711.146 237.197L712.417 238.147L684.466 266.019H311.265L256 211.226H7.7724e-05V209.642Z" fill="white"/>
<path d="M713.688 240.047C714.958 238.78 714.958 236.88 713.688 235.93C712.417 234.663 710.511 234.663 709.558 235.93C708.288 237.197 708.288 239.097 709.558 240.047C710.829 240.997 712.735 240.997 713.688 240.047Z" fill="white"/>
<path d="M1190.75 237.197L1218.06 264.435H1590L1645.26 209.642H1920V211.226H1645.9L1590.63 266.019H1217.43L1189.48 238.147L1190.75 237.197Z" fill="white"/>
<path d="M1192.34 235.613C1191.07 234.346 1189.16 234.346 1188.21 235.613C1186.94 236.88 1186.94 238.781 1188.21 239.731C1189.48 240.998 1191.39 240.998 1192.34 239.731C1193.61 238.781 1193.61 236.88 1192.34 235.613Z" fill="white"/>
<path d="M652.069 238.464L653.022 237.514L627.295 211.859H312.218V213.443H626.66L652.069 238.464Z" fill="white"/>
<path d="M650.164 240.047C651.435 241.314 653.341 241.314 654.293 240.047C655.564 238.78 655.564 236.88 654.293 235.93C653.023 234.663 651.117 234.663 650.164 235.93C649.212 236.88 649.212 238.78 650.164 240.047Z" fill="white"/>
<path d="M312.22 215.343C310.632 215.343 309.362 214.076 309.362 212.493C309.362 210.909 310.632 209.642 312.22 209.642C313.808 209.642 315.079 210.909 315.079 212.493C315.396 214.076 314.126 215.343 312.22 215.343Z" fill="white"/>
<path d="M1250.14 238.464L1275.24 213.443H1589.68V211.859H1274.6L1248.87 237.514L1250.14 238.464Z" fill="white"/>
<path d="M1247.29 235.614C1246.01 236.881 1246.01 238.781 1247.29 239.731C1248.56 240.998 1250.46 240.998 1251.41 239.731C1252.68 238.464 1252.68 236.564 1251.41 235.614C1250.46 234.663 1248.56 234.663 1247.29 235.614Z" fill="white"/>
<path d="M1589.68 209.642C1591.27 209.642 1592.54 210.909 1592.54 212.493C1592.54 214.076 1591.27 215.343 1589.68 215.343C1588.09 215.343 1586.82 214.076 1586.82 212.493C1586.5 210.909 1587.77 209.642 1589.68 209.642Z" fill="white"/>
<path d="M79.4058 -138.121H230.274L261.083 -168.843H480.239V-170.427H260.448L229.639 -139.704H79.4058V-138.121Z" fill="white"/>
<path d="M479.922 -166.626C481.51 -166.626 482.78 -167.893 482.78 -169.477C482.78 -171.06 481.51 -172.327 479.922 -172.327C478.334 -172.327 477.063 -171.06 477.063 -169.477C477.063 -167.893 478.334 -166.626 479.922 -166.626Z" fill="white"/>
<path d="M79.4059 -136.22C77.8178 -136.22 76.5473 -137.487 76.5473 -139.071C76.5473 -140.655 77.8178 -141.921 79.4059 -141.921C80.994 -141.921 82.2645 -140.655 82.2645 -139.071C82.5822 -137.487 80.994 -136.22 79.4059 -136.22Z" fill="white"/>
<path d="M1671.62 -138.121H1822.49V-139.705H1672.26L1641.45 -170.427H1421.66V-168.843H1640.82L1671.62 -138.121Z" fill="white"/>
<path d="M1421.98 -172.644C1420.39 -172.644 1419.12 -171.377 1419.12 -169.793C1419.12 -168.21 1420.39 -166.943 1421.98 -166.943C1423.56 -166.943 1424.83 -168.21 1424.83 -169.793C1424.83 -171.377 1423.56 -172.644 1421.98 -172.644Z" fill="white"/>
<path d="M1822.49 -141.921C1824.08 -141.921 1825.35 -140.655 1825.35 -139.071C1825.35 -137.487 1824.08 -136.22 1822.49 -136.22C1820.9 -136.22 1819.63 -137.487 1819.63 -139.071C1819.63 -140.655 1820.9 -141.921 1822.49 -141.921Z" fill="white"/>
<path d="M0.00170987 118.742H12.7064L57.1729 74.4006H135.942L191.208 129.511H385.907L409.093 152.632H537.411V154.215H408.458L385.272 131.094H190.572L135.307 75.9842H57.8082L13.3417 120.326H0.00170987V118.742Z" fill="white"/>
<path d="M537.092 156.433C538.681 156.433 539.951 155.166 539.951 153.582C539.951 151.998 538.681 150.732 537.092 150.732C535.504 150.732 534.234 151.998 534.234 153.582C534.234 155.166 535.504 156.433 537.092 156.433Z" fill="white"/>
<path d="M1492.8 152.632L1515.99 129.511H1710.69L1765.96 74.4006H1844.72L1889.19 118.742H1920V120.326H1888.56L1844.09 75.9842H1766.59L1711.33 131.094H1516.63L1493.44 154.215H1364.49V152.632H1492.8Z" fill="white"/>
<path d="M1364.8 150.415C1363.22 150.415 1361.95 151.682 1361.95 153.265C1361.95 154.849 1363.22 156.116 1364.8 156.116C1366.39 156.116 1367.66 154.849 1367.66 153.265C1367.66 151.682 1366.39 150.415 1364.8 150.415Z" fill="white"/>
<path d="M105.768 154.215H310.631V152.631H106.403L66.3832 112.724L65.1126 113.674L105.768 154.215Z" fill="white"/>
<path d="M310.631 156.432C312.219 156.432 313.49 155.165 313.49 153.582C313.49 151.998 312.219 150.731 310.631 150.731C309.043 150.731 307.773 151.998 307.773 153.582C307.773 155.165 309.043 156.432 310.631 156.432Z" fill="white"/>
<path d="M63.8422 115.258C62.5717 113.991 62.5717 112.091 63.8422 111.14C65.1126 109.874 67.0185 109.874 67.9713 111.14C69.2418 112.407 69.2418 114.308 67.9713 115.258C66.7009 116.525 64.795 116.525 63.8422 115.258Z" fill="white"/>
<path d="M1591.27 154.215H1796.13L1836.78 113.674L1835.51 112.724L1795.49 152.632H1591.27V154.215Z" fill="white"/>
<path d="M1591.27 150.414C1589.68 150.414 1588.41 151.681 1588.41 153.265C1588.41 154.849 1589.68 156.115 1591.27 156.115C1592.85 156.115 1594.12 154.849 1594.12 153.265C1594.44 151.681 1592.85 150.414 1591.27 150.414Z" fill="white"/>
<path d="M1833.93 111.141C1835.2 109.874 1837.1 109.874 1838.05 111.141C1839.33 112.407 1839.33 114.308 1838.05 115.258C1836.78 116.525 1834.88 116.525 1833.93 115.258C1832.66 114.308 1832.66 112.407 1833.93 111.141Z" fill="white"/>
<path d="M0.0014699 87.0699H14.2942V88.6536H0.0014699V87.0699Z" fill="white"/>
<path d="M14.2931 90.8705C15.8812 90.8705 17.1518 89.6036 17.1518 88.02C17.1518 86.4363 15.8812 85.1694 14.2931 85.1694C12.705 85.1694 11.4345 86.4363 11.4345 88.02C11.1169 89.6036 12.3874 90.8705 14.2931 90.8705Z" fill="white"/>
<path d="M1887.6 87.0693H1920V88.653H1887.6V87.0693Z" fill="white"/>
<path d="M1887.6 84.8524C1886.01 84.8524 1884.74 86.1194 1884.74 87.703C1884.74 89.2866 1886.01 90.5535 1887.6 90.5535C1889.19 90.5535 1890.46 89.2866 1890.46 87.703C1890.78 86.4361 1889.51 84.8524 1887.6 84.8524Z" fill="white"/>
<path d="M0.00193748 346.784H262.354L289.987 319.545L290.94 320.496L262.989 348.367H0.00193748V346.784Z" fill="white"/>
<path d="M292.526 322.396C293.797 321.129 293.797 319.229 292.526 318.279C291.256 317.012 289.35 317.012 288.397 318.279C287.127 319.545 287.127 321.446 288.397 322.396C289.35 323.346 291.256 323.346 292.526 322.396Z" fill="white"/>
<path d="M1611.91 319.546L1639.54 346.784H1920V348.367H1638.91L1610.96 320.496L1611.91 319.546Z" fill="white"/>
<path d="M1613.82 317.962C1612.55 316.695 1610.64 316.695 1609.69 317.962C1608.42 319.229 1608.42 321.129 1609.69 322.079C1610.96 323.346 1612.86 323.346 1613.82 322.079C1614.77 321.129 1614.77 319.229 1613.82 317.962Z" fill="white"/>
<path d="M0 261.268H200.734L246.471 307.193L245.518 308.143L200.099 262.851H0V261.268Z" fill="white"/>
<path d="M243.613 309.726C244.884 310.993 246.789 310.993 247.742 309.726C249.013 308.46 249.013 306.559 247.742 305.609C246.472 304.342 244.566 304.342 243.613 305.609C242.66 306.559 242.66 308.46 243.613 309.726Z" fill="white"/>
<path d="M1701.16 261.268H1920V262.851H1701.8L1656.69 308.143L1655.42 307.193L1701.16 261.268Z" fill="white"/>
<path d="M1653.84 305.292C1652.57 306.559 1652.57 308.46 1653.84 309.41C1655.11 310.677 1657.01 310.677 1657.96 309.41C1659.23 308.143 1659.23 306.243 1657.96 305.292C1657.01 304.342 1655.11 304.342 1653.84 305.292Z" fill="white"/>
<path d="M0.000232682 310.994H204.864V312.578H0.000232682V310.994Z" fill="white"/>
<path d="M204.863 314.794C206.452 314.794 207.722 313.528 207.722 311.944C207.722 310.36 206.452 309.093 204.863 309.093C203.275 309.093 202.005 310.36 202.005 311.944C201.687 313.528 202.958 314.794 204.863 314.794Z" fill="white"/>
<path d="M1697.03 310.993H1920V312.577H1697.03V310.993Z" fill="white"/>
<path d="M1697.03 308.776C1695.44 308.776 1694.17 310.043 1694.17 311.627C1694.17 313.21 1695.44 314.477 1697.03 314.477C1698.62 314.477 1699.89 313.21 1699.89 311.627C1700.21 310.043 1698.94 308.776 1697.03 308.776Z" fill="white"/>
</g>
<defs>
<clipPath id="clip0">
<rect width="1920" height="180" fill="white"/>
</clipPath>
</defs>
</svg>
