<svg width="20" height="19" fill="none" xmlns="http://www.w3.org/2000/svg"><path fill-rule="evenodd" clip-rule="evenodd" d="M4.99 2.781c0 1.177-.887 2.119-2.31 2.119h-.025C1.285 4.9.4 3.958.4 2.78.4 1.58 1.312.664 2.708.664c1.395 0 2.255.915 2.281 2.117zm-.27 3.791V18.83H.641V6.572h4.08zM19.431 18.83V11.8c0-3.764-2.012-5.516-4.696-5.516-2.166 0-3.136 1.19-3.677 2.024V6.573h-4.08c.054 1.15 0 12.256 0 12.256h4.08v-6.845c0-.366.027-.732.134-.994.295-.732.966-1.49 2.093-1.49 1.477 0 2.067 1.125 2.067 2.772v6.557h4.08z" fill="#fff"/></svg>