<svg width="22" height="21" fill="none" xmlns="http://www.w3.org/2000/svg"><path fill-rule="evenodd" clip-rule="evenodd" d="M5.432 2.688c0 1.308-.984 2.354-2.564 2.354h-.03c-1.52 0-2.505-1.046-2.505-2.354C.333 1.353 1.347.336 2.898.336c1.55 0 2.505 1.017 2.534 2.352zm-.298 4.213v13.618H.602V6.9h4.532zm16.345 13.618V12.71c0-4.183-2.235-6.13-5.218-6.13-2.406 0-3.484 1.322-4.085 2.25V6.9H7.643c.06 1.278 0 13.618 0 13.618h4.533v-7.605c0-.407.03-.813.149-1.105.328-.813 1.073-1.654 2.326-1.654 1.64 0 2.296 1.248 2.296 3.078v7.286h4.532z" fill="#fff"/></svg>