<svg width="22" height="23" fill="none" xmlns="http://www.w3.org/2000/svg"><path fill-rule="evenodd" clip-rule="evenodd" d="M11.001.67c-2.897 0-3.26.012-4.398.064-1.136.052-1.91.231-2.589.495a5.223 5.223 0 00-1.89 1.23 5.236 5.236 0 00-1.23 1.89C.628 5.027.448 5.802.397 6.937.347 8.075.333 8.44.333 11.336c0 2.897.013 3.26.065 4.397.052 1.136.232 1.91.496 2.589a5.227 5.227 0 001.23 1.89 5.222 5.222 0 001.889 1.23c.678.264 1.454.444 2.589.496 1.138.052 1.501.065 4.398.065s3.26-.013 4.397-.065c1.136-.052 1.912-.232 2.59-.495a5.218 5.218 0 001.889-1.231 5.236 5.236 0 001.23-1.89c.263-.678.443-1.453.496-2.589.052-1.137.065-1.5.065-4.397 0-2.897-.014-3.26-.065-4.398-.053-1.136-.233-1.911-.495-2.59a5.235 5.235 0 00-1.231-1.889 5.213 5.213 0 00-1.89-1.23c-.68-.264-1.455-.443-2.59-.495-1.138-.052-1.5-.065-4.398-.065H11zm-.957 1.921h.957c2.848 0 3.186.01 4.31.062 1.04.047 1.605.221 1.98.367.499.193.854.425 1.227.798.373.373.604.729.798 1.227.146.375.32.94.367 1.98.051 1.124.063 1.462.063 4.309 0 2.846-.012 3.184-.063 4.308-.047 1.04-.221 1.605-.367 1.98a3.298 3.298 0 01-.798 1.226 3.299 3.299 0 01-1.226.798c-.376.146-.94.32-1.98.367-1.125.051-1.463.062-4.31.062-2.85 0-3.187-.01-4.311-.062-1.04-.048-1.605-.222-1.98-.368a3.305 3.305 0 01-1.227-.797 3.306 3.306 0 01-.799-1.226c-.146-.376-.32-.94-.367-1.98-.051-1.125-.061-1.463-.061-4.311 0-2.849.01-3.185.061-4.31.048-1.04.221-1.604.367-1.98.194-.497.425-.853.799-1.226a3.31 3.31 0 011.226-.798c.376-.147.94-.32 1.98-.368.985-.045 1.366-.058 3.354-.06v.002zm5.371 3.051a1.28 1.28 0 112.56 0 1.28 1.28 0 01-2.56 0zm-4.414.216a5.478 5.478 0 100 10.956 5.478 5.478 0 000-10.956zm3.556 5.478a3.556 3.556 0 10-7.112 0 3.556 3.556 0 007.112 0z" fill="#fff"/></svg>