<svg width="20" height="20" fill="none" xmlns="http://www.w3.org/2000/svg"><path fill-rule="evenodd" clip-rule="evenodd" d="M10 .064c-2.606 0-2.934.011-3.958.058-1.022.047-1.72.209-2.33.446a4.701 4.701 0 00-1.7 1.107 4.713 4.713 0 00-1.108 1.7c-.238.611-.4 1.309-.446 2.33C.412 6.73.4 7.057.4 9.665c0 2.606.012 2.933.058 3.957.047 1.021.209 1.72.446 2.33a4.705 4.705 0 001.107 1.7 4.7 4.7 0 001.7 1.108c.611.238 1.309.4 2.33.446 1.025.047 1.352.058 3.959.058s2.933-.011 3.957-.058c1.022-.047 1.72-.208 2.332-.446a4.697 4.697 0 001.699-1.108 4.714 4.714 0 001.108-1.7c.236-.61.398-1.309.446-2.33.046-1.024.058-1.35.058-3.958 0-2.607-.012-2.934-.058-3.958-.048-1.022-.21-1.72-.446-2.33a4.712 4.712 0 00-1.108-1.701 4.692 4.692 0 00-1.7-1.107c-.612-.237-1.31-.4-2.332-.446-1.024-.047-1.35-.058-3.958-.058H10zm-.86 1.73H10c2.564 0 2.868.01 3.88.055.936.043 1.444.2 1.783.33.448.175.767.383 1.103.719.336.336.544.656.718 1.104.132.338.288.846.33 1.782.047 1.012.057 1.316.057 3.878 0 2.562-.01 2.866-.056 3.878-.043.936-.2 1.444-.33 1.782a2.968 2.968 0 01-.72 1.103 2.969 2.969 0 01-1.102.718c-.338.132-.847.288-1.783.33-1.012.047-1.316.056-3.88.056-2.563 0-2.866-.01-3.878-.055-.936-.044-1.444-.2-1.783-.332a2.974 2.974 0 01-1.104-.718 2.975 2.975 0 01-.718-1.103c-.132-.338-.288-.846-.331-1.782-.046-1.012-.055-1.316-.055-3.88 0-2.563.009-2.866.055-3.878.043-.936.2-1.444.33-1.782.175-.448.383-.768.719-1.104a2.98 2.98 0 011.104-.718c.338-.132.847-.288 1.783-.331.885-.04 1.228-.052 3.018-.054v.002zm4.833 2.746a1.152 1.152 0 112.304 0 1.152 1.152 0 01-2.304 0zm-3.972.194a4.93 4.93 0 100 9.86 4.93 4.93 0 000-9.86zm3.2 4.93a3.2 3.2 0 10-6.4 0 3.2 3.2 0 006.4 0z" fill="#fff"/></svg>