<svg width="20" height="20" fill="none" xmlns="http://www.w3.org/2000/svg"><path fill-rule="evenodd" clip-rule="evenodd" d="M10 2c-2.172 0-2.445.01-3.298.048-.852.04-1.433.174-1.942.372a3.917 3.917 0 00-1.417.922A3.927 3.927 0 002.42 4.76c-.199.51-.333 1.09-.372 1.942C2.01 7.555 2 7.827 2 10s.01 2.444.048 3.298c.04.851.174 1.433.372 1.941.204.527.478.973.923 1.418.444.445.89.719 1.416.923.51.198 1.09.333 1.942.372C7.555 17.99 7.827 18 10 18c2.172 0 2.444-.01 3.298-.048.851-.04 1.433-.174 1.942-.372a3.914 3.914 0 001.417-.923c.445-.445.718-.891.923-1.417.197-.51.332-1.09.372-1.942.038-.853.048-1.125.048-3.298s-.01-2.445-.049-3.299c-.04-.851-.175-1.433-.371-1.941a3.926 3.926 0 00-.923-1.417 3.91 3.91 0 00-1.417-.923c-.51-.198-1.092-.333-1.944-.372C12.444 2.01 12.172 2 9.998 2h.003zm-.717 1.442h.718c2.136 0 2.389.007 3.232.046.78.035 1.204.166 1.486.275.373.145.64.318.919.598.28.28.453.547.599.92.11.282.24.705.275 1.485.038.844.047 1.097.047 3.232 0 2.135-.009 2.388-.047 3.232-.035.78-.166 1.203-.275 1.485-.145.373-.319.639-.599.919-.28.28-.546.453-.92.598-.281.11-.705.24-1.485.276-.843.038-1.096.046-3.232.046-2.137 0-2.39-.008-3.233-.046-.78-.036-1.203-.167-1.486-.276a2.478 2.478 0 01-.92-.598 2.48 2.48 0 01-.598-.92c-.11-.282-.24-.705-.276-1.485-.038-.843-.046-1.097-.046-3.233s.008-2.388.046-3.232c.036-.78.166-1.203.276-1.485.145-.373.318-.64.598-.92.28-.28.547-.453.92-.599.282-.11.706-.24 1.486-.275.738-.034 1.024-.044 2.515-.045v.002zm4.028 2.288a.96.96 0 111.92 0 .96.96 0 01-1.92 0zM10 5.892a4.109 4.109 0 100 8.217 4.109 4.109 0 000-8.217zM12.667 10a2.667 2.667 0 10-5.333 0 2.667 2.667 0 005.333 0z" fill="#fff"/></svg>