<svg width="22" height="16" fill="none" xmlns="http://www.w3.org/2000/svg"><path fill-rule="evenodd" clip-rule="evenodd" d="M9.628.013L8.218.04l-.795.022L6.41.098l-.546.025-.534.029-.515.033-.489.038-.232.021-.434.046a7.199 7.199 0 00-.996.17A2.708 2.708 0 00.78 2.397 9.62 9.62 0 00.57 3.529l-.051.428-.044.44-.036.442-.03.439-.032.63-.022.575-.016.631-.007.63.007.48.016.631.022.575.033.631.03.438.035.443.044.44.024.216.056.419c.05.34.109.655.179.925a2.709 2.709 0 001.886 1.936c.24.066.583.123.996.171l.434.046.232.02.489.039.515.033.534.03.546.024.71.027 1.185.033 1.612.028 1.278.006.723-.005 1.55-.024 1.41-.038.71-.027.545-.025.534-.029.764-.052.473-.04.434-.046c.412-.048.756-.105.996-.17a2.709 2.709 0 001.886-1.937c.084-.324.152-.713.208-1.132l.051-.428.043-.44.036-.443.03-.438.033-.63.022-.576.016-.63.006-.63-.006-.48-.016-.632-.022-.575-.033-.63-.03-.439-.036-.443-.043-.44a17.03 17.03 0 00-.024-.215l-.056-.42c-.05-.34-.109-.655-.18-.924A2.708 2.708 0 0019.336.46a7.202 7.202 0 00-.996-.17l-.434-.046a26.35 26.35 0 00-.233-.02l-.488-.039-.516-.033-.534-.03L15.123.08l-.546-.018L13.28.028l-.907-.015-1.34-.01-1.404.01zM9 11.336V4.669l5.333 3.334L9 11.336z" fill="#fff"/></svg>