<svg width="20" height="14" fill="none" xmlns="http://www.w3.org/2000/svg"><path fill-rule="evenodd" clip-rule="evenodd" d="M8.765.074l-1.27.023-.715.02-.91.032-.491.023-.48.026-.465.03-.44.034-.208.02-.391.04a6.48 6.48 0 00-.896.154A2.438 2.438 0 00.8 2.219c-.076.29-.137.641-.187 1.019l-.046.385-.04.395-.032.399-.026.394-.03.568-.02.517-.014.568-.006.568.006.431.014.568.02.518.03.568.026.394.033.399.039.395.022.194.05.377c.045.307.098.59.161.833.22.848.872 1.516 1.698 1.743.215.06.525.11.896.154l.39.04.21.02.44.034.463.03.481.026.49.023.64.024 1.066.03 1.451.024 1.15.007.651-.005 1.395-.022 1.27-.034.638-.024.49-.023.482-.026.687-.047.425-.036.391-.041c.371-.044.68-.095.896-.154A2.438 2.438 0 0019.2 11.71c.076-.29.137-.641.187-1.019l.046-.385.04-.395.032-.399.026-.394.03-.568.02-.518.014-.568.006-.567-.006-.432-.014-.568-.02-.517-.03-.568-.026-.394-.033-.399-.039-.395-.022-.195-.05-.377a7.938 7.938 0 00-.161-.832A2.438 2.438 0 0017.5.476a6.479 6.479 0 00-.896-.154l-.39-.04a24.029 24.029 0 00-.21-.02l-.44-.034-.463-.03-.481-.026-.91-.04-.491-.016L12.05.087l-.816-.013-1.206-.01-1.264.01zM8.2 10.264v-6l4.8 3-4.8 3z" fill="#fff"/></svg>