<svg width="33" height="33" viewBox="0 0 33 33" fill="none" xmlns="http://www.w3.org/2000/svg">
<path opacity="0.1" fill-rule="evenodd" clip-rule="evenodd" d="M3 16.5C3 23.9558 9.04415 30 16.5 30C23.9558 30 30 23.9558 30 16.5C30 9.04415 23.9558 3 16.5 3C9.04415 3 3 9.04415 3 16.5ZM16.5 33C7.3873 33 -3.22909e-07 25.6127 -7.21238e-07 16.5C-1.11957e-06 7.3873 7.3873 -3.22909e-07 16.5 -7.21238e-07C25.6127 -1.11957e-06 33 7.3873 33 16.5C33 25.6127 25.6127 33 16.5 33Z" fill="white"/>
<path opacity="0.1" d="M16.5 1.5C24.7843 1.5 31.5 8.21573 31.5 16.5C31.5 24.7843 24.7843 31.5 16.5 31.5C8.21573 31.5 1.5 24.7843 1.5 16.5C1.5 8.21573 8.21573 1.5 16.5 1.5Z" stroke="#F7931D" stroke-width="2"/>
<path d="M2.5 16.5C2.5 9.1043 8.23465 3.04799 15.4999 2.53517C16.0508 2.49629 16.5 2.05229 16.5 1.5C16.5 0.947717 16.0511 0.496757 15.4998 0.530753C7.12917 1.04704 0.499999 7.99936 0.499999 16.5C0.5 25.3366 7.66344 32.5 16.5 32.5L16.5 30.5C8.76801 30.5 2.5 24.232 2.5 16.5Z" fill="url(#paint0_linear)"/>
<defs>
<linearGradient id="paint0_linear" x1="7.5" y1="1.5" x2="14.5" y2="29.5" gradientUnits="userSpaceOnUse">
<stop stop-color="#F7931D"/>
<stop offset="1" stop-color="#F7931D" stop-opacity="0"/>
</linearGradient>
</defs>
</svg>
