<svg width="20" height="20" viewBox="0 0 20 20" fill="none" xmlns="http://www.w3.org/2000/svg">
<path fill-rule="evenodd" clip-rule="evenodd" d="M10.0007 2C7.828 2 7.55533 2.0095 6.702 2.04833C5.85033 2.08733 5.269 2.22217 4.76033 2.42C4.23417 2.62433 3.78783 2.89767 3.34317 3.3425C2.89817 3.78717 2.62483 4.2335 2.41983 4.7595C2.2215 5.26833 2.0865 5.84983 2.04817 6.70117C2.01 7.5545 2 7.82733 2 10C2 12.1727 2.00967 12.4445 2.04833 13.2978C2.0875 14.1495 2.22233 14.7308 2.42 15.2395C2.6245 15.7657 2.89783 16.212 3.34267 16.6567C3.78717 17.1017 4.2335 17.3757 4.75933 17.58C5.26833 17.7778 5.84983 17.9127 6.70133 17.9517C7.55467 17.9905 7.82717 18 9.99967 18C12.1725 18 12.4443 17.9905 13.2977 17.9517C14.1493 17.9127 14.7313 17.7778 15.2403 17.58C15.7663 17.3757 16.212 17.1017 16.6565 16.6567C17.1015 16.212 17.3748 15.7657 17.5798 15.2397C17.7765 14.7308 17.9115 14.1493 17.9515 13.298C17.9898 12.4447 17.9998 12.1727 17.9998 10C17.9998 7.82733 17.9898 7.55467 17.9515 6.70133C17.9115 5.84967 17.7765 5.26833 17.5798 4.75967C17.3748 4.2335 17.1015 3.78717 16.6565 3.3425C16.2115 2.8975 15.7665 2.62417 15.2398 2.42C14.7298 2.22217 14.1482 2.08733 13.2965 2.04833C12.4432 2.0095 12.1715 2 9.99817 2H10.0007ZM9.28299 3.44157C9.42234 3.44135 9.57225 3.44142 9.73402 3.44149L10.0007 3.44157C12.1367 3.44157 12.3898 3.44923 13.2333 3.48757C14.0133 3.52323 14.4367 3.65357 14.7187 3.76307C15.092 3.90807 15.3582 4.0814 15.638 4.3614C15.918 4.6414 16.0913 4.90807 16.2367 5.2814C16.3462 5.56307 16.4767 5.9864 16.5122 6.7664C16.5505 7.60973 16.5588 7.86307 16.5588 9.99807C16.5588 12.1331 16.5505 12.3864 16.5122 13.2297C16.4765 14.0097 16.3462 14.4331 16.2367 14.7147C16.0917 15.0881 15.918 15.3539 15.638 15.6337C15.358 15.9137 15.0922 16.0871 14.7187 16.2321C14.437 16.3421 14.0133 16.4721 13.2333 16.5077C12.39 16.5461 12.1367 16.5544 10.0007 16.5544C7.86449 16.5544 7.61132 16.5461 6.76799 16.5077C5.98799 16.4717 5.56466 16.3414 5.28249 16.2319C4.90916 16.0869 4.64249 15.9136 4.36249 15.6336C4.08249 15.3536 3.90916 15.0876 3.76383 14.7141C3.65433 14.4324 3.52383 14.0091 3.48833 13.2291C3.44999 12.3857 3.44233 12.1324 3.44233 9.99607C3.44233 7.85973 3.44999 7.60773 3.48833 6.7644C3.52399 5.9844 3.65433 5.56107 3.76383 5.27907C3.90883 4.90573 4.08249 4.63907 4.36249 4.35907C4.64249 4.07907 4.90916 3.90573 5.28249 3.7604C5.56449 3.6504 5.98799 3.5204 6.76799 3.48457C7.50599 3.45123 7.79199 3.44123 9.28299 3.43957V3.44157ZM13.3109 5.72976C13.3109 5.19959 13.7409 4.77009 14.2709 4.77009V4.76976C14.8009 4.76976 15.2309 5.19976 15.2309 5.72976C15.2309 6.25976 14.8009 6.68976 14.2709 6.68976C13.7409 6.68976 13.3109 6.25976 13.3109 5.72976ZM10.0006 5.89177C7.73187 5.89186 5.89246 7.73133 5.89246 10.0001C5.89246 12.2689 7.73196 14.1076 10.0008 14.1076C12.2696 14.1076 14.1085 12.2689 14.1085 10.0001C14.1085 7.73127 12.2695 5.89177 10.0006 5.89177ZM12.6674 10.0001C12.6674 8.52724 11.4734 7.33341 10.0008 7.33341C8.52793 7.33341 7.3341 8.52724 7.3341 10.0001C7.3341 11.4727 8.52793 12.6667 10.0008 12.6667C11.4734 12.6667 12.6674 11.4727 12.6674 10.0001Z" fill="white"/>
</svg>
