<svg width="20" height="20" viewBox="0 0 20 20" fill="none" xmlns="http://www.w3.org/2000/svg">
<path fill-rule="evenodd" clip-rule="evenodd" d="M9.27437 4.00844L8.17029 4.02865L7.54815 4.04557L6.7563 4.07425L6.32953 4.09383L5.91144 4.11659L5.50811 4.14275L5.1256 4.17257C5.06392 4.17785 5.00336 4.1833 4.94405 4.18891L4.60416 4.22465C4.28125 4.26246 4.01236 4.30663 3.82479 4.35825C3.10638 4.55538 2.54061 5.13624 2.3486 5.87388C2.28262 6.12677 2.22911 6.43163 2.18573 6.75976L2.14564 7.09457L2.11176 7.43852L2.08359 7.78521L2.06059 8.12827L2.03464 8.62209L2.01737 9.07184L2.00481 9.56575L2 10.059L2.00481 10.4346L2.01737 10.9285L2.03464 11.3782L2.06059 11.872L2.08359 12.2151L2.11176 12.5618L2.14564 12.9057C2.15179 12.9625 2.1582 13.0188 2.16487 13.0747L2.20828 13.4026C2.24729 13.6689 2.29361 13.9157 2.3486 14.1265C2.54061 14.8641 3.10638 15.445 3.82479 15.6422C4.01236 15.6938 4.28125 15.738 4.60416 15.7758L4.94405 15.8115C5.00336 15.8171 5.06392 15.8226 5.1256 15.8278L5.50811 15.8576L5.91144 15.8838L6.32953 15.9066L6.7563 15.9261L7.31204 15.9472L8.23924 15.9733L9.50132 15.9947L10.5013 16L11.0671 15.996L12.2801 15.9772L13.3837 15.9472L13.9395 15.9261L14.3662 15.9066L14.7843 15.8838L15.3819 15.8432L15.7517 15.8115L16.0916 15.7758C16.4145 15.738 16.6833 15.6938 16.8709 15.6422C17.5893 15.445 18.1551 14.8641 18.3471 14.1265C18.4131 13.8736 18.4666 13.5687 18.51 13.2406L18.5501 12.9057L18.584 12.5618L18.6122 12.2151L18.6352 11.872L18.6611 11.3782L18.6784 10.9285L18.691 10.4346L18.6958 9.94137L18.691 9.56575L18.6784 9.07184L18.6611 8.62209L18.6352 8.12827L18.6122 7.78521L18.584 7.43852L18.5501 7.09457C18.544 7.03783 18.5375 6.98147 18.5309 6.92562L18.4874 6.59776C18.4484 6.33145 18.4021 6.08462 18.3471 5.87388C18.1551 5.13624 17.5893 4.55538 16.8709 4.35825C16.6833 4.30663 16.4145 4.26246 16.0916 4.22465L15.7517 4.18891C15.6924 4.1833 15.6318 4.17785 15.5701 4.17257L15.1876 4.14275L14.7843 4.11659L14.3662 4.09383L13.5744 4.05992L13.1476 4.04557L12.1316 4.0201L11.4214 4.00844L10.3734 4L9.27437 4.00844ZM8.78261 12.8698V7.65228L12.9567 10.2612L8.78261 12.8698Z" fill="white"/>
</svg>
