<svg width="718" height="819" viewBox="0 0 718 819" fill="none" xmlns="http://www.w3.org/2000/svg">
<g opacity="0.2">
<path fill-rule="evenodd" clip-rule="evenodd" d="M723.054 352.92L723.057 203.836C723.038 203.82 722.762 203.552 722.725 203.518C668.803 157.039 449.367 64.6351 345.647 158.419C219.21 272.738 433.489 436.993 601.771 497.715C487.444 449.107 324.252 347.411 405.258 276.645C472.351 228.849 665.802 295.991 722.805 352.67L723.054 352.92Z" fill="#D8D8D8"/>
<path fill-rule="evenodd" clip-rule="evenodd" d="M551.051 510.57C558.174 513.943 566.693 517.343 575.334 520.612L600.35 529.879C602.253 530.593 604.084 531.29 605.824 531.966C600.27 555.017 618.048 574.698 644.532 595.09L650.554 599.635L660.047 606.518L673.375 615.87L690.71 627.953L697.74 632.94L704.771 638.03L711.768 643.233L718.695 648.559C729.014 656.645 738.977 665.18 748.041 674.314L752.986 680.203L761.323 689.969L766.039 695.646C783.834 717.41 806.586 749.537 814.533 789.445L815.857 796.622L816.29 799.591C817.306 807.996 816.203 816.116 804.722 818.49C802.069 819.634 793.209 818.833 781.514 816.292L775.446 814.877C774.4 814.618 773.339 814.346 772.263 814.063L765.661 812.225C734.222 802.997 694.983 784.77 690.743 760.174L690.7 758.972L690.721 750.583L690.607 745.863L690.427 742.312L690.136 738.457L689.708 734.315L689.119 729.902L688.343 725.235C688.197 724.437 688.042 723.629 687.877 722.812L686.776 717.794C681.277 694.724 668.234 665.186 637.465 635.952L635.077 633.511L630.125 628.58L622.34 621.076L600.547 600.531L595.107 595.298L589.759 590.036L584.549 584.748C560.622 560.018 542.64 534.609 551.051 510.57ZM643.219 535.714C660.664 541.884 679.13 547.179 695.822 551.864C696.939 574.833 717.355 591.441 745.824 607.714L752.806 611.616L760.062 615.524L767.558 619.456L795.186 633.675L807.431 640.126L815.642 644.592L823.851 649.212C838.879 657.833 853.724 667.323 867.427 678.194L871.391 681.63L886.346 693.984L892.123 698.854L898.18 704.134C917.729 721.528 940.452 745.409 956.452 778.745L959.607 785.877L960.802 788.838C963.982 797.24 965.044 805.553 954.589 809.032C953.271 809.853 949.996 810.469 945.345 810.786L941.036 810.983C938.726 811.042 936.194 811.042 933.486 810.974L927.847 810.747C926.873 810.693 925.882 810.631 924.877 810.561L918.685 810.04L912.225 809.305C911.131 809.164 910.029 809.014 908.921 808.854L902.212 807.776C876.321 803.179 849.01 793.164 840.875 774.369L840.149 770.156L839.415 766.699L838.393 762.595L837.029 757.887L835.903 754.432L834.587 750.74L833.062 746.822L831.315 742.691L829.33 738.359L827.09 733.838L824.58 729.141L821.784 724.281C810.007 704.526 790.991 681.135 760.195 657.661L753.345 652.495L747.305 648.075L741.083 643.7L731.501 637.195L711.964 624.228L705.495 619.869L699.119 615.471L692.877 611.019L686.812 606.501C660.974 586.759 641.297 564.775 643.219 535.714ZM462.998 468.206L467.867 471.395L478.624 478.269C489.847 485.334 502.043 492.698 511.374 497.851C501.189 519.351 512.431 539.871 531.919 562.047L536.557 567.195L541.452 572.409L546.567 577.697L554.575 585.781L571.984 603.23C583.981 615.42 596.104 628.368 606.828 642.382L613.102 650.843L620.651 660.635L623.53 664.534L626.511 668.766C640.578 689.299 656.355 720.935 651.659 767.425L650.932 773.253C649.523 782.763 646.247 792.922 631.945 793.942C631.025 794.074 629.165 793.779 626.568 793.105L623.11 792.116L619.022 790.782L614.383 789.119L609.268 787.146C608.381 786.793 607.477 786.427 606.558 786.05L600.878 783.646L594.919 780.978L588.758 778.064C584.601 776.043 580.361 773.87 576.143 771.569L569.844 768.024C545.858 754.092 524.29 736.327 524.874 719.33L525.387 717.673L530.149 705.242L531.307 701.966L532.456 698.441L533.563 694.671L534.593 690.662C534.757 689.974 534.916 689.277 535.069 688.57L535.923 684.214C539.69 662.614 537.865 633.151 513.472 598.715C509.888 593.078 505.842 587.282 501.593 581.379L486.897 561.194L481 552.882C480.357 551.956 479.717 551.03 479.084 550.103L475.357 544.54C457.734 517.641 446.31 490.723 462.998 468.206ZM387.328 419.778L405.56 435.605L413.618 442.46C418.939 446.902 424.044 450.96 428.255 453.852C414.134 463.808 412.824 470.068 414.316 477.251L414.903 479.686L416.738 486.322C416.858 486.8 416.975 487.286 417.086 487.782C419.763 499.667 426.585 511.947 434.935 524.985L440.699 533.793L446.744 542.85L452.898 552.179C462.122 566.388 471.131 581.597 477.307 598.167L478.416 600.613L483.58 611.265L485.251 614.889L486.932 618.765L488.582 622.889L490.159 627.256C497.282 648.199 500.665 676.977 481.269 711.837C475.364 722.05 461.05 734.224 453.499 733.824C451.987 733.745 449.478 732.902 446.241 731.423L442.771 729.738C442.156 729.423 441.523 729.092 440.873 728.745L436.787 726.477C436.077 726.069 435.352 725.647 434.615 725.21L430.047 722.425L425.233 719.331L420.232 715.955L415.104 712.328C414.243 711.704 413.378 711.07 412.511 710.428L407.305 706.476C406.437 705.801 405.57 705.119 404.706 704.43L399.555 700.217C398.704 699.503 397.858 698.783 397.017 698.057L392.056 693.648L387.296 689.144C371.83 674.002 360.714 657.75 363.895 645.148C364.825 643.718 366.275 642.09 368.074 640.234L375.353 632.928L379.271 628.81L381.952 625.8L384.632 622.567C397.512 606.394 408.748 582.15 394.537 545.632C392.753 538.496 390.279 531.08 387.564 523.531L381.24 506.384C374.889 489.137 369.027 471.777 368.776 455.979C368.557 441.938 373.214 427.293 387.328 419.778ZM327.842 365.068C330.316 368.112 333.159 371.965 336.169 376.138L345.497 389.122C348.639 393.443 351.745 397.592 354.614 401.08C339.828 407.344 336.15 411.859 334.574 418.33L334.09 420.7L333.293 426.074C330.881 442.586 335.779 458.156 341.939 474.759L346.701 487.435C350.977 498.929 355.142 511.101 357.404 524.535L357.804 527.171L358.192 530.335L358.535 533.979L358.802 538.057L358.962 542.522C359.454 566.516 354.371 604.175 324.084 626.706L320.748 629.176C313.426 634.511 305.207 639.542 290.563 640.411C287.94 640.531 283.367 638.278 277.794 634.361L274.338 631.817L270.688 628.908L266.888 625.668C266.245 625.102 265.598 624.524 264.947 623.935L261.01 620.263C260.35 619.629 259.688 618.985 259.026 618.332L255.054 614.304L251.115 610.082C249.162 607.928 247.238 605.714 245.37 603.459L241.715 598.9C227.451 580.493 217.825 560.287 225.969 548.112C227.131 547.12 228.658 546.148 230.469 545.159L233.391 543.656L236.683 542.099L246.144 537.782L252.372 534.76L256.632 532.507C274.461 522.673 292.757 507.017 292.443 476.379L292.414 469.493L292.561 454.869C292.605 452.364 292.658 449.834 292.717 447.293L293.143 432.009L294.405 396.784C295.078 378.303 307.966 367.247 327.842 365.068ZM263.154 257.424C263.012 260.529 262.96 263.906 262.952 267.437L263.062 283.957C263.073 285.818 263.077 287.673 263.07 289.506C245.655 286.374 238.117 289.491 232.036 294.249L229.937 295.989L226.836 298.756C217.751 306.885 213.242 315.51 209.419 325.058L206.929 331.565L204.386 338.373C200.846 347.664 196.48 357.834 188.557 369.182L182.611 377.197L179.852 380.662L177.655 383.236L175.145 385.982C174.699 386.453 174.239 386.929 173.765 387.41L170.739 390.351C157.908 402.318 136.119 416.405 98.5055 422.956C90.2108 424.395 74.0815 424.267 60.297 418.396C57.6424 417.131 55.1283 410.94 53.1352 402.602L52.0048 397.365C50.7661 391.005 49.8199 383.867 49.2967 376.902L48.9549 370.997C48.3358 355.482 50.1216 342.299 55.8702 342.832L67.0209 343.115L74.6492 343.127L80.3342 343.005L86.4166 342.736L92.8263 342.286C117.934 340.164 148.706 333.238 167.331 312.397L172.619 306.363L184.346 292.706L190.551 285.617C200.985 273.88 211.722 262.901 220.333 258.237L221.62 257.589L223.016 257.004L224.583 256.493C224.862 256.414 225.15 256.339 225.449 256.267L227.387 255.883L229.649 255.595L232.297 255.412C232.774 255.391 233.269 255.374 233.784 255.363L237.126 255.355L241.007 255.476L245.489 255.734L253.473 256.399L259.726 257.04C260.834 257.161 261.976 257.289 263.154 257.424ZM256.988 210.391L255.44 215.426L252.291 226.151C251.197 229.849 250.037 233.655 248.745 237.523C226.69 231.307 218.46 232.534 209.988 237.412L207.425 238.981C202.832 241.938 198.41 245.842 193.645 250.522L189.465 254.72L177.813 266.723L172.483 272.065C165.993 278.461 158.502 285.416 149.499 292.759L142.946 297.951L139.659 300.353L137.06 302.109C136.138 302.711 135.158 303.327 134.119 303.952L130.819 305.847L127.146 307.762C112.33 315.095 88.9531 322.117 53.1838 320.388L45.988 319.934L40.4277 319.425C32.5324 318.57 22.9452 316.91 14.4819 313.221C4.04644 307.908 17.4682 249.237 31.8236 252.32L34.1243 252.453L39.1501 252.865L57.1737 254.695L63.9979 255.285C88.481 257.182 118.942 256.909 145.788 241.918L149.463 239.831L157.283 235.235L174.068 225.185L182.615 220.209C193.939 213.755 204.795 208.237 212.952 206.201L216.214 205.416L218.178 205.039L220.422 204.727L222.99 204.52C229.85 204.167 240.158 205.177 256.988 210.391ZM263.814 169.058C261.878 171.234 260.095 173.518 258.319 175.882L252.865 183.184C250.956 185.678 248.908 188.223 246.574 190.788C230.928 185.905 222.008 185.528 213.52 186.778L209.61 187.46C208.956 187.589 208.299 187.725 207.635 187.868C202.245 189.021 196.72 191.455 190.52 194.722L185.735 197.321L169.357 206.575L163.055 210.004L156.246 213.536C149.168 217.106 141.255 220.766 132.28 224.329L125.147 227.048L122.069 228.123L118.469 229.284L114.347 230.49C112.886 230.895 111.338 231.3 109.703 231.698L104.537 232.864C87.3522 236.448 62.3145 238.775 29.421 233.768C22.264 232.679 10.3961 229.135 1.97332 223.366C-2.24946 219.796 0.735886 210.436 6.84944 200.805L9.28069 197.192L11.9574 193.618C21.6996 181.253 35.0736 170.799 42.8547 174.738L45.0243 175.227L49.7308 176.399L63.5145 180.03L69.7782 181.564C91.3295 186.608 119.485 190.548 150.641 180.826L158.715 178.253L185.651 169.381L192.443 167.241C197.857 165.584 202.61 164.276 206.37 163.542L209.246 163.069L212.675 162.69L215.855 162.437L219.646 162.236L223.958 162.134C225.471 162.121 227.057 162.132 228.7 162.174L233.783 162.403C243.359 163.024 254.2 164.823 263.814 169.058ZM656.468 65.6402C659.258 65.9623 663.796 67.4304 669.07 69.5899L673.747 71.5996C676.153 72.6785 678.64 73.8605 681.13 75.1098L686.09 77.6877C698.381 84.3037 709.409 92.0064 709.226 96.3217C697.15 100.916 695.066 106.459 708.76 125C709.783 126.383 710.913 127.823 712.111 129.288L715.864 133.736L728.627 148.002C729.6 149.11 730.456 150.111 731.153 150.977L733.475 154.084L735.713 157.282L737.166 159.568C741.365 166.551 743.713 174.473 733.192 177.844C726.866 175.614 720.862 172.164 714.783 168.507L705.559 162.99C703.997 162.086 702.417 161.201 700.814 160.351C708.231 156.742 706.646 147.458 704.113 144.606L698.139 137.836L694.872 134.399L692.324 131.96L689.2 129.175L685.258 125.848L679.174 120.897L674.533 116.888L670.568 113.27L666.174 109.067C659.374 102.395 651.9 94.237 647.232 86.7992C644.533 82.4965 643.89 68.2701 656.468 65.6402ZM66.5942 114.729L73.9613 117.201L82.4184 120.126L88.6339 122.206C89.7071 122.556 90.7988 122.907 91.9085 123.257L98.7812 125.338C118.852 131.141 143.945 135.853 172.336 132.008L179.812 131.043L187.636 130.119L195.601 129.253L207.36 128.103L218.269 127.183L224.724 126.726L230.282 126.414L234.736 126.266L244.738 126.202L249.775 126.247C262.03 126.533 277.418 128.372 287.592 137.83L282.053 142.355L269.334 152.481C268.286 153.325 267.257 154.158 266.261 154.973L263.019 153.78L257.329 151.814C250.385 149.543 245.845 148.603 241.706 148.177L238.644 147.941L232.219 147.741C224.839 147.564 217.365 148.385 208.854 150.03L203.016 151.248L196.809 152.699L190.17 154.372L179.267 157.272L153.291 164.344L147.202 165.954L144.548 166.524C144.061 166.618 143.553 166.712 143.022 166.804L139.57 167.34C138.95 167.426 138.308 167.51 137.644 167.591L133.391 168.045L128.602 168.416C127.759 168.47 126.894 168.519 126.006 168.564L120.41 168.77C117.477 168.84 114.342 168.859 111.004 168.814L104.055 168.634C89.6158 168.09 71.9145 166.39 50.897 162.742C44.4203 161.615 32.1176 156.322 23.6294 150.205C11.8069 140.679 49.5126 110.221 66.5942 114.729ZM631.496 65.7509C630.454 66.6293 629.508 67.2817 628.674 67.8121L626.521 69.1415C625.329 69.9226 624.645 70.6321 624.592 72.1023C624.474 75.3662 627.02 79.7859 632.066 85.8302L635.392 89.6555L639.31 93.8932C640.012 94.6351 640.738 95.3952 641.488 96.1738C643.371 98.1257 645.516 100.154 647.778 102.196L652.412 106.284L661.563 114.147L665.558 117.706C667.394 119.396 668.955 120.939 670.093 122.274L671.597 124.188L676.174 129.01C681.429 134.647 688.087 143.27 684.762 153.227C677.66 150.404 668.704 145.816 659.834 140.968L651.066 136.089C649.633 135.28 648.221 134.478 646.838 133.689C650.376 127.455 648.284 123.982 645.923 121.583L643.499 119.31L637.868 113.703L635.248 111.195L632.504 108.714C632.026 108.296 631.534 107.873 631.025 107.444L627.735 104.763C627.142 104.295 626.523 103.815 625.875 103.321L621.608 100.153L616.45 96.5015L612.268 93.6472L607.105 90.2808L602.681 87.3123C594.031 81.378 582.828 72.8224 575.717 63.0578L573.594 59.9019L572.828 58.5741C570.712 54.627 567.592 46.1661 575.037 37.5486C576.297 36.4318 581.469 37.726 588.208 40.2893L592.908 42.1736L597.918 44.3588L603.085 46.7697L608.253 49.3312L613.268 51.9679L617.977 54.6048C626.234 59.3933 632.166 63.8035 631.496 65.7509ZM116.36 68.1914L120.645 70.3224L134.109 77.5039L138.979 80.0035C153.984 87.4872 172.779 94.624 201.902 95.6872L214.085 95.9757C215.316 96.0165 216.557 96.0631 217.805 96.1147L229.115 96.6931L243.698 97.661L261.582 98.9089L267.41 99.1595L274.413 99.2805L279.028 99.4837L284.169 99.8733C296.652 101.053 312.099 104.313 321.21 113.566C319.812 114.381 318.059 115.296 316.094 116.273L309.708 119.352L302.919 122.58C299.567 124.194 296.388 125.779 293.868 127.21C283.307 121.62 277.024 119.289 271.531 117.978L268.302 117.295L263.447 116.494L261.743 116.233C258.309 115.702 254.949 115.446 251.486 115.392L247.27 115.417C246.555 115.436 245.833 115.461 245.103 115.493L240.613 115.754L235.855 116.135L216.12 118.007L205.687 118.849L197.905 119.352L189.382 119.774L171.081 120.391L166.854 120.474L159.491 120.472L153.957 120.342L147.971 120.072C146.937 120.014 145.887 119.948 144.82 119.875L138.227 119.336C123.545 117.942 106.367 115.008 88.5071 109.097C82.4878 107.105 69.6369 98.7436 62.6693 92.1723C58.584 86.5051 74.332 77.0577 90.2228 71.5752L94.7499 70.1233C103.744 67.4621 112.172 66.3364 116.36 68.1914ZM551.597 36.9062L551.634 42.7362L551.783 46.0324C552.419 54.8092 555.135 59.1666 566.371 68.3437L570.7 71.7978C571.484 72.4119 572.301 73.0464 573.15 73.7032C575.414 75.4542 577.95 77.2516 580.602 79.051L586.014 82.6389L596.653 89.5115L601.325 92.6373C603.484 94.1286 605.342 95.5026 606.743 96.7144L608.706 98.5363L613.449 102.283C619.719 107.27 628.412 115.241 627.299 125.892C615.979 122.809 604.088 118.999 590.395 113.249C592.303 107.228 589.414 103.114 586.381 100.373L584.582 98.8888L582.307 97.2242C581.342 96.5039 580.445 95.8635 579.595 95.2824L577.167 93.6965L574.903 92.3435L566.521 87.6633L563.499 85.8341L559.977 83.5605C559.342 83.1377 558.681 82.6913 557.991 82.2186L553.494 79.0475C551.869 77.8719 550.11 76.571 548.197 75.1241C547.733 74.7731 547.062 74.3606 546.215 73.8894L543.179 72.3019L529.615 65.5807C528.738 65.131 527.849 64.6691 526.95 64.1956L521.486 61.2159C513.224 56.5429 504.881 50.972 499.301 44.7425C497.312 42.5245 489.811 28.5967 492.544 19.3475C493.333 17.6462 500.01 18.4276 508.61 20.4264L513.97 21.7617C514.891 22.0052 515.823 22.2584 516.763 22.5199L522.459 24.1795L528.141 25.9795L533.618 27.8591C543.357 31.341 551.109 34.918 551.597 36.9062ZM472.928 18.766L476.198 28.4792C476.368 28.9575 476.54 29.4278 476.715 29.891L477.821 32.5953C481.345 40.5076 487.118 46.8492 505.48 57.8796C507.438 59.056 509.504 60.2495 511.631 61.4479L518.152 65.0449L534.25 73.6758L539.882 76.7886C542.503 78.2747 544.795 79.6463 546.603 80.8615L553.643 85.9201C560.384 90.9203 570.004 99.1566 572.188 109.965C562.588 108.535 553.629 106.402 544.735 104.027L531.371 100.342C532.729 93.8729 525.223 86.1832 521.322 83.9012L508.84 76.4663L504.786 74.2066L501.726 72.6084L496.27 69.9427L491.861 67.9105L483.759 64.3488L474.467 60.3855L468.748 57.7534L464.051 55.4647L458.826 52.7891L453.223 49.7611C443.655 44.4399 433.152 37.7944 424.889 30.5438L422.48 28.3511C422.1 27.9916 421.606 27.5029 421.039 26.9008L419.16 24.77C415.798 20.7044 411.625 14.1992 411.725 7.23079C411.764 6.10224 415.373 5.95302 420.847 6.45917L425.277 6.9566L430.246 7.66943L435.596 8.56726L441.166 9.61975L446.798 10.7965L452.331 12.0672C453.236 12.2851 454.13 12.5057 455.011 12.7282L460.096 14.0828C460.907 14.3109 461.697 14.5398 462.462 14.7687L466.741 16.1389C469.366 17.0465 471.499 17.9357 472.928 18.766ZM176.673 38.1684L178.533 39.2629L182.215 41.5685L193.58 49.1183C194.247 49.553 194.924 49.9888 195.611 50.4251L199.867 53.0425C211.608 60.0069 226.726 66.7298 251.082 70.359L317.751 79.0471L321.718 79.6468C333.353 81.6021 352.656 86.6483 360.493 100.552C358.078 101.212 354.59 101.806 350.583 102.397L337.561 104.22L330.92 105.24C329.841 105.42 328.781 105.605 327.749 105.797L319.35 99.9299L316.439 98.0628C316.174 97.9065 315.926 97.765 315.689 97.6362L314.383 96.9966L313.186 96.5533L311.201 96.0234L308.45 95.3362L300.919 93.2716L294.431 91.645L289.894 90.6313L285.096 89.6802L279.96 88.7971L274.409 87.9869C273.445 87.8583 272.461 87.7329 271.454 87.6109L265.136 86.92L258.21 86.3152C257 86.2219 255.762 86.1323 254.494 86.0467L246.51 85.5807L237.724 85.2137L223.512 84.8394L216.485 84.5241L211.118 84.1724L205.29 83.6731L199.069 82.997C183.089 81.0609 164.106 77.1907 147.115 69.3204L143.943 67.774L139.695 65.5365L134.827 62.7632C128.962 59.2752 122.761 55.0098 119.481 51.0752C116.757 46.2904 126.822 41.6686 139.391 38.8134L144.202 37.8287L149.127 37.0284C149.95 36.9114 150.774 36.8029 151.594 36.7032L156.464 36.2148C165.258 35.5256 173.109 36.0031 176.673 38.1684ZM395.056 10.3554L399.675 18.4251L401.313 21.0682L403.119 23.7051C408.541 31.177 416.849 38.6966 435.362 47.313L449.323 53.6684L483.121 69.6639L487.93 71.8272L492.115 73.6259C499.956 77.1884 515.041 85.7893 512.8 99.1661L505.534 97.8982L499.506 96.7368L484.439 93.5694L478.952 92.5116C477.969 92.3317 476.946 92.1495 475.874 91.9643C475.208 85.3796 468.362 79.2574 463.844 76.217L459.304 73.2524L456.406 71.4921L453.496 69.8592C453.005 69.5955 452.509 69.3355 452.007 69.0784L448.896 67.5639L445.527 66.0798L441.803 64.5872L437.625 63.0472L432.894 61.4211L424.547 58.7354L418.005 56.7238L409.394 54.1339L404.508 52.5381L400.258 51.0431L395.352 49.2108L389.912 47.0477L384.057 44.5605L377.907 41.7555C367.478 36.8195 356.321 30.587 346.935 23.1942L346.248 22.6083L344.413 20.8114L342.177 18.3619C337.475 12.9549 331.899 4.93486 334.651 2.11782C344.514 -3.34854 382.41 2.61634 395.056 10.3554ZM250.333 21.6227C251.45 22.4137 252.527 23.2205 253.58 24.0398L256.678 26.5321L264.324 32.9645L267.568 35.5672C277.049 42.9336 289.342 50.154 313.168 55.242L341.194 61.2079L352.522 63.7505L359.31 65.3832L365.235 66.9392C366.139 67.1909 366.998 67.4383 367.808 67.6812L371.678 68.9031L377.429 70.6603C387.987 73.977 402.507 79.591 407.464 92.868C404.68 93.462 401.046 93.8105 396.866 94.1055L382.994 95.0223C380.511 95.2124 377.968 95.4371 375.403 95.7205L371.667 91.886C366.027 86.2075 363.008 83.8827 357.78 81.8011L350.421 79.175L344.538 77.2796L340.394 76.0663L335.979 74.8852C335.216 74.6907 334.439 74.4973 333.646 74.3047L328.677 73.1596L323.24 72.0301L317.256 70.9094L310.645 69.7909L303.328 68.6679L295.226 67.5336L283.709 66.0376L278.263 65.1866L271.169 63.9155L265.688 62.8248L259.721 61.5327C258.691 61.3002 257.646 61.059 256.586 60.8091L250.073 59.2036C248.965 58.9181 247.847 58.6237 246.721 58.3201L239.885 56.3878C228.386 52.9815 216.501 48.6369 206.278 43.2309C201.545 40.7263 188.966 27.1051 185.087 19.442C184.055 12.0096 243.466 11.4204 250.333 21.6227ZM317.53 9.83677C318.872 11.1441 320.15 12.4787 321.411 13.8347L327.611 20.59L330.229 23.306L333.057 26.0422C341.435 33.8144 353.203 41.7187 375.686 48.8198L399.229 56.2502L410.408 59.9537L417.147 62.3439C420.329 63.5165 423.203 64.6512 425.647 65.7298L429.231 67.3792L435.862 70.1764C444.016 73.7532 454.496 79.5432 459.256 91.8096L424.62 89.5956C421.173 82.451 416 78.1137 411.021 76.1329C407.038 74.5521 403.47 73.2219 399.678 71.9322L392.84 69.7216L382.588 66.7114L343.182 55.9364L336.12 53.858L330.666 52.1628L324.738 50.2259L318.441 48.0521L311.882 45.6466L305.163 43.0142C296.147 39.3554 286.988 35.1049 278.809 30.3161L275.79 28.4952C271.439 25.7893 260.402 18.0143 255.768 7.74006C254.019 2.27664 274.522 1.65928 292.495 3.56401L297.787 4.20877C307.257 5.52102 315.213 7.5259 317.53 9.83677Z" fill="#D8D8D8"/>
<path fill-rule="evenodd" clip-rule="evenodd" d="M303.735 343.81C282.427 344.959 275.573 351.012 270.087 360.317C254.615 386.532 265.205 418.101 259.598 453.5C257.622 466.003 250.374 502.472 195.991 529.525C188.415 533.292 173.143 537.588 156.747 533.712C143.26 530.38 97.5584 455.405 125.358 442.055C140.927 437.465 197.511 435.345 214.778 393.337C223.862 371.245 232.823 343.046 243.103 325.734C252.48 309.948 266.937 305.969 286.522 310.817C290.374 320.849 297.833 332.671 303.735 343.81Z" fill="#D8D8D8"/>
</g>
</svg>
