<svg width="99" height="100" viewBox="0 0 99 100" fill="none" xmlns="http://www.w3.org/2000/svg">
<path fill-rule="evenodd" clip-rule="evenodd" d="M45.3774 4.63557L31.6248 20.7849L15.7634 11.7679L6.39172 22.4488L5.25825 21.4542L15.4404 9.84965L31.2856 18.8575L44.2294 3.6579L45.3774 4.63557Z" fill="#F7931D"/>
<path d="M9.78333 21.9428C9.78795 24.0248 8.10389 25.7164 6.02187 25.721C3.93985 25.7256 2.24829 24.0415 2.24367 21.9595C2.23906 19.8775 3.92312 18.1859 6.00514 18.1813C8.08716 18.1767 9.77872 19.8608 9.78333 21.9428Z" fill="#F7931D"/>
<path d="M19.5615 11.3655C19.5661 13.4475 17.882 15.1391 15.8 15.1437C13.718 15.1483 12.0264 13.4643 12.0218 11.3823C12.0172 9.30024 13.7013 7.60868 15.7833 7.60406C17.8653 7.59944 19.5569 9.28351 19.5615 11.3655Z" fill="#F7931D"/>
<path d="M35.0378 20.3788C35.0425 22.4609 33.3584 24.1524 31.2764 24.157C29.1944 24.1616 27.5028 22.4776 27.4982 20.3956C27.4936 18.3135 29.1776 16.622 31.2596 16.6174C33.3417 16.6127 35.0332 18.2968 35.0378 20.3788Z" fill="#F7931D"/>
<path d="M48.5724 3.76148C48.577 5.84349 46.893 7.53505 44.811 7.53967C42.7289 7.54429 41.0374 5.86022 41.0328 3.7782C41.0282 1.69618 42.7122 0.00462828 44.7942 9.47815e-06C46.8763 -0.00460933 48.5678 1.67946 48.5724 3.76148Z" fill="#F7931D"/>
<path fill-rule="evenodd" clip-rule="evenodd" d="M0.0419922 49.1073L7.98028 49.0897L7.9853 51.3516L2.30891 51.3642L2.41177 97.7331L38.6021 97.6528L38.4993 51.2839L33.1908 51.2957L33.1858 49.0338L40.7561 49.017L40.869 99.9097L0.154894 100L0.0419922 49.1073Z" fill="#F7931D"/>
<path d="M12.564 48.4688L29.6715 48.4309L29.6786 51.6327L12.5711 51.6707L12.564 48.4688Z" fill="#F7931D"/>
<path fill-rule="evenodd" clip-rule="evenodd" d="M31.1744 63.1752L22.1269 63.1952L22.1202 60.1794L31.1678 60.1593L31.1744 63.1752Z" fill="#F7931D"/>
<path fill-rule="evenodd" clip-rule="evenodd" d="M31.3818 71.6569L9.51674 71.7054L9.51005 68.6895L31.3751 68.641L31.3818 71.6569Z" fill="#F7931D"/>
<path fill-rule="evenodd" clip-rule="evenodd" d="M31.4001 79.9505L9.53514 79.999L9.52845 76.9831L31.3935 76.9346L31.4001 79.9505Z" fill="#F7931D"/>
<path fill-rule="evenodd" clip-rule="evenodd" d="M31.4185 88.2441L9.55354 88.2926L9.54685 85.2768L31.4119 85.2283L31.4185 88.2441Z" fill="#F7931D"/>
<path fill-rule="evenodd" clip-rule="evenodd" d="M75.7481 47.0544L69.2391 47.0689L69.2341 44.807L75.7431 44.7925C76.6918 44.7904 77.5873 45.2345 78.1584 45.9952C80.6831 49.3581 91.1129 63.2968 93.8201 67.6906C94.137 68.2049 94.4455 68.6953 94.7434 69.1687C95.8385 70.9095 96.7896 72.4214 97.485 74.0518C98.3973 76.1907 98.8773 78.5252 98.8849 81.95C98.8976 87.6782 96.0087 91.0686 92.8028 92.9714C89.6669 94.8327 86.2263 95.2852 84.8574 95.2883L52.9228 95.3591C52.9228 95.3591 52.9225 95.3591 52.92 94.2282C52.9174 93.0972 52.9178 93.0972 52.9178 93.0972L84.8524 93.0264C85.9166 93.024 88.9372 92.6355 91.6483 91.0263C94.2895 89.4587 96.6336 86.7494 96.623 81.955C96.6159 78.7655 96.1737 76.7427 95.4045 74.9392C94.7859 73.489 93.9591 72.1735 92.8857 70.4655C92.5761 69.9729 92.246 69.4476 91.8944 68.8771C89.2574 64.5973 78.917 50.773 76.3495 47.3532C76.2082 47.1649 75.986 47.0539 75.7481 47.0544Z" fill="#F7931D"/>
<path fill-rule="evenodd" clip-rule="evenodd" d="M63.2759 47.0821L69.4171 47.0685L69.4121 44.8066L63.2709 44.8202C62.3239 44.8223 61.4329 45.2691 60.8647 46.0267L44.6041 67.7104C44.2294 68.2101 44.3307 68.9189 44.8304 69.2937C45.3302 69.6684 46.039 69.5671 46.4138 69.0674L62.6743 47.3837C62.8164 47.1943 63.0391 47.0826 63.2759 47.0821ZM44.1741 89.7097C43.7445 90.163 43.7637 90.8789 44.217 91.3085C46.0139 93.0115 48.1716 94.0178 50.0471 94.599C51.918 95.1788 53.5798 95.3577 54.4579 95.3557L86.0966 95.2855C86.0966 95.2855 86.097 95.2855 86.0945 94.1546C86.0919 93.0236 86.0916 93.0236 86.0916 93.0236L54.4529 93.0938C53.8147 93.0953 52.3801 92.9539 50.7166 92.4385C49.0578 91.9244 47.2434 91.0604 45.7729 89.6668C45.3196 89.2371 44.6038 89.2563 44.1741 89.7097Z" fill="#F7931D"/>
<path fill-rule="evenodd" clip-rule="evenodd" d="M80.7694 72.8668C80.7831 79.0087 75.8151 83.9988 69.6731 84.0124C63.5312 84.0261 58.5411 79.0581 58.5275 72.9161C58.5138 66.7741 63.4818 61.7841 69.6238 61.7704C75.7657 61.7568 80.7558 66.7248 80.7694 72.8668ZM78.5075 72.8718C78.5184 77.7645 74.5608 81.7397 69.6681 81.7505C64.7754 81.7614 60.8002 77.8038 60.7893 72.9111C60.7785 68.0183 64.7361 64.0432 69.6288 64.0323C74.5215 64.0215 78.4967 67.979 78.5075 72.8718Z" fill="#F7931D"/>
<path fill-rule="evenodd" clip-rule="evenodd" d="M70.2419 23.8322C69.9518 23.5634 69.5032 23.5643 69.2143 23.8345L66.3229 26.5385C65.1674 27.6192 63.3731 27.6232 62.2128 26.5477L59.3892 23.9304C59.0862 23.6496 58.6137 23.6649 58.3295 23.9646L56.8711 25.5028C56.6316 25.7553 56.5962 26.139 56.7853 26.4312L62.6083 35.4283C62.7476 35.6435 62.9866 35.7732 63.2429 35.7726L76.2662 35.7437C76.5225 35.7432 76.761 35.6124 76.8993 35.3966L82.6824 26.3737C82.8702 26.0807 82.833 25.6972 82.5924 25.4457L81.1272 23.9141C80.8417 23.6156 80.3691 23.6024 80.0674 23.8846L77.2554 26.5143C76.0999 27.5949 74.3056 27.5989 73.1453 26.5234L70.2419 23.8322ZM67.6694 22.1825C68.8249 21.1018 70.6192 21.0978 71.7795 22.1733L74.6829 24.8645C74.973 25.1334 75.4215 25.1324 75.7104 24.8622L78.5224 22.2325C79.7292 21.1039 81.6195 21.1565 82.7617 22.3505L84.2269 23.8821C85.1892 24.8882 85.3379 26.4222 84.5867 27.5943L78.8036 36.6172C78.2504 37.4804 77.2965 38.0033 76.2712 38.0056L63.248 38.0345C62.2227 38.0368 61.2665 37.518 60.7094 36.6573L54.8864 27.6602C54.1299 26.4914 54.2718 24.9567 55.2297 23.9465L56.6881 22.4083C57.825 21.2093 59.715 21.1483 60.9268 22.2716L63.7504 24.8888C64.0405 25.1577 64.4891 25.1567 64.7779 24.8865L67.6694 22.1825Z" fill="#F7931D"/>
<path fill-rule="evenodd" clip-rule="evenodd" d="M61.2842 41.0548C61.2823 40.222 61.9559 39.5453 62.7887 39.5435L76.3601 39.5134C77.1929 39.5115 77.8696 40.1852 77.8714 41.018C77.8733 41.8508 77.1996 42.5274 76.3668 42.5293L62.7954 42.5594C61.9626 42.5612 61.286 41.8876 61.2842 41.0548Z" fill="#F7931D"/>
<path d="M73.5561 75.1213C73.5579 75.9035 73.2842 76.5946 72.735 77.1946C72.1377 77.8333 71.3224 78.207 70.2893 78.3155L70.2924 79.6772L69.1769 79.6797L69.1739 78.318C68.15 78.2333 67.3333 77.9212 66.7236 77.3818C66.114 76.8327 65.7309 76.0899 65.5743 75.1535L67.5868 74.6854C67.6554 75.1199 67.83 75.4816 68.1107 75.7707C68.3914 76.0598 68.754 76.2522 69.1985 76.3478L69.1932 73.972L68.715 73.8862C67.8648 73.7239 67.1928 73.3777 66.6991 72.8476C66.1958 72.3369 65.9432 71.6904 65.9415 70.9082C65.93 70.0776 66.2374 69.3526 66.8638 68.7332C67.4998 68.104 68.262 67.7498 69.1503 67.6706L69.1472 66.2799L70.2626 66.2775L70.2657 67.6826C71.2221 67.7964 71.9665 68.1279 72.4988 68.6772C73.0119 69.2169 73.3029 69.7957 73.3719 70.4136L71.432 70.9829C71.2759 70.2879 70.8838 69.8493 70.2557 69.6673L70.2608 71.9995L70.6087 72.0712C71.5362 72.243 72.2661 72.6083 72.7985 73.1673C73.3019 73.707 73.5545 74.3583 73.5561 75.1213ZM69.1594 71.7992L69.1884 71.8136L69.1836 69.6262C68.8554 69.6945 68.5901 69.8351 68.3878 70.048C68.1854 70.2513 68.0845 70.4785 68.0851 70.7296C68.0864 71.3187 68.4445 71.6752 69.1594 71.7992ZM70.2657 74.187L70.2705 76.3744C70.6084 76.306 70.8737 76.1702 71.0664 75.967C71.2687 75.7637 71.3696 75.5269 71.369 75.2565C71.3685 75.0054 71.2666 74.7835 71.0633 74.5908C70.8697 74.3884 70.6038 74.2538 70.2657 74.187Z" fill="#F7931D"/>
</svg>
