<svg width="312" height="350" viewBox="0 0 312 350" fill="white" xmlns="http://www.w3.org/2000/svg">
<path fill-rule="evenodd" clip-rule="evenodd" d="M312 0H0V350H312V0ZM197.427 38.9131C197.448 38.4537 197.82 38.0736 198.338 38.0725L222.488 38.0189C222.98 38.0178 223.384 38.4052 223.404 38.8962L224.618 68.4099L196.014 68.4733C196.537 57.7242 197.022 47.6227 197.427 38.9131ZM195.819 72.4738L224.783 72.4095L229.326 182.858C229.347 183.379 228.929 183.813 228.408 183.81L190.403 183.638L191.712 155.409C192.159 146.331 192.684 135.79 193.24 124.605L193.243 124.541L193.243 124.539L193.245 124.506L193.245 124.5C194.082 107.676 194.991 89.404 195.819 72.4738ZM186.372 183.633C186.54 179.386 187.035 169.089 187.703 155.503L189.549 115.696C189.567 115.292 189.319 114.924 188.939 114.79L139.74 97.4724C139.144 97.2626 138.52 97.7057 138.522 98.3374L138.711 183.739L151.034 183.711L150.996 166.257L152.996 166.253C150.996 166.257 150.996 166.255 150.996 166.255L150.996 166.252L150.996 166.247L150.996 166.233L150.996 166.194C150.997 166.163 150.997 166.122 150.999 166.073C151.002 165.974 151.009 165.84 151.021 165.674C151.046 165.344 151.095 164.886 151.191 164.342C151.383 163.263 151.772 161.798 152.571 160.31C153.376 158.812 154.607 157.274 156.473 156.117C158.343 154.957 160.738 154.249 163.754 154.243C166.77 154.236 169.168 154.933 171.044 156.085C172.914 157.234 174.153 158.766 174.964 160.261C175.77 161.745 176.165 163.208 176.361 164.286C176.46 164.829 176.511 165.287 176.537 165.618C176.551 165.783 176.558 165.918 176.561 166.016C176.563 166.066 176.564 166.106 176.565 166.137L176.565 166.176L176.566 166.19L176.566 166.196V166.198C176.566 166.198 176.566 166.2 174.566 166.205L176.566 166.2L176.604 183.654L186.372 183.633ZM193.431 38.7274C192.514 58.453 191.182 85.4301 189.917 110.894L141.068 93.6993C137.867 92.5724 134.514 94.9524 134.522 98.3463L134.55 111.022L85.6857 93.8222C82.4844 92.6953 79.1314 95.0752 79.139 98.4691L79.3264 182.955C79.3324 185.67 81.5378 187.865 84.2522 187.859L188.313 187.628L228.389 187.81C231.192 187.823 233.438 185.494 233.322 182.694L227.401 38.7318C227.292 36.094 225.119 34.0131 222.479 34.0189L198.329 34.0725C195.736 34.0783 193.554 36.0798 193.431 38.7274ZM134.269 115.81L134.42 183.748L120.056 183.78L120.017 166.326L118.017 166.33C120.017 166.326 120.017 166.324 120.017 166.324L120.017 166.321L120.017 166.315L120.017 166.301L120.016 166.262C120.016 166.231 120.015 166.191 120.013 166.142C120.009 166.043 120.002 165.908 119.989 165.743C119.963 165.413 119.912 164.955 119.813 164.412C119.616 163.334 119.221 161.87 118.416 160.386C117.604 158.891 116.366 157.359 114.495 156.21C112.619 155.058 110.222 154.361 107.205 154.368C104.189 154.375 101.795 155.082 99.924 156.243C98.0586 157.4 96.8271 158.937 96.0222 160.436C95.2231 161.923 94.8346 163.389 94.643 164.467C94.5463 165.011 94.4975 165.469 94.4727 165.8C94.4603 165.965 94.4539 166.1 94.4506 166.198C94.4489 166.248 94.448 166.288 94.4475 166.319L94.4471 166.358L94.4471 166.372L94.447 166.378L94.4471 166.38C94.4471 166.38 94.4471 166.383 96.4471 166.378L94.4471 166.383L94.4858 183.837L84.2433 183.859C83.738 183.86 83.3275 183.452 83.3264 182.947L83.139 98.4603C83.1376 97.8285 83.7617 97.3855 84.3576 97.5953L133.658 114.949C134.023 115.078 134.268 115.423 134.269 115.81ZM116.017 166.338L116.056 183.789L98.4858 183.828L98.4471 166.38L98.4473 166.367L98.4483 166.333C98.4492 166.305 98.4509 166.265 98.4538 166.215C98.4558 166.181 98.4583 166.142 98.4616 166.098C98.4777 165.883 98.5114 165.56 98.5813 165.167C98.7224 164.373 99.0025 163.34 99.546 162.328C100.084 161.327 100.869 160.364 102.033 159.642C103.191 158.923 104.838 158.373 107.214 158.368C109.591 158.363 111.24 158.905 112.402 159.619C113.569 160.336 114.358 161.296 114.9 162.294C115.448 163.304 115.733 164.335 115.878 165.129C115.949 165.522 115.984 165.844 116.001 166.059C116.01 166.167 116.014 166.247 116.016 166.294L116.017 166.319L116.017 166.334L116.017 166.341L116.017 166.338ZM172.604 183.663L155.034 183.702L154.996 166.254C154.996 166.247 154.996 166.232 154.997 166.208C154.998 166.16 155.002 166.08 155.01 165.973C155.026 165.757 155.06 165.435 155.13 165.042C155.271 164.247 155.551 163.215 156.095 162.203C156.632 161.202 157.417 160.238 158.581 159.516C159.74 158.798 161.387 158.248 163.763 158.243C166.139 158.237 167.789 158.78 168.95 159.493C170.117 160.21 170.907 161.17 171.449 162.169C171.997 163.178 172.281 164.21 172.426 165.004C172.498 165.396 172.533 165.718 172.55 165.934C172.554 165.984 172.557 166.028 172.559 166.065C172.56 166.087 172.561 166.106 172.562 166.124L172.564 166.169C172.565 166.193 172.566 166.209 172.566 166.216L172.604 183.663ZM44.14 261.292L50.6515 257.357L50.7042 281.597L55.3042 281.586L55.2407 252.426L50.8808 252.436L42.0125 257.816L44.14 261.292ZM71.2124 281.87C68.1457 281.877 65.6372 281.003 63.6867 279.247C61.8431 277.625 60.772 275.574 60.4733 273.095L64.9115 272.285C65.0483 273.858 65.6777 275.15 66.7999 276.16C67.9489 277.224 69.4168 277.754 71.2034 277.75C73.3901 277.745 75.055 276.942 76.1982 275.339C76.8097 274.511 77.1142 273.524 77.1117 272.377C77.1085 270.91 76.5726 269.725 75.504 268.821C74.4088 267.97 73.0879 267.546 71.5412 267.55C70.3945 267.552 69.4483 267.754 68.7025 268.156L66.5351 264.761L75.1172 256.501L61.3572 256.533L61.3482 252.413L81.1082 252.368L81.1165 256.208L73.133 263.786C75.7733 263.913 77.9085 264.789 79.5387 266.411C81.169 268.034 81.9599 269.993 81.9115 272.286C81.9181 275.299 80.8432 277.662 78.687 279.373C76.6639 281.031 74.1724 281.864 71.2124 281.87ZM98.1724 281.849C100.546 281.844 102.678 281.159 104.568 279.795C106.458 278.511 107.921 276.707 108.956 274.385C109.938 272.143 110.426 269.622 110.42 266.822C110.414 263.995 109.915 261.476 108.923 259.265C107.932 257.054 106.488 255.257 104.592 253.875C102.722 252.572 100.587 251.924 98.1873 251.929C94.5339 251.938 91.5638 253.398 89.2768 256.309C87.0429 259.141 85.9306 262.677 85.9399 266.917C85.946 269.744 86.4449 272.276 87.4364 274.514C88.4279 276.725 89.8718 278.508 91.7681 279.864C93.6376 281.193 95.7724 281.855 98.1724 281.849ZM98.1164 256.129C99.5564 256.126 100.891 256.617 102.12 257.6C104.497 259.648 105.691 262.739 105.7 266.872C105.704 268.792 105.401 270.593 104.792 272.274C104.182 273.902 103.318 275.184 102.2 276.12C101.055 277.11 99.7365 277.606 98.2432 277.609C96.0299 277.641 94.201 276.605 92.7564 274.502C91.3118 272.372 90.6129 269.826 90.6598 266.866C90.6506 262.653 91.8172 259.557 94.1596 257.578C95.3308 256.616 96.6497 256.133 98.1164 256.129ZM142.849 279.708C140.959 281.073 138.827 281.758 136.454 281.763C134.054 281.768 131.919 281.106 130.049 279.777C128.153 278.422 126.709 276.638 125.718 274.427C124.726 272.189 124.227 269.657 124.221 266.831C124.212 262.59 125.324 259.055 127.558 256.223C129.845 253.311 132.815 251.851 136.468 251.843C138.868 251.837 141.003 252.486 142.873 253.788C144.769 255.171 146.213 256.967 147.204 259.179C148.196 261.39 148.695 263.909 148.701 266.735C148.707 269.535 148.219 272.056 147.237 274.298C146.202 276.621 144.74 278.424 142.849 279.708ZM140.401 257.514C139.172 256.53 137.838 256.04 136.398 256.043C134.931 256.046 133.612 256.529 132.441 257.492C130.098 259.471 128.932 262.566 128.941 266.78C128.894 269.74 129.593 272.285 131.038 274.415C132.482 276.518 134.311 277.554 136.524 277.523C138.018 277.519 139.337 277.023 140.481 276.034C141.599 275.098 142.463 273.816 143.073 272.188C143.682 270.507 143.985 268.706 143.981 266.786C143.972 262.652 142.779 259.562 140.401 257.514ZM164.891 281.699C167.264 281.693 169.396 281.008 171.287 279.644C173.177 278.36 174.64 276.557 175.675 274.234C176.657 271.992 177.144 269.471 177.138 266.671C177.132 263.844 176.633 261.325 175.642 259.114C174.65 256.903 173.206 255.106 171.31 253.724C169.441 252.422 167.306 251.773 164.906 251.778C161.253 251.787 158.282 253.247 155.995 256.159C153.762 258.99 152.649 262.526 152.658 266.766C152.665 269.593 153.163 272.125 154.155 274.363C155.146 276.574 156.59 278.357 158.487 279.713C160.356 281.042 162.491 281.704 164.891 281.699ZM164.835 255.979C166.275 255.975 167.609 256.466 168.838 257.45C171.216 259.498 172.409 262.588 172.418 266.722C172.423 268.642 172.12 270.442 171.51 272.124C170.9 273.752 170.036 275.034 168.919 275.969C167.774 276.959 166.455 277.455 164.962 277.458C162.748 277.49 160.92 276.454 159.475 274.351C158.03 272.221 157.331 269.676 157.378 266.716C157.369 262.502 158.536 259.406 160.878 257.428C162.049 256.465 163.368 255.982 164.835 255.979ZM199.724 279.58C197.834 280.944 195.702 281.629 193.328 281.634C190.928 281.64 188.794 280.978 186.924 279.649C185.028 278.293 183.584 276.51 182.592 274.299C181.601 272.061 181.102 269.529 181.096 266.702C181.087 262.462 182.199 258.926 184.433 256.094C186.72 253.182 189.69 251.722 193.343 251.714C195.743 251.709 197.878 252.357 199.748 253.66C201.644 255.042 203.088 256.839 204.079 259.05C205.071 261.261 205.57 263.78 205.576 266.607C205.582 269.407 205.094 271.928 204.112 274.17C203.077 276.492 201.615 278.296 199.724 279.58ZM197.276 257.385C196.047 256.401 194.712 255.911 193.272 255.914C191.806 255.918 190.487 256.401 189.316 257.363C186.973 259.342 185.807 262.438 185.816 266.651C185.769 269.611 186.468 272.156 187.912 274.287C189.357 276.39 191.186 277.426 193.399 277.394C194.893 277.391 196.211 276.894 197.356 275.905C198.474 274.969 199.338 273.687 199.948 272.059C200.557 270.378 200.86 268.577 200.856 266.657C200.847 262.524 199.653 259.433 197.276 257.385ZM224.8 277.203L224.766 261.323L220.326 261.333L220.369 281.213L248.969 281.149L248.925 261.269L244.485 261.279L244.52 277.159L236.84 277.176L236.805 261.296L232.405 261.306L232.44 277.186L224.8 277.203ZM259.18 281.125L259.145 265.245L252.665 265.26L252.657 261.26L270.097 261.221L270.105 265.221L263.585 265.235L263.62 281.115L259.18 281.125ZM105.163 310.526H106.939V306.846H107.019L110.379 310.526H112.779L108.891 306.382L112.523 302.574H110.171L107.019 305.918H106.939V302.574H105.163V310.526ZM115.621 310.67C114.842 310.67 114.202 310.446 113.701 309.998C113.2 309.56 112.949 309 112.949 308.318V308.238C112.96 307.224 113.472 306.52 114.485 306.126C115.029 305.912 115.616 305.806 116.245 305.806H117.237C117.728 305.806 117.973 305.582 117.973 305.134C117.973 304.792 117.84 304.504 117.573 304.27C117.285 304.035 116.896 303.918 116.405 303.918C115.936 303.918 115.546 304.04 115.237 304.286C114.928 304.52 114.741 304.84 114.677 305.246L113.061 304.878C113.114 304.504 113.296 304.104 113.605 303.678C113.936 303.251 114.352 302.931 114.853 302.718C115.29 302.515 115.829 302.414 116.469 302.414C117.962 302.414 118.954 302.958 119.445 304.046C119.626 304.44 119.717 304.91 119.717 305.454V309.246C119.717 309.779 119.733 310.206 119.765 310.526H118.037C117.984 310.28 117.957 309.918 117.957 309.438C117.69 309.875 117.349 310.19 116.933 310.382C116.506 310.574 116.069 310.67 115.621 310.67ZM117.957 307.054H116.245C115.872 307.054 115.525 307.15 115.205 307.342C114.885 307.544 114.725 307.816 114.725 308.158C114.725 308.488 114.842 308.755 115.077 308.958C115.312 309.15 115.616 309.246 115.989 309.246C116.597 309.246 117.077 309.07 117.429 308.718C117.781 308.366 117.957 307.896 117.957 307.31V307.054ZM123.453 304.174V310.526H125.229V304.174H127.837V302.574H120.861V304.174H123.453ZM131.911 309.63L128.375 302.574H130.391L132.871 307.79L135.159 302.574H137.079L131.623 314.446H129.735L131.911 309.63ZM140.22 308.926V302.574H138.444V310.526H149.884V302.574H148.108V308.926H145.036V302.574H143.276V308.926H140.22ZM159.585 307.07H153.537C153.548 307.646 153.793 308.142 154.273 308.558C154.753 308.963 155.286 309.16 155.873 309.15C156.982 309.15 157.686 308.702 157.985 307.806L159.473 308.27C159.334 308.75 159.078 309.176 158.705 309.55C158.342 309.923 157.916 310.206 157.425 310.398C156.913 310.579 156.401 310.67 155.889 310.67C154.737 310.691 153.75 310.296 152.929 309.486C152.108 308.675 151.708 307.694 151.729 306.542C151.729 305.795 151.9 305.107 152.241 304.478C152.593 303.827 153.073 303.326 153.681 302.974C154.3 302.6 154.982 302.414 155.729 302.414C156.945 302.414 157.894 302.792 158.577 303.55C159.27 304.307 159.617 305.299 159.617 306.526C159.617 306.675 159.606 306.856 159.585 307.07ZM155.745 303.934C155.18 303.934 154.71 304.099 154.337 304.43C153.942 304.75 153.708 305.182 153.633 305.726H157.809C157.777 305.192 157.569 304.755 157.185 304.414C156.78 304.094 156.3 303.934 155.745 303.934ZM161.429 310.526H163.205V306.846H163.285L166.645 310.526H169.045L165.157 306.382L168.789 302.574H166.437L163.285 305.918H163.205V302.574H161.429V310.526ZM174.101 302.574H178.325C179.093 302.574 179.727 302.744 180.229 303.086C180.719 303.438 180.965 303.928 180.965 304.558C180.965 305.39 180.538 305.992 179.685 306.366C180.133 306.451 180.517 306.675 180.837 307.038C181.146 307.411 181.301 307.854 181.301 308.366C181.301 309.134 180.997 309.694 180.389 310.046C179.813 310.366 179.146 310.526 178.389 310.526H174.101V302.574ZM175.861 305.822H177.941C178.325 305.822 178.618 305.736 178.821 305.566C179.034 305.384 179.141 305.155 179.141 304.878C179.141 304.622 179.034 304.414 178.821 304.254C178.618 304.083 178.335 303.998 177.973 303.998H175.861V305.822ZM175.861 309.07H178.133C178.559 309.07 178.89 308.984 179.125 308.814C179.359 308.632 179.477 308.376 179.477 308.046C179.477 307.747 179.343 307.518 179.077 307.358C178.821 307.198 178.485 307.118 178.069 307.118H175.861V309.07ZM187.116 302.574V310.526H188.892V304.174H192.716V302.574H187.116ZM193.182 306.542C193.182 305.774 193.374 305.07 193.758 304.43C194.163 303.768 194.675 303.272 195.294 302.942C195.934 302.59 196.638 302.414 197.406 302.414C198.152 302.414 198.846 302.59 199.486 302.942C200.126 303.294 200.638 303.784 201.022 304.414C201.395 305.064 201.582 305.763 201.582 306.51C201.603 307.651 201.192 308.638 200.35 309.47C199.518 310.291 198.531 310.691 197.39 310.67C196.654 310.67 195.955 310.488 195.294 310.126C194.675 309.795 194.163 309.299 193.758 308.638C193.374 307.998 193.182 307.299 193.182 306.542ZM195.006 306.51C195.006 307.203 195.23 307.8 195.678 308.302C196.126 308.803 196.702 309.054 197.406 309.054C198.099 309.054 198.67 308.808 199.118 308.318C199.555 307.827 199.774 307.235 199.774 306.542C199.774 305.827 199.55 305.23 199.102 304.75C198.675 304.259 198.104 304.014 197.39 304.014C196.686 304.014 196.11 304.254 195.662 304.734C195.224 305.203 195.006 305.795 195.006 306.51ZM203.811 310.526H209.763V312.99H211.507V308.926H210.499V302.574H204.387L203.939 306.318C203.864 306.968 203.672 307.571 203.363 308.126C203.064 308.68 202.643 308.958 202.099 308.958H202.067V312.99H203.811V310.526ZM205.667 306.478L205.971 304.174H208.707V308.926H204.499C204.84 308.659 205.101 308.307 205.283 307.87C205.496 307.422 205.624 306.958 205.667 306.478ZM103.866 222.434V233H101.166V219.878H111.966V233H109.266V222.434H103.866ZM117.322 225.17H117.286V224.054H114.694V237.41H117.304V232.01H117.34C117.976 232.79 118.858 233.18 119.986 233.18C121.258 233.18 122.308 232.688 123.136 231.704C123.916 230.792 124.306 229.73 124.306 228.518C124.306 227.342 123.934 226.286 123.19 225.35C122.386 224.366 121.342 223.874 120.058 223.874C118.882 223.874 117.97 224.306 117.322 225.17ZM117.25 228.518C117.25 227.846 117.46 227.3 117.88 226.88C118.288 226.46 118.81 226.25 119.446 226.25C120.082 226.25 120.61 226.46 121.03 226.88C121.45 227.324 121.66 227.87 121.66 228.518C121.66 229.19 121.45 229.736 121.03 230.156C120.598 230.588 120.07 230.804 119.446 230.804C118.834 230.804 118.312 230.588 117.88 230.156C117.46 229.736 117.25 229.19 117.25 228.518ZM125.614 228.554C125.614 227.702 125.836 226.904 126.28 226.16C126.712 225.428 127.306 224.858 128.062 224.45C128.842 224.042 129.664 223.838 130.528 223.838C131.428 223.838 132.244 224.042 132.976 224.45C133.72 224.846 134.308 225.404 134.74 226.124C135.173 226.82 135.388 227.612 135.388 228.5C135.388 229.376 135.173 230.174 134.74 230.894C134.296 231.626 133.702 232.19 132.958 232.586C132.214 232.994 131.392 233.198 130.492 233.198C129.604 233.198 128.782 233 128.026 232.604C127.282 232.184 126.7 231.626 126.28 230.93C125.836 230.186 125.614 229.394 125.614 228.554ZM128.926 226.88C128.507 227.324 128.296 227.87 128.296 228.518C128.296 229.166 128.507 229.712 128.926 230.156C129.359 230.588 129.887 230.804 130.51 230.804C131.122 230.804 131.644 230.588 132.076 230.156C132.496 229.748 132.706 229.202 132.706 228.518C132.706 227.846 132.496 227.3 132.076 226.88C131.644 226.448 131.116 226.232 130.492 226.232C129.88 226.232 129.359 226.448 128.926 226.88ZM139.875 233L143.151 227.834H143.169V233H145.743V224.054H143.133L139.839 229.256H139.821V224.054H137.247V233H139.875ZM154.301 232.316C153.605 232.892 152.663 233.18 151.475 233.18C150.455 233.18 149.585 232.934 148.865 232.442C148.133 231.938 147.689 231.212 147.533 230.264L149.765 229.706C150.017 230.594 150.575 231.038 151.439 231.038C151.799 231.038 152.123 230.948 152.411 230.768C152.687 230.6 152.825 230.348 152.825 230.012C152.825 229.7 152.699 229.466 152.447 229.31C152.171 229.166 151.871 229.094 151.547 229.094C151.199 229.094 150.839 229.172 150.467 229.328L149.675 227.852L152.033 226.25H147.767V224.054H155.129V226.034L152.951 227.492C153.575 227.588 154.109 227.816 154.553 228.176C155.081 228.608 155.345 229.232 155.345 230.048C155.345 230.996 154.997 231.752 154.301 232.316ZM162.757 224.054H157.321V233H162.703C163.615 233 164.395 232.808 165.043 232.424C165.691 232.028 166.015 231.404 166.015 230.552C166.015 229.412 165.439 228.668 164.287 228.32C165.247 227.888 165.727 227.204 165.727 226.268C165.727 225.452 165.379 224.87 164.683 224.522C164.095 224.21 163.453 224.054 162.757 224.054ZM162.127 227.564H159.877V225.962H162.163C162.475 225.962 162.715 226.034 162.883 226.178C163.051 226.322 163.135 226.502 163.135 226.718C163.135 226.958 163.051 227.162 162.883 227.33C162.715 227.486 162.463 227.564 162.127 227.564ZM162.343 230.948H159.877V229.292H162.271C162.643 229.292 162.925 229.37 163.117 229.526C163.321 229.67 163.423 229.862 163.423 230.102C163.423 230.666 163.063 230.948 162.343 230.948ZM167.38 228.554C167.38 227.702 167.602 226.904 168.046 226.16C168.478 225.428 169.072 224.858 169.828 224.45C170.608 224.042 171.43 223.838 172.294 223.838C173.194 223.838 174.01 224.042 174.742 224.45C175.486 224.846 176.074 225.404 176.506 226.124C176.938 226.82 177.154 227.612 177.154 228.5C177.154 229.376 176.938 230.174 176.506 230.894C176.062 231.626 175.468 232.19 174.724 232.586C173.98 232.994 173.158 233.198 172.258 233.198C171.37 233.198 170.548 233 169.792 232.604C169.048 232.184 168.466 231.626 168.046 230.93C167.602 230.186 167.38 229.394 167.38 228.554ZM170.692 226.88C170.272 227.324 170.062 227.87 170.062 228.518C170.062 229.166 170.272 229.712 170.692 230.156C171.124 230.588 171.652 230.804 172.276 230.804C172.888 230.804 173.41 230.588 173.842 230.156C174.262 229.748 174.472 229.202 174.472 228.518C174.472 227.846 174.262 227.3 173.842 226.88C173.41 226.448 172.882 226.232 172.258 226.232C171.646 226.232 171.124 226.448 170.692 226.88ZM177.853 230.732H177.835V235.754H180.265V233H186.493V235.754H188.923V230.75H187.789V224.054H180.193L179.833 227.582C179.737 228.53 179.515 229.286 179.167 229.85C178.783 230.438 178.345 230.732 177.853 230.732ZM185.179 226.322V230.75H181.003L180.985 230.732C181.801 230.132 182.281 229.1 182.425 227.636L182.551 226.322H185.179ZM196.764 227.834L193.488 233H190.86V224.054H193.434V229.256H193.452L196.746 224.054H199.356V233H196.782V227.834H196.764ZM208.436 233L210.65 226.88H210.686V233H213.26V224.054H209.678L207.518 229.904L205.322 224.054H201.776V233H204.332V226.988H204.35L206.6 233H208.436Z" fill="#F7931D" fill-opacity="1"/>
</svg>
