<svg width="312" height="350" viewBox="0 0 312 350" fill="#ffffff" xmlns="http://www.w3.org/2000/svg">
<path fill-rule="evenodd" clip-rule="evenodd" d="M312 0H0V350H312V0ZM150.114 46.4504C153.275 46.4434 155.833 43.8744 155.826 40.7125C155.819 37.5506 153.25 34.993 150.088 35C146.926 35.007 144.369 37.576 144.376 40.7379C144.379 42.2001 144.93 43.5331 145.834 44.543L132 60.7878C131.253 60.4325 130.416 60.2346 129.533 60.2365C128.151 60.2396 126.885 60.732 125.898 61.5493L111.647 53.4479C111.727 53.0648 111.768 52.6676 111.768 52.2606C111.761 49.0987 109.192 46.5411 106.03 46.5482C102.868 46.5552 100.31 49.1241 100.317 52.286C100.319 53.2911 100.58 54.235 101.037 55.055L93.8389 63.2587C93.0438 62.8435 92.1391 62.6096 91.1798 62.6117C88.0178 62.6187 85.4603 65.1876 85.4673 68.3496C85.4743 71.5115 88.0432 74.069 91.2052 74.062C94.3671 74.055 96.9247 71.4861 96.9176 68.3242C96.9146 66.9495 96.4273 65.689 95.6176 64.7039L102.546 56.8074C103.517 57.5568 104.734 58.0014 106.055 57.9985C107.989 57.9942 109.697 57.0315 110.73 55.561L124.446 63.3582C124.044 64.1429 123.819 65.0323 123.821 65.9744C123.828 69.1363 126.397 71.6939 129.559 71.6869C132.721 71.6799 135.278 69.1109 135.271 65.949C135.268 64.4981 134.725 63.1744 133.834 62.1674L147.676 45.9129C148.416 46.2595 149.242 46.4523 150.114 46.4504ZM82.1236 109.578L94.1794 109.552L94.187 112.987L85.5664 113.006L85.7226 183.426L140.684 183.304L140.528 112.884L132.466 112.902L132.459 109.467L143.956 109.441L144.127 186.731L82.2951 186.868L82.1236 109.578ZM127.121 108.551L101.141 108.609L101.151 113.471L127.132 113.414L127.121 108.551ZM129.404 130.943L115.664 130.974L115.653 126.393L129.394 126.363L129.404 130.943ZM96.5128 143.898L129.719 143.824L129.709 139.244L96.5026 139.318L96.5128 143.898ZM129.747 156.419L96.5407 156.493L96.5306 151.913L129.737 151.839L129.747 156.419ZM96.5687 169.089L129.775 169.015L129.765 164.435L96.5585 164.508L96.5687 169.089ZM187.482 106.482L187.212 106.483L178.156 106.503C177.796 106.504 177.458 106.673 177.242 106.961L152.548 139.891C151.979 140.65 150.902 140.804 150.143 140.235C149.384 139.666 149.23 138.589 149.799 137.831L174.494 104.9C175.357 103.749 176.71 103.071 178.148 103.068L187.204 103.048L187.475 103.047L197.09 103.026C198.53 103.022 199.89 103.697 200.758 104.852C204.592 109.959 220.431 131.128 224.543 137.801C225.024 138.582 225.493 139.326 225.945 140.045L225.945 140.046L225.945 140.046C227.608 142.689 229.053 144.985 230.109 147.461C231.494 150.709 232.223 154.255 232.235 159.456C232.254 168.155 227.867 173.304 222.998 176.194C219.327 178.373 215.381 179.281 212.813 179.584C212.813 179.709 212.813 179.709 212.813 179.709L210.942 179.713L210.931 179.713L164.764 179.815L162.433 179.82C162.433 179.82 162.433 179.82 162.432 179.637C161.185 179.468 159.676 179.165 158.066 178.666C155.217 177.783 151.94 176.255 149.211 173.669C148.523 173.016 148.494 171.929 149.146 171.241C149.799 170.552 150.886 170.523 151.574 171.175C153.808 173.292 156.563 174.604 159.082 175.385C161.609 176.168 163.787 176.382 164.757 176.38L210.924 176.278L210.932 176.278C212.557 176.272 217.135 175.68 221.245 173.24C225.256 170.859 228.816 166.745 228.8 159.464C228.789 154.62 228.117 151.548 226.949 148.809C226.01 146.607 224.754 144.609 223.124 142.015L223.124 142.015L223.124 142.015C222.654 141.267 222.152 140.469 221.618 139.602C217.614 133.103 201.91 112.108 198.011 106.915C197.796 106.629 197.458 106.46 197.097 106.461L187.482 106.482ZM204.723 145.662C204.744 154.989 197.199 162.568 187.871 162.588C178.544 162.609 170.965 155.064 170.945 145.736C170.924 136.409 178.469 128.83 187.796 128.81C197.124 128.789 204.702 136.334 204.723 145.662ZM201.288 145.669C201.304 153.1 195.294 159.137 187.864 159.153C180.433 159.17 174.396 153.159 174.38 145.729C174.363 138.298 180.373 132.261 187.804 132.245C195.234 132.228 201.271 138.239 201.288 145.669ZM187.175 71.1971C187.613 70.7868 188.294 70.7853 188.735 71.1936L193.144 75.2806C194.907 76.914 197.631 76.908 199.386 75.2668L203.657 71.2731C204.115 70.8446 204.833 70.8646 205.266 71.3179L207.492 73.644C207.857 74.0259 207.913 74.6083 207.628 75.0534L198.846 88.7562C198.635 89.084 198.273 89.2825 197.884 89.2834L178.106 89.3273C177.717 89.3281 177.354 89.1312 177.142 88.8044L168.299 75.1406C168.011 74.6969 168.065 74.1142 168.429 73.7306L170.644 71.3947C171.076 70.9395 171.793 70.9163 172.253 71.3428L176.541 75.3175C178.304 76.9509 181.028 76.9448 182.783 75.3036L187.175 71.1971ZM191.07 68.6743C189.308 67.0409 186.583 67.047 184.828 68.6881L180.437 72.7947C179.998 73.205 179.317 73.2065 178.877 72.7982L174.588 68.8234C172.748 67.1176 169.878 67.2102 168.151 69.0312L165.936 71.3671C164.482 72.9014 164.266 75.2321 165.415 77.007L174.258 90.6708C175.104 91.978 176.556 92.7658 178.113 92.7624L197.892 92.7185C199.449 92.715 200.897 91.9208 201.738 90.6099L210.52 76.907C211.661 75.1269 211.435 72.7972 209.974 71.2694L207.749 68.9433C206.014 67.1301 203.143 67.0502 201.311 68.7641L197.04 72.7579C196.601 73.1682 195.92 73.1697 195.48 72.7613L191.07 68.6743ZM175.131 97.3492C175.128 96.0844 176.151 95.0568 177.416 95.054L198.027 95.0083C199.291 95.0055 200.319 96.0285 200.322 97.2933C200.325 98.5581 199.302 99.5856 198.037 99.5885L177.426 99.6342C176.161 99.637 175.134 98.614 175.131 97.3492ZM192.521 152.234C193.355 151.323 193.771 150.273 193.768 149.085C193.766 147.927 193.382 146.938 192.618 146.118C191.809 145.269 190.701 144.714 189.292 144.453L188.764 144.344L188.756 140.802C189.71 141.079 190.305 141.745 190.542 142.801L193.488 141.936C193.384 140.998 192.942 140.119 192.163 139.299C191.354 138.465 190.224 137.961 188.771 137.788L188.767 135.654L187.073 135.658L187.077 137.77C185.728 137.891 184.571 138.428 183.605 139.384C182.654 140.325 182.187 141.426 182.204 142.687C182.207 143.875 182.59 144.857 183.355 145.632C184.104 146.437 185.125 146.963 186.416 147.21L187.142 147.34L187.15 150.948C186.475 150.803 185.925 150.511 185.499 150.072C185.072 149.633 184.807 149.083 184.703 148.423L181.646 149.134C181.884 150.556 182.466 151.684 183.392 152.518C184.318 153.338 185.558 153.812 187.113 153.94L187.118 156.008L188.812 156.004L188.807 153.936C190.376 153.772 191.614 153.204 192.521 152.234ZM187.135 144.062L187.091 144.04C186.005 143.852 185.462 143.31 185.46 142.416C185.459 142.034 185.612 141.689 185.919 141.381C186.227 141.057 186.629 140.844 187.128 140.74L187.135 144.062ZM188.779 150.988L188.771 147.666C189.285 147.768 189.689 147.972 189.983 148.28C190.291 148.572 190.446 148.909 190.447 149.291C190.448 149.701 190.294 150.061 189.987 150.37C189.695 150.678 189.292 150.885 188.779 150.988ZM86.7395 281.59C83.6728 281.597 81.1642 280.722 79.2137 278.966C77.3701 277.344 76.2988 275.293 76 272.814L80.4382 272.004C80.575 273.577 81.2046 274.869 82.3268 275.88C83.4758 276.944 84.9437 277.474 86.7304 277.47C88.917 277.465 90.5819 276.661 91.725 275.059C92.3365 274.231 92.641 273.243 92.6385 272.097C92.6352 270.63 92.0992 269.444 91.0306 268.54C89.9353 267.689 88.6144 267.266 87.0677 267.269C85.9211 267.272 84.9748 267.474 84.2291 267.875L82.0615 264.48L90.6432 256.221L76.8833 256.252L76.8741 252.132L96.6341 252.088L96.6426 255.928L88.6594 263.505C91.2997 263.633 93.435 264.508 95.0652 266.131C96.6955 267.754 97.4865 269.713 97.4383 272.006C97.4449 275.019 96.3702 277.382 94.214 279.093C92.191 280.751 89.6995 281.583 86.7395 281.59ZM102.268 285.235L102.272 287.315C104.138 287.044 105.63 286.161 106.746 284.665C107.89 283.196 108.433 281.502 108.375 279.582C108.373 278.462 108.064 277.516 107.449 276.744C106.86 275.972 106.006 275.587 104.886 275.589C103.98 275.591 103.247 275.86 102.688 276.394C102.076 276.956 101.771 277.663 101.773 278.516C101.774 279.316 102.043 279.982 102.577 280.515C103.085 281.073 103.752 281.352 104.579 281.35C105.006 281.349 105.379 281.255 105.698 281.068C105.647 282.108 105.316 283.002 104.704 283.75C104.066 284.551 103.254 285.046 102.268 285.235ZM124.38 256.186L108.82 256.221L108.811 252.061L129.651 252.014L129.659 255.774L116.316 281.204L111.036 281.216L124.38 256.186ZM133.589 279.406C135.619 280.788 137.901 281.476 140.434 281.471C143.394 281.464 145.885 280.605 147.908 278.894C150.038 277.103 151.099 274.674 151.092 271.607C151.086 268.78 150.228 266.502 148.517 264.773C146.753 263.017 144.431 262.142 141.551 262.148C140.751 262.15 139.951 262.218 139.152 262.353C137.792 262.623 136.647 263.159 135.715 263.961L137.498 256.117L149.738 256.09L149.729 251.97L134.249 252.004L130.882 266.932L135.045 268.523C136.455 266.919 138.267 266.115 140.48 266.11C142.08 266.107 143.454 266.597 144.603 267.581C145.752 268.592 146.329 269.978 146.332 271.737C146.337 273.577 145.686 274.992 144.382 275.982C143.184 276.891 141.892 277.347 140.505 277.35C139.252 277.353 138.011 277.009 136.783 276.319C135.341 275.495 134.524 274.164 134.334 272.324L129.936 273.294C130.342 275.986 131.56 278.024 133.589 279.406ZM168.974 281.087L164.654 281.097L164.61 261.217L170.89 261.203L176.801 275.47L182.53 261.177L188.85 261.163L188.894 281.043L184.534 281.053L184.501 266.093L178.454 281.066L175.174 281.074L168.941 266.247L168.974 281.087ZM201.033 273.216L202.015 265.134L208.775 265.119L208.81 280.999L213.25 280.989L213.206 261.109L198.046 261.143L196.711 272.626C196.554 273.906 196.237 274.933 195.758 275.708C195.201 276.722 194.242 277.231 192.882 277.234L192.891 281.234L193.011 281.234C195.304 281.229 197.089 280.652 198.367 279.502C198.926 279.021 199.404 278.406 199.803 277.659C200.413 276.484 200.823 275.003 201.033 273.216ZM223.607 272.846L223.625 280.966L219.185 280.976L219.141 261.096L223.581 261.086L223.598 268.966L232.598 268.946L232.581 261.066L237.021 261.056L237.065 280.936L232.625 280.946L232.607 272.826L223.607 272.846ZM123 310.281H128.952V312.745H130.696V308.681H129.688V302.329H123.576L123.128 306.073C123.053 306.724 122.861 307.326 122.552 307.881C122.253 308.436 121.832 308.713 121.288 308.713H121.256V312.745H123V310.281ZM124.856 306.233L125.16 303.929H127.896V308.681H123.688C124.029 308.414 124.291 308.062 124.472 307.625C124.685 307.177 124.813 306.713 124.856 306.233ZM131.605 306.297C131.605 305.529 131.798 304.825 132.182 304.185C132.587 303.523 133.099 303.028 133.717 302.697C134.357 302.345 135.061 302.169 135.829 302.169C136.576 302.169 137.27 302.345 137.91 302.697C138.549 303.049 139.061 303.54 139.445 304.169C139.819 304.82 140.005 305.518 140.005 306.265C140.027 307.406 139.616 308.393 138.773 309.225C137.941 310.046 136.955 310.446 135.814 310.425C135.077 310.425 134.379 310.244 133.717 309.881C133.099 309.55 132.587 309.054 132.182 308.393C131.798 307.753 131.605 307.054 131.605 306.297ZM133.43 306.265C133.43 306.958 133.654 307.556 134.102 308.057C134.549 308.558 135.126 308.809 135.829 308.809C136.523 308.809 137.094 308.564 137.542 308.073C137.979 307.582 138.198 306.99 138.198 306.297C138.198 305.582 137.973 304.985 137.525 304.505C137.099 304.014 136.528 303.769 135.814 303.769C135.109 303.769 134.533 304.009 134.085 304.489C133.648 304.958 133.43 305.55 133.43 306.265ZM143.942 307.161L144.342 303.929H147.046V310.281H148.822V302.329H142.758L142.214 306.921C142.15 307.433 142.022 307.844 141.83 308.153C141.606 308.558 141.222 308.761 140.678 308.761V310.361H140.726C141.644 310.361 142.358 310.132 142.87 309.673C143.094 309.481 143.286 309.236 143.446 308.937C143.692 308.468 143.857 307.876 143.942 307.161ZM154.092 303.929L153.692 307.161C153.607 307.876 153.442 308.468 153.196 308.937C153.036 309.236 152.844 309.481 152.62 309.673C152.108 310.132 151.394 310.361 150.476 310.361H150.428V308.761C150.972 308.761 151.356 308.558 151.58 308.153C151.772 307.844 151.9 307.433 151.964 306.921L152.508 302.329H158.572V310.281H156.796V303.929H154.092ZM161.218 309.753C161.72 310.201 162.36 310.425 163.138 310.425C163.586 310.425 164.024 310.329 164.45 310.137C164.866 309.945 165.208 309.63 165.474 309.193C165.474 309.673 165.501 310.036 165.554 310.281H167.282C167.25 309.961 167.234 309.534 167.234 309.001V305.209C167.234 304.665 167.144 304.195 166.962 303.801C166.472 302.713 165.48 302.169 163.986 302.169C163.346 302.169 162.808 302.27 162.37 302.473C161.869 302.686 161.453 303.006 161.122 303.433C160.813 303.86 160.632 304.26 160.578 304.633L162.194 305.001C162.258 304.596 162.445 304.276 162.754 304.041C163.064 303.796 163.453 303.673 163.922 303.673C164.413 303.673 164.802 303.79 165.09 304.025C165.357 304.26 165.49 304.548 165.49 304.889C165.49 305.337 165.245 305.561 164.754 305.561H163.762C163.133 305.561 162.546 305.668 162.002 305.881C160.989 306.276 160.477 306.98 160.466 307.993V308.073C160.466 308.756 160.717 309.316 161.218 309.753ZM163.762 306.809H165.474V307.065C165.474 307.652 165.298 308.121 164.946 308.473C164.594 308.825 164.114 309.001 163.506 309.001C163.133 309.001 162.829 308.905 162.594 308.713C162.36 308.51 162.242 308.243 162.242 307.913C162.242 307.572 162.402 307.3 162.722 307.097C163.042 306.905 163.389 306.809 163.762 306.809ZM177.813 306.281C177.813 307.006 177.653 307.678 177.333 308.297C176.992 308.937 176.522 309.444 175.925 309.817C175.285 310.212 174.597 310.409 173.861 310.409C173.306 310.409 172.72 310.233 172.101 309.881C171.749 309.678 171.477 309.422 171.285 309.113V314.201H169.509V302.329H171.237V303.561C171.557 303.038 172 302.67 172.565 302.457C173.056 302.265 173.504 302.169 173.909 302.169C175.093 302.169 176.053 302.606 176.789 303.481C177.472 304.313 177.813 305.246 177.813 306.281ZM171.925 304.505C171.477 305.006 171.253 305.604 171.253 306.297C171.253 306.99 171.477 307.582 171.925 308.073C172.373 308.553 172.944 308.793 173.637 308.793C174.341 308.793 174.917 308.553 175.365 308.073C175.802 307.593 176.021 307.001 176.021 306.297C176.021 305.582 175.802 304.985 175.365 304.505C174.917 304.025 174.341 303.785 173.637 303.785C172.944 303.785 172.373 304.025 171.925 304.505ZM179.682 304.185C179.298 304.825 179.105 305.529 179.105 306.297C179.105 307.054 179.298 307.753 179.682 308.393C180.087 309.054 180.599 309.55 181.217 309.881C181.879 310.244 182.577 310.425 183.314 310.425C184.455 310.446 185.441 310.046 186.273 309.225C187.116 308.393 187.527 307.406 187.505 306.265C187.505 305.518 187.319 304.82 186.945 304.169C186.562 303.54 186.049 303.049 185.41 302.697C184.77 302.345 184.076 302.169 183.329 302.169C182.561 302.169 181.857 302.345 181.217 302.697C180.599 303.028 180.087 303.523 179.682 304.185ZM181.602 308.057C181.154 307.556 180.93 306.958 180.93 306.265C180.93 305.55 181.148 304.958 181.586 304.489C182.034 304.009 182.609 303.769 183.314 303.769C184.028 303.769 184.599 304.014 185.025 304.505C185.473 304.985 185.698 305.582 185.698 306.297C185.698 306.99 185.479 307.582 185.042 308.073C184.594 308.564 184.023 308.809 183.329 308.809C182.626 308.809 182.049 308.558 181.602 308.057ZM189.337 302.329H193.561C194.329 302.329 194.964 302.5 195.465 302.841C195.956 303.193 196.201 303.684 196.201 304.313C196.201 305.145 195.774 305.748 194.921 306.121C195.369 306.206 195.753 306.43 196.073 306.793C196.382 307.166 196.537 307.609 196.537 308.121C196.537 308.889 196.233 309.449 195.625 309.801C195.049 310.121 194.382 310.281 193.625 310.281H189.337V302.329ZM191.097 305.577H193.177C193.561 305.577 193.854 305.492 194.057 305.321C194.27 305.14 194.377 304.91 194.377 304.633C194.377 304.377 194.27 304.169 194.057 304.009C193.854 303.838 193.572 303.753 193.209 303.753H191.097V305.577ZM191.097 308.825H193.369C193.796 308.825 194.126 308.74 194.361 308.569C194.596 308.388 194.713 308.132 194.713 307.801C194.713 307.502 194.58 307.273 194.313 307.113C194.057 306.953 193.721 306.873 193.305 306.873H191.097V308.825ZM89.5686 219.633V232.755H92.2686V222.207H97.7946V219.633H89.5686ZM93.9952 228.309C93.9952 227.457 94.2172 226.659 94.6612 225.915C95.0932 225.183 95.6872 224.613 96.4432 224.205C97.2232 223.797 98.0452 223.593 98.9092 223.593C99.8092 223.593 100.625 223.797 101.357 224.205C102.101 224.601 102.689 225.159 103.121 225.879C103.553 226.575 103.769 227.367 103.769 228.255C103.769 229.131 103.553 229.929 103.121 230.649C102.677 231.381 102.083 231.945 101.339 232.341C100.595 232.749 99.7732 232.953 98.8732 232.953C97.9852 232.953 97.1632 232.755 96.4072 232.359C95.6632 231.939 95.0812 231.381 94.6612 230.685C94.2172 229.941 93.9952 229.149 93.9952 228.309ZM97.3072 226.635C96.8872 227.079 96.6772 227.625 96.6772 228.273C96.6772 228.921 96.8872 229.467 97.3072 229.911C97.7392 230.343 98.2672 230.559 98.8912 230.559C99.5032 230.559 100.025 230.343 100.457 229.911C100.877 229.503 101.087 228.957 101.087 228.273C101.087 227.601 100.877 227.055 100.457 226.635C100.025 226.203 99.4972 225.987 98.8732 225.987C98.2612 225.987 97.7392 226.203 97.3072 226.635ZM104.468 230.487H104.45V235.509H106.88V232.755H113.108V235.509H115.538V230.505H114.404V223.809H106.808L106.448 227.337C106.352 228.285 106.13 229.041 105.782 229.605C105.398 230.193 104.96 230.487 104.468 230.487ZM111.794 226.077V230.505H107.618L107.6 230.487C108.416 229.887 108.896 228.855 109.04 227.391L109.166 226.077H111.794ZM116.478 228.309C116.478 227.457 116.7 226.659 117.144 225.915C117.576 225.183 118.17 224.613 118.926 224.205C119.706 223.797 120.528 223.593 121.392 223.593C122.292 223.593 123.108 223.797 123.84 224.205C124.584 224.601 125.172 225.159 125.604 225.879C126.036 226.575 126.252 227.367 126.252 228.255C126.252 229.131 126.036 229.929 125.604 230.649C125.16 231.381 124.566 231.945 123.822 232.341C123.078 232.749 122.256 232.953 121.356 232.953C120.468 232.953 119.646 232.755 118.89 232.359C118.146 231.939 117.564 231.381 117.144 230.685C116.7 229.941 116.478 229.149 116.478 228.309ZM119.79 226.635C119.37 227.079 119.16 227.625 119.16 228.273C119.16 228.921 119.37 229.467 119.79 229.911C120.222 230.343 120.75 230.559 121.374 230.559C121.986 230.559 122.508 230.343 122.94 229.911C123.36 229.503 123.57 228.957 123.57 228.273C123.57 227.601 123.36 227.055 122.94 226.635C122.508 226.203 121.98 225.987 121.356 225.987C120.744 225.987 120.222 226.203 119.79 226.635ZM133.546 223.809H128.11V232.755H133.492C134.404 232.755 135.184 232.563 135.832 232.179C136.48 231.783 136.804 231.159 136.804 230.307C136.804 229.167 136.228 228.423 135.076 228.075C136.036 227.643 136.516 226.959 136.516 226.023C136.516 225.207 136.168 224.625 135.472 224.277C134.884 223.965 134.242 223.809 133.546 223.809ZM132.916 227.319H130.666V225.717H132.952C133.264 225.717 133.504 225.789 133.672 225.933C133.84 226.077 133.924 226.257 133.924 226.473C133.924 226.713 133.84 226.917 133.672 227.085C133.504 227.241 133.252 227.319 132.916 227.319ZM133.132 230.703H130.666V229.047H133.06C133.432 229.047 133.714 229.125 133.906 229.281C134.11 229.425 134.212 229.617 134.212 229.857C134.212 230.421 133.852 230.703 133.132 230.703ZM138.169 228.309C138.169 227.457 138.391 226.659 138.835 225.915C139.267 225.183 139.861 224.613 140.617 224.205C141.397 223.797 142.219 223.593 143.083 223.593C143.983 223.593 144.799 223.797 145.531 224.205C146.275 224.601 146.863 225.159 147.295 225.879C147.727 226.575 147.943 227.367 147.943 228.255C147.943 229.131 147.727 229.929 147.295 230.649C146.851 231.381 146.257 231.945 145.513 232.341C144.769 232.749 143.947 232.953 143.047 232.953C142.159 232.953 141.337 232.755 140.581 232.359C139.837 231.939 139.255 231.381 138.835 230.685C138.391 229.941 138.169 229.149 138.169 228.309ZM141.481 226.635C141.061 227.079 140.851 227.625 140.851 228.273C140.851 228.921 141.061 229.467 141.481 229.911C141.913 230.343 142.441 230.559 143.065 230.559C143.677 230.559 144.199 230.343 144.631 229.911C145.051 229.503 145.261 228.957 145.261 228.273C145.261 227.601 145.051 227.055 144.631 226.635C144.199 226.203 143.671 225.987 143.047 225.987C142.435 225.987 141.913 226.203 141.481 226.635ZM151.871 221.577C152.459 222.129 153.191 222.405 154.067 222.405C154.931 222.405 155.651 222.129 156.227 221.577C156.779 221.037 157.133 220.287 157.289 219.327L155.777 219.057C155.453 220.089 154.883 220.605 154.067 220.605C153.227 220.605 152.651 220.089 152.339 219.057L150.809 219.327C150.953 220.263 151.307 221.013 151.871 221.577ZM152.429 232.755L155.705 227.589H155.723V232.755H158.297V223.809H155.687L152.393 229.011H152.375V223.809H149.801V232.755H152.429ZM164.378 228.309C164.378 227.457 164.6 226.659 165.044 225.915C165.476 225.183 166.07 224.613 166.826 224.205C167.606 223.797 168.428 223.593 169.292 223.593C170.192 223.593 171.008 223.797 171.74 224.205C172.484 224.601 173.072 225.159 173.504 225.879C173.936 226.575 174.152 227.367 174.152 228.255C174.152 229.131 173.936 229.929 173.504 230.649C173.06 231.381 172.466 231.945 171.722 232.341C170.978 232.749 170.156 232.953 169.256 232.953C168.368 232.953 167.546 232.755 166.79 232.359C166.046 231.939 165.464 231.381 165.044 230.685C164.6 229.941 164.378 229.149 164.378 228.309ZM167.69 226.635C167.27 227.079 167.06 227.625 167.06 228.273C167.06 228.921 167.27 229.467 167.69 229.911C168.122 230.343 168.65 230.559 169.274 230.559C169.886 230.559 170.408 230.343 170.84 229.911C171.26 229.503 171.47 228.957 171.47 228.273C171.47 227.601 171.26 227.055 170.84 226.635C170.408 226.203 169.88 225.987 169.256 225.987C168.644 225.987 168.122 226.203 167.69 226.635ZM177.054 231.477C177.978 232.449 179.166 232.935 180.618 232.935C182.022 232.935 183.174 232.491 184.074 231.603C184.974 230.727 185.424 229.563 185.424 228.111C185.424 226.839 185.034 225.783 184.254 224.943C183.462 224.115 182.496 223.701 181.356 223.701C180.984 223.701 180.528 223.779 179.988 223.935C179.22 224.139 178.536 224.595 177.936 225.303L177.864 225.285C177.9 224.877 178.08 224.421 178.404 223.917C178.608 223.629 178.848 223.353 179.124 223.089C179.808 222.489 180.738 222.075 181.914 221.847L184.992 221.253L184.542 219.021L181.914 219.507C180.726 219.723 179.688 220.071 178.8 220.551C178.056 220.959 177.438 221.493 176.946 222.153C176.538 222.705 176.232 223.359 176.028 224.115C175.932 224.439 175.86 224.799 175.812 225.195C175.74 225.855 175.704 226.575 175.704 227.355C175.704 229.131 176.154 230.505 177.054 231.477ZM179.07 226.617C179.49 226.209 180 226.005 180.6 226.005C181.176 226.005 181.692 226.203 182.148 226.599C182.592 226.995 182.814 227.553 182.814 228.273C182.814 228.969 182.604 229.527 182.184 229.947C181.764 230.367 181.242 230.577 180.618 230.577C180.018 230.577 179.496 230.367 179.052 229.947C178.62 229.539 178.404 228.975 178.404 228.255C178.404 227.559 178.626 227.013 179.07 226.617ZM186.737 228.309C186.737 227.457 186.959 226.659 187.403 225.915C187.835 225.183 188.429 224.613 189.185 224.205C189.965 223.797 190.787 223.593 191.651 223.593C192.551 223.593 193.367 223.797 194.099 224.205C194.843 224.601 195.431 225.159 195.863 225.879C196.295 226.575 196.511 227.367 196.511 228.255C196.511 229.131 196.295 229.929 195.863 230.649C195.419 231.381 194.825 231.945 194.081 232.341C193.337 232.749 192.515 232.953 191.615 232.953C190.727 232.953 189.905 232.755 189.149 232.359C188.405 231.939 187.823 231.381 187.403 230.685C186.959 229.941 186.737 229.149 186.737 228.309ZM190.049 226.635C189.629 227.079 189.419 227.625 189.419 228.273C189.419 228.921 189.629 229.467 190.049 229.911C190.481 230.343 191.009 230.559 191.633 230.559C192.245 230.559 192.767 230.343 193.199 229.911C193.619 229.503 193.829 228.957 193.829 228.273C193.829 227.601 193.619 227.055 193.199 226.635C192.767 226.203 192.239 225.987 191.615 225.987C191.003 225.987 190.481 226.203 190.049 226.635ZM200.998 224.925H200.962V223.809H198.37V237.165H200.98V231.765H201.016C201.652 232.545 202.534 232.935 203.662 232.935C204.934 232.935 205.984 232.443 206.812 231.459C207.592 230.547 207.982 229.485 207.982 228.273C207.982 227.097 207.61 226.041 206.866 225.105C206.062 224.121 205.018 223.629 203.734 223.629C202.558 223.629 201.646 224.061 200.998 224.925ZM200.926 228.273C200.926 227.601 201.136 227.055 201.556 226.635C201.964 226.215 202.486 226.005 203.122 226.005C203.758 226.005 204.286 226.215 204.706 226.635C205.126 227.079 205.336 227.625 205.336 228.273C205.336 228.945 205.126 229.491 204.706 229.911C204.274 230.343 203.746 230.559 203.122 230.559C202.51 230.559 201.988 230.343 201.556 229.911C201.136 229.491 200.926 228.945 200.926 228.273ZM209.29 228.309C209.29 227.457 209.512 226.659 209.956 225.915C210.388 225.183 210.982 224.613 211.738 224.205C212.518 223.797 213.34 223.593 214.204 223.593C215.104 223.593 215.92 223.797 216.652 224.205C217.396 224.601 217.984 225.159 218.416 225.879C218.848 226.575 219.064 227.367 219.064 228.255C219.064 229.131 218.848 229.929 218.416 230.649C217.972 231.381 217.378 231.945 216.634 232.341C215.89 232.749 215.068 232.953 214.168 232.953C213.28 232.953 212.458 232.755 211.702 232.359C210.958 231.939 210.376 231.381 209.956 230.685C209.512 229.941 209.29 229.149 209.29 228.309ZM212.602 226.635C212.182 227.079 211.972 227.625 211.972 228.273C211.972 228.921 212.182 229.467 212.602 229.911C213.034 230.343 213.562 230.559 214.186 230.559C214.798 230.559 215.32 230.343 215.752 229.911C216.172 229.503 216.382 228.957 216.382 228.273C216.382 227.601 216.172 227.055 215.752 226.635C215.32 226.203 214.792 225.987 214.168 225.987C213.556 225.987 213.034 226.203 212.602 226.635ZM222.266 226.077V232.755H224.894V226.077H227.594V223.809H219.566V226.077H222.266Z" fill="#F7931D" fill-opacity="1"/>
</svg>
