<svg width="102" height="100" viewBox="0 0 102 100" fill="none" xmlns="http://www.w3.org/2000/svg">
<path fill-rule="evenodd" clip-rule="evenodd" d="M78.2984 2.63492C77.9622 2.63567 77.7201 2.88273 77.7063 3.18133C77.4432 8.84281 77.1282 15.409 76.7879 22.3962L95.3814 22.3549L94.5923 3.17035C94.5792 2.85118 94.3163 2.59939 93.9968 2.6001L78.2984 2.63492ZM95.4884 24.9548L76.661 24.9966C76.1221 36.0245 75.5299 47.9285 74.9848 58.8833C74.6231 66.1535 74.2822 73.0056 73.9915 78.9063L73.1408 97.256L97.8446 97.3681C98.1837 97.3696 98.4554 97.0878 98.4415 96.749L95.4884 24.9548ZM71.3858 78.9673C70.9512 87.7985 70.6297 94.4919 70.5202 97.2526L64.1713 97.2667L64.1461 85.9211L62.8461 85.924C64.1461 85.9211 64.1461 85.9197 64.1461 85.9197V85.9181L64.1461 85.9144L64.146 85.9053L64.1456 85.8799C64.1452 85.8598 64.1445 85.8335 64.1433 85.8015C64.1408 85.7374 64.1363 85.6499 64.1277 85.5422C64.1107 85.3275 64.0776 85.03 64.0132 84.6768C63.8855 83.9762 63.6288 83.0248 63.1051 82.0601C62.5776 81.0884 61.7726 80.0926 60.5568 79.3458C59.3374 78.5969 57.7788 78.1439 55.8182 78.1483C53.8577 78.1526 52.3011 78.6125 51.0851 79.3668C49.8726 80.119 49.072 81.1183 48.5488 82.0924C48.0294 83.0594 47.7769 84.012 47.6523 84.7132C47.5895 85.0666 47.5577 85.3642 47.5417 85.579C47.5336 85.6867 47.5294 85.7742 47.5272 85.8383C47.5262 85.8704 47.5256 85.8967 47.5253 85.9167L47.525 85.9422L47.525 85.9513L47.5249 85.9549L47.525 85.9566C47.525 85.9566 47.525 85.958 48.825 85.9551L47.525 85.958L47.5501 97.3036L39.5397 97.3213L39.4165 41.8086C39.4156 41.3979 39.8213 41.1099 40.2087 41.2463L72.1888 52.5033C72.4363 52.5905 72.5975 52.8296 72.5854 53.0918L71.3858 78.9673ZM72.8246 49.9707C73.647 33.4185 74.5132 15.8828 75.109 3.06064C75.1889 1.33961 76.607 0.0385732 78.2926 0.0348338L93.9911 8.01656e-06C95.7072 -0.00379904 97.1197 1.34884 97.1902 3.06349L101.039 96.6421C101.114 98.4622 99.6544 99.9764 97.8328 99.9682L71.7823 99.8499L4.14012 100C2.37569 100.004 0.942161 98.5767 0.938247 96.8123L0.816414 41.8942C0.81152 39.6881 2.991 38.1411 5.07197 38.8736L36.8347 50.0541L36.8164 41.8143C36.8115 39.6082 38.991 38.0612 41.072 38.7937L72.8246 49.9707ZM36.7501 97.3275L36.6521 53.1661C36.6516 52.9143 36.4925 52.6901 36.2549 52.6065L4.20866 41.3262C3.82129 41.1898 3.41559 41.4778 3.41651 41.8884L3.53834 96.8065C3.53906 97.135 3.80591 97.4006 4.13435 97.3999L10.7922 97.3851L10.767 86.0395L12.0671 86.0367C10.767 86.0395 10.767 86.0381 10.767 86.0381L10.767 86.0365L10.767 86.0328L10.7671 86.0237L10.7674 85.9983C10.7677 85.9782 10.7682 85.9519 10.7693 85.9199C10.7715 85.8558 10.7757 85.7682 10.7837 85.6606C10.7998 85.4458 10.8316 85.1481 10.8944 84.7947C11.019 84.0935 11.2715 83.141 11.7909 82.1739C12.3141 81.1999 13.1147 80.2006 14.3272 79.4484C15.5432 78.694 17.0998 78.2342 19.0603 78.2298C21.0209 78.2255 22.5795 78.6784 23.7988 79.4274C25.0147 80.1742 25.8197 81.1699 26.3472 82.1416C26.8709 83.1064 27.1276 84.0578 27.2553 84.7584C27.3197 85.1115 27.3528 85.409 27.3698 85.6238C27.3783 85.7314 27.3829 85.8189 27.3854 85.883C27.3866 85.9151 27.3873 85.9413 27.3877 85.9614L27.3881 85.9868L27.3882 85.996L27.3882 85.9996L27.3882 86.0012C27.3882 86.0012 27.3882 86.0027 26.0881 86.0056L27.3882 86.0027L27.4134 97.3483L36.7501 97.3275ZM24.8133 97.354L24.7881 86.0109L24.7881 86.0125C24.788 86.008 24.7878 85.9978 24.7872 85.9823C24.786 85.9513 24.7834 85.8994 24.7779 85.8295C24.7667 85.6894 24.7439 85.4799 24.6974 85.2247C24.6033 84.7087 24.4183 84.0383 24.0621 83.3821C23.7097 82.733 23.1966 82.1088 22.438 81.6429C21.6829 81.1791 20.6108 80.8265 19.0661 80.8299C17.5214 80.8333 16.4508 81.1907 15.6978 81.6579C14.9413 82.1272 14.431 82.7536 14.0815 83.4043C13.7282 84.062 13.5461 84.7332 13.4544 85.2496C13.409 85.505 13.3871 85.7146 13.3766 85.8548C13.3713 85.9247 13.369 85.9766 13.3679 86.0076C13.3674 86.0231 13.3672 86.0333 13.3672 86.0378L13.3671 86.0351L13.3923 97.3794L24.8133 97.354ZM50.1502 97.2978L61.5712 97.2725L61.546 85.9312C61.5459 85.9268 61.5457 85.9162 61.5451 85.9008C61.5439 85.8698 61.5413 85.8178 61.5358 85.748C61.5246 85.6078 61.5018 85.3983 61.4553 85.1431C61.3612 84.6271 61.1762 83.9567 60.82 83.3006C60.4676 82.6514 59.9545 82.0273 59.1959 81.5614C58.4408 81.0976 57.3687 80.7449 55.824 80.7484C54.2793 80.7518 53.2088 81.1092 52.4557 81.5763C51.6992 82.0456 51.1889 82.672 50.8394 83.3227C50.4861 83.9804 50.3041 84.6517 50.2123 85.1681C50.1669 85.4235 50.145 85.6331 50.1345 85.7733C50.1293 85.8432 50.1269 85.8951 50.1259 85.9261C50.1253 85.9416 50.1251 85.9518 50.1251 85.9562L50.125 85.9547L50.1502 97.2978Z" fill="#F7931D"/>
</svg>
