<svg width="101" height="100" viewBox="0 0 101 100" fill="none" xmlns="http://www.w3.org/2000/svg">
<path fill-rule="evenodd" clip-rule="evenodd" d="M33.9293 76.2353V67.641C33.9293 65.9559 32.5657 64.5847 30.8772 64.5847H18.5496C16.8611 64.5847 15.4975 65.9559 15.4975 67.641V76.2353H11.8575C5.30593 76.2353 0 81.558 0 88.1176C0 94.6772 5.30593 100 11.8575 100H88.2886C94.8402 100 100.146 94.6772 100.146 88.1176C100.146 81.558 94.8402 76.2353 88.2886 76.2353H85.0008V67.641C85.0008 65.9559 83.6372 64.5847 81.9487 64.5847H69.6211C67.9326 64.5847 66.569 65.9559 66.569 67.641V76.2353H57.5279V70.4653C57.5279 68.7803 56.1642 67.4091 54.4758 67.4091H45.6703C43.9818 67.4091 42.6182 68.7803 42.6182 70.4653V76.2353H33.9293ZM18.5496 67.1668C18.2929 67.1668 18.0796 67.3762 18.0796 67.641V76.2353H31.3473V67.641C31.3473 67.3762 31.134 67.1668 30.8772 67.1668H26.1806V70.9949H23.5985V67.1668H18.5496ZM45.2003 76.2353H54.9458V70.4653C54.9458 70.2006 54.7325 69.9911 54.4758 69.9911H51.5402V72.5836H48.9581V69.9911H45.6703C45.4136 69.9911 45.2003 70.2006 45.2003 70.4653V76.2353ZM69.151 76.2353H82.4187V67.641C82.4187 67.3762 82.2054 67.1668 81.9487 67.1668H77.252V70.9949H74.67V67.1668H69.6211C69.3643 67.1668 69.151 67.3762 69.151 67.641V76.2353ZM11.8575 78.8173C6.73767 78.8173 2.58203 82.9782 2.58203 88.1176C2.58203 93.2569 6.73767 97.418 11.8575 97.418H88.2886C93.4084 97.418 97.5641 93.2569 97.5641 88.1176C97.5641 82.9782 93.4084 78.8173 88.2886 78.8173H11.8575Z" fill="#F7931D"/>
<path fill-rule="evenodd" clip-rule="evenodd" d="M13.7947 82.237C10.4528 82.237 7.74877 84.9517 7.74877 88.2941C7.74877 91.6365 10.4528 94.3512 13.7947 94.3512C17.1367 94.3512 19.8407 91.6365 19.8407 88.2941C19.8407 84.9517 17.1367 82.237 13.7947 82.237ZM13.7947 84.819C11.8845 84.819 10.3308 86.372 10.3308 88.2941C10.3308 90.2162 11.8845 91.7692 13.7947 91.7692C15.7049 91.7692 17.2586 90.2162 17.2586 88.2941C17.2586 86.372 15.7049 84.819 13.7947 84.819Z" fill="#F7931D"/>
<path fill-rule="evenodd" clip-rule="evenodd" d="M86.7036 82.237C83.3616 82.237 80.6576 84.9517 80.6576 88.2941C80.6576 91.6365 83.3616 94.3512 86.7036 94.3512C90.0455 94.3512 92.7495 91.6365 92.7495 88.2941C92.7495 84.9517 90.0455 82.237 86.7036 82.237ZM86.7036 84.819C84.7934 84.819 83.2397 86.372 83.2397 88.2941C83.2397 90.2162 84.7934 91.7692 86.7036 91.7692C88.6138 91.7692 90.1675 90.2162 90.1675 88.2941C90.1675 86.372 88.6138 84.819 86.7036 84.819Z" fill="#F7931D"/>
<path fill-rule="evenodd" clip-rule="evenodd" d="M29.8206 15.622V13.0399L5.96328 13.0415C5.92222 13.0429 5.86798 13.0454 5.8024 13.0501C5.67169 13.0595 5.49341 13.0776 5.28288 13.1127C4.86791 13.1821 4.29495 13.3231 3.70641 13.6181C3.11275 13.9156 2.48026 14.382 1.99915 15.1054C1.51275 15.8367 1.23276 16.7535 1.23276 17.8614C1.23276 18.9693 1.51275 19.8861 1.99915 20.6174C2.48026 21.3408 3.11275 21.8072 3.70641 22.1048C4.29495 22.3997 4.86791 22.5408 5.28288 22.6101C5.49341 22.6453 5.67169 22.6634 5.8024 22.6727L5.96328 22.6829H14.7931V32.925C14.2246 33.0483 13.7068 33.2715 13.2474 33.5964C12.5123 34.1163 12.0186 34.8312 11.6864 35.5942C11.0584 37.0369 10.9249 38.8517 10.9189 40.5128C10.6728 40.8561 10.3761 41.2793 10.0781 41.7274C9.7162 42.2715 9.33765 42.8742 9.04477 43.4246C8.89872 43.6991 8.76185 43.9831 8.6585 44.255C8.56563 44.4994 8.4532 44.8508 8.4532 45.2226C8.4532 45.6034 8.58179 45.9936 8.67505 46.2494C8.78586 46.5534 8.93524 46.8943 9.10039 47.2428C9.43204 47.9426 9.8662 48.7546 10.2896 49.5141C10.7152 50.2773 11.1395 51.0048 11.4567 51.5403C11.6155 51.8084 11.748 52.0293 11.841 52.1835C11.8875 52.2606 11.9242 52.3211 11.9494 52.3625L11.9783 52.4101L11.9889 52.4274C12.3608 53.0357 13.1555 53.2273 13.7638 52.8553C14.3721 52.4834 14.5636 51.6887 14.1917 51.0804L14.1913 51.0798L14.183 51.0662L14.1561 51.0219L14.1095 50.9451L14.052 50.8499C13.962 50.7007 13.8331 50.4858 13.6782 50.2244C13.368 49.7007 12.9559 48.994 12.5449 48.2568C12.1318 47.5158 11.7294 46.7611 11.4337 46.1371C11.2852 45.8236 11.1731 45.5632 11.1009 45.3651C11.0788 45.3045 11.0636 45.258 11.0533 45.2241C11.0584 45.2093 11.0646 45.192 11.0721 45.1723C11.1228 45.0388 11.2061 44.8594 11.3242 44.6375C11.5597 44.195 11.8855 43.6723 12.2281 43.1573C12.5326 42.6994 12.8386 42.265 13.0845 41.924H18.7316C18.9774 42.265 19.2835 42.6994 19.588 43.1573C19.9305 43.6723 20.2564 44.195 20.4918 44.6375C20.6099 44.8594 20.6932 45.0388 20.7439 45.1723C20.7514 45.192 20.7576 45.2093 20.7628 45.2241C20.7524 45.258 20.7372 45.3045 20.7151 45.3651C20.6429 45.5632 20.5309 45.8236 20.3823 46.1371C20.0866 46.7611 19.6842 47.5158 19.2712 48.2568C18.8602 48.994 18.448 49.7007 18.1378 50.2244C17.9829 50.4858 17.854 50.7007 17.764 50.8499C17.719 50.9245 17.6838 50.9826 17.66 51.0219L17.633 51.0662L17.6247 51.0798L17.6243 51.0804C17.2524 51.6887 17.444 52.4834 18.0523 52.8553C18.6606 53.2273 19.4555 53.0353 19.8274 52.427L19.8377 52.4101L19.8667 52.3625C19.8919 52.3211 19.9285 52.2606 19.975 52.1835C20.068 52.0293 20.2005 51.8084 20.3593 51.5403C20.6765 51.0048 21.1009 50.2773 21.5264 49.5141C21.9498 48.7546 22.384 47.9426 22.7156 47.2428C22.8808 46.8943 23.0302 46.5534 23.141 46.2494C23.2342 45.9936 23.3628 45.6034 23.3628 45.2226C23.3628 44.8508 23.2504 44.4994 23.1575 44.255C23.0542 43.9831 22.9173 43.6991 22.7713 43.4246C22.4784 42.8742 22.0998 42.2715 21.7379 41.7274C21.4399 41.2793 21.1432 40.8561 20.8971 40.5128C20.8911 38.8517 20.7576 37.0369 20.1296 35.5942C19.7974 34.8312 19.3037 34.1163 18.5686 33.5964C18.2059 33.3399 17.8069 33.1468 17.3751 33.0162V22.6829H29.8206V20.1009H6.05415L6.0495 20.1007C6.03896 20.1004 6.01753 20.0995 5.9868 20.0973C5.92489 20.0928 5.828 20.0834 5.70833 20.0634C5.46289 20.0224 5.15531 19.9427 4.86331 19.7964C4.57643 19.6526 4.32837 19.4571 4.14908 19.1875C3.97507 18.9259 3.81479 18.5188 3.81479 17.8614C3.81479 17.2041 3.97507 16.797 4.14908 16.5353C4.32837 16.2658 4.57643 16.0702 4.86331 15.9264C5.15531 15.7801 5.46289 15.7005 5.70833 15.6595C5.828 15.6395 5.92489 15.63 5.9868 15.6256C6.01753 15.6234 6.03896 15.6225 6.0495 15.6221L6.05415 15.622H29.8206ZM13.5343 39.3419H18.2817C18.2192 38.2462 18.0633 37.3166 17.7622 36.6249C17.566 36.1743 17.3333 35.8852 17.0777 35.7045C16.8315 35.5304 16.4743 35.3926 15.908 35.3926C15.3417 35.3926 14.9845 35.5304 14.7383 35.7045C14.4828 35.8852 14.25 36.1743 14.0539 36.6249C13.7527 37.3166 13.5968 38.2462 13.5343 39.3419Z" fill="#F7931D"/>
<path fill-rule="evenodd" clip-rule="evenodd" d="M72.2287 15.622V13.0399L96.086 13.0415C96.1271 13.0429 96.1813 13.0454 96.2469 13.0501C96.3776 13.0595 96.5559 13.0776 96.7664 13.1127C97.1814 13.1821 97.7544 13.3231 98.3429 13.6181C98.9366 13.9156 99.569 14.382 100.05 15.1054C100.537 15.8367 100.817 16.7535 100.817 17.8614C100.817 18.9693 100.537 19.8861 100.05 20.6174C99.569 21.3408 98.9366 21.8072 98.3429 22.1047C97.7544 22.3997 97.1814 22.5408 96.7664 22.6101C96.5559 22.6453 96.3776 22.6633 96.2469 22.6727L96.086 22.6829H87.2562V32.925C87.8247 33.0483 88.3425 33.2715 88.8019 33.5964C89.537 34.1163 90.0307 34.8312 90.3629 35.5942C90.9909 37.0369 91.1244 38.8517 91.1304 40.5128C91.3765 40.8561 91.6732 41.2793 91.9712 41.7273C92.3331 42.2715 92.7116 42.8741 93.0045 43.4246C93.1506 43.6991 93.2874 43.9831 93.3908 44.255C93.4837 44.4994 93.5961 44.8508 93.5961 45.2225C93.5961 45.6034 93.4675 45.9936 93.3742 46.2494C93.2634 46.5534 93.1141 46.8942 92.9489 47.2428C92.6173 47.9426 92.1831 48.7546 91.7597 49.5141C91.3341 50.2773 90.9098 51.0048 90.5926 51.5403C90.4338 51.8084 90.3013 52.0293 90.2083 52.1835C90.1618 52.2606 90.1251 52.3211 90.1 52.3625L90.071 52.4101L90.0604 52.4274C89.6885 53.0357 88.8938 53.2273 88.2855 52.8553C87.6772 52.4834 87.4857 51.6887 87.8576 51.0804L87.858 51.0798L87.8663 51.0662L87.8933 51.0219L87.9398 50.9451L87.9973 50.8499C88.0873 50.7007 88.2162 50.4858 88.3711 50.2244C88.6812 49.7007 89.0935 48.9939 89.5044 48.2568C89.9175 47.5158 90.3199 46.7611 90.6156 46.137C90.7641 45.8236 90.8762 45.5632 90.9484 45.3651C90.9705 45.3045 90.9857 45.258 90.996 45.2241C90.9909 45.2093 90.9847 45.192 90.9772 45.1723C90.9265 45.0388 90.8432 44.8594 90.7251 44.6374C90.4896 44.1949 90.1638 43.6723 89.8212 43.1573C89.5167 42.6994 89.2107 42.265 88.9648 41.924H83.3177C83.0719 42.265 82.7658 42.6994 82.4613 43.1573C82.1188 43.6723 81.7929 44.1949 81.5575 44.6374C81.4394 44.8594 81.3561 45.0388 81.3054 45.1723C81.2979 45.192 81.2917 45.2093 81.2865 45.2241C81.2969 45.258 81.3121 45.3045 81.3342 45.3651C81.4064 45.5632 81.5184 45.8236 81.667 46.137C81.9627 46.7611 82.3651 47.5158 82.7781 48.2568C83.1891 48.9939 83.6013 49.7007 83.9115 50.2244C84.0664 50.4858 84.1953 50.7007 84.2853 50.8499C84.3303 50.9245 84.3655 50.9826 84.3893 51.0219L84.4163 51.0662L84.4246 51.0798L84.425 51.0804C84.7969 51.6887 84.6053 52.4834 83.997 52.8553C83.3887 53.2273 82.5938 53.0352 82.2219 52.4269L82.2116 52.4101L82.1826 52.3625C82.1574 52.3211 82.1208 52.2606 82.0743 52.1835C81.9813 52.0293 81.8488 51.8084 81.69 51.5403C81.3728 51.0048 80.9484 50.2773 80.5229 49.5141C80.0995 48.7546 79.6653 47.9426 79.3337 47.2428C79.1685 46.8942 79.0191 46.5534 78.9083 46.2494C78.8151 45.9936 78.6865 45.6034 78.6865 45.2225C78.6865 44.8508 78.7989 44.4994 78.8918 44.255C78.9951 43.9831 79.132 43.6991 79.278 43.4246C79.5709 42.8741 79.9495 42.2715 80.3114 41.7273C80.6094 41.2793 80.9061 40.8561 81.1522 40.5128C81.1582 38.8517 81.2917 37.0369 81.9197 35.5942C82.2519 34.8312 82.7456 34.1163 83.4807 33.5964C83.8434 33.3399 84.2424 33.1468 84.6742 33.0162V22.6829H72.2287V20.1009H95.9951L95.9998 20.1007C96.0103 20.1004 96.0318 20.0995 96.0625 20.0973C96.1244 20.0928 96.2213 20.0833 96.341 20.0633C96.5864 20.0223 96.894 19.9427 97.186 19.7964C97.4729 19.6526 97.7209 19.4571 97.9002 19.1875C98.0742 18.9259 98.2345 18.5187 98.2345 17.8614C98.2345 17.2041 98.0742 16.797 97.9002 16.5353C97.7209 16.2657 97.4729 16.0702 97.186 15.9264C96.894 15.7801 96.5864 15.7005 96.341 15.6595C96.2213 15.6395 96.1244 15.63 96.0625 15.6256C96.0318 15.6234 96.0103 15.6225 95.9998 15.6221L95.9952 15.622H72.2287ZM88.515 39.3419H83.7676C83.8301 38.2462 83.986 37.3166 84.2871 36.6248C84.4833 36.1743 84.716 35.8852 84.9716 35.7045C85.2178 35.5304 85.575 35.3926 86.1413 35.3926C86.7076 35.3926 87.0648 35.5304 87.311 35.7045C87.5665 35.8852 87.7993 36.1743 87.9954 36.6248C88.2966 37.3166 88.4525 38.2462 88.515 39.3419Z" fill="#F7931D"/>
<path fill-rule="evenodd" clip-rule="evenodd" d="M53.0859 38.1768C52.6265 37.8519 52.1087 37.6287 51.5402 37.5054V34.7796C53.0829 34.6382 53.9068 33.2829 54.2077 32.2698C54.4646 31.4048 55.0049 30.7731 55.7137 30.4796C56.4235 30.1858 57.2533 30.2503 58.0471 30.6802C58.9897 31.1907 60.562 31.5698 61.7594 30.524C62.3478 30.0101 62.9007 29.4569 63.4144 28.8684C64.4599 27.6703 64.0797 26.0979 63.5695 25.1557C63.1402 24.3631 63.0757 23.5338 63.3693 22.8244C63.6629 22.1158 64.2947 21.575 65.1598 21.318C66.1873 21.0126 67.5673 20.1693 67.6748 18.5832C67.7276 17.8035 67.7276 17.0211 67.6748 16.2414C67.5673 14.6553 66.1873 13.8119 65.1597 13.5067C64.2947 13.2497 63.6629 12.7095 63.3694 12.0006C63.0756 11.2909 63.1402 10.461 63.57 9.66724C64.0805 8.72464 64.4597 7.15231 63.4138 5.95492C62.8999 5.36655 62.3467 4.81363 61.7582 4.29997C60.5602 3.25446 58.9877 3.63471 58.0456 4.1449C57.2527 4.57422 56.4233 4.63868 55.7137 4.34494C55.0053 4.05122 54.4648 3.41958 54.2077 2.55459C53.9024 1.5271 53.059 0.147158 51.473 0.0396419C50.6932 -0.0132148 49.9108 -0.0132131 49.1311 0.0396419C47.545 0.147156 46.7016 1.52709 46.3964 2.55475C46.1394 3.41974 45.5992 4.05148 44.8903 4.34494C44.1805 4.63875 43.3507 4.57424 42.5569 4.14435C41.6143 3.63389 40.042 3.25473 38.8446 4.30056C38.2562 4.81447 37.7033 5.36761 37.1896 5.9562C36.1441 7.1542 36.5243 8.72663 37.0345 9.66881C37.4639 10.4616 37.5283 11.291 37.2346 12.0006C36.9407 12.7092 36.3086 13.2501 35.4427 13.5076C34.4152 13.8131 33.0369 14.6567 32.9295 16.2417C32.8394 17.5714 32.903 18.909 33.1203 20.2277C33.1972 20.7696 33.6708 21.1754 34.2256 21.1619C35.6881 21.1265 36.819 21.8201 37.2346 22.824C37.5284 23.5337 37.4639 24.3635 37.034 25.1573C36.5235 26.0999 36.1444 27.6723 37.1902 28.8696C37.7041 29.458 38.2573 30.0109 38.8459 30.5246C40.0439 31.5701 41.6163 31.1899 42.5584 30.6797C43.3511 30.2504 44.1804 30.1859 44.8899 30.4795C45.5985 30.7731 46.1392 31.4048 46.3963 32.27C46.6903 33.2595 47.4833 34.5758 48.9581 34.7679V37.5966C48.5264 37.7272 48.1274 37.9203 47.7647 38.1768C47.0296 38.6966 46.5359 39.4116 46.2037 40.1746C45.5756 41.6173 45.4421 43.432 45.4362 45.0932C45.19 45.4364 44.8933 45.8597 44.5954 46.3077C44.2334 46.8519 43.8549 47.4545 43.562 48.005C43.416 48.2794 43.2791 48.5634 43.1757 48.8354C43.0829 49.0797 42.9705 49.4311 42.9705 49.8029C42.9705 50.1838 43.099 50.5739 43.1923 50.8298C43.3031 51.1338 43.4525 51.4746 43.6176 51.8231C43.9493 52.523 44.3835 53.3349 44.8069 54.0944C45.2324 54.8577 45.6567 55.5851 45.9739 56.1206C46.1328 56.3888 46.2652 56.6096 46.3582 56.7638C46.4047 56.8409 46.4414 56.9014 46.4666 56.9429L46.4956 56.9905L46.5061 57.0077C46.8781 57.616 47.6727 57.8076 48.281 57.4357C48.8893 57.0637 49.0809 56.269 48.7089 55.6607L48.7086 55.6602L48.6733 55.6022C48.6495 55.563 48.6143 55.5049 48.5693 55.4303C48.4793 55.2811 48.3503 55.0662 48.1955 54.8047C47.8853 54.2811 47.4731 53.5743 47.0621 52.8371C46.649 52.0962 46.2467 51.3415 45.9509 50.7174C45.8024 50.404 45.6904 50.1435 45.6182 49.9455C45.5961 49.8848 45.5809 49.8384 45.5705 49.8045C45.5756 49.7896 45.5819 49.7724 45.5893 49.7527C45.6401 49.6192 45.7233 49.4398 45.8415 49.2178C46.0769 48.7753 46.4028 48.2526 46.7453 47.7376C47.0498 47.2798 47.3559 46.8453 47.6017 46.5043H53.2488C53.4946 46.8453 53.8007 47.2798 54.1052 47.7376C54.4477 48.2526 54.7736 48.7753 55.0091 49.2178C55.1272 49.4398 55.2104 49.6192 55.2612 49.7527C55.2687 49.7724 55.2749 49.7896 55.28 49.8045C55.2697 49.8384 55.2545 49.8848 55.2323 49.9455C55.1601 50.1435 55.0481 50.404 54.8996 50.7174C54.6038 51.3415 54.2015 52.0962 53.7884 52.8371C53.3774 53.5743 52.9652 54.2811 52.6551 54.8047C52.5002 55.0662 52.3713 55.2811 52.2813 55.4303L52.2232 55.5264L52.1772 55.6022L52.142 55.6602L52.1415 55.6608C51.7696 56.2691 51.9612 57.0637 52.5695 57.4357C53.1778 57.8076 53.9727 57.6156 54.3447 57.0073L54.355 56.9905L54.3839 56.9429L54.4126 56.8955L54.4923 56.7638C54.5853 56.6096 54.7178 56.3888 54.8766 56.1206C55.1938 55.5851 55.6181 54.8577 56.0436 54.0944C56.4671 53.3349 56.9012 52.523 57.2329 51.8231C57.398 51.4746 57.5474 51.1338 57.6582 50.8298C57.7515 50.5739 57.8801 50.1838 57.8801 49.8029C57.8801 49.4311 57.7676 49.0797 57.6748 48.8354C57.5714 48.5634 57.4346 48.2794 57.2885 48.005C56.9956 47.4545 56.6171 46.8519 56.2552 46.3077C55.9572 45.8597 55.6605 45.4364 55.4143 45.0932C55.4084 43.432 55.2749 41.6173 54.6468 40.1746C54.3147 39.4116 53.821 38.6966 53.0859 38.1768ZM48.0516 43.9223H52.7989C52.7365 42.8266 52.5806 41.897 52.2794 41.2052C52.0832 40.7547 51.8505 40.4656 51.595 40.2849C51.3488 40.1108 50.9915 39.973 50.4253 39.973C49.859 39.973 49.5017 40.1108 49.2556 40.2849C49 40.4656 48.7673 40.7547 48.5711 41.2052C48.27 41.897 48.1141 42.8266 48.0516 43.9223ZM51.3258 2.21119C50.6441 2.16498 49.96 2.16498 49.2783 2.21119C49.1593 2.21926 49.0272 2.27304 48.8776 2.43399C48.7192 2.60437 48.5748 2.86468 48.4828 3.1745C48.0703 4.56335 47.1326 5.77233 45.7228 6.35597C44.3134 6.9394 42.7952 6.7486 41.5204 6.05825C41.2361 5.9043 40.9499 5.82239 40.7173 5.81395C40.4977 5.80598 40.3662 5.86139 40.2764 5.93984C39.762 6.38914 39.2786 6.87275 38.8295 7.38734C38.7511 7.47717 38.6957 7.60869 38.7038 7.82856C38.7123 8.06131 38.7944 8.34783 38.9485 8.6324C39.6384 9.90654 39.8288 11.4243 39.2456 12.8331C38.6617 14.242 37.4528 15.1807 36.063 15.5939C35.7535 15.6859 35.4936 15.8302 35.3235 15.9884C35.1628 16.1379 35.1091 16.2699 35.101 16.3889C35.0412 17.2717 35.0589 18.1586 35.1541 19.0391C36.9225 19.2757 38.5349 20.2746 39.2456 21.9914C39.829 23.4008 39.6382 24.919 38.9479 26.1938C38.7939 26.4781 38.712 26.7643 38.7036 26.9969C38.6956 27.2166 38.751 27.348 38.8295 27.4378C39.2788 27.9522 39.7624 28.4356 40.277 28.8847C40.3668 28.9631 40.4983 29.0185 40.7182 29.0104C40.951 29.0019 41.2375 28.9198 41.522 28.7657C42.7962 28.0758 44.314 27.8854 45.7228 28.4686C47.1311 29.0522 48.0698 30.2604 48.4827 31.65C48.5747 31.9598 48.7192 32.2202 48.8776 32.3906C49.0272 32.5515 49.1593 32.6053 49.2782 32.6134C49.96 32.6596 50.644 32.6596 51.3257 32.6134C51.4447 32.6053 51.5768 32.5515 51.7264 32.3906C51.8848 32.2202 52.0292 31.9599 52.1212 31.6501C52.5338 30.2612 53.4714 29.0522 54.8812 28.4686C56.2906 27.8852 57.8088 28.076 59.0836 28.7663C59.3679 28.9203 59.6542 29.0022 59.8867 29.0106C60.1064 29.0186 60.2378 28.9632 60.3276 28.8847C60.842 28.4354 61.3255 27.9518 61.7745 27.4372C61.8529 27.3474 61.9083 27.2159 61.9003 26.996C61.8917 26.7632 61.8096 26.4767 61.6555 26.1922C60.9656 24.918 60.7752 23.4002 61.3584 21.9914C61.9421 20.5831 63.1503 19.6445 64.5399 19.2316C64.8497 19.1395 65.11 18.9951 65.2804 18.8367C65.4414 18.6871 65.4952 18.555 65.5032 18.436C65.5494 17.7543 65.5494 17.0703 65.5032 16.3886C65.4952 16.2696 65.4414 16.1375 65.2804 15.9879C65.1101 15.8295 64.8498 15.6851 64.5399 15.5931C63.1511 15.1806 61.9421 14.243 61.3584 12.8331C60.775 11.4238 60.9658 9.90553 61.6561 8.63077C61.8101 8.34648 61.892 8.06021 61.9004 7.82767C61.9084 7.60801 61.853 7.47656 61.7745 7.38674C61.3252 6.87234 60.8416 6.38893 60.327 5.93984C60.2372 5.86144 60.1057 5.80604 59.8858 5.81412C59.6531 5.82266 59.3666 5.90474 59.082 6.05884C57.8078 6.74879 56.29 6.93917 54.8812 6.35597C53.4729 5.77233 52.5343 4.56412 52.1213 3.17457C52.0293 2.86471 51.8848 2.60439 51.7265 2.434C51.5768 2.27304 51.4447 2.21926 51.3258 2.21119ZM35.2676 19.8719L35.2712 19.8938C35.281 19.9529 35.2859 20.0126 35.2859 20.0725C35.2859 20.0038 35.2796 19.9368 35.2676 19.8719Z" fill="#F7931D"/>
<path fill-rule="evenodd" clip-rule="evenodd" d="M35.2676 19.8719L35.2712 19.8938C35.281 19.9529 35.2859 20.0126 35.2859 20.0725C35.2859 20.0038 35.2796 19.9368 35.2676 19.8719Z" fill="#F7931D"/>
<path fill-rule="evenodd" clip-rule="evenodd" d="M50.302 11.4281C48.7149 11.4281 47.1928 12.0586 46.0705 13.1808C44.9483 14.3031 44.3178 15.8252 44.3178 17.4123C44.3178 18.9994 44.9483 20.5215 46.0705 21.6437C47.1928 22.766 48.7149 23.3964 50.302 23.3964C51.8891 23.3964 53.4112 22.766 54.5335 21.6437C55.6557 20.5215 56.2862 18.9994 56.2862 17.4123C56.2862 15.8252 55.6557 14.3031 54.5335 13.1808C53.4112 12.0586 51.8891 11.4281 50.302 11.4281ZM50.302 13.6047C49.2922 13.6047 48.3237 14.0058 47.6096 14.7199C46.8955 15.434 46.4944 16.4024 46.4944 17.4123C46.4944 18.4221 46.8955 19.3906 47.6096 20.1047C48.3237 20.8187 49.2922 21.2199 50.302 21.2199C51.3119 21.2199 52.2804 20.8187 52.9944 20.1047C53.7085 19.3906 54.1097 18.4221 54.1097 17.4123C54.1097 16.4024 53.7085 15.434 52.9944 14.7199C52.2804 14.0058 51.3119 13.6047 50.302 13.6047Z" fill="#F7931D"/>
</svg>
