<svg width="312" height="350" viewBox="0 0 312 350" fill="#ffffff" xmlns="http://www.w3.org/2000/svg">
<path fill-rule="evenodd" clip-rule="evenodd" d="M312 0H0V350H312V0ZM157.92 92.157C158.801 92.3482 159.604 92.6942 160.317 93.198C161.456 94.0042 162.222 95.1128 162.737 96.2959C163.711 98.533 163.918 101.347 163.927 103.923C164.309 104.455 164.769 105.111 165.231 105.806C165.792 106.65 166.379 107.584 166.833 108.438C167.06 108.864 167.272 109.304 167.432 109.726C167.576 110.104 167.751 110.649 167.751 111.226C167.751 111.816 167.551 112.421 167.407 112.818C167.235 113.29 167.003 113.818 166.747 114.358C166.233 115.444 165.56 116.703 164.903 117.88C164.243 119.064 163.585 120.192 163.093 121.022C162.847 121.438 162.642 121.781 162.497 122.02L162.374 122.224L162.329 122.297L162.284 122.371L162.268 122.397C161.692 123.34 160.459 123.638 159.516 123.061C158.573 122.485 158.276 121.253 158.852 120.309L158.853 120.308L158.908 120.218L158.979 120.101L159.069 119.952C159.208 119.72 159.408 119.387 159.648 118.982C160.129 118.17 160.769 117.074 161.406 115.931C162.046 114.782 162.67 113.612 163.129 112.644C163.359 112.158 163.533 111.754 163.645 111.447C163.664 111.395 163.68 111.35 163.692 111.311L163.706 111.269L163.719 111.228C163.711 111.205 163.701 111.179 163.69 111.148C163.611 110.941 163.482 110.663 163.299 110.319C162.934 109.632 162.428 108.822 161.897 108.023C161.425 107.313 160.95 106.64 160.569 106.111H151.813C151.431 106.64 150.957 107.313 150.485 108.023C149.954 108.822 149.448 109.632 149.083 110.319C148.9 110.663 148.771 110.941 148.692 111.148C148.685 111.166 148.679 111.183 148.674 111.198L148.663 111.228C148.679 111.281 148.703 111.353 148.737 111.447C148.849 111.754 149.023 112.158 149.253 112.644C149.711 113.612 150.335 114.782 150.976 115.931C151.613 117.074 152.252 118.17 152.733 118.982C152.973 119.387 153.173 119.72 153.313 119.952C153.383 120.068 153.437 120.158 153.474 120.218L153.529 120.308L153.529 120.309C154.106 121.252 153.809 122.485 152.866 123.061C151.923 123.638 150.69 123.341 150.114 122.398L150.097 122.371L150.052 122.297C150.013 122.233 149.957 122.139 149.884 122.02C149.74 121.781 149.535 121.438 149.289 121.022C148.797 120.192 148.139 119.064 147.479 117.88C146.822 116.703 146.149 115.444 145.635 114.358C145.379 113.818 145.147 113.29 144.975 112.818C144.831 112.421 144.631 111.816 144.631 111.226C144.631 110.649 144.806 110.104 144.95 109.726C145.11 109.304 145.322 108.864 145.549 108.438C146.003 107.584 146.59 106.65 147.151 105.806C147.613 105.111 148.073 104.455 148.455 103.923C148.464 101.347 148.671 98.533 149.645 96.2959C150.16 95.1128 150.925 94.0042 152.065 93.198C152.628 92.8003 153.247 92.5008 153.916 92.2983V87.9121C151.629 87.6143 150.399 85.5731 149.943 84.0388C149.545 82.6973 148.706 81.7177 147.608 81.2624C146.507 80.8072 145.222 80.9072 143.992 81.5728C142.531 82.3639 140.093 82.9535 138.236 81.3323C137.323 80.5358 136.465 79.6785 135.668 78.7661C134.047 76.9094 134.634 74.4713 135.426 73.0097C136.093 71.7788 136.193 70.492 135.737 69.3915C135.093 67.835 133.339 66.7593 131.071 66.8143C130.211 66.8352 129.477 66.2059 129.357 65.3656C129.02 63.3209 128.922 61.2468 129.061 59.1849C129.228 56.7271 131.365 55.419 132.958 54.9453C134.301 54.5461 135.281 53.7073 135.737 52.6085C136.193 51.5082 136.093 50.2221 135.427 48.9927C134.636 47.5318 134.046 45.0935 135.667 43.2359C136.464 42.3232 137.321 41.4655 138.234 40.6686C140.09 39.0469 142.528 39.6348 143.99 40.4263C145.221 41.0929 146.508 41.193 147.608 40.7374C148.707 40.2824 149.545 39.3027 149.944 37.9615C150.417 36.368 151.725 34.2282 154.184 34.0615C155.393 33.9795 156.606 33.9795 157.816 34.0615C160.275 34.2282 161.583 36.368 162.056 37.9612C162.455 39.3025 163.293 40.2819 164.391 40.7374C165.492 41.1929 166.778 41.0929 168.007 40.4272C169.468 39.6361 171.906 39.0465 173.764 40.6677C174.677 41.4642 175.534 42.3215 176.331 43.2339C177.953 45.0906 177.365 47.5287 176.574 48.9903C175.907 50.2212 175.807 51.508 176.263 52.6085C176.718 53.7077 177.697 54.5454 179.039 54.9438C180.632 55.4171 182.772 56.7249 182.939 59.1843C183.02 60.3934 183.02 61.6066 182.939 62.8157C182.772 65.2751 180.632 66.5828 179.039 67.0563C177.697 67.4549 176.718 68.2934 176.262 69.3921C175.807 70.4922 175.907 71.7781 176.573 73.0072C177.364 74.4682 177.953 76.9065 176.332 78.7641C175.536 79.6768 174.678 80.5345 173.766 81.3314C171.909 82.9531 169.471 82.3652 168.01 81.5737C166.779 80.9071 165.492 80.807 164.391 81.2626C163.292 81.7177 162.454 82.6973 162.056 84.0385C161.589 85.6094 160.312 87.7111 157.92 87.9302V92.157ZM159.066 97.8941C159.533 98.9667 159.775 100.408 159.872 102.107H152.51C152.607 100.408 152.849 98.9667 153.316 97.8941C153.62 97.1954 153.981 96.7472 154.377 96.4669C154.759 96.197 155.313 95.9833 156.191 95.9833C157.069 95.9833 157.623 96.197 158.005 96.4669C158.401 96.7472 158.762 97.1954 159.066 97.8941ZM154.412 37.4287C155.469 37.3571 156.53 37.3571 157.587 37.4287C157.772 37.4412 157.977 37.5246 158.209 37.7742C158.454 38.0384 158.678 38.4421 158.821 38.9226C159.461 41.0773 160.917 42.9507 163.1 43.8558C165.285 44.7601 167.639 44.4649 169.614 43.395C170.056 43.1561 170.5 43.0288 170.861 43.0155C171.202 43.003 171.406 43.0889 171.545 43.2105C172.343 43.9069 173.093 44.6565 173.789 45.4541C173.911 45.5934 173.997 45.7972 173.985 46.1378C173.972 46.4984 173.845 46.9423 173.606 47.3831C172.535 49.3598 172.24 51.7141 173.144 53.8994C174.049 56.0855 175.924 57.5394 178.078 58.1791C178.558 58.3218 178.962 58.5457 179.226 58.7913C179.475 59.0233 179.559 59.2281 179.571 59.4126C179.643 60.4697 179.643 61.5304 179.571 62.5874C179.559 62.7719 179.475 62.9768 179.226 63.2088C178.962 63.4544 178.558 63.6783 178.077 63.8211C175.923 64.4613 174.049 65.9168 173.144 68.1006C172.24 70.2851 172.535 72.6386 173.605 74.6143C173.844 75.0556 173.971 75.4999 173.984 75.8608C173.997 76.2017 173.911 76.4057 173.789 76.545C173.093 77.3429 172.343 78.0928 171.546 78.7895C171.407 78.9111 171.203 78.9971 170.862 78.9847C170.502 78.9716 170.058 78.8446 169.617 78.6059C167.64 77.5354 165.286 77.2396 163.1 78.1442C160.914 79.0493 159.46 80.9239 158.821 83.0775C158.678 83.5579 158.454 83.9616 158.209 84.2258C157.977 84.4753 157.772 84.5587 157.587 84.5713C156.53 84.6429 155.469 84.6429 154.412 84.5713C154.228 84.5587 154.023 84.4753 153.791 84.2258C153.545 83.9616 153.321 83.5579 153.179 83.0774C152.538 80.9227 151.083 79.0493 148.899 78.1442C146.715 77.2399 144.361 77.5351 142.385 78.605C141.944 78.8439 141.5 78.9712 141.139 78.9845C140.798 78.997 140.594 78.9111 140.455 78.7895C139.657 78.0931 138.907 77.3436 138.21 76.5459C138.089 76.4066 138.003 76.2028 138.015 75.8622C138.028 75.5016 138.155 75.0577 138.394 74.6169C139.464 72.6402 139.76 70.2859 138.855 68.1006C137.753 65.4384 135.253 63.8895 132.511 63.5226C132.363 62.1572 132.336 60.7821 132.429 59.4131C132.441 59.2287 132.525 59.0239 132.774 58.7921C133.037 58.5468 133.441 58.323 133.92 58.1803C136.075 57.5396 137.95 56.0841 138.855 53.8994C139.76 51.7149 139.465 49.3614 138.395 47.3857C138.156 46.9444 138.028 46.5001 138.015 46.1392C138.003 45.7983 138.089 45.5943 138.21 45.455C138.907 44.6571 139.656 43.9072 140.454 43.2105C140.593 43.0889 140.797 43.0029 141.137 43.0153C141.498 43.0284 141.942 43.1554 142.383 43.3941C144.359 44.4646 146.714 44.7604 148.899 43.8558C151.085 42.9507 152.539 41.0761 153.179 38.9225C153.322 38.4421 153.545 38.0384 153.791 37.7742C154.023 37.5247 154.228 37.4412 154.412 37.4287ZM190 58.2239V54.2201L226.994 54.2225C227.057 54.2247 227.142 54.2286 227.243 54.2359C227.446 54.2504 227.722 54.2785 228.049 54.333C228.692 54.4405 229.581 54.6592 230.493 55.1166C231.414 55.5779 232.395 56.3012 233.141 57.4229C233.895 58.5569 234.329 59.9785 234.329 61.6964C234.329 63.4144 233.895 64.836 233.141 65.97C232.395 67.0917 231.414 67.8149 230.493 68.2763C229.581 68.7337 228.692 68.9524 228.049 69.0599C227.722 69.1144 227.446 69.1425 227.243 69.157L226.994 69.1728H213.302V85.0545C214.184 85.2457 214.986 85.5918 215.699 86.0956C216.839 86.9017 217.604 88.0103 218.119 89.1934C219.093 91.4305 219.3 94.2445 219.309 96.8204C219.691 97.3526 220.151 98.0089 220.613 98.7037C221.174 99.5475 221.761 100.482 222.216 101.335C222.442 101.761 222.654 102.201 222.815 102.623C222.959 103.002 223.133 103.547 223.133 104.123C223.133 104.714 222.934 105.319 222.789 105.716C222.617 106.187 222.385 106.716 222.129 107.256C221.615 108.341 220.942 109.6 220.285 110.778C219.625 111.962 218.967 113.09 218.476 113.92C218.229 114.336 218.024 114.678 217.88 114.917C217.808 115.037 217.751 115.131 217.712 115.195L217.667 115.269L217.65 115.295C217.074 116.239 215.841 116.536 214.898 115.959C213.955 115.382 213.658 114.15 214.235 113.207L214.235 113.206L214.248 113.185L214.29 113.116L214.362 112.997L214.451 112.849C214.591 112.618 214.791 112.285 215.031 111.879C215.512 111.067 216.151 109.971 216.788 108.828C217.429 107.679 218.053 106.509 218.511 105.541C218.742 105.055 218.915 104.652 219.027 104.345C219.062 104.25 219.085 104.178 219.101 104.126C219.093 104.103 219.084 104.076 219.072 104.046C218.993 103.839 218.864 103.56 218.681 103.216C218.316 102.53 217.811 101.719 217.279 100.921C216.807 100.211 216.333 99.5373 215.952 99.0085H207.195C206.814 99.5373 206.339 100.211 205.867 100.921C205.336 101.719 204.831 102.53 204.465 103.216C204.282 103.56 204.153 103.839 204.075 104.046C204.063 104.076 204.053 104.103 204.045 104.126L204.055 104.158L204.066 104.19C204.073 104.212 204.081 104.236 204.09 104.262C204.099 104.287 204.108 104.315 204.119 104.345C204.231 104.652 204.405 105.055 204.635 105.541C205.094 106.509 205.718 107.679 206.358 108.828C206.996 109.971 207.635 111.067 208.116 111.879C208.356 112.285 208.556 112.618 208.695 112.849L208.735 112.915C208.786 113 208.827 113.067 208.857 113.116L208.898 113.185L208.911 113.206L208.912 113.207C209.489 114.15 209.192 115.382 208.248 115.959C207.305 116.536 206.072 116.238 205.496 115.295L205.48 115.269L205.435 115.195C205.396 115.131 205.339 115.037 205.267 114.917C205.123 114.678 204.917 114.336 204.671 113.92C204.179 113.09 203.521 111.962 202.861 110.778C202.205 109.6 201.531 108.341 201.017 107.256C200.761 106.716 200.529 106.187 200.358 105.716C200.213 105.319 200.014 104.714 200.014 104.123C200.014 103.547 200.188 103.002 200.332 102.623C200.492 102.201 200.704 101.761 200.931 101.335C201.385 100.482 201.972 99.5475 202.533 98.7037C202.995 98.0089 203.455 97.3526 203.837 96.8204C203.846 94.2445 204.053 91.4305 205.027 89.1934C205.542 88.0103 206.308 86.9017 207.448 86.0956C208.01 85.6978 208.629 85.3984 209.298 85.1959V69.1728H190V65.169H226.853L226.86 65.1688L226.887 65.1677L226.912 65.1663C226.925 65.1656 226.94 65.1646 226.957 65.1634C227.053 65.1565 227.204 65.1418 227.389 65.1108C227.77 65.0472 228.247 64.9238 228.699 64.6969C229.144 64.4739 229.529 64.1707 229.807 63.7527C230.077 63.347 230.325 62.7157 230.325 61.6964C230.325 60.6772 230.077 60.0459 229.807 59.6402C229.529 59.2222 229.144 58.9189 228.699 58.696C228.247 58.4691 227.77 58.3456 227.389 58.282C227.204 58.251 227.053 58.2363 226.957 58.2294C226.91 58.226 226.876 58.2246 226.86 58.2241L226.853 58.2239H190ZM207.893 95.0048C207.989 93.3057 208.231 91.8643 208.698 90.7916C209.002 90.0929 209.363 89.6447 209.759 89.3645C210.141 89.0945 210.695 88.8808 211.573 88.8808C212.451 88.8808 213.005 89.0945 213.387 89.3645C213.783 89.6447 214.144 90.0929 214.448 90.7916C214.915 91.8643 215.157 93.3057 215.254 95.0048H207.893ZM124.241 54.2201V58.2239H87.3877L87.3805 58.2241C87.3642 58.2247 87.331 58.2261 87.2833 58.2295C87.1873 58.2363 87.0371 58.2511 86.8515 58.2821C86.4709 58.3456 85.994 58.4691 85.5412 58.696C85.0963 58.9189 84.7117 59.2222 84.4337 59.6402C84.1639 60.0459 83.9153 60.6772 83.9153 61.6964C83.9153 62.7157 84.1639 63.347 84.4337 63.7527C84.7117 64.1707 85.0963 64.4739 85.5412 64.6969C85.994 64.9238 86.4709 65.0473 86.8515 65.1108C87.0371 65.1418 87.1873 65.1566 87.2833 65.1634C87.3046 65.165 87.323 65.1661 87.3383 65.1669L87.3584 65.1679L87.3805 65.1688L87.3877 65.169H124.241V69.1728H104.942V85.1959C105.612 85.3984 106.231 85.6978 106.793 86.0956C107.933 86.9017 108.698 88.0103 109.214 89.1935C110.187 91.4305 110.394 94.2445 110.404 96.8204C110.785 97.3527 111.245 98.0089 111.707 98.7037C112.269 99.5475 112.856 100.482 113.31 101.335C113.536 101.761 113.748 102.201 113.909 102.623C114.053 103.002 114.227 103.547 114.227 104.123C114.227 104.714 114.028 105.319 113.883 105.716C113.711 106.187 113.48 106.716 113.224 107.256C112.709 108.341 112.036 109.6 111.379 110.778C110.72 111.962 110.062 113.09 109.57 113.92C109.324 114.336 109.118 114.678 108.974 114.917L108.94 114.974L108.863 115.101L108.806 115.195L108.761 115.269L108.745 115.295C108.168 116.238 106.936 116.536 105.992 115.959C105.049 115.382 104.752 114.15 105.329 113.207L105.329 113.206L105.342 113.185L105.384 113.116C105.421 113.055 105.476 112.965 105.545 112.849C105.685 112.618 105.885 112.285 106.125 111.879C106.606 111.067 107.245 109.971 107.882 108.828C108.523 107.679 109.147 106.509 109.605 105.541C109.836 105.055 110.009 104.652 110.121 104.345C110.156 104.25 110.179 104.178 110.195 104.126C110.187 104.103 110.178 104.076 110.166 104.046C110.087 103.839 109.958 103.56 109.775 103.216C109.41 102.53 108.905 101.719 108.374 100.921C107.902 100.211 107.427 99.5373 107.046 99.0086H98.2892C97.908 99.5373 97.4334 100.211 96.9612 100.921C96.4301 101.719 95.9247 102.53 95.5597 103.216C95.3765 103.56 95.2474 103.839 95.1687 104.046C95.1571 104.076 95.1475 104.103 95.1395 104.126C95.1556 104.178 95.1792 104.25 95.2134 104.345C95.3254 104.652 95.4991 105.055 95.7294 105.541C96.188 106.509 96.8119 107.679 97.4524 108.828C98.0897 109.971 98.7289 111.067 99.2099 111.879C99.45 112.285 99.6499 112.618 99.7895 112.849L99.8787 112.997L99.9508 113.116L99.9926 113.185L100.005 113.206L100.006 113.207C100.583 114.15 100.286 115.382 99.3425 115.959C98.3992 116.536 97.167 116.239 96.5903 115.295L96.5739 115.269L96.529 115.195C96.49 115.131 96.4331 115.037 96.361 114.917C96.2168 114.678 96.0114 114.336 95.7651 113.92C95.2732 113.09 94.6152 111.962 93.9554 110.778C93.2988 109.6 92.6256 108.341 92.1113 107.256C91.8552 106.716 91.6236 106.187 91.4518 105.716C91.3072 105.319 91.1078 104.714 91.1078 104.123C91.1078 103.547 91.2821 103.002 91.4261 102.623C91.5864 102.201 91.7986 101.761 92.0251 101.335C92.4792 100.482 93.0662 99.5475 93.6274 98.7037C94.0895 98.0089 94.5495 97.3527 94.9312 96.8204C94.9405 94.2445 95.1475 91.4305 96.1214 89.1935C96.6364 88.0103 97.402 86.9017 98.5418 86.0956C99.2542 85.5918 100.057 85.2457 100.939 85.0546V69.1728H87.2468L86.9974 69.157C86.7947 69.1425 86.5182 69.1144 86.1918 69.0599C85.5483 68.9524 84.6599 68.7337 83.7473 68.2763C82.8267 67.8149 81.846 67.0917 81.0999 65.97C80.3457 64.836 79.9116 63.4144 79.9116 61.6964C79.9116 59.9785 80.3457 58.5569 81.0999 57.4229C81.846 56.3012 82.8267 55.578 83.7473 55.1166C84.6599 54.6592 85.5483 54.4405 86.1918 54.333C86.5182 54.2785 86.7947 54.2504 86.9974 54.2359C87.0991 54.2286 87.1832 54.2247 87.2468 54.2226L124.241 54.2201ZM105.543 90.7916C106.01 91.8643 106.251 93.3057 106.348 95.0048H98.9868C99.0836 93.3057 99.3254 91.8643 99.7924 90.7916C100.097 90.0929 100.457 89.6447 100.854 89.3645C101.235 89.0945 101.789 88.8808 102.667 88.8808C103.546 88.8808 104.099 89.0945 104.481 89.3645C104.877 89.6447 105.238 90.0929 105.543 90.7916ZM130.612 152.213V138.886C130.612 136.273 128.497 134.147 125.879 134.147H106.764C104.145 134.147 102.031 136.273 102.031 138.886V152.213H96.3866C86.2275 152.213 78 160.466 78 170.638C78 180.809 86.2275 189.063 96.3866 189.063H214.903C225.062 189.063 233.29 180.809 233.29 170.638C233.29 160.466 225.062 152.213 214.903 152.213H209.805V138.886C209.805 136.273 207.69 134.147 205.072 134.147H185.957C183.338 134.147 181.224 136.273 181.224 138.886V152.213H167.204V143.266C167.204 140.653 165.09 138.527 162.472 138.527H148.818C146.2 138.527 144.085 140.653 144.085 143.266V152.213H130.612ZM106.764 138.151C106.366 138.151 106.035 138.476 106.035 138.886V152.213H126.608V138.886C126.608 138.476 126.277 138.151 125.879 138.151H118.596V144.087H114.593V138.151H106.764ZM148.089 152.213H163.201V143.266C163.201 142.855 162.87 142.53 162.472 142.53H157.92V146.55H153.916V142.53H148.818C148.42 142.53 148.089 142.855 148.089 143.266V152.213ZM185.228 152.213H205.801V138.886C205.801 138.476 205.47 138.151 205.072 138.151H197.789V144.087H193.785V138.151H185.957C185.558 138.151 185.228 138.476 185.228 138.886V152.213ZM96.3866 156.216C88.4476 156.216 82.0038 162.669 82.0038 170.638C82.0038 178.607 88.4476 185.059 96.3866 185.059H214.903C222.842 185.059 229.286 178.607 229.286 170.638C229.286 162.669 222.842 156.216 214.903 156.216H96.3866ZM140.456 233.848C139.004 233.848 137.816 233.362 136.892 232.39C135.992 231.418 135.542 230.044 135.542 228.268C135.542 227.488 135.578 226.768 135.65 226.108C135.698 225.712 135.77 225.352 135.866 225.028C136.07 224.272 136.376 223.618 136.784 223.066C137.276 222.406 137.894 221.872 138.638 221.464C139.526 220.984 140.564 220.636 141.752 220.42L144.38 219.934L144.83 222.166L141.752 222.76C140.576 222.988 139.646 223.402 138.962 224.002C138.686 224.266 138.446 224.542 138.242 224.83C137.918 225.334 137.738 225.79 137.702 226.198L137.774 226.216C138.374 225.508 139.058 225.052 139.826 224.848C140.366 224.692 140.822 224.614 141.194 224.614C142.334 224.614 143.299 225.028 144.092 225.856C144.872 226.696 145.262 227.752 145.262 229.024C145.262 230.476 144.812 231.64 143.912 232.516C143.012 233.404 141.86 233.848 140.456 233.848ZM140.438 226.918C139.838 226.918 139.328 227.122 138.908 227.53C138.464 227.926 138.242 228.472 138.242 229.168C138.242 229.888 138.458 230.452 138.89 230.86C139.334 231.28 139.856 231.49 140.456 231.49C141.08 231.49 141.602 231.28 142.022 230.86C142.442 230.44 142.652 229.882 142.652 229.186C142.652 228.466 142.43 227.908 141.986 227.512C141.53 227.116 141.014 226.918 140.438 226.918ZM125.022 224.758C125.022 226.198 124.566 227.272 123.654 227.98C122.778 228.688 121.638 229.042 120.234 229.042H118.182V233.668H115.464V220.546H120.324C121.704 220.546 122.82 220.9 123.672 221.608C124.572 222.34 125.022 223.39 125.022 224.758ZM122.286 224.812C122.286 224.428 122.184 224.104 121.98 223.84C121.776 223.564 121.506 223.372 121.17 223.264C120.846 223.156 120.486 223.102 120.09 223.102H118.182V226.522H120.108C120.708 226.522 121.218 226.384 121.638 226.108C122.07 225.82 122.286 225.388 122.286 224.812ZM93.6079 280.71L93.6479 281.95H114.488V277.79H99.3279C99.6212 276.643 100.261 275.657 101.248 274.83C101.541 274.59 101.928 274.297 102.408 273.95C102.488 273.897 102.635 273.79 102.848 273.63C103.088 273.47 103.288 273.35 103.448 273.27L108.768 270.15C110.501 269.137 111.835 267.87 112.768 266.35C113.728 264.857 114.208 263.217 114.208 261.43C114.208 259.03 113.341 256.937 111.608 255.15C109.741 253.283 107.261 252.35 104.168 252.35C101.421 252.35 99.1679 253.07 97.4079 254.51C96.2346 255.47 95.3412 256.617 94.7279 257.95C94.1146 259.283 93.8346 260.603 93.8879 261.91L98.5279 262.51C98.5546 261.15 98.7546 260.11 99.1279 259.39C100.088 257.523 101.741 256.59 104.088 256.59C105.688 256.59 106.995 257.057 108.008 257.99C108.995 258.95 109.488 260.123 109.488 261.51C109.488 262.763 109.128 263.857 108.408 264.79C107.715 265.697 106.608 266.603 105.088 267.51L100.568 270.15C95.9012 272.923 93.5812 276.443 93.6079 280.71ZM121.574 280.19C123.6 281.577 125.88 282.27 128.414 282.27C131.374 282.27 133.867 281.417 135.894 279.71C138.027 277.923 139.094 275.497 139.094 272.43C139.094 269.603 138.24 267.323 136.534 265.59C134.774 263.83 132.454 262.95 129.574 262.95C128.774 262.95 127.974 263.017 127.174 263.15C125.814 263.417 124.667 263.95 123.734 264.75L125.534 256.91H137.774V252.79H122.294L118.894 267.71L123.054 269.31C124.467 267.71 126.28 266.91 128.494 266.91C130.094 266.91 131.467 267.403 132.614 268.39C133.76 269.403 134.334 270.79 134.334 272.55C134.334 274.39 133.68 275.803 132.374 276.79C131.174 277.697 129.88 278.15 128.494 278.15C127.24 278.15 126 277.803 124.774 277.11C123.334 276.283 122.52 274.95 122.334 273.11L117.934 274.07C118.334 276.763 119.547 278.803 121.574 280.19ZM160.874 266.07L159.874 274.15C159.661 275.937 159.247 277.417 158.634 278.59C158.234 279.337 157.754 279.95 157.194 280.43C155.914 281.577 154.127 282.15 151.834 282.15H151.714V278.15C153.074 278.15 154.034 277.643 154.594 276.63C155.074 275.857 155.394 274.83 155.554 273.55L156.914 262.07H172.074V281.95H167.634V266.07H160.874ZM181.209 273.31H196.329C196.382 272.777 196.409 272.323 196.409 271.95C196.409 268.883 195.542 266.403 193.809 264.51C192.102 262.617 189.729 261.67 186.689 261.67C184.822 261.67 183.116 262.137 181.569 263.07C180.049 263.95 178.849 265.203 177.969 266.83C177.116 268.403 176.689 270.123 176.689 271.99C176.636 274.87 177.636 277.323 179.689 279.35C181.742 281.377 184.209 282.363 187.089 282.31C188.369 282.31 189.649 282.083 190.929 281.63C192.156 281.15 193.222 280.443 194.129 279.51C195.062 278.577 195.702 277.51 196.049 276.31L192.329 275.15C191.582 277.39 189.822 278.51 187.049 278.51C185.582 278.537 184.249 278.043 183.049 277.03C181.849 275.99 181.236 274.75 181.209 273.31ZM183.209 266.71C184.142 265.883 185.316 265.47 186.729 265.47C188.116 265.47 189.316 265.87 190.329 266.67C191.289 267.523 191.809 268.617 191.889 269.95H181.449C181.636 268.59 182.222 267.51 183.209 266.71ZM204.281 281.95V266.07H197.801V262.07H215.241V266.07H208.721V281.95H204.281ZM123.939 311.192V307.944H127.539V311.192H129.315V303.24H127.539V306.392H123.939V303.24H122.163V311.192H123.939ZM133.871 311.336C133.092 311.336 132.452 311.112 131.951 310.664C131.449 310.226 131.199 309.666 131.199 308.984V308.904C131.209 307.89 131.721 307.186 132.735 306.792C133.279 306.578 133.865 306.472 134.495 306.472H135.487C135.977 306.472 136.223 306.248 136.223 305.8C136.223 305.458 136.089 305.17 135.823 304.936C135.535 304.701 135.145 304.584 134.655 304.584C134.185 304.584 133.796 304.706 133.487 304.952C133.177 305.186 132.991 305.506 132.927 305.912L131.311 305.544C131.364 305.17 131.545 304.77 131.855 304.344C132.185 303.917 132.601 303.597 133.103 303.384C133.54 303.181 134.079 303.08 134.719 303.08C136.212 303.08 137.204 303.624 137.695 304.712C137.876 305.106 137.967 305.576 137.967 306.12V309.912C137.967 310.445 137.983 310.872 138.015 311.192H136.287C136.233 310.946 136.207 310.584 136.207 310.104C135.94 310.541 135.599 310.856 135.183 311.048C134.756 311.24 134.319 311.336 133.871 311.336ZM136.207 307.72H134.495C134.121 307.72 133.775 307.816 133.455 308.008C133.135 308.21 132.975 308.482 132.975 308.824C132.975 309.154 133.092 309.421 133.327 309.624C133.561 309.816 133.865 309.912 134.239 309.912C134.847 309.912 135.327 309.736 135.679 309.384C136.031 309.032 136.207 308.562 136.207 307.976V307.72ZM152.003 309.208C152.323 308.589 152.483 307.917 152.483 307.192C152.483 306.157 152.141 305.224 151.459 304.392C150.723 303.517 149.763 303.08 148.579 303.08C148.173 303.08 147.725 303.176 147.235 303.368C146.669 303.581 146.227 303.949 145.907 304.472V303.24H144.179V315.112H145.955V310.024C146.147 310.333 146.419 310.589 146.771 310.792C147.389 311.144 147.976 311.32 148.531 311.32C149.267 311.32 149.955 311.122 150.595 310.728C151.192 310.354 151.661 309.848 152.003 309.208ZM145.923 307.208C145.923 306.514 146.147 305.917 146.595 305.416C147.043 304.936 147.613 304.696 148.307 304.696C149.011 304.696 149.587 304.936 150.035 305.416C150.472 305.896 150.691 306.493 150.691 307.208C150.691 307.912 150.472 308.504 150.035 308.984C149.587 309.464 149.011 309.704 148.307 309.704C147.613 309.704 147.043 309.464 146.595 308.984C146.147 308.493 145.923 307.901 145.923 307.208ZM161.439 308.456C161.439 309.266 161.167 309.928 160.623 310.44C160.09 310.941 159.322 311.192 158.319 311.192H154.319V303.24H156.095V305.864H158.175C159.508 305.864 160.447 306.237 160.991 306.984C161.29 307.378 161.439 307.869 161.439 308.456ZM159.647 308.44C159.647 308.056 159.503 307.762 159.215 307.56C158.927 307.346 158.538 307.24 158.047 307.24H156.095V309.704H158.079C159.124 309.704 159.647 309.282 159.647 308.44ZM164.847 303.24V311.192H163.071V303.24H164.847ZM168.986 311.192V307.944H172.586V311.192H174.362V303.24H172.586V306.392H168.986V303.24H167.21V311.192H168.986ZM178.501 311.192H176.725V303.24H178.501V306.584H178.581L181.733 303.24H184.085L180.453 307.048L184.341 311.192H181.941L178.581 307.512H178.501V311.192ZM185.724 307.736H191.772C191.793 307.522 191.804 307.341 191.804 307.192C191.804 305.965 191.457 304.973 190.764 304.216C190.081 303.458 189.132 303.08 187.916 303.08C187.169 303.08 186.487 303.266 185.868 303.64C185.26 303.992 184.78 304.493 184.428 305.144C184.087 305.773 183.916 306.461 183.916 307.208C183.895 308.36 184.295 309.341 185.116 310.152C185.937 310.962 186.924 311.357 188.076 311.336C188.588 311.336 189.1 311.245 189.612 311.064C190.103 310.872 190.529 310.589 190.892 310.216C191.265 309.842 191.521 309.416 191.66 308.936L190.172 308.472C189.873 309.368 189.169 309.816 188.06 309.816C187.473 309.826 186.94 309.629 186.46 309.224C185.98 308.808 185.735 308.312 185.724 307.736ZM186.524 305.096C186.897 304.765 187.367 304.6 187.932 304.6C188.487 304.6 188.967 304.76 189.372 305.08C189.756 305.421 189.964 305.858 189.996 306.392H185.82C185.895 305.848 186.129 305.416 186.524 305.096ZM126.329 233.11C126.917 233.602 127.613 233.848 128.417 233.848C129.569 233.848 130.457 233.416 131.081 232.552H131.117C131.117 233.056 131.135 233.428 131.171 233.668H133.601C133.553 233.116 133.529 232.636 133.529 232.228V228.124C133.529 226.972 133.169 226.078 132.449 225.442C131.741 224.806 130.817 224.494 129.677 224.506C129.053 224.506 128.453 224.608 127.877 224.812C127.313 225.004 126.827 225.322 126.419 225.766C126.011 226.186 125.753 226.708 125.645 227.332L127.949 227.854C128.045 227.47 128.237 227.17 128.525 226.954C128.813 226.738 129.155 226.63 129.551 226.63C129.983 226.63 130.325 226.738 130.577 226.954C130.829 227.158 130.955 227.422 130.955 227.746C130.955 228.154 130.721 228.358 130.253 228.358H129.389C128.597 228.358 127.883 228.478 127.247 228.718C126.047 229.138 125.447 229.93 125.447 231.094V231.166C125.447 231.958 125.741 232.606 126.329 233.11ZM130.469 231.418C130.145 231.766 129.713 231.94 129.173 231.94C128.849 231.94 128.585 231.862 128.381 231.706C128.177 231.538 128.075 231.31 128.075 231.022C128.075 230.698 128.219 230.446 128.507 230.266C128.771 230.086 129.065 229.996 129.389 229.996H130.955V230.212C130.955 230.692 130.793 231.094 130.469 231.418ZM147.241 226.828C146.797 227.572 146.575 228.37 146.575 229.222C146.575 230.062 146.797 230.854 147.241 231.598C147.661 232.294 148.243 232.852 148.987 233.272C149.743 233.668 150.565 233.866 151.453 233.866C152.353 233.866 153.175 233.662 153.919 233.254C154.663 232.858 155.257 232.294 155.701 231.562C156.133 230.842 156.349 230.044 156.349 229.168C156.349 228.28 156.133 227.488 155.701 226.792C155.269 226.072 154.681 225.514 153.937 225.118C153.205 224.71 152.389 224.506 151.489 224.506C150.625 224.506 149.803 224.71 149.023 225.118C148.267 225.526 147.673 226.096 147.241 226.828ZM149.257 229.186C149.257 228.538 149.467 227.992 149.887 227.548C150.319 227.116 150.841 226.9 151.453 226.9C152.077 226.9 152.605 227.116 153.037 227.548C153.457 227.968 153.667 228.514 153.667 229.186C153.667 229.87 153.457 230.416 153.037 230.824C152.605 231.256 152.083 231.472 151.471 231.472C150.847 231.472 150.319 231.256 149.887 230.824C149.467 230.38 149.257 229.834 149.257 229.186ZM159.551 233.668V226.99H156.851V224.722H164.879V226.99H162.179V233.668H159.551ZM166.337 233.11C166.925 233.602 167.621 233.848 168.425 233.848C169.577 233.848 170.465 233.416 171.089 232.552H171.125C171.125 233.056 171.143 233.428 171.179 233.668H173.609C173.561 233.116 173.537 232.636 173.537 232.228V228.124C173.537 226.972 173.177 226.078 172.457 225.442C171.749 224.806 170.825 224.494 169.685 224.506C169.061 224.506 168.461 224.608 167.885 224.812C167.321 225.004 166.835 225.322 166.427 225.766C166.019 226.186 165.761 226.708 165.653 227.332L167.957 227.854C168.053 227.47 168.245 227.17 168.533 226.954C168.821 226.738 169.163 226.63 169.559 226.63C169.991 226.63 170.333 226.738 170.585 226.954C170.837 227.158 170.963 227.422 170.963 227.746C170.963 228.154 170.729 228.358 170.261 228.358H169.397C168.605 228.358 167.891 228.478 167.255 228.718C166.055 229.138 165.455 229.93 165.455 231.094V231.166C165.455 231.958 165.749 232.606 166.337 233.11ZM170.477 231.418C170.153 231.766 169.721 231.94 169.181 231.94C168.857 231.94 168.593 231.862 168.389 231.706C168.185 231.538 168.083 231.31 168.083 231.022C168.083 230.698 168.227 230.446 168.515 230.266C168.779 230.086 169.073 229.996 169.397 229.996H170.963V230.212C170.963 230.692 170.801 231.094 170.477 231.418ZM184.459 229.924H177.979C178.051 230.44 178.297 230.866 178.717 231.202C179.125 231.526 179.611 231.688 180.175 231.688C180.547 231.688 180.925 231.574 181.309 231.346C181.693 231.118 181.945 230.83 182.065 230.482L184.225 231.22C183.937 232.048 183.421 232.696 182.677 233.164C181.933 233.632 181.111 233.866 180.211 233.866C179.323 233.866 178.501 233.668 177.745 233.272C177.013 232.9 176.419 232.348 175.963 231.616C175.519 230.872 175.297 230.062 175.297 229.186C175.297 228.334 175.513 227.548 175.945 226.828C176.365 226.12 176.947 225.55 177.691 225.118C178.399 224.71 179.185 224.506 180.049 224.506C181.369 224.506 182.443 224.92 183.271 225.748C184.099 226.576 184.513 227.656 184.513 228.988C184.513 229.396 184.495 229.708 184.459 229.924ZM178.033 228.178H181.885C181.849 227.818 181.693 227.482 181.417 227.17C181.093 226.81 180.613 226.63 179.977 226.63C179.437 226.63 178.993 226.798 178.645 227.134C178.285 227.482 178.081 227.83 178.033 228.178ZM193.027 233.668L195.241 227.548H195.277V233.668H197.851V224.722H194.269L192.109 230.572L189.913 224.722H186.367V233.668H188.923V227.656H188.941L191.191 233.668H193.027ZM90.0155 170.911C90.0155 165.729 94.2084 161.519 99.3905 161.519C104.573 161.519 108.766 165.729 108.766 170.911C108.766 176.094 104.573 180.304 99.3905 180.304C94.2084 180.304 90.0155 176.094 90.0155 170.911ZM94.0192 170.911C94.0192 167.931 96.4285 165.523 99.3905 165.523C102.353 165.523 104.762 167.931 104.762 170.911C104.762 173.892 102.353 176.3 99.3905 176.3C96.4285 176.3 94.0192 173.892 94.0192 170.911ZM212.445 161.519C207.263 161.519 203.07 165.729 203.07 170.911C203.07 176.094 207.263 180.304 212.445 180.304C217.627 180.304 221.82 176.094 221.82 170.911C221.82 165.729 217.627 161.519 212.445 161.519ZM212.445 165.523C209.483 165.523 207.074 167.931 207.074 170.911C207.074 173.892 209.483 176.3 212.445 176.3C215.407 176.3 217.816 173.892 217.816 170.911C217.816 167.931 215.407 165.523 212.445 165.523ZM149.438 54.4386C151.179 52.6984 153.539 51.7208 156 51.7208C158.461 51.7208 160.821 52.6984 162.561 54.4386C164.301 56.1788 165.279 58.539 165.279 61C165.279 63.461 164.301 65.8212 162.561 67.5614C160.821 69.3016 158.461 70.2792 156 70.2792C153.539 70.2792 151.179 69.3016 149.438 67.5614C147.698 65.8212 146.721 63.461 146.721 61C146.721 58.539 147.698 56.1788 149.438 54.4386ZM151.825 56.8251C152.932 55.7178 154.434 55.0958 156 55.0958C157.566 55.0958 159.067 55.7178 160.175 56.8251C161.282 57.9324 161.904 59.4341 161.904 61C161.904 62.5659 161.282 64.0676 160.175 65.1749C159.067 66.2822 157.566 66.9042 156 66.9042C154.434 66.9042 152.932 66.2822 151.825 65.1749C150.718 64.0676 150.096 62.5659 150.096 61C150.096 59.4341 150.718 57.9324 151.825 56.8251Z" fill="#F7931D" fill-opacity="1"/>
</svg>
