<svg width="102" height="100" fill="none" xmlns="http://www.w3.org/2000/svg"><path fill-rule="evenodd" clip-rule="evenodd" d="M78.298 2.635a.576.576 0 00-.592.546c-.263 5.662-.578 12.228-.918 19.215l18.593-.041-.789-19.185a.595.595 0 00-.595-.57l-15.699.035zm17.19 22.32l-18.827.042a39138.03 39138.03 0 01-1.676 33.886c-.362 7.27-.703 14.123-.993 20.023l-.851 18.35 24.704.112c.339.002.61-.28.597-.619l-2.954-71.794zM71.386 78.967c-.435 8.832-.756 15.525-.866 18.286l-6.349.014-.025-11.346-1.3.003 1.3-.004v-.04a4.49 4.49 0 00-.018-.338 8.684 8.684 0 00-.115-.865 8.855 8.855 0 00-.908-2.617 7.143 7.143 0 00-2.548-2.714c-1.22-.75-2.778-1.202-4.739-1.198-1.96.005-3.517.465-4.733 1.219a7.143 7.143 0 00-2.536 2.725 8.856 8.856 0 00-.897 2.621 8.671 8.671 0 00-.125 1.125 4.974 4.974 0 00-.002.079V85.957l1.3-.002-1.3.003.025 11.346-8.01.017-.123-55.512c-.001-.411.404-.7.792-.563l31.98 11.257a.595.595 0 01.396.589l-1.2 25.875zm1.439-28.996c.822-16.552 1.688-34.088 2.284-46.91.08-1.721 1.498-3.022 3.184-3.026L93.99 0a3.195 3.195 0 013.2 3.063l3.848 93.58a3.195 3.195 0 01-3.206 3.325l-26.05-.118L4.14 100a3.195 3.195 0 01-3.202-3.188L.816 41.894c-.004-2.206 2.175-3.753 4.256-3.02l31.763 11.18-.019-8.24c-.005-2.206 2.175-3.753 4.256-3.02L72.825 49.97zM36.75 97.328l-.098-44.162a.594.594 0 00-.397-.56L4.209 41.326a.595.595 0 00-.792.562l.121 54.919c.001.328.268.594.596.593l6.658-.015-.025-11.346 1.3-.002-1.3.001v-.04l.002-.078a8.708 8.708 0 01.125-1.125 8.857 8.857 0 01.897-2.621 7.143 7.143 0 012.536-2.726c1.216-.754 2.773-1.214 4.733-1.218 1.96-.005 3.52.448 4.739 1.197a7.142 7.142 0 012.548 2.715c.524.964.78 1.916.908 2.616a8.676 8.676 0 01.13 1.125l.003.078V86.001s0 .002-1.3.005l1.3-.003.025 11.345 9.337-.02zm-11.937.026l-.025-11.343V85.983a6.136 6.136 0 00-.09-.758 6.26 6.26 0 00-.636-1.843 4.544 4.544 0 00-1.624-1.74c-.755-.463-1.827-.816-3.372-.812-1.545.003-2.615.36-3.368.828a4.544 4.544 0 00-1.617 1.746 6.255 6.255 0 00-.627 1.846 6.1 6.1 0 00-.087.788v-.003l.025 11.344 11.421-.025zm25.337-.056l11.421-.026-.025-11.34V85.9a6.133 6.133 0 00-.09-.758 6.259 6.259 0 00-.636-1.842 4.543 4.543 0 00-1.624-1.74c-.755-.463-1.827-.816-3.372-.813-1.545.004-2.615.361-3.368.828a4.544 4.544 0 00-1.617 1.747 6.259 6.259 0 00-.627 1.845 6.1 6.1 0 00-.087.788v-.001l.025 11.343z" fill="#F7931D"/></svg>