<svg width="312" height="350" fill="#fff" xmlns="http://www.w3.org/2000/svg"><path fill-rule="evenodd" clip-rule="evenodd" d="M312 0H0v350h312V0zM157.92 92.157a6.503 6.503 0 012.397 1.041c1.139.806 1.905 1.915 2.42 3.098.974 2.237 1.181 5.051 1.19 7.627.382.532.842 1.188 1.304 1.883.561.844 1.148 1.778 1.602 2.632.227.426.439.866.599 1.288.144.378.319.923.319 1.5 0 .59-.2 1.195-.344 1.592-.172.472-.404 1-.66 1.54-.514 1.086-1.187 2.345-1.844 3.522a139.87 139.87 0 01-2.406 4.14l-.123.204-.045.073-.045.074-.016.026a2.002 2.002 0 11-3.416-2.088l.001-.001.055-.09.071-.117.09-.149c.139-.232.339-.565.579-.97a136.55 136.55 0 001.758-3.051c.64-1.149 1.264-2.319 1.723-3.287.23-.486.404-.89.516-1.197.019-.052.035-.097.047-.136l.014-.042.013-.041-.029-.08a7.72 7.72 0 00-.391-.829c-.365-.687-.871-1.497-1.402-2.296a63.097 63.097 0 00-1.328-1.912h-8.756a61.332 61.332 0 00-1.328 1.912c-.531.799-1.037 1.609-1.402 2.296a7.72 7.72 0 00-.409.879l-.011.03c.016.053.04.125.074.219.112.307.286.711.516 1.197.458.968 1.082 2.138 1.723 3.287a136.919 136.919 0 002.337 4.021l.161.266.055.09v.001a2.001 2.001 0 11-3.415 2.089l-.017-.027-.045-.074-.168-.277a139.87 139.87 0 01-2.405-4.14c-.657-1.177-1.33-2.436-1.844-3.522a18.534 18.534 0 01-.66-1.54c-.144-.397-.344-1.002-.344-1.592 0-.577.175-1.122.319-1.5.16-.422.372-.862.599-1.288.454-.854 1.041-1.788 1.602-2.632.462-.695.922-1.351 1.304-1.883.009-2.576.216-5.39 1.19-7.627.515-1.183 1.28-2.292 2.42-3.098a6.404 6.404 0 011.851-.9v-4.386c-2.287-.298-3.517-2.339-3.973-3.873-.398-1.342-1.237-2.321-2.335-2.777-1.101-.455-2.386-.355-3.616.31-1.461.792-3.899 1.382-5.756-.24a26.823 26.823 0 01-2.568-2.566c-1.621-1.857-1.034-4.295-.242-5.756.667-1.231.767-2.518.311-3.619-.644-1.556-2.398-2.632-4.666-2.577a1.691 1.691 0 01-1.714-1.448 26.886 26.886 0 01-.296-6.181c.167-2.458 2.304-3.766 3.897-4.24 1.343-.399 2.323-1.238 2.779-2.337.456-1.1.356-2.386-.31-3.615-.791-1.461-1.381-3.9.24-5.757a26.836 26.836 0 012.567-2.567c1.856-1.622 4.294-1.034 5.756-.243 1.231.667 2.518.767 3.618.311 1.099-.455 1.937-1.434 2.336-2.776.473-1.593 1.781-3.733 4.24-3.9a26.843 26.843 0 013.632 0c2.459.167 3.767 2.307 4.24 3.9.399 1.342 1.237 2.32 2.335 2.776 1.101.456 2.387.356 3.616-.31 1.461-.79 3.899-1.38 5.757.24.913.797 1.77 1.654 2.567 2.567 1.622 1.857 1.034 4.295.243 5.756-.667 1.231-.767 2.518-.311 3.618.455 1.1 1.434 1.937 2.776 2.336 1.593.473 3.733 1.78 3.9 4.24.081 1.21.081 2.423 0 3.632-.167 2.46-2.307 3.767-3.9 4.24-1.342.399-2.321 1.237-2.777 2.336-.455 1.1-.355 2.386.311 3.615.791 1.461 1.38 3.9-.241 5.757a26.825 26.825 0 01-2.566 2.567c-1.857 1.622-4.295 1.034-5.756.243-1.231-.667-2.518-.767-3.619-.311-1.099.455-1.937 1.434-2.335 2.775-.467 1.571-1.744 3.673-4.136 3.892v4.227zm1.146 5.737c.467 1.073.709 2.514.806 4.213h-7.362c.097-1.699.339-3.14.806-4.213.304-.699.665-1.147 1.061-1.427.382-.27.936-.484 1.814-.484s1.432.214 1.814.484c.396.28.757.728 1.061 1.427zm-4.654-60.465a23.492 23.492 0 013.175 0c.185.012.39.096.622.345.245.264.469.668.612 1.149.64 2.154 2.096 4.028 4.279 4.933 2.185.904 4.539.609 6.514-.461.442-.239.886-.366 1.247-.38.341-.012.545.074.684.196a23.387 23.387 0 012.244 2.243c.122.14.208.343.196.684-.013.36-.14.804-.379 1.245-1.071 1.977-1.366 4.331-.462 6.516.905 2.187 2.78 3.64 4.934 4.28.48.143.884.367 1.148.612.249.232.333.437.345.622a23.359 23.359 0 010 3.174c-.012.185-.096.39-.345.622-.264.245-.668.47-1.149.612-2.154.64-4.028 2.096-4.933 4.28-.904 2.184-.609 4.538.461 6.513.239.442.366.886.379 1.247.013.34-.073.545-.195.684a23.501 23.501 0 01-2.243 2.245c-.139.121-.343.207-.684.195-.36-.013-.804-.14-1.245-.38-1.977-1.07-4.331-1.365-6.517-.46-2.186.904-3.64 2.779-4.279 4.933-.143.48-.367.884-.612 1.148-.232.25-.437.333-.622.345a23.492 23.492 0 01-3.175 0c-.184-.012-.389-.096-.621-.345-.246-.264-.47-.668-.612-1.149-.641-2.154-2.096-4.028-4.28-4.933-2.184-.904-4.538-.609-6.514.461-.441.239-.885.366-1.246.38-.341.012-.545-.074-.684-.195a23.501 23.501 0 01-2.245-2.244c-.121-.14-.207-.343-.195-.684.013-.36.14-.804.379-1.245 1.07-1.977 1.366-4.331.461-6.516-1.102-2.663-3.602-4.212-6.344-4.578a23.41 23.41 0 01-.082-4.11c.012-.184.096-.39.345-.62.263-.246.667-.47 1.146-.613 2.155-.64 4.03-2.096 4.935-4.28.905-2.185.61-4.539-.46-6.514-.239-.442-.367-.886-.38-1.247-.012-.34.074-.545.195-.684a23.512 23.512 0 012.244-2.244c.139-.122.343-.208.683-.196.361.013.805.14 1.246.38 1.976 1.07 4.331 1.365 6.516.46 2.186-.904 3.64-2.779 4.28-4.932.143-.48.366-.885.612-1.149.232-.25.437-.333.621-.345zM190 58.224V54.22l36.994.002c.063.003.148.007.249.014.203.014.479.043.806.097a8.695 8.695 0 012.444.784c.921.46 1.902 1.184 2.648 2.306.754 1.134 1.188 2.555 1.188 4.273 0 1.718-.434 3.14-1.188 4.274-.746 1.122-1.727 1.845-2.648 2.306a8.695 8.695 0 01-2.444.784 8.71 8.71 0 01-.806.097l-.249.016h-13.692v15.882a6.496 6.496 0 012.397 1.04c1.14.807 1.905 1.915 2.42 3.098.974 2.237 1.181 5.052 1.19 7.627a65.07 65.07 0 011.304 1.884c.561.844 1.148 1.778 1.603 2.631.226.426.438.866.599 1.288.144.379.318.924.318 1.5 0 .591-.199 1.196-.344 1.593-.172.471-.404 1-.66 1.54-.514 1.085-1.187 2.344-1.844 3.522a144.277 144.277 0 01-2.573 4.417l-.045.074-.017.026a2 2 0 11-3.415-2.088v-.001l.013-.021.042-.069.072-.119.089-.148a136.919 136.919 0 002.337-4.021c.641-1.149 1.265-2.319 1.723-3.287.231-.486.404-.889.516-1.196a4.11 4.11 0 00.074-.219c-.008-.023-.017-.05-.029-.08a7.718 7.718 0 00-.391-.83c-.365-.686-.87-1.497-1.402-2.295a63.046 63.046 0 00-1.327-1.913h-8.757a62.921 62.921 0 00-1.328 1.913c-.531.798-1.036 1.609-1.402 2.295a7.486 7.486 0 00-.42.91l.01.032.011.032.024.072.029.083c.112.307.286.71.516 1.196.459.968 1.083 2.138 1.723 3.287a140.596 140.596 0 002.337 4.021l.04.066.122.201.041.069.013.021.001.001a2.001 2.001 0 11-3.416 2.088l-.016-.026-.045-.074a139.87 139.87 0 01-2.574-4.417c-.656-1.178-1.33-2.437-1.844-3.522a18.314 18.314 0 01-.659-1.54c-.145-.397-.344-1.002-.344-1.593 0-.576.174-1.121.318-1.5.16-.422.372-.862.599-1.288.454-.853 1.041-1.787 1.602-2.631a65.07 65.07 0 011.304-1.884c.009-2.575.216-5.39 1.19-7.627.515-1.183 1.281-2.291 2.421-3.097a6.384 6.384 0 011.85-.9V69.173H190v-4.004h36.86l.027-.001.025-.002.045-.003c.096-.007.247-.021.432-.052a4.69 4.69 0 001.31-.414c.445-.223.83-.526 1.108-.944.27-.406.518-1.037.518-2.057 0-1.019-.248-1.65-.518-2.056-.278-.418-.663-.721-1.108-.944a4.69 4.69 0 00-1.31-.414 4.679 4.679 0 00-.529-.058H190zm17.893 36.78c.096-1.698.338-3.14.805-4.212.304-.7.665-1.147 1.061-1.427.382-.27.936-.484 1.814-.484s1.432.213 1.814.484c.396.28.757.728 1.061 1.427.467 1.072.709 2.514.806 4.213h-7.361zM124.241 54.22v4.004H87.38a4.665 4.665 0 00-.529.058 4.7 4.7 0 00-1.31.414c-.445.223-.83.526-1.107.944-.27.406-.519 1.037-.519 2.056 0 1.02.249 1.651.519 2.057.278.418.662.72 1.107.944a4.7 4.7 0 001.31.414 4.665 4.665 0 00.487.056h.02l.022.002H124.242v4.004h-19.299v16.023c.67.202 1.289.502 1.851.9 1.14.806 1.905 1.914 2.421 3.097.973 2.237 1.18 5.052 1.19 7.627a67.41 67.41 0 011.303 1.884c.562.844 1.149 1.778 1.603 2.631.226.426.438.866.599 1.288.144.379.318.924.318 1.5 0 .591-.199 1.196-.344 1.593-.172.471-.403 1-.659 1.54-.515 1.085-1.188 2.344-1.845 3.522a136.444 136.444 0 01-2.405 4.139l-.034.057-.077.127-.057.094-.045.074-.016.026a2.003 2.003 0 01-3.416-2.088v-.001l.013-.021.042-.069.161-.267a136.919 136.919 0 002.337-4.021c.641-1.149 1.265-2.319 1.723-3.287.231-.486.404-.889.516-1.196a4.11 4.11 0 00.074-.219c-.008-.023-.017-.05-.029-.08a7.718 7.718 0 00-.391-.83c-.365-.686-.87-1.497-1.401-2.295a62.78 62.78 0 00-1.328-1.912h-8.757a62.78 62.78 0 00-1.328 1.912c-.53.798-1.036 1.609-1.401 2.295a7.622 7.622 0 00-.42.91c.016.052.04.124.073.219.112.307.286.71.516 1.196.459.968 1.083 2.138 1.723 3.287a137.926 137.926 0 002.338 4.021l.089.148.072.119.042.069.012.021.001.001a2.001 2.001 0 11-3.416 2.088l-.016-.026-.045-.074a139.595 139.595 0 01-2.574-4.417c-.656-1.178-1.33-2.437-1.844-3.522a18.562 18.562 0 01-.66-1.54c-.144-.397-.343-1.002-.343-1.593 0-.576.174-1.121.318-1.5.16-.422.373-.862.6-1.288.453-.853 1.04-1.787 1.601-2.631.463-.695.922-1.351 1.304-1.884.01-2.575.216-5.39 1.19-7.626.515-1.184 1.281-2.292 2.42-3.098a6.49 6.49 0 012.398-1.041V69.173H87.247l-.25-.016a8.693 8.693 0 01-.805-.097 8.699 8.699 0 01-2.445-.784c-.92-.461-1.901-1.184-2.647-2.306-.754-1.134-1.188-2.556-1.188-4.274s.434-3.14 1.188-4.273c.746-1.122 1.727-1.845 2.647-2.306a8.699 8.699 0 012.445-.784 8.693 8.693 0 011.055-.11l36.994-.003zm-18.698 36.572c.467 1.072.708 2.514.805 4.213h-7.361c.097-1.7.338-3.14.805-4.213.305-.7.665-1.147 1.062-1.427.381-.27.935-.484 1.813-.484.879 0 1.432.213 1.814.484.396.28.757.728 1.062 1.427zm25.069 61.421v-13.327a4.736 4.736 0 00-4.733-4.739h-19.115a4.736 4.736 0 00-4.733 4.739v13.327h-5.644c-10.16 0-18.387 8.253-18.387 18.425 0 10.171 8.228 18.425 18.387 18.425h118.516c10.159 0 18.387-8.254 18.387-18.425 0-10.172-8.228-18.425-18.387-18.425h-5.098v-13.327a4.736 4.736 0 00-4.733-4.739h-19.115a4.736 4.736 0 00-4.733 4.739v13.327h-14.02v-8.947a4.735 4.735 0 00-4.732-4.739h-13.654a4.736 4.736 0 00-4.733 4.739v8.947h-13.473zm-23.848-14.062a.732.732 0 00-.729.735v13.327h20.573v-13.327a.732.732 0 00-.729-.735h-7.283v5.936h-4.003v-5.936h-7.829zm41.325 14.062h15.112v-8.947a.733.733 0 00-.729-.736h-4.552v4.02h-4.004v-4.02h-5.098a.733.733 0 00-.729.736v8.947zm37.139 0h20.573v-13.327a.732.732 0 00-.729-.735h-7.283v5.936h-4.004v-5.936h-7.828a.732.732 0 00-.729.735v13.327zm-88.841 4.003c-7.94 0-14.383 6.453-14.383 14.422s6.444 14.421 14.383 14.421h118.516c7.939 0 14.383-6.452 14.383-14.421 0-7.969-6.444-14.422-14.383-14.422H96.387zm44.069 77.632c-1.452 0-2.64-.486-3.564-1.458-.9-.972-1.35-2.346-1.35-4.122 0-.78.036-1.5.108-2.16.048-.396.12-.756.216-1.08.204-.756.51-1.41.918-1.962a5.697 5.697 0 011.854-1.602c.888-.48 1.926-.828 3.114-1.044l2.628-.486.45 2.232-3.078.594c-1.176.228-2.106.642-2.79 1.242-.276.264-.516.54-.72.828-.324.504-.504.96-.54 1.368l.072.018c.6-.708 1.284-1.164 2.052-1.368.54-.156.996-.234 1.368-.234 1.14 0 2.105.414 2.898 1.242.78.84 1.17 1.896 1.17 3.168 0 1.452-.45 2.616-1.35 3.492-.9.888-2.052 1.332-3.456 1.332zm-.018-6.93c-.6 0-1.11.204-1.53.612-.444.396-.666.942-.666 1.638 0 .72.216 1.284.648 1.692.444.42.966.63 1.566.63.624 0 1.146-.21 1.566-.63.42-.42.63-.978.63-1.674 0-.72-.222-1.278-.666-1.674a2.297 2.297 0 00-1.548-.594zm-15.416-2.16c0 1.44-.456 2.514-1.368 3.222-.876.708-2.016 1.062-3.42 1.062h-2.052v4.626h-2.718v-13.122h4.86c1.38 0 2.496.354 3.348 1.062.9.732 1.35 1.782 1.35 3.15zm-2.736.054c0-.384-.102-.708-.306-.972a1.583 1.583 0 00-.81-.576 3.401 3.401 0 00-1.08-.162h-1.908v3.42h1.926c.6 0 1.11-.138 1.53-.414.432-.288.648-.72.648-1.296zM93.608 280.71l.04 1.24h20.84v-4.16h-15.16c.293-1.147.933-2.133 1.92-2.96.293-.24.68-.533 1.16-.88.08-.053.227-.16.44-.32.24-.16.44-.28.6-.36l5.32-3.12c1.733-1.013 3.067-2.28 4-3.8a8.914 8.914 0 001.44-4.92c0-2.4-.867-4.493-2.6-6.28-1.867-1.867-4.347-2.8-7.44-2.8-2.747 0-5 .72-6.76 2.16a9.572 9.572 0 00-2.68 3.44c-.613 1.333-.893 2.653-.84 3.96l4.64.6c.027-1.36.227-2.4.6-3.12.96-1.867 2.613-2.8 4.96-2.8 1.6 0 2.907.467 3.92 1.4.987.96 1.48 2.133 1.48 3.52 0 1.253-.36 2.347-1.08 3.28-.693.907-1.8 1.813-3.32 2.72l-4.52 2.64c-4.667 2.773-6.987 6.293-6.96 10.56zm27.966-.52c2.026 1.387 4.306 2.08 6.84 2.08 2.96 0 5.453-.853 7.48-2.56 2.133-1.787 3.2-4.213 3.2-7.28 0-2.827-.854-5.107-2.56-6.84-1.76-1.76-4.08-2.64-6.96-2.64-.8 0-1.6.067-2.4.2-1.36.267-2.507.8-3.44 1.6l1.8-7.84h12.24v-4.12h-15.48l-3.4 14.92 4.16 1.6c1.413-1.6 3.226-2.4 5.44-2.4 1.6 0 2.973.493 4.12 1.48 1.146 1.013 1.72 2.4 1.72 4.16 0 1.84-.654 3.253-1.96 4.24-1.2.907-2.494 1.36-3.88 1.36-1.254 0-2.494-.347-3.72-1.04-1.44-.827-2.254-2.16-2.44-4l-4.4.96c.4 2.693 1.613 4.733 3.64 6.12zm39.3-14.12l-1 8.08c-.213 1.787-.627 3.267-1.24 4.44-.4.747-.88 1.36-1.44 1.84-1.28 1.147-3.067 1.72-5.36 1.72h-.12v-4c1.36 0 2.32-.507 2.88-1.52.48-.773.8-1.8.96-3.08l1.36-11.48h15.16v19.88h-4.44v-15.88h-6.76zm20.335 7.24h15.12c.053-.533.08-.987.08-1.36 0-3.067-.867-5.547-2.6-7.44-1.707-1.893-4.08-2.84-7.12-2.84-1.867 0-3.573.467-5.12 1.4-1.52.88-2.72 2.133-3.6 3.76-.853 1.573-1.28 3.293-1.28 5.16-.053 2.88.947 5.333 3 7.36s4.52 3.013 7.4 2.96c1.28 0 2.56-.227 3.84-.68a8.963 8.963 0 003.2-2.12c.933-.933 1.573-2 1.92-3.2l-3.72-1.16c-.747 2.24-2.507 3.36-5.28 3.36-1.467.027-2.8-.467-4-1.48-1.2-1.04-1.813-2.28-1.84-3.72zm2-6.6c.933-.827 2.107-1.24 3.52-1.24 1.387 0 2.587.4 3.6 1.2.96.853 1.48 1.947 1.56 3.28h-10.44c.187-1.36.773-2.44 1.76-3.24zm21.072 15.24v-15.88h-6.48v-4h17.44v4h-6.52v15.88h-4.44zm-80.342 29.242v-3.248h3.6v3.248h1.776v-7.952h-1.776v3.152h-3.6v-3.152h-1.776v7.952h1.776zm9.932.144c-.779 0-1.419-.224-1.92-.672-.502-.438-.752-.998-.752-1.68v-.08c.01-1.014.522-1.718 1.536-2.112a4.762 4.762 0 011.76-.32h.992c.49 0 .736-.224.736-.672 0-.342-.134-.63-.4-.864-.288-.235-.678-.352-1.168-.352-.47 0-.859.122-1.168.368-.31.234-.496.554-.56.96l-1.616-.368c.053-.374.234-.774.544-1.2.33-.427.746-.747 1.248-.96.437-.203.976-.304 1.616-.304 1.493 0 2.485.544 2.976 1.632.181.394.272.864.272 1.408v3.792c0 .533.016.96.048 1.28h-1.728c-.054-.246-.08-.608-.08-1.088-.267.437-.608.752-1.024.944a3.167 3.167 0 01-1.312.288zm2.336-3.616h-1.712c-.374 0-.72.096-1.04.288-.32.202-.48.474-.48.816 0 .33.117.597.352.8.234.192.538.288.912.288.608 0 1.088-.176 1.44-.528.352-.352.528-.822.528-1.408v-.256zm15.796 1.488c.32-.619.48-1.291.48-2.016 0-1.035-.342-1.968-1.024-2.8-.736-.875-1.696-1.312-2.88-1.312-.406 0-.854.096-1.344.288a2.587 2.587 0 00-1.328 1.104v-1.232h-1.728v11.872h1.776v-5.088c.192.309.464.565.816.768.618.352 1.205.528 1.76.528.736 0 1.424-.198 2.064-.592a3.959 3.959 0 001.408-1.52zm-6.08-2c0-.694.224-1.291.672-1.792.448-.48 1.018-.72 1.712-.72.704 0 1.28.24 1.728.72.437.48.656 1.077.656 1.792 0 .704-.219 1.296-.656 1.776-.448.48-1.024.72-1.728.72-.694 0-1.264-.24-1.712-.72-.448-.491-.672-1.083-.672-1.776zm15.516 1.248c0 .81-.272 1.472-.816 1.984-.533.501-1.301.752-2.304.752h-4v-7.952h1.776v2.624h2.08c1.333 0 2.272.373 2.816 1.12.299.394.448.885.448 1.472zm-1.792-.016c0-.384-.144-.678-.432-.88-.288-.214-.677-.32-1.168-.32h-1.952v2.464h1.984c1.045 0 1.568-.422 1.568-1.264zm5.2-5.2v7.952h-1.776v-7.952h1.776zm4.139 7.952v-3.248h3.6v3.248h1.776v-7.952h-1.776v3.152h-3.6v-3.152h-1.776v7.952h1.776zm9.515 0h-1.776v-7.952h1.776v3.344h.08l3.152-3.344h2.352l-3.632 3.808 3.888 4.144h-2.4l-3.36-3.68h-.08v3.68zm7.223-3.456h6.048c.021-.214.032-.395.032-.544 0-1.227-.347-2.219-1.04-2.976-.683-.758-1.632-1.136-2.848-1.136-.747 0-1.429.186-2.048.56a3.762 3.762 0 00-1.44 1.504 4.261 4.261 0 00-.512 2.064c-.021 1.152.379 2.133 1.2 2.944.821.81 1.808 1.205 2.96 1.184.512 0 1.024-.091 1.536-.272a3.588 3.588 0 001.28-.848c.373-.374.629-.8.768-1.28l-1.488-.464c-.299.896-1.003 1.344-2.112 1.344-.587.01-1.12-.187-1.6-.592-.48-.416-.725-.912-.736-1.488zm.8-2.64c.373-.331.843-.496 1.408-.496.555 0 1.035.16 1.44.48.384.341.592.778.624 1.312h-4.176c.075-.544.309-.976.704-1.296zm-60.195-71.986c.588.492 1.284.738 2.088.738 1.152 0 2.04-.432 2.664-1.296h.036c0 .504.018.876.054 1.116h2.43a16.914 16.914 0 01-.072-1.44v-4.104c0-1.152-.36-2.046-1.08-2.682-.708-.636-1.632-.948-2.772-.936-.624 0-1.224.102-1.8.306-.564.192-1.05.51-1.458.954-.408.42-.666.942-.774 1.566l2.304.522c.096-.384.288-.684.576-.9.288-.216.63-.324 1.026-.324.432 0 .774.108 1.026.324a.972.972 0 01.378.792c0 .408-.234.612-.702.612h-.864c-.792 0-1.506.12-2.142.36-1.2.42-1.8 1.212-1.8 2.376v.072c0 .792.294 1.44.882 1.944zm4.14-1.692c-.324.348-.756.522-1.296.522-.324 0-.588-.078-.792-.234-.204-.168-.306-.396-.306-.684 0-.324.144-.576.432-.756.264-.18.558-.27.882-.27h1.566v.216c0 .48-.162.882-.486 1.206zm16.772-4.59a4.592 4.592 0 00-.666 2.394c0 .84.222 1.632.666 2.376a4.684 4.684 0 001.746 1.674 5.234 5.234 0 002.466.594c.9 0 1.722-.204 2.466-.612a4.564 4.564 0 002.43-4.086c0-.888-.216-1.68-.648-2.376a4.467 4.467 0 00-1.764-1.674c-.732-.408-1.548-.612-2.448-.612-.864 0-1.686.204-2.466.612a4.524 4.524 0 00-1.782 1.71zm2.016 2.358c0-.648.21-1.194.63-1.638a2.134 2.134 0 011.566-.648c.624 0 1.152.216 1.584.648.42.42.63.966.63 1.638 0 .684-.21 1.23-.63 1.638a2.134 2.134 0 01-1.566.648 2.155 2.155 0 01-1.584-.648c-.42-.444-.63-.99-.63-1.638zm10.294 4.482v-6.678h-2.7v-2.268h8.028v2.268h-2.7v6.678h-2.628zm6.786-.558c.588.492 1.284.738 2.088.738 1.152 0 2.04-.432 2.664-1.296h.036c0 .504.018.876.054 1.116h2.43a16.914 16.914 0 01-.072-1.44v-4.104c0-1.152-.36-2.046-1.08-2.682-.708-.636-1.632-.948-2.772-.936-.624 0-1.224.102-1.8.306-.564.192-1.05.51-1.458.954-.408.42-.666.942-.774 1.566l2.304.522c.096-.384.288-.684.576-.9.288-.216.63-.324 1.026-.324.432 0 .774.108 1.026.324a.972.972 0 01.378.792c0 .408-.234.612-.702.612h-.864c-.792 0-1.506.12-2.142.36-1.2.42-1.8 1.212-1.8 2.376v.072c0 .792.294 1.44.882 1.944zm4.14-1.692c-.324.348-.756.522-1.296.522-.324 0-.588-.078-.792-.234-.204-.168-.306-.396-.306-.684 0-.324.144-.576.432-.756.264-.18.558-.27.882-.27h1.566v.216c0 .48-.162.882-.486 1.206zm13.982-1.494h-6.48c.072.516.318.942.738 1.278.408.324.894.486 1.458.486.372 0 .75-.114 1.134-.342.384-.228.636-.516.756-.864l2.16.738a3.652 3.652 0 01-1.548 1.944 4.539 4.539 0 01-2.466.702c-.888 0-1.71-.198-2.466-.594a4.452 4.452 0 01-1.782-1.656 4.656 4.656 0 01-.666-2.43 4.5 4.5 0 01.648-2.358 4.776 4.776 0 011.746-1.71 4.637 4.637 0 012.358-.612c1.32 0 2.394.414 3.222 1.242.828.828 1.242 1.908 1.242 3.24a6.1 6.1 0 01-.054.936zm-6.426-1.746h3.852c-.036-.36-.192-.696-.468-1.008-.324-.36-.804-.54-1.44-.54-.54 0-.984.168-1.332.504-.36.348-.564.696-.612 1.044zm14.994 5.49l2.214-6.12h.036v6.12h2.574v-8.946h-3.582l-2.16 5.85-2.196-5.85h-3.546v8.946h2.556v-6.012h.018l2.25 6.012h1.836zM90.016 170.911c0-5.182 4.192-9.392 9.374-9.392 5.183 0 9.376 4.21 9.376 9.392 0 5.183-4.193 9.393-9.376 9.393-5.182 0-9.374-4.21-9.374-9.393zm4.003 0c0-2.98 2.41-5.388 5.371-5.388 2.963 0 5.372 2.408 5.372 5.388 0 2.981-2.409 5.389-5.371 5.389-2.963 0-5.372-2.408-5.372-5.389zm118.426-9.392c-5.182 0-9.375 4.21-9.375 9.392 0 5.183 4.193 9.393 9.375 9.393s9.375-4.21 9.375-9.393c0-5.182-4.193-9.392-9.375-9.392zm0 4.004c-2.962 0-5.371 2.408-5.371 5.388 0 2.981 2.409 5.389 5.371 5.389 2.962 0 5.371-2.408 5.371-5.389 0-2.98-2.409-5.388-5.371-5.388zM149.438 54.439a9.282 9.282 0 0113.123 0 9.28 9.28 0 11-13.123 0zm2.387 2.386a5.904 5.904 0 118.35 8.349 5.904 5.904 0 01-8.35-8.349z" fill="#F7931D"/></svg>