<svg width="101" height="100" fill="none" xmlns="http://www.w3.org/2000/svg"><path fill-rule="evenodd" clip-rule="evenodd" d="M33.93 76.235v-8.594a3.054 3.054 0 00-3.053-3.056H18.55a3.054 3.054 0 00-3.053 3.056v8.594h-3.64C5.306 76.235 0 81.558 0 88.118 0 94.678 5.306 100 11.857 100H88.29c6.551 0 11.857-5.323 11.857-11.882 0-6.56-5.306-11.883-11.857-11.883H85v-8.594a3.054 3.054 0 00-3.052-3.056H69.62a3.054 3.054 0 00-3.052 3.056v8.594h-9.041v-5.77a3.054 3.054 0 00-3.052-3.056H45.67a3.054 3.054 0 00-3.052 3.056v5.77H33.93zm-15.38-9.068c-.257 0-.47.21-.47.474v8.594h13.267v-8.594a.472.472 0 00-.47-.474h-4.696v3.828h-2.582v-3.828h-5.05zm26.65 9.068h9.746v-5.77a.472.472 0 00-.47-.474H51.54v2.593h-2.582V69.99H45.67c-.256 0-.47.21-.47.474v5.77zm23.951 0h13.268v-8.594a.472.472 0 00-.47-.474h-4.697v3.828H74.67v-3.828h-5.049c-.257 0-.47.21-.47.474v8.594zm-57.293 2.582c-5.12 0-9.276 4.161-9.276 9.3 0 5.14 4.156 9.301 9.276 9.301h76.43c5.12 0 9.276-4.161 9.276-9.3 0-5.14-4.156-9.3-9.275-9.3H11.858z" fill="#F7931D"/><path fill-rule="evenodd" clip-rule="evenodd" d="M13.795 82.237c-3.342 0-6.046 2.715-6.046 6.057 0 3.343 2.704 6.057 6.046 6.057s6.046-2.715 6.046-6.057c0-3.342-2.704-6.057-6.046-6.057zm0 2.582a3.47 3.47 0 00-3.464 3.475 3.47 3.47 0 003.464 3.475 3.47 3.47 0 003.464-3.475 3.47 3.47 0 00-3.464-3.475zM86.704 82.237c-3.342 0-6.046 2.715-6.046 6.057 0 3.343 2.704 6.057 6.046 6.057s6.046-2.715 6.046-6.057c0-3.342-2.704-6.057-6.046-6.057zm0 2.582a3.47 3.47 0 00-3.464 3.475 3.47 3.47 0 003.464 3.475 3.47 3.47 0 003.464-3.475 3.47 3.47 0 00-3.464-3.475zM29.82 15.622V13.04l-23.857.002a5.64 5.64 0 00-.68.071c-.415.07-.988.21-1.577.505A4.382 4.382 0 002 15.105c-.486.732-.766 1.648-.766 2.756 0 1.108.28 2.025.766 2.756a4.384 4.384 0 001.707 1.488 5.612 5.612 0 002.096.568l.161.01h8.83v10.242a4.188 4.188 0 00-1.546.671c-.735.52-1.228 1.235-1.56 1.998-.629 1.443-.762 3.258-.768 4.919-.246.343-.543.766-.84 1.214-.363.545-.741 1.147-1.034 1.698a7.437 7.437 0 00-.386.83c-.093.244-.206.596-.206.968 0 .38.129.77.222 1.026.11.304.26.645.425.994.332.7.766 1.512 1.19 2.271a91.828 91.828 0 001.66 2.848l.028.048.01.017a1.29 1.29 0 102.204-1.347l-.009-.014-.027-.044-.046-.077-.058-.095a94.155 94.155 0 01-1.507-2.593 38.365 38.365 0 01-1.111-2.12 9.524 9.524 0 01-.333-.772 2.737 2.737 0 01-.048-.14l.02-.053c.05-.133.133-.313.251-.534.236-.443.562-.966.904-1.48.305-.459.61-.893.857-1.234h5.647c.245.341.552.775.856 1.233.342.515.668 1.038.904 1.48a4.916 4.916 0 01.27.587 2.86 2.86 0 01-.047.141 9.488 9.488 0 01-.333.772 38.428 38.428 0 01-1.11 2.12 88.877 88.877 0 01-1.508 2.593l-.104.172-.027.044-.008.014a1.291 1.291 0 102.202 1.347l.01-.017.03-.047a55.673 55.673 0 00.492-.823c.317-.535.742-1.263 1.167-2.026.424-.76.858-1.571 1.19-2.271.165-.349.314-.69.425-.994.093-.255.222-.646.222-1.026 0-.372-.113-.724-.206-.968a7.436 7.436 0 00-.386-.83 21.165 21.165 0 00-1.033-1.698 42.703 42.703 0 00-.84-1.214c-.007-1.661-.14-3.476-.768-4.919-.333-.763-.826-1.478-1.561-1.998a4.12 4.12 0 00-1.194-.58V22.683h12.446V20.1H6.049a3.044 3.044 0 01-.341-.037 3.034 3.034 0 01-.845-.268 1.805 1.805 0 01-.714-.608c-.174-.262-.334-.67-.334-1.327 0-.657.16-1.064.334-1.326.18-.27.427-.465.714-.609a3.034 3.034 0 011.186-.304h23.772zm-16.286 23.72h4.748c-.063-1.096-.219-2.025-.52-2.717-.196-.45-.429-.74-.684-.92-.247-.175-.604-.312-1.17-.312s-.923.137-1.17.312c-.255.18-.488.47-.684.92-.301.692-.457 1.621-.52 2.717zM72.229 15.622V13.04l23.857.002a5.639 5.639 0 01.68.071c.415.07.988.21 1.577.505a4.381 4.381 0 011.707 1.487c.487.732.767 1.648.767 2.756 0 1.108-.28 2.025-.767 2.756a4.381 4.381 0 01-1.707 1.488 5.608 5.608 0 01-2.096.568l-.161.01h-8.83v10.242a4.188 4.188 0 011.546.671c.735.52 1.229 1.235 1.56 1.998.629 1.443.762 3.258.768 4.919.246.343.543.766.841 1.214.362.545.74 1.147 1.033 1.698.147.274.283.558.387.83.093.244.205.596.205.967 0 .381-.129.772-.222 1.027-.11.304-.26.645-.425.994-.332.7-.766 1.512-1.19 2.271a91.828 91.828 0 01-1.55 2.67l-.109.178-.029.048-.01.017a1.29 1.29 0 11-2.203-1.347l.008-.014.027-.044.047-.077.057-.095a94.155 94.155 0 001.507-2.593 38.33 38.33 0 001.112-2.12c.148-.313.26-.574.332-.772.023-.06.038-.107.048-.14a4.925 4.925 0 00-.27-.587 18.66 18.66 0 00-.905-1.48 40.36 40.36 0 00-.856-1.234h-5.647a40.54 40.54 0 00-.857 1.233 18.658 18.658 0 00-.903 1.48 4.925 4.925 0 00-.272.587c.01.034.026.08.048.141.072.198.184.459.333.772.296.624.698 1.379 1.111 2.12a89.108 89.108 0 001.507 2.593l.104.172.027.044.009.014a1.291 1.291 0 11-2.203 1.347l-.01-.017-.03-.047a55.673 55.673 0 01-.492-.823 91.427 91.427 0 01-1.167-2.026 40.828 40.828 0 01-1.19-2.271 11.98 11.98 0 01-.425-.994c-.093-.255-.222-.646-.222-1.027 0-.371.113-.723.206-.967.103-.272.24-.556.386-.83.293-.55.671-1.153 1.033-1.698.298-.448.595-.87.841-1.214.006-1.661.14-3.476.768-4.919.332-.763.826-1.478 1.56-1.998a4.12 4.12 0 011.194-.58V22.683H72.23V20.1H96l.063-.004a3.034 3.034 0 001.124-.3c.286-.144.534-.34.713-.61.174-.261.334-.668.334-1.326 0-.657-.16-1.064-.334-1.326a1.805 1.805 0 00-.714-.609A3.034 3.034 0 0096 15.622H72.229zm16.286 23.72h-4.747c.062-1.096.218-2.025.52-2.717.195-.45.428-.74.684-.92.246-.175.603-.312 1.17-.312.566 0 .923.137 1.169.312.255.18.488.47.684.92.302.692.457 1.621.52 2.717zM53.086 38.177a4.188 4.188 0 00-1.546-.672V34.78c1.543-.142 2.367-1.497 2.668-2.51.257-.865.797-1.497 1.506-1.79.71-.294 1.54-.23 2.333.2.943.51 2.515.89 3.712-.156a17.323 17.323 0 001.655-1.656c1.046-1.198.666-2.77.155-3.712-.429-.793-.493-1.622-.2-2.332.294-.708.926-1.249 1.79-1.506 1.028-.305 2.408-1.149 2.516-2.735a17.33 17.33 0 000-2.342c-.108-1.586-1.488-2.43-2.515-2.734-.865-.257-1.497-.797-1.79-1.506-.294-.71-.23-1.54.2-2.334.51-.942.89-2.515-.156-3.712A17.321 17.321 0 0061.758 4.3c-1.198-1.046-2.77-.665-3.712-.155-.793.43-1.623.494-2.332.2-.709-.294-1.25-.925-1.506-1.79C53.902 1.527 53.059.147 51.473.04a17.314 17.314 0 00-2.342 0c-1.586.107-2.43 1.487-2.735 2.515-.257.865-.797 1.496-1.506 1.79-.71.294-1.54.23-2.333-.2-.943-.511-2.515-.89-3.712.156a17.314 17.314 0 00-1.655 1.655c-1.046 1.198-.666 2.77-.155 3.713.429.793.493 1.622.2 2.332-.294.708-.926 1.25-1.792 1.507-1.028.305-2.406 1.149-2.514 2.734-.09 1.33-.026 2.667.191 3.986.077.542.55.947 1.106.934 1.462-.035 2.593.658 3.009 1.662.293.71.229 1.54-.201 2.333-.51.943-.89 2.515.156 3.713a17.312 17.312 0 001.656 1.655c1.198 1.045 2.77.665 3.712.155.793-.43 1.622-.494 2.332-.2.709.293 1.25.925 1.506 1.79.294.99 1.087 2.306 2.562 2.498v2.829a4.12 4.12 0 00-1.193.58c-.735.52-1.23 1.235-1.561 1.998-.628 1.442-.762 3.257-.768 4.918-.246.343-.543.767-.84 1.215-.363.544-.741 1.147-1.034 1.697a7.439 7.439 0 00-.386.83c-.093.245-.206.596-.206.968 0 .38.129.77.222 1.027.111.304.26.645.426.993.331.7.765 1.512 1.189 2.271a91.236 91.236 0 001.66 2.849l.029.047.01.018a1.291 1.291 0 102.203-1.347l-.036-.059a70.717 70.717 0 01-.477-.797c-.31-.524-.723-1.23-1.134-1.968a38.362 38.362 0 01-1.111-2.12 9.517 9.517 0 01-.333-.771 2.897 2.897 0 01-.047-.142 4.93 4.93 0 01.271-.587c.235-.442.56-.964.903-1.48.305-.457.61-.892.857-1.233h5.647c.246.341.552.776.856 1.234.343.515.669 1.037.904 1.48a4.944 4.944 0 01.271.586c-.01.034-.026.08-.048.142a9.517 9.517 0 01-.332.771 38.362 38.362 0 01-1.112 2.12 89.084 89.084 0 01-1.507 2.593l-.058.096-.046.076-.035.058a1.291 1.291 0 102.203 1.347l.01-.017.029-.047.029-.047.08-.132a92.615 92.615 0 001.55-2.67c.424-.76.858-1.571 1.19-2.27.165-.35.314-.69.425-.994.093-.256.222-.646.222-1.027 0-.372-.112-.723-.205-.968a7.42 7.42 0 00-.386-.83 21.165 21.165 0 00-1.034-1.697 42.469 42.469 0 00-.84-1.215c-.007-1.661-.14-3.476-.768-4.918-.332-.763-.826-1.478-1.561-1.998zm-5.034 5.745h4.747c-.063-1.095-.218-2.025-.52-2.717-.196-.45-.429-.74-.684-.92-.246-.174-.603-.312-1.17-.312-.566 0-.923.138-1.17.312-.255.18-.488.47-.684.92-.301.692-.457 1.622-.52 2.717zm3.274-41.71a15.138 15.138 0 00-2.048 0c-.119.007-.25.061-.4.222-.159.17-.303.43-.395.74-.413 1.39-1.35 2.598-2.76 3.182-1.41.583-2.928.393-4.203-.298a1.903 1.903 0 00-.803-.244c-.22-.008-.35.047-.44.126-.515.45-.998.933-1.447 1.447-.079.09-.134.222-.126.442.008.232.09.519.245.803.69 1.275.88 2.792.297 4.201-.584 1.409-1.793 2.348-3.183 2.76-.31.093-.57.237-.74.395-.16.15-.214.282-.222.4-.06.884-.042 1.77.053 2.651 1.768.237 3.38 1.236 4.092 2.952.583 1.41.392 2.928-.298 4.203-.154.284-.236.57-.244.803-.008.22.047.351.126.44.449.515.932.999 1.447 1.448.09.078.221.133.441.125.233-.008.52-.09.804-.244 1.274-.69 2.792-.88 4.2-.297 1.41.583 2.348 1.791 2.76 3.181.093.31.237.57.396.74.15.161.281.215.4.223a15.14 15.14 0 002.048 0c.119-.008.25-.062.4-.222.159-.17.303-.431.395-.74.413-1.39 1.35-2.599 2.76-3.182 1.41-.584 2.928-.393 4.203.297.284.154.57.236.803.245.22.008.35-.048.44-.126.515-.45.998-.933 1.448-1.448.078-.09.133-.221.125-.441a1.907 1.907 0 00-.244-.804c-.69-1.274-.88-2.792-.298-4.2.584-1.409 1.792-2.348 3.182-2.76.31-.092.57-.237.74-.395.161-.15.215-.282.223-.401a15.14 15.14 0 000-2.047c-.008-.12-.062-.252-.223-.401a1.9 1.9 0 00-.74-.395c-1.389-.412-2.598-1.35-3.182-2.76-.583-1.41-.392-2.927.298-4.202.154-.285.236-.57.244-.803.008-.22-.047-.351-.125-.441-.45-.515-.933-.998-1.448-1.447-.09-.079-.221-.134-.441-.126-.233.009-.52.09-.804.245-1.274.69-2.792.88-4.2.297-1.41-.584-2.348-1.792-2.76-3.181a1.902 1.902 0 00-.395-.741c-.15-.161-.282-.215-.401-.223zm-16.058 17.66l.003.022a1.092 1.092 0 01-.003-.022z" fill="#F7931D"/><path fill-rule="evenodd" clip-rule="evenodd" d="M35.268 19.872l.003.022a1.092 1.092 0 01-.003-.022zM50.302 11.428a5.985 5.985 0 100 11.97 5.985 5.985 0 000-11.97zm0 2.177a3.808 3.808 0 100 7.615 3.808 3.808 0 000-7.615z" fill="#F7931D"/></svg>