<svg width="99" height="100" fill="none" xmlns="http://www.w3.org/2000/svg"><path fill-rule="evenodd" clip-rule="evenodd" d="M45.377 4.636L31.625 20.785l-15.862-9.017-9.371 10.68-1.134-.994L15.44 9.85l15.846 9.008 12.943-15.2 1.148.978z" fill="#F7931D"/><path d="M9.783 21.943a3.77 3.77 0 11-7.54.017 3.77 3.77 0 017.54-.017zM19.561 11.366a3.77 3.77 0 11-7.54.016 3.77 3.77 0 017.54-.016zM35.038 20.379a3.77 3.77 0 11-7.54.017 3.77 3.77 0 017.54-.017zM48.572 3.761a3.77 3.77 0 11-7.54.017 3.77 3.77 0 017.54-.017z" fill="#F7931D"/><path fill-rule="evenodd" clip-rule="evenodd" d="M.042 49.107l7.938-.017.005 2.262-5.676.012.103 46.37 36.19-.081-.103-46.37-5.308.013-.005-2.262 7.57-.017.113 50.893L.155 100 .042 49.107z" fill="#F7931D"/><path d="M12.564 48.469l17.108-.038.007 3.202-17.108.038-.007-3.202z" fill="#F7931D"/><path fill-rule="evenodd" clip-rule="evenodd" d="M31.174 63.175l-9.047.02-.007-3.016 9.048-.02.006 3.016zM31.382 71.657l-21.865.048-.007-3.016 21.865-.048.007 3.016zM31.4 79.95L9.535 80l-.007-3.016 21.865-.048.007 3.016zM31.419 88.244l-21.865.049-.007-3.016 21.865-.049.007 3.016zM75.748 47.054l-6.509.015-.005-2.262 6.51-.015a3.01 3.01 0 012.414 1.203c2.525 3.363 12.955 17.302 15.662 21.696.317.514.626 1.004.923 1.478 1.096 1.74 2.047 3.252 2.742 4.883.912 2.139 1.392 4.473 1.4 7.898.013 5.728-2.876 9.119-6.082 11.021-3.136 1.862-6.577 2.314-7.946 2.317l-31.934.071-.003-1.13-.002-1.132 31.934-.07c1.065-.003 4.085-.392 6.796-2 2.642-1.568 4.986-4.278 4.975-9.072-.007-3.19-.45-5.212-1.219-7.016-.618-1.45-1.445-2.765-2.518-4.473-.31-.493-.64-1.018-.992-1.589-2.637-4.28-12.977-18.104-15.544-21.524a.749.749 0 00-.602-.299z" fill="#F7931D"/><path fill-rule="evenodd" clip-rule="evenodd" d="M63.276 47.082l6.141-.014-.005-2.261-6.141.013a3.016 3.016 0 00-2.406 1.207L44.605 67.71a1.131 1.131 0 001.809 1.357l16.26-21.683a.754.754 0 01.602-.302zM44.174 89.71c-.43.453-.41 1.169.043 1.599 1.797 1.703 3.955 2.709 5.83 3.29 1.871.58 3.533.759 4.41.757l31.64-.07-.002-1.131-.003-1.131-31.64.07c-.637.001-2.072-.14-3.735-.655-1.66-.515-3.474-1.379-4.944-2.772a1.13 1.13 0 00-1.599.043zM80.77 72.867c.013 6.142-4.955 11.132-11.097 11.145-6.142.014-11.132-4.954-11.145-11.096-.014-6.142 4.954-11.132 11.096-11.146 6.142-.013 11.132 4.955 11.145 11.097zm-2.263.005a8.859 8.859 0 11-17.718.04 8.859 8.859 0 0117.718-.04zM70.242 23.832a.754.754 0 00-1.028.002l-2.891 2.704a3.016 3.016 0 01-4.11.01l-2.824-2.618a.754.754 0 00-1.06.035l-1.458 1.538a.754.754 0 00-.086.928l5.823 8.997c.14.216.379.345.635.345l13.023-.03a.754.754 0 00.633-.346l5.783-9.023a.754.754 0 00-.09-.928l-1.465-1.532a.754.754 0 00-1.06-.03l-2.812 2.63a3.016 3.016 0 01-4.11.01l-2.903-2.692zm-2.573-1.65a3.016 3.016 0 014.11-.009l2.904 2.692a.754.754 0 001.027-.003l2.812-2.63a3.016 3.016 0 014.24.119l1.465 1.531a3.016 3.016 0 01.36 3.712l-5.783 9.023a3.016 3.016 0 01-2.533 1.389l-13.023.029a3.016 3.016 0 01-2.539-1.378l-5.823-8.997a3.016 3.016 0 01.344-3.713l1.458-1.539a3.016 3.016 0 014.239-.136l2.823 2.617a.754.754 0 001.028-.002l2.891-2.704zM61.284 41.055a1.508 1.508 0 011.505-1.511l13.571-.03a1.508 1.508 0 11.007 3.015l-13.572.03a1.508 1.508 0 01-1.51-1.504z" fill="#F7931D"/><path d="M73.556 75.121c.002.782-.272 1.474-.821 2.074-.597.638-1.413 1.012-2.446 1.12l.003 1.362-1.115.003-.003-1.362c-1.024-.085-1.84-.397-2.45-.936-.61-.55-.993-1.292-1.15-2.229l2.013-.468c.068.435.243.797.524 1.086.28.289.643.481 1.087.577l-.005-2.376-.478-.086c-.85-.162-1.522-.508-2.016-1.038-.503-.511-.756-1.158-.757-1.94-.012-.83.295-1.555.922-2.175a3.615 3.615 0 012.286-1.062l-.003-1.391 1.116-.002.003 1.405c.956.113 1.7.445 2.233.994.513.54.804 1.119.873 1.737l-1.94.569c-.156-.695-.548-1.134-1.176-1.316L70.26 72l.348.072c.927.172 1.657.537 2.19 1.096.503.54.755 1.191.757 1.954zM69.16 71.8l.03.015-.005-2.188a1.481 1.481 0 00-.796.422c-.203.203-.303.43-.303.682.001.589.36.945 1.074 1.07zm1.107 2.388l.004 2.187c.338-.068.604-.204.796-.407a.973.973 0 00.303-.71.896.896 0 00-.306-.666c-.193-.203-.46-.337-.797-.404z" fill="#F7931D"/></svg>