<svg width="312" height="350" fill="none" xmlns="http://www.w3.org/2000/svg"><path fill-rule="evenodd" clip-rule="evenodd" d="M312 0H0v350h312V0zM197.427 38.913c.021-.46.393-.84.911-.84l24.15-.054a.914.914 0 01.916.877l1.214 29.514-28.604.063c.523-10.749 1.008-20.85 1.413-29.56zm-1.608 33.56l28.964-.064 4.543 110.449a.915.915 0 01-.918.952l-38.005-.172 1.309-28.229c.447-9.078.972-19.619 1.528-30.804l.003-.064v-.002l.002-.033v-.006c.837-16.824 1.746-35.096 2.574-52.026zm-9.447 111.16c.168-4.247.663-14.544 1.331-28.13l1.846-39.807a.917.917 0 00-.61-.906L139.74 97.472a.914.914 0 00-1.218.865l.189 85.402 12.323-.028-.038-17.454 2-.004c-2 .004-2 .002-2 .002v-.061l.003-.121c.003-.099.01-.233.022-.399.025-.33.074-.788.17-1.332a13.641 13.641 0 011.38-4.032c.805-1.498 2.036-3.036 3.902-4.193 1.87-1.16 4.265-1.868 7.281-1.874 3.016-.007 5.414.69 7.29 1.842 1.87 1.149 3.109 2.681 3.92 4.176a13.595 13.595 0 011.397 4.025 13.297 13.297 0 01.2 1.73l.004.121v.039l.001.014v.008s0 .002-2 .007l2-.005.038 17.454 9.768-.021zm7.059-144.906c-.917 19.726-2.249 46.703-3.514 72.167l-48.849-17.195c-3.201-1.127-6.554 1.253-6.546 4.647l.028 12.676-48.864-17.2c-3.202-1.127-6.555 1.253-6.547 4.647l.187 84.486a4.915 4.915 0 004.926 4.904l104.061-.231 40.076.182a4.913 4.913 0 004.933-5.116l-5.921-143.962a4.916 4.916 0 00-4.922-4.713l-24.15.053c-2.593.006-4.775 2.008-4.898 4.655zm-59.162 77.083l.151 67.938-14.364.032-.039-17.454-2 .004c2-.004 2-.006 2-.006v-.023l-.001-.039a10.443 10.443 0 00-.027-.519c-.026-.33-.077-.788-.176-1.331-.197-1.078-.592-2.542-1.397-4.026-.812-1.495-2.05-3.027-3.921-4.176-1.876-1.152-4.273-1.849-7.29-1.842-3.016.007-5.41.714-7.281 1.875-1.865 1.157-3.097 2.694-3.902 4.193-.799 1.487-1.187 2.953-1.379 4.031a13.383 13.383 0 00-.17 1.333 9.703 9.703 0 00-.025.519v.053l-.001.006v.002s0 .003 2-.002l-2 .005.039 17.454-10.243.022a.914.914 0 01-.917-.912L83.14 98.46a.915.915 0 011.219-.865l49.3 17.354c.365.129.61.474.611.861zm-18.252 50.528l.039 17.451-17.57.039-.039-17.448v-.013l.001-.034a4.684 4.684 0 01.014-.235c.016-.215.05-.538.12-.931a9.631 9.631 0 01.964-2.839c.538-1.001 1.323-1.964 2.487-2.686 1.158-.719 2.805-1.269 5.181-1.274 2.377-.005 4.026.537 5.188 1.251 1.167.717 1.956 1.677 2.498 2.675a9.645 9.645 0 01.978 2.835 9.512 9.512 0 01.138 1.165l.001.025v.022-.003zm56.587 17.325l-17.57.039-.038-17.448.001-.046a9.3 9.3 0 01.133-1.166 9.606 9.606 0 01.965-2.839c.537-1.001 1.322-1.965 2.486-2.687 1.159-.718 2.806-1.268 5.182-1.273 2.376-.006 4.026.537 5.187 1.25 1.167.717 1.957 1.677 2.499 2.676.548 1.009.832 2.041.977 2.835a9.196 9.196 0 01.136 1.12l.002.045.002.047.038 17.447zM44.14 261.292l6.511-3.935.053 24.24 4.6-.011-.063-29.16-4.36.01-8.868 5.38 2.127 3.476zm27.072 20.578c-3.066.007-5.575-.867-7.525-2.623-1.844-1.622-2.915-3.673-3.214-6.152l4.439-.81c.136 1.573.766 2.865 1.888 3.875 1.149 1.064 2.617 1.594 4.403 1.59 2.187-.005 3.852-.808 4.995-2.411.612-.828.916-1.815.914-2.962-.003-1.467-.54-2.652-1.608-3.556-1.095-.851-2.416-1.275-3.963-1.271-1.147.002-2.093.204-2.838.606l-2.168-3.395 8.582-8.26-13.76.032-.009-4.12 19.76-.045.008 3.84-7.983 7.578c2.64.127 4.776 1.003 6.406 2.625 1.63 1.623 2.42 3.582 2.373 5.875.006 3.013-1.069 5.376-3.225 7.087-2.023 1.658-4.515 2.491-7.475 2.497zm26.96-.021c2.374-.005 4.506-.69 6.396-2.054 1.89-1.284 3.353-3.088 4.388-5.41.982-2.242 1.47-4.763 1.464-7.563-.006-2.827-.505-5.346-1.497-7.557-.991-2.211-2.435-4.008-4.331-5.39-1.87-1.303-4.005-1.951-6.405-1.946-3.653.009-6.623 1.469-8.91 4.38-2.234 2.832-3.346 6.368-3.337 10.608.006 2.827.505 5.359 1.496 7.597.992 2.211 2.436 3.994 4.332 5.35 1.87 1.329 4.004 1.991 6.404 1.985zm-.056-25.72c1.44-.003 2.775.488 4.004 1.471 2.377 2.048 3.571 5.139 3.58 9.272.004 1.92-.299 3.721-.908 5.402-.61 1.628-1.474 2.91-2.592 3.846-1.145.99-2.463 1.486-3.957 1.489-2.213.032-4.042-1.004-5.487-3.107-1.444-2.13-2.143-4.676-2.096-7.636-.01-4.213 1.157-7.309 3.5-9.288 1.17-.962 2.49-1.445 3.956-1.449zm44.733 23.579c-1.89 1.365-4.022 2.05-6.395 2.055-2.4.005-4.535-.657-6.405-1.986-1.896-1.355-3.34-3.139-4.331-5.35-.992-2.238-1.491-4.77-1.497-7.596-.009-4.241 1.103-7.776 3.337-10.608 2.287-2.912 5.257-4.372 8.91-4.38 2.4-.006 4.535.643 6.405 1.945 1.896 1.383 3.34 3.179 4.331 5.391.992 2.211 1.491 4.73 1.497 7.556.006 2.8-.482 5.321-1.464 7.563-1.035 2.323-2.497 4.126-4.388 5.41zm-2.448-22.194c-1.229-.984-2.563-1.474-4.003-1.471-1.467.003-2.786.486-3.957 1.449-2.343 1.979-3.509 5.074-3.5 9.288-.047 2.96.652 5.505 2.097 7.635 1.444 2.103 3.273 3.139 5.486 3.108 1.494-.004 2.813-.5 3.957-1.489 1.118-.936 1.982-2.218 2.592-3.846.609-1.681.912-3.482.908-5.402-.009-4.134-1.202-7.224-3.58-9.272zm24.49 24.185c2.373-.006 4.505-.691 6.396-2.055 1.89-1.284 3.353-3.087 4.388-5.41.982-2.242 1.469-4.763 1.463-7.563-.006-2.827-.505-5.346-1.496-7.557-.992-2.211-2.436-4.008-4.332-5.39-1.869-1.302-4.004-1.951-6.404-1.946-3.653.009-6.624 1.469-8.911 4.381-2.233 2.831-3.346 6.367-3.337 10.607.007 2.827.505 5.359 1.497 7.597.991 2.211 2.435 3.994 4.332 5.35 1.869 1.329 4.004 1.991 6.404 1.986zm-.056-25.72c1.44-.004 2.774.487 4.003 1.471 2.378 2.048 3.571 5.138 3.58 9.272.005 1.92-.298 3.72-.908 5.402-.61 1.628-1.474 2.91-2.591 3.845-1.145.99-2.464 1.486-3.957 1.489-2.214.032-4.042-1.004-5.487-3.107-1.445-2.13-2.144-4.675-2.097-7.635-.009-4.214 1.158-7.31 3.5-9.288 1.171-.963 2.49-1.446 3.957-1.449zm34.889 23.601c-1.89 1.364-4.022 2.049-6.396 2.054-2.4.006-4.534-.656-6.404-1.985-1.896-1.356-3.34-3.139-4.332-5.35-.991-2.238-1.49-4.77-1.496-7.597-.009-4.24 1.103-7.776 3.337-10.608 2.287-2.912 5.257-4.372 8.91-4.38 2.4-.005 4.535.643 6.405 1.946 1.896 1.382 3.34 3.179 4.331 5.39.992 2.211 1.491 4.73 1.497 7.557.006 2.8-.482 5.321-1.464 7.563-1.035 2.322-2.497 4.126-4.388 5.41zm-2.448-22.195c-1.229-.984-2.564-1.474-4.004-1.471-1.466.004-2.785.487-3.956 1.449-2.343 1.979-3.509 5.075-3.5 9.288-.047 2.96.652 5.505 2.096 7.636 1.445 2.103 3.274 3.139 5.487 3.107 1.494-.003 2.812-.5 3.957-1.489 1.118-.936 1.982-2.218 2.592-3.846.609-1.681.912-3.482.908-5.402-.009-4.133-1.203-7.224-3.58-9.272zm27.524 19.818l-.034-15.88-4.44.01.043 19.88 28.6-.064-.044-19.88-4.44.01.035 15.88-7.68.017-.035-15.88-4.4.01.035 15.88-7.64.017zm34.38 3.922l-.035-15.88-6.48.015-.008-4 17.44-.039.008 4-6.52.014.035 15.88-4.44.01zm-154.017 29.401h1.776v-3.68h.08l3.36 3.68h2.4l-3.888-4.144 3.632-3.808h-2.352l-3.152 3.344h-.08v-3.344h-1.776v7.952zm10.458.144c-.779 0-1.419-.224-1.92-.672-.501-.438-.752-.998-.752-1.68v-.08c.011-1.014.523-1.718 1.536-2.112a4.766 4.766 0 011.76-.32h.992c.491 0 .736-.224.736-.672 0-.342-.133-.63-.4-.864-.288-.235-.677-.352-1.168-.352-.469 0-.859.122-1.168.368a1.436 1.436 0 00-.56.96l-1.616-.368c.053-.374.235-.774.544-1.2a3.075 3.075 0 011.248-.96c.437-.203.976-.304 1.616-.304 1.493 0 2.485.544 2.976 1.632.181.394.272.864.272 1.408v3.792c0 .533.016.96.048 1.28h-1.728c-.053-.246-.08-.608-.08-1.088-.267.437-.608.752-1.024.944a3.167 3.167 0 01-1.312.288zm2.336-3.616h-1.712c-.373 0-.72.096-1.04.288-.32.202-.48.474-.48.816 0 .33.117.597.352.8.235.192.539.288.912.288.608 0 1.088-.176 1.44-.528.352-.352.528-.822.528-1.408v-.256zm5.496-2.88v6.352h1.776v-6.352h2.608v-1.6h-6.976v1.6h2.592zm8.458 5.456l-3.536-7.056h2.016l2.48 5.216 2.288-5.216h1.92l-5.456 11.872h-1.888l2.176-4.816zm8.309-.704v-6.352h-1.776v7.952h11.44v-7.952h-1.776v6.352h-3.072v-6.352h-1.76v6.352h-3.056zm19.365-1.856h-6.048c.011.576.256 1.072.736 1.488.48.405 1.013.602 1.6.592 1.109 0 1.813-.448 2.112-1.344l1.488.464c-.139.48-.395.906-.768 1.28a3.588 3.588 0 01-1.28.848 4.583 4.583 0 01-1.536.272c-1.152.021-2.139-.374-2.96-1.184-.821-.811-1.221-1.792-1.2-2.944 0-.747.171-1.435.512-2.064a3.762 3.762 0 011.44-1.504 3.882 3.882 0 012.048-.56c1.216 0 2.165.378 2.848 1.136.693.757 1.04 1.749 1.04 2.976 0 .149-.011.33-.032.544zm-3.84-3.136c-.565 0-1.035.165-1.408.496-.395.32-.629.752-.704 1.296h4.176a1.83 1.83 0 00-.624-1.312c-.405-.32-.885-.48-1.44-.48zm5.684 6.592h1.776v-3.68h.08l3.36 3.68h2.4l-3.888-4.144 3.632-3.808h-2.352l-3.152 3.344h-.08v-3.344h-1.776v7.952zm12.672-7.952h4.224c.768 0 1.402.17 1.904.512.49.352.736.842.736 1.472 0 .832-.427 1.434-1.28 1.808.448.085.832.309 1.152.672.309.373.464.816.464 1.328 0 .768-.304 1.328-.912 1.68-.576.32-1.243.48-2 .48h-4.288v-7.952zm1.76 3.248h2.08c.384 0 .677-.086.88-.256a.867.867 0 00.32-.688.746.746 0 00-.32-.624c-.203-.171-.486-.256-.848-.256h-2.112v1.824zm0 3.248h2.272c.426 0 .757-.086.992-.256.234-.182.352-.438.352-.768 0-.299-.134-.528-.4-.688-.256-.16-.592-.24-1.008-.24h-2.208v1.952zm11.255-6.496v7.952h1.776v-6.352h3.824v-1.6h-5.6zm6.066 3.968c0-.768.192-1.472.576-2.112.405-.662.917-1.158 1.536-1.488a4.31 4.31 0 012.112-.528c.746 0 1.44.176 2.08.528.64.352 1.152.842 1.536 1.472.373.65.56 1.349.56 2.096.021 1.141-.39 2.128-1.232 2.96-.832.821-1.819 1.221-2.96 1.2a4.302 4.302 0 01-2.096-.544c-.619-.331-1.131-.827-1.536-1.488a4 4 0 01-.576-2.096zm1.824-.032a2.6 2.6 0 00.672 1.792c.448.501 1.024.752 1.728.752.693 0 1.264-.246 1.712-.736.437-.491.656-1.083.656-1.776 0-.715-.224-1.312-.672-1.792-.427-.491-.998-.736-1.712-.736-.704 0-1.28.24-1.728.72-.438.469-.656 1.061-.656 1.776zm8.805 4.016h5.952v2.464h1.744v-4.064h-1.008v-6.352h-6.112l-.448 3.744a4.814 4.814 0 01-.576 1.808c-.299.554-.72.832-1.264.832h-.032v4.032h1.744v-2.464zm1.856-4.048l.304-2.304h2.736v4.752h-4.208a2.56 2.56 0 00.784-1.056c.213-.448.341-.912.384-1.392zm-101.801-84.044V233h-2.7v-13.122h10.8V233h-2.7v-10.566h-5.4zm13.456 2.736h-.036v-1.116h-2.592v13.356h2.61v-5.4h.036c.636.78 1.518 1.17 2.646 1.17 1.272 0 2.322-.492 3.15-1.476.78-.912 1.17-1.974 1.17-3.186 0-1.176-.372-2.232-1.116-3.168-.804-.984-1.848-1.476-3.132-1.476-1.176 0-2.088.432-2.736 1.296zm-.072 3.348c0-.672.21-1.218.63-1.638.408-.42.93-.63 1.566-.63s1.164.21 1.584.63c.42.444.63.99.63 1.638 0 .672-.21 1.218-.63 1.638-.432.432-.96.648-1.584.648a2.134 2.134 0 01-1.566-.648c-.42-.42-.63-.966-.63-1.638zm8.364.036c0-.852.222-1.65.666-2.394a4.524 4.524 0 011.782-1.71 5.248 5.248 0 012.466-.612c.9 0 1.716.204 2.448.612a4.467 4.467 0 011.764 1.674c.433.696.648 1.488.648 2.376 0 .876-.215 1.674-.648 2.394a4.555 4.555 0 01-1.782 1.692 5.043 5.043 0 01-2.466.612c-.888 0-1.71-.198-2.466-.594a4.684 4.684 0 01-1.746-1.674 4.56 4.56 0 01-.666-2.376zm3.312-1.674c-.419.444-.63.99-.63 1.638 0 .648.211 1.194.63 1.638.433.432.961.648 1.584.648.612 0 1.134-.216 1.566-.648.42-.408.63-.954.63-1.638 0-.672-.21-1.218-.63-1.638a2.155 2.155 0 00-1.584-.648c-.612 0-1.133.216-1.566.648zm10.949 6.12l3.276-5.166h.018V233h2.574v-8.946h-2.61l-3.294 5.202h-.018v-5.202h-2.574V233h2.628zm14.426-.684c-.696.576-1.638.864-2.826.864-1.02 0-1.89-.246-2.61-.738-.732-.504-1.176-1.23-1.332-2.178l2.232-.558c.252.888.81 1.332 1.674 1.332.36 0 .684-.09.972-.27.276-.168.414-.42.414-.756 0-.312-.126-.546-.378-.702a1.916 1.916 0 00-.9-.216c-.348 0-.708.078-1.08.234l-.792-1.476 2.358-1.602h-4.266v-2.196h7.362v1.98l-2.178 1.458c.624.096 1.158.324 1.602.684.528.432.792 1.056.792 1.872 0 .948-.348 1.704-1.044 2.268zm8.456-8.262h-5.436V233h5.382c.912 0 1.692-.192 2.34-.576.648-.396.972-1.02.972-1.872 0-1.14-.576-1.884-1.728-2.232.96-.432 1.44-1.116 1.44-2.052 0-.816-.348-1.398-1.044-1.746a4.045 4.045 0 00-1.926-.468zm-.63 3.51h-2.25v-1.602h2.286c.312 0 .552.072.72.216a.682.682 0 01.252.54c0 .24-.084.444-.252.612-.168.156-.42.234-.756.234zm.216 3.384h-2.466v-1.656h2.394c.372 0 .654.078.846.234a.672.672 0 01.306.576c0 .564-.36.846-1.08.846zm5.037-2.394c0-.852.222-1.65.666-2.394a4.524 4.524 0 011.782-1.71 5.248 5.248 0 012.466-.612c.9 0 1.716.204 2.448.612a4.467 4.467 0 011.764 1.674c.432.696.648 1.488.648 2.376a4.564 4.564 0 01-2.43 4.086 5.043 5.043 0 01-2.466.612c-.888 0-1.71-.198-2.466-.594a4.684 4.684 0 01-1.746-1.674 4.56 4.56 0 01-.666-2.376zm3.312-1.674c-.42.444-.63.99-.63 1.638 0 .648.21 1.194.63 1.638.432.432.96.648 1.584.648.612 0 1.134-.216 1.566-.648.42-.408.63-.954.63-1.638 0-.672-.21-1.218-.63-1.638a2.155 2.155 0 00-1.584-.648c-.612 0-1.134.216-1.566.648zm7.161 3.852h-.018v5.022h2.43V233h6.228v2.754h2.43v-5.004h-1.134v-6.696h-7.596l-.36 3.528c-.096.948-.318 1.704-.666 2.268-.384.588-.822.882-1.314.882zm7.326-4.41v4.428h-4.176l-.018-.018c.816-.6 1.296-1.632 1.44-3.096l.126-1.314h2.628zm11.585 1.512L193.488 233h-2.628v-8.946h2.574v5.202h.018l3.294-5.202h2.61V233h-2.574v-5.166h-.018zM208.436 233l2.214-6.12h.036V233h2.574v-8.946h-3.582l-2.16 5.85-2.196-5.85h-3.546V233h2.556v-6.012h.018L206.6 233h1.836z" fill="#fff" fill-opacity=".8"/></svg>