<svg width="312" height="350" fill="none" xmlns="http://www.w3.org/2000/svg"><path fill-rule="evenodd" clip-rule="evenodd" d="M312 0H0v350h312V0zM150.114 46.45a5.725 5.725 0 10-4.28-1.907L132 60.788a5.7 5.7 0 00-2.467-.551 5.7 5.7 0 00-3.635 1.312l-14.251-8.101a5.725 5.725 0 10-10.61 1.607l-7.198 8.204a5.725 5.725 0 101.779 1.445l6.928-7.897a5.702 5.702 0 003.509 1.191 5.718 5.718 0 004.675-2.437l13.716 7.797a5.725 5.725 0 109.388-1.19l13.842-16.255c.74.347 1.566.54 2.438.537zm-67.99 63.128l12.055-.026.008 3.435-8.62.019.156 70.42 54.961-.122-.156-70.42-8.062.018-.007-3.435 11.497-.026.171 77.29-61.832.137-.171-77.29zm44.997-1.027l-25.98.058.01 4.862 25.981-.057-.011-4.863zm2.283 22.392l-13.74.031-.011-4.581 13.741-.03.01 4.58zm-32.891 12.955l33.206-.074-.01-4.58-33.206.074.01 4.58zm33.234 12.521l-33.206.074-.01-4.58 33.206-.074.01 4.58zm-33.178 12.67l33.206-.074-.01-4.58-33.206.073.01 4.581zm90.913-62.607l-.27.001-9.056.02c-.36.001-.698.17-.914.458l-24.694 32.93a1.718 1.718 0 01-2.749-2.06l24.695-32.931a4.578 4.578 0 013.654-1.832l9.056-.02.271-.001 9.615-.021c1.44-.004 2.8.671 3.668 1.826 3.834 5.107 19.673 26.276 23.785 32.949.481.781.95 1.525 1.402 2.244v.001c1.663 2.643 3.108 4.939 4.164 7.415 1.385 3.248 2.114 6.794 2.126 11.995.019 8.699-4.368 13.848-9.237 16.738-3.671 2.179-7.617 3.087-10.185 3.39v.125l-1.871.004h-.011l-46.167.102-2.331.005-.001-.183a27.311 27.311 0 01-4.366-.971c-2.849-.883-6.126-2.411-8.855-4.997a1.718 1.718 0 012.363-2.494c2.234 2.117 4.989 3.429 7.508 4.21 2.527.783 4.705.997 5.675.995l46.167-.102h.008c1.625-.006 6.203-.598 10.313-3.038 4.011-2.381 7.571-6.495 7.555-13.776-.011-4.844-.683-7.916-1.851-10.655-.939-2.202-2.195-4.2-3.825-6.794-.47-.748-.972-1.546-1.506-2.413-4.004-6.499-19.708-27.494-23.607-32.687a1.139 1.139 0 00-.914-.454l-9.615.021zm17.241 39.18c.021 9.327-7.524 16.906-16.852 16.926-9.327.021-16.906-7.524-16.926-16.852-.021-9.327 7.524-16.906 16.851-16.926 9.328-.021 16.906 7.524 16.927 16.852zm-3.435.007c.016 7.431-5.994 13.468-13.424 13.484-7.431.017-13.468-5.994-13.484-13.424-.017-7.431 5.993-13.468 13.424-13.484 7.43-.017 13.467 5.994 13.484 13.424zm-14.113-74.472a1.144 1.144 0 011.56-.003l4.409 4.087a4.58 4.58 0 006.242-.014l4.271-3.994a1.144 1.144 0 011.609.045l2.226 2.326c.365.382.421.964.136 1.41l-8.782 13.702a1.147 1.147 0 01-.962.527l-19.778.044c-.389.001-.752-.196-.964-.523l-8.843-13.663a1.143 1.143 0 01.13-1.41l2.215-2.336a1.145 1.145 0 011.609-.052l4.288 3.974a4.58 4.58 0 006.242-.013l4.392-4.107zm3.895-2.523a4.58 4.58 0 00-6.242.014l-4.391 4.107c-.439.41-1.12.412-1.56.003l-4.289-3.975a4.58 4.58 0 00-6.437.208l-2.215 2.336a4.58 4.58 0 00-.521 5.64l8.843 13.664a4.58 4.58 0 003.855 2.091l19.779-.043a4.581 4.581 0 003.846-2.11l8.782-13.702a4.58 4.58 0 00-.546-5.638l-2.225-2.326a4.58 4.58 0 00-6.438-.179l-4.271 3.994c-.439.41-1.12.412-1.56.003l-4.41-4.087zM175.131 97.35a2.29 2.29 0 012.285-2.295l20.611-.046a2.29 2.29 0 01.01 4.58l-20.611.046a2.29 2.29 0 01-2.295-2.285zm17.39 54.885c.834-.911 1.25-1.961 1.247-3.149-.002-1.158-.386-2.147-1.15-2.967-.809-.849-1.917-1.404-3.326-1.665l-.528-.109-.008-3.542c.954.277 1.549.943 1.786 1.999l2.946-.865c-.104-.938-.546-1.817-1.325-2.637-.809-.834-1.939-1.338-3.392-1.511l-.004-2.134-1.694.004.004 2.112a5.492 5.492 0 00-3.472 1.614c-.951.941-1.418 2.042-1.401 3.303.003 1.188.386 2.17 1.151 2.945.749.805 1.77 1.331 3.061 1.578l.726.13.008 3.608c-.675-.145-1.225-.437-1.651-.876-.427-.439-.692-.989-.796-1.649l-3.057.711c.238 1.422.82 2.55 1.746 3.384.926.82 2.166 1.294 3.721 1.422l.005 2.068 1.694-.004-.005-2.068c1.569-.164 2.807-.732 3.714-1.702zm-5.386-8.172l-.044-.022c-1.086-.188-1.629-.73-1.631-1.624-.001-.382.152-.727.459-1.035.308-.324.71-.537 1.209-.641l.007 3.322zm1.644 6.926l-.008-3.322c.514.102.918.306 1.212.614.308.292.463.629.464 1.011.001.41-.153.77-.46 1.079-.292.308-.695.515-1.208.618zM86.739 281.59c-3.066.007-5.575-.868-7.525-2.624-1.844-1.622-2.915-3.673-3.214-6.152l4.438-.81c.137 1.573.767 2.865 1.889 3.876 1.149 1.064 2.617 1.594 4.403 1.59 2.187-.005 3.852-.809 4.995-2.411.612-.828.916-1.816.913-2.962-.003-1.467-.539-2.653-1.607-3.557-1.096-.851-2.417-1.274-3.963-1.271-1.147.003-2.093.205-2.839.606l-2.168-3.395 8.582-8.259-13.76.031-.009-4.12 19.76-.044.009 3.84-7.984 7.577c2.64.128 4.776 1.003 6.406 2.626s2.422 3.582 2.373 5.875c.007 3.013-1.068 5.376-3.224 7.087-2.023 1.658-4.514 2.49-7.474 2.497zm15.529 3.645l.004 2.08c1.866-.271 3.358-1.154 4.474-2.65 1.144-1.469 1.687-3.163 1.629-5.083-.002-1.12-.311-2.066-.926-2.838-.589-.772-1.443-1.157-2.563-1.155-.906.002-1.639.271-2.198.805-.612.562-.917 1.269-.915 2.122.001.8.27 1.466.804 1.999.508.558 1.175.837 2.002.835.427-.001.8-.095 1.119-.282-.051 1.04-.382 1.934-.994 2.682-.638.801-1.45 1.296-2.436 1.485zm22.112-29.049l-15.56.035-.009-4.16 20.84-.047.008 3.76-13.343 25.43-5.28.012 13.344-25.03zm9.209 23.22c2.03 1.382 4.312 2.07 6.845 2.065 2.96-.007 5.451-.866 7.474-2.577 2.13-1.791 3.191-4.22 3.184-7.287-.006-2.827-.864-5.105-2.575-6.834-1.764-1.756-4.086-2.631-6.966-2.625-.8.002-1.6.07-2.399.205-1.36.27-2.505.806-3.437 1.608l1.783-7.844 12.24-.027-.009-4.12-15.48.034-3.367 14.928 4.163 1.591c1.41-1.604 3.222-2.408 5.435-2.413 1.6-.003 2.974.487 4.123 1.471 1.149 1.011 1.726 2.397 1.729 4.156.005 1.84-.646 3.255-1.95 4.245-1.198.909-2.49 1.365-3.877 1.368-1.253.003-2.494-.341-3.722-1.031-1.442-.824-2.259-2.155-2.449-3.995l-4.398.97c.406 2.692 1.624 4.73 3.653 6.112zm35.385 1.681l-4.32.01-.044-19.88 6.28-.014 5.911 14.267 5.729-14.293 6.32-.014.044 19.88-4.36.01-.033-14.96-6.047 14.973-3.28.008-6.233-14.827.033 14.84zm32.059-7.871l.982-8.082 6.76-.015.035 15.88 4.44-.01-.044-19.88-15.16.034-1.335 11.483c-.157 1.28-.474 2.307-.953 3.082-.557 1.014-1.516 1.523-2.876 1.526l.009 4h.12c2.293-.005 4.078-.582 5.356-1.732.559-.481 1.037-1.096 1.436-1.843.61-1.175 1.02-2.656 1.23-4.443zm22.574-.37l.018 8.12-4.44.01-.044-19.88 4.44-.01.017 7.88 9-.02-.017-7.88 4.44-.01.044 19.88-4.44.01-.018-8.12-9 .02zM123 310.281h5.952v2.464h1.744v-4.064h-1.008v-6.352h-6.112l-.448 3.744a4.808 4.808 0 01-.576 1.808c-.299.555-.72.832-1.264.832h-.032v4.032H123v-2.464zm1.856-4.048l.304-2.304h2.736v4.752h-4.208a2.55 2.55 0 00.784-1.056c.213-.448.341-.912.384-1.392zm6.749.064c0-.768.193-1.472.577-2.112.405-.662.917-1.157 1.535-1.488a4.31 4.31 0 012.112-.528 4.25 4.25 0 012.081.528 4.076 4.076 0 011.535 1.472c.374.651.56 1.349.56 2.096.022 1.141-.389 2.128-1.232 2.96-.832.821-1.818 1.221-2.959 1.2a4.295 4.295 0 01-2.097-.544c-.618-.331-1.13-.827-1.535-1.488a4.001 4.001 0 01-.577-2.096zm1.825-.032c0 .693.224 1.291.672 1.792.447.501 1.024.752 1.727.752.694 0 1.265-.245 1.713-.736.437-.491.656-1.083.656-1.776 0-.715-.225-1.312-.673-1.792-.426-.491-.997-.736-1.711-.736-.705 0-1.281.24-1.729.72-.437.469-.655 1.061-.655 1.776zm10.512.896l.4-3.232h2.704v6.352h1.776v-7.952h-6.064l-.544 4.592c-.064.512-.192.923-.384 1.232-.224.405-.608.608-1.152.608v1.6h.048c.918 0 1.632-.229 2.144-.688.224-.192.416-.437.576-.736.246-.469.411-1.061.496-1.776zm10.15-3.232l-.4 3.232c-.085.715-.25 1.307-.496 1.776-.16.299-.352.544-.576.736-.512.459-1.226.688-2.144.688h-.048v-1.6c.544 0 .928-.203 1.152-.608.192-.309.32-.72.384-1.232l.544-4.592h6.064v7.952h-1.776v-6.352h-2.704zm7.126 5.824c.502.448 1.142.672 1.92.672.448 0 .886-.096 1.312-.288.416-.192.758-.507 1.024-.944 0 .48.027.843.08 1.088h1.728c-.032-.32-.048-.747-.048-1.28v-3.792c0-.544-.09-1.014-.272-1.408-.49-1.088-1.482-1.632-2.976-1.632-.64 0-1.178.101-1.616.304a3.075 3.075 0 00-1.248.96c-.309.427-.49.827-.544 1.2l1.616.368a1.44 1.44 0 01.56-.96c.31-.245.699-.368 1.168-.368.491 0 .88.117 1.168.352.267.235.4.523.4.864 0 .448-.245.672-.736.672h-.992c-.629 0-1.216.107-1.76.32-1.013.395-1.525 1.099-1.536 2.112v.08c0 .683.251 1.243.752 1.68zm2.544-2.944h1.712v.256c0 .587-.176 1.056-.528 1.408-.352.352-.832.528-1.44.528-.373 0-.677-.096-.912-.288a1.01 1.01 0 01-.352-.8c0-.341.16-.613.48-.816.32-.192.667-.288 1.04-.288zm14.051-.528c0 .725-.16 1.397-.48 2.016a3.944 3.944 0 01-1.408 1.52 3.86 3.86 0 01-2.064.592c-.555 0-1.141-.176-1.76-.528a2.273 2.273 0 01-.816-.768v5.088h-1.776v-11.872h1.728v1.232a2.59 2.59 0 011.328-1.104c.491-.192.939-.288 1.344-.288 1.184 0 2.144.437 2.88 1.312.683.832 1.024 1.765 1.024 2.8zm-5.888-1.776a2.599 2.599 0 00-.672 1.792c0 .693.224 1.285.672 1.776.448.48 1.019.72 1.712.72.704 0 1.28-.24 1.728-.72.437-.48.656-1.072.656-1.776 0-.715-.219-1.312-.656-1.792-.448-.48-1.024-.72-1.728-.72-.693 0-1.264.24-1.712.72zm7.757-.32a4.029 4.029 0 00-.577 2.112c0 .757.193 1.456.577 2.096.405.661.917 1.157 1.535 1.488.662.363 1.36.544 2.097.544 1.141.021 2.127-.379 2.959-1.2.843-.832 1.254-1.819 1.232-2.96 0-.747-.186-1.445-.56-2.096a4.069 4.069 0 00-1.535-1.472 4.25 4.25 0 00-2.081-.528 4.31 4.31 0 00-2.112.528c-.618.331-1.13.826-1.535 1.488zm1.92 3.872a2.599 2.599 0 01-.672-1.792c0-.715.218-1.307.656-1.776.448-.48 1.023-.72 1.728-.72.714 0 1.285.245 1.711.736.448.48.673 1.077.673 1.792 0 .693-.219 1.285-.656 1.776-.448.491-1.019.736-1.713.736-.703 0-1.28-.251-1.727-.752zm7.735-5.728h4.224c.768 0 1.403.171 1.904.512.491.352.736.843.736 1.472 0 .832-.427 1.435-1.28 1.808.448.085.832.309 1.152.672.309.373.464.816.464 1.328 0 .768-.304 1.328-.912 1.68-.576.32-1.243.48-2 .48h-4.288v-7.952zm1.76 3.248h2.08c.384 0 .677-.085.88-.256a.865.865 0 00.32-.688.746.746 0 00-.32-.624c-.203-.171-.485-.256-.848-.256h-2.112v1.824zm0 3.248h2.272c.427 0 .757-.085.992-.256.235-.181.352-.437.352-.768 0-.299-.133-.528-.4-.688-.256-.16-.592-.24-1.008-.24h-2.208v1.952zM89.569 219.633v13.122h2.7v-10.548h5.526v-2.574h-8.226zm4.426 8.676c0-.852.222-1.65.666-2.394a4.524 4.524 0 011.782-1.71 5.248 5.248 0 012.466-.612c.9 0 1.716.204 2.448.612a4.467 4.467 0 011.764 1.674c.432.696.648 1.488.648 2.376a4.564 4.564 0 01-2.43 4.086 5.043 5.043 0 01-2.466.612c-.888 0-1.71-.198-2.466-.594a4.684 4.684 0 01-1.746-1.674 4.56 4.56 0 01-.666-2.376zm3.312-1.674c-.42.444-.63.99-.63 1.638 0 .648.21 1.194.63 1.638.432.432.96.648 1.584.648.612 0 1.134-.216 1.566-.648.42-.408.63-.954.63-1.638 0-.672-.21-1.218-.63-1.638a2.154 2.154 0 00-1.584-.648c-.612 0-1.134.216-1.566.648zm7.161 3.852h-.018v5.022h2.43v-2.754h6.228v2.754h2.43v-5.004h-1.134v-6.696h-7.596l-.36 3.528c-.096.948-.318 1.704-.666 2.268-.384.588-.822.882-1.314.882zm7.326-4.41v4.428h-4.176l-.018-.018c.816-.6 1.296-1.632 1.44-3.096l.126-1.314h2.628zm4.684 2.232c0-.852.222-1.65.666-2.394a4.524 4.524 0 011.782-1.71 5.248 5.248 0 012.466-.612c.9 0 1.716.204 2.448.612a4.467 4.467 0 011.764 1.674c.432.696.648 1.488.648 2.376a4.564 4.564 0 01-2.43 4.086 5.043 5.043 0 01-2.466.612c-.888 0-1.71-.198-2.466-.594a4.684 4.684 0 01-1.746-1.674 4.56 4.56 0 01-.666-2.376zm3.312-1.674c-.42.444-.63.99-.63 1.638 0 .648.21 1.194.63 1.638.432.432.96.648 1.584.648.612 0 1.134-.216 1.566-.648.42-.408.63-.954.63-1.638 0-.672-.21-1.218-.63-1.638a2.155 2.155 0 00-1.584-.648c-.612 0-1.134.216-1.566.648zm13.756-2.826h-5.436v8.946h5.382c.912 0 1.692-.192 2.34-.576.648-.396.972-1.02.972-1.872 0-1.14-.576-1.884-1.728-2.232.96-.432 1.44-1.116 1.44-2.052 0-.816-.348-1.398-1.044-1.746a4.045 4.045 0 00-1.926-.468zm-.63 3.51h-2.25v-1.602h2.286c.312 0 .552.072.72.216a.682.682 0 01.252.54c0 .24-.084.444-.252.612-.168.156-.42.234-.756.234zm.216 3.384h-2.466v-1.656h2.394c.372 0 .654.078.846.234a.672.672 0 01.306.576c0 .564-.36.846-1.08.846zm5.037-2.394c0-.852.222-1.65.666-2.394a4.524 4.524 0 011.782-1.71 5.248 5.248 0 012.466-.612c.9 0 1.716.204 2.448.612a4.467 4.467 0 011.764 1.674c.432.696.648 1.488.648 2.376a4.564 4.564 0 01-2.43 4.086 5.043 5.043 0 01-2.466.612c-.888 0-1.71-.198-2.466-.594a4.684 4.684 0 01-1.746-1.674 4.56 4.56 0 01-.666-2.376zm3.312-1.674c-.42.444-.63.99-.63 1.638 0 .648.21 1.194.63 1.638.432.432.96.648 1.584.648.612 0 1.134-.216 1.566-.648.42-.408.63-.954.63-1.638 0-.672-.21-1.218-.63-1.638a2.155 2.155 0 00-1.584-.648c-.612 0-1.134.216-1.566.648zm10.39-5.058c.588.552 1.32.828 2.196.828.864 0 1.584-.276 2.16-.828.552-.54.906-1.29 1.062-2.25l-1.512-.27c-.324 1.032-.894 1.548-1.71 1.548-.84 0-1.416-.516-1.728-1.548l-1.53.27c.144.936.498 1.686 1.062 2.25zm.558 11.178l3.276-5.166h.018v5.166h2.574v-8.946h-2.61l-3.294 5.202h-.018v-5.202h-2.574v8.946h2.628zm11.949-4.446c0-.852.222-1.65.666-2.394a4.524 4.524 0 011.782-1.71 5.248 5.248 0 012.466-.612c.9 0 1.716.204 2.448.612a4.467 4.467 0 011.764 1.674c.432.696.648 1.488.648 2.376a4.564 4.564 0 01-2.43 4.086 5.043 5.043 0 01-2.466.612c-.888 0-1.71-.198-2.466-.594a4.684 4.684 0 01-1.746-1.674 4.56 4.56 0 01-.666-2.376zm3.312-1.674c-.42.444-.63.99-.63 1.638 0 .648.21 1.194.63 1.638.432.432.96.648 1.584.648.612 0 1.134-.216 1.566-.648.42-.408.63-.954.63-1.638 0-.672-.21-1.218-.63-1.638a2.155 2.155 0 00-1.584-.648c-.612 0-1.134.216-1.566.648zm9.364 4.842c.924.972 2.112 1.458 3.564 1.458 1.404 0 2.556-.444 3.456-1.332.9-.876 1.35-2.04 1.35-3.492 0-1.272-.39-2.328-1.17-3.168-.792-.828-1.758-1.242-2.898-1.242-.372 0-.828.078-1.368.234-.768.204-1.452.66-2.052 1.368l-.072-.018c.036-.408.216-.864.54-1.368.204-.288.444-.564.72-.828.684-.6 1.614-1.014 2.79-1.242l3.078-.594-.45-2.232-2.628.486c-1.188.216-2.226.564-3.114 1.044a5.697 5.697 0 00-1.854 1.602c-.408.552-.714 1.206-.918 1.962a6.608 6.608 0 00-.216 1.08c-.072.66-.108 1.38-.108 2.16 0 1.776.45 3.15 1.35 4.122zm2.016-4.86c.42-.408.93-.612 1.53-.612.576 0 1.092.198 1.548.594.444.396.666.954.666 1.674 0 .696-.21 1.254-.63 1.674-.42.42-.942.63-1.566.63-.6 0-1.122-.21-1.566-.63-.432-.408-.648-.972-.648-1.692 0-.696.222-1.242.666-1.638zm7.667 1.692c0-.852.222-1.65.666-2.394a4.524 4.524 0 011.782-1.71 5.248 5.248 0 012.466-.612c.9 0 1.716.204 2.448.612a4.467 4.467 0 011.764 1.674c.432.696.648 1.488.648 2.376a4.564 4.564 0 01-2.43 4.086 5.043 5.043 0 01-2.466.612c-.888 0-1.71-.198-2.466-.594a4.684 4.684 0 01-1.746-1.674 4.56 4.56 0 01-.666-2.376zm3.312-1.674c-.42.444-.63.99-.63 1.638 0 .648.21 1.194.63 1.638.432.432.96.648 1.584.648.612 0 1.134-.216 1.566-.648.42-.408.63-.954.63-1.638 0-.672-.21-1.218-.63-1.638a2.155 2.155 0 00-1.584-.648c-.612 0-1.134.216-1.566.648zm10.949-1.71h-.036v-1.116h-2.592v13.356h2.61v-5.4h.036c.636.78 1.518 1.17 2.646 1.17 1.272 0 2.322-.492 3.15-1.476.78-.912 1.17-1.974 1.17-3.186 0-1.176-.372-2.232-1.116-3.168-.804-.984-1.848-1.476-3.132-1.476-1.176 0-2.088.432-2.736 1.296zm-.072 3.348c0-.672.21-1.218.63-1.638.408-.42.93-.63 1.566-.63s1.164.21 1.584.63c.42.444.63.99.63 1.638 0 .672-.21 1.218-.63 1.638-.432.432-.96.648-1.584.648a2.134 2.134 0 01-1.566-.648c-.42-.42-.63-.966-.63-1.638zm8.364.036c0-.852.222-1.65.666-2.394a4.524 4.524 0 011.782-1.71 5.248 5.248 0 012.466-.612c.9 0 1.716.204 2.448.612a4.467 4.467 0 011.764 1.674c.432.696.648 1.488.648 2.376a4.564 4.564 0 01-2.43 4.086 5.043 5.043 0 01-2.466.612c-.888 0-1.71-.198-2.466-.594a4.684 4.684 0 01-1.746-1.674 4.56 4.56 0 01-.666-2.376zm3.312-1.674c-.42.444-.63.99-.63 1.638 0 .648.21 1.194.63 1.638.432.432.96.648 1.584.648.612 0 1.134-.216 1.566-.648.42-.408.63-.954.63-1.638 0-.672-.21-1.218-.63-1.638a2.155 2.155 0 00-1.584-.648c-.612 0-1.134.216-1.566.648zm9.664-.558v6.678h2.628v-6.678h2.7v-2.268h-8.028v2.268h2.7z" fill="#fff" fill-opacity=".8"/></svg>