<svg width="33" height="33" fill="none" xmlns="http://www.w3.org/2000/svg"><path opacity=".1" fill-rule="evenodd" clip-rule="evenodd" d="M3 16.5C3 23.956 9.044 30 16.5 30S30 23.956 30 16.5 23.956 3 16.5 3 3 9.044 3 16.5zM16.5 33C7.387 33 0 25.613 0 16.5S7.387 0 16.5 0 33 7.387 33 16.5 25.613 33 16.5 33z" fill="#fff"/><path opacity=".1" d="M16.5 1.5c8.284 0 15 6.716 15 15 0 8.284-6.716 15-15 15-8.284 0-15-6.716-15-15 0-8.284 6.716-15 15-15z" stroke="#F7931D" stroke-width="2"/><path d="M2.5 16.5c0-7.396 5.735-13.452 13-13.965.55-.039 1-.483 1-1.035 0-.552-.449-1.003-1-.97C7.13 1.048.5 8 .5 16.5c0 8.837 7.163 16 16 16v-2c-7.732 0-14-6.268-14-14z" fill="url(#paint0_linear)"/><defs><linearGradient id="paint0_linear" x1="7.5" y1="1.5" x2="14.5" y2="29.5" gradientUnits="userSpaceOnUse"><stop stop-color="#F7931D"/><stop offset="1" stop-color="#F7931D" stop-opacity="0"/></linearGradient></defs></svg>