<svg width="20" height="20" fill="none" xmlns="http://www.w3.org/2000/svg"><path fill-rule="evenodd" clip-rule="evenodd" d="M9.274 4.008l-1.104.02-.622.018-.792.028-.426.02-.419.023-.403.026-.382.03-.182.016-.34.036a5.632 5.632 0 00-.78.133A2.12 2.12 0 002.35 5.874c-.066.253-.12.558-.163.886l-.04.335-.034.344-.028.346-.023.343-.026.494-.018.45-.012.494-.005.493.005.376.012.493.018.45.026.494.023.343.028.347.034.344.019.169.043.328c.04.266.086.513.14.723a2.12 2.12 0 001.477 1.516c.187.052.456.096.78.134l.339.036.182.016.382.03.403.026.419.023.426.02.556.02.927.026 1.262.022 1 .005.566-.004 1.213-.019 1.104-.03.556-.02.426-.02.418-.023.598-.04.37-.032.34-.036c.323-.038.591-.082.779-.134a2.12 2.12 0 001.476-1.515 7.53 7.53 0 00.163-.886l.04-.335.034-.344.028-.347.023-.343.026-.494.017-.45.013-.493.005-.494-.005-.375-.013-.494-.017-.45-.026-.494-.023-.343-.028-.346-.034-.344a16.135 16.135 0 00-.02-.17l-.043-.327a6.882 6.882 0 00-.14-.724 2.12 2.12 0 00-1.476-1.516 5.632 5.632 0 00-.78-.133l-.34-.036-.18-.016-.383-.03-.404-.026-.418-.023-.792-.034-.426-.014-1.016-.026-.71-.012L10.372 4l-1.099.008zm-.491 8.862V7.652l4.174 2.61-4.174 2.608z" fill="#fff"/></svg>